G75*
G70*
%OFA0B0*%
%FSLAX24Y24*%
%IPPOS*%
%LPD*%
%AMOC8*
5,1,8,0,0,1.08239X$1,22.5*
%
%ADD10C,0.0040*%
%ADD11C,0.0060*%
%ADD12C,0.0030*%
%ADD13C,0.0000*%
%ADD14C,0.0050*%
%ADD15C,0.0080*%
D10*
X010495Y004272D02*
X010572Y004195D01*
X010725Y004195D01*
X010802Y004272D01*
X010956Y004272D02*
X010956Y004655D01*
X010802Y004578D02*
X010802Y004502D01*
X010725Y004425D01*
X010572Y004425D01*
X010495Y004348D01*
X010495Y004272D01*
X010495Y004578D02*
X010572Y004655D01*
X010725Y004655D01*
X010802Y004578D01*
X010956Y004272D02*
X011032Y004195D01*
X011186Y004195D01*
X011263Y004272D01*
X011263Y004655D01*
X011416Y004578D02*
X011416Y004502D01*
X011493Y004425D01*
X011723Y004425D01*
X011723Y004195D02*
X011723Y004655D01*
X011493Y004655D01*
X011416Y004578D01*
X011493Y004425D02*
X011416Y004348D01*
X011416Y004272D01*
X011493Y004195D01*
X011723Y004195D01*
X012337Y004195D02*
X012337Y004425D01*
X012414Y004502D01*
X012644Y004502D01*
X012644Y004195D01*
X012797Y004272D02*
X012797Y004425D01*
X012874Y004502D01*
X013027Y004502D01*
X013104Y004425D01*
X013104Y004272D01*
X013027Y004195D01*
X012874Y004195D01*
X012797Y004272D01*
X013258Y004195D02*
X013411Y004195D01*
X013334Y004195D02*
X013334Y004502D01*
X013411Y004502D01*
X013565Y004502D02*
X013795Y004502D01*
X013871Y004425D01*
X013795Y004348D01*
X013641Y004348D01*
X013565Y004272D01*
X013641Y004195D01*
X013871Y004195D01*
X014025Y004195D02*
X014025Y004425D01*
X014102Y004502D01*
X014332Y004502D01*
X014332Y004195D01*
X014485Y004195D02*
X014716Y004195D01*
X014792Y004272D01*
X014716Y004348D01*
X014485Y004348D01*
X014485Y004425D02*
X014485Y004195D01*
X014485Y004425D02*
X014562Y004502D01*
X014716Y004502D01*
X014946Y004425D02*
X015022Y004502D01*
X015253Y004502D01*
X015253Y004041D01*
X015253Y004195D02*
X015022Y004195D01*
X014946Y004272D01*
X014946Y004425D01*
X015406Y004502D02*
X015713Y004195D01*
X015866Y004195D02*
X016173Y004195D01*
X016173Y004655D01*
X015866Y004655D01*
X015713Y004502D02*
X015406Y004195D01*
X016020Y004425D02*
X016173Y004425D01*
X016787Y004195D02*
X016787Y004655D01*
X017094Y004655D02*
X016787Y004195D01*
X017094Y004195D02*
X017094Y004655D01*
X017248Y004655D02*
X017401Y004655D01*
X017324Y004655D02*
X017324Y004195D01*
X017248Y004195D02*
X017401Y004195D01*
X017555Y004425D02*
X017631Y004348D01*
X017862Y004348D01*
X017862Y004195D02*
X017862Y004655D01*
X017631Y004655D01*
X017555Y004578D01*
X017555Y004425D01*
X018015Y004425D02*
X018322Y004425D01*
X018475Y004578D02*
X018782Y004272D01*
X018706Y004195D01*
X018552Y004195D01*
X018475Y004272D01*
X018475Y004578D01*
X018552Y004655D01*
X018706Y004655D01*
X018782Y004578D01*
X018782Y004272D01*
X018936Y004272D02*
X019013Y004195D01*
X019166Y004195D01*
X019243Y004272D01*
X019243Y004425D02*
X019089Y004502D01*
X019013Y004502D01*
X018936Y004425D01*
X018936Y004272D01*
X019243Y004425D02*
X019243Y004655D01*
X018936Y004655D01*
X019857Y004655D02*
X020163Y004195D01*
X020317Y004272D02*
X020394Y004195D01*
X020547Y004195D01*
X020624Y004272D01*
X020547Y004425D02*
X020394Y004425D01*
X020317Y004348D01*
X020317Y004272D01*
X020547Y004425D02*
X020624Y004502D01*
X020624Y004578D01*
X020547Y004655D01*
X020394Y004655D01*
X020317Y004578D01*
X020163Y004655D02*
X019857Y004195D01*
X020777Y004195D02*
X020777Y004655D01*
X020931Y004502D01*
X021084Y004655D01*
X021084Y004195D01*
X021698Y004272D02*
X021698Y004425D01*
X021775Y004502D01*
X021928Y004502D01*
X022005Y004425D01*
X022005Y004272D01*
X021928Y004195D01*
X021775Y004195D01*
X021698Y004272D01*
X022159Y004272D02*
X022159Y004425D01*
X022235Y004502D01*
X022389Y004502D01*
X022465Y004425D01*
X022465Y004272D01*
X022389Y004195D01*
X022235Y004195D01*
X022159Y004272D01*
X022619Y004272D02*
X022619Y004502D01*
X022619Y004272D02*
X022696Y004195D01*
X022772Y004272D01*
X022849Y004195D01*
X022926Y004272D01*
X022926Y004502D01*
X023079Y004425D02*
X023156Y004502D01*
X023310Y004502D01*
X023386Y004425D01*
X023386Y004272D01*
X023310Y004195D01*
X023156Y004195D01*
X023079Y004348D02*
X023386Y004348D01*
X023540Y004348D02*
X023770Y004348D01*
X023847Y004272D01*
X023770Y004195D01*
X023540Y004195D01*
X023540Y004425D01*
X023616Y004502D01*
X023770Y004502D01*
X024000Y004578D02*
X024077Y004655D01*
X024307Y004655D01*
X024307Y004195D01*
X024077Y004195D01*
X024000Y004272D01*
X024000Y004578D01*
X023079Y004425D02*
X023079Y004348D01*
X024921Y004655D02*
X025228Y004195D01*
X025842Y004195D02*
X025918Y004272D01*
X025918Y004578D01*
X025842Y004502D02*
X025995Y004502D01*
X026149Y004425D02*
X026149Y004195D01*
X026149Y004425D02*
X026225Y004502D01*
X026456Y004502D01*
X026456Y004195D01*
X026609Y004348D02*
X026916Y004348D01*
X026916Y004272D02*
X026916Y004425D01*
X026839Y004502D01*
X026686Y004502D01*
X026609Y004425D01*
X026609Y004348D01*
X026686Y004195D02*
X026839Y004195D01*
X026916Y004272D01*
X027069Y004195D02*
X027223Y004195D01*
X027146Y004195D02*
X027146Y004655D01*
X027223Y004655D01*
X027376Y004425D02*
X027376Y004195D01*
X027606Y004195D01*
X027683Y004272D01*
X027606Y004348D01*
X027376Y004348D01*
X027376Y004425D02*
X027453Y004502D01*
X027606Y004502D01*
X027837Y004655D02*
X028144Y004655D01*
X027990Y004655D02*
X027990Y004195D01*
X030217Y007927D02*
X030140Y008004D01*
X030140Y008388D01*
X030140Y008541D02*
X030140Y008618D01*
X029910Y008388D02*
X029756Y008388D01*
X029679Y008311D01*
X029679Y008234D01*
X029986Y008234D01*
X029986Y008157D02*
X029986Y008311D01*
X029910Y008388D01*
X029986Y008157D02*
X029910Y008081D01*
X029756Y008081D01*
X029526Y008157D02*
X029449Y008081D01*
X029219Y008081D01*
X028989Y008157D02*
X028989Y008464D01*
X029066Y008388D02*
X028912Y008388D01*
X028989Y008157D02*
X028912Y008081D01*
X029219Y008388D02*
X029449Y008388D01*
X029526Y008311D01*
X029526Y008157D01*
X030217Y007927D02*
X030293Y007927D01*
X030447Y008157D02*
X030447Y008311D01*
X030524Y008388D01*
X030677Y008388D01*
X030754Y008311D01*
X030754Y008157D01*
X030677Y008081D01*
X030524Y008081D01*
X030447Y008157D01*
X030907Y008388D02*
X030984Y008388D01*
X031137Y008234D01*
X031137Y008081D02*
X031137Y008388D01*
X031291Y008311D02*
X031368Y008388D01*
X031598Y008388D01*
X031598Y007927D01*
X031598Y008081D02*
X031368Y008081D01*
X031291Y008157D01*
X031291Y008311D01*
X032212Y008081D02*
X032365Y008081D01*
X032288Y008081D02*
X032288Y008541D01*
X032365Y008541D01*
X032595Y008388D02*
X032519Y008311D01*
X032519Y008081D01*
X032749Y008081D01*
X032825Y008157D01*
X032749Y008234D01*
X032519Y008234D01*
X032595Y008388D02*
X032749Y008388D01*
X033056Y008388D02*
X033056Y008081D01*
X033132Y008081D02*
X032979Y008081D01*
X033286Y008081D02*
X033516Y008081D01*
X033593Y008157D01*
X033593Y008311D01*
X033516Y008388D01*
X033286Y008388D01*
X033132Y008388D02*
X033056Y008388D01*
X033056Y008541D02*
X033056Y008618D01*
X033746Y008388D02*
X033823Y008388D01*
X033976Y008234D01*
X033976Y008081D02*
X033976Y008388D01*
X034130Y008311D02*
X034207Y008388D01*
X034360Y008388D01*
X034437Y008311D01*
X034437Y008157D01*
X034360Y008081D01*
X034207Y008081D01*
X034130Y008234D02*
X034437Y008234D01*
X034590Y008311D02*
X034590Y008081D01*
X034744Y008081D02*
X034744Y008311D01*
X034667Y008388D01*
X034590Y008311D01*
X034744Y008311D02*
X034821Y008388D01*
X034897Y008388D01*
X034897Y008081D01*
X035051Y008081D02*
X035051Y008311D01*
X035127Y008388D01*
X035204Y008311D01*
X035204Y008081D01*
X035358Y008081D02*
X035358Y008388D01*
X035281Y008388D01*
X035204Y008311D01*
X035511Y008311D02*
X035588Y008388D01*
X035741Y008388D01*
X035818Y008311D01*
X035818Y008157D01*
X035741Y008081D01*
X035588Y008081D01*
X035511Y008157D01*
X035511Y008311D01*
X035972Y008388D02*
X036202Y008388D01*
X036278Y008311D01*
X036278Y008157D01*
X036202Y008081D01*
X035972Y008081D01*
X036892Y008081D02*
X036892Y008311D01*
X036969Y008388D01*
X037199Y008388D01*
X037199Y008081D01*
X037353Y008157D02*
X037353Y008311D01*
X037429Y008388D01*
X037583Y008388D01*
X037660Y008311D01*
X037660Y008157D01*
X037583Y008081D01*
X037429Y008081D01*
X037353Y008157D01*
X037813Y008081D02*
X037813Y008541D01*
X038120Y008541D02*
X037813Y008081D01*
X038120Y008081D02*
X038120Y008541D01*
X034130Y008311D02*
X034130Y008234D01*
X021639Y017982D02*
X021639Y018502D01*
X021379Y018502D01*
X021292Y018416D01*
X021292Y018242D01*
X021379Y018155D01*
X021639Y018155D01*
X021808Y018242D02*
X021808Y018676D01*
X022155Y018676D02*
X022155Y018242D01*
X022068Y018155D01*
X021895Y018155D01*
X021808Y018242D01*
X022839Y018416D02*
X023186Y018416D01*
X023870Y018676D02*
X023870Y018155D01*
X024217Y018155D02*
X024217Y018676D01*
X024044Y018502D01*
X023870Y018676D01*
X024386Y018589D02*
X024386Y018242D01*
X024473Y018155D01*
X024646Y018155D01*
X024733Y018242D01*
X024733Y018589D01*
X024646Y018676D01*
X024473Y018676D01*
X024386Y018589D01*
X024902Y018589D02*
X024902Y018416D01*
X024989Y018329D01*
X025249Y018329D01*
X025249Y018155D02*
X025249Y018676D01*
X024989Y018676D01*
X024902Y018589D01*
X025075Y018329D02*
X024902Y018155D01*
X025933Y018155D02*
X026280Y018155D01*
X026280Y018676D01*
X025933Y018676D01*
X026107Y018416D02*
X026280Y018416D01*
X026449Y018155D02*
X026796Y018155D01*
X026796Y018676D01*
X026964Y018589D02*
X026964Y018416D01*
X027051Y018329D01*
X027311Y018329D01*
X027311Y018155D02*
X027311Y018676D01*
X027051Y018676D01*
X026964Y018589D01*
X027480Y018676D02*
X027480Y018155D01*
X027827Y018155D02*
X027827Y018676D01*
X027653Y018502D01*
X027480Y018676D01*
X027996Y018502D02*
X027996Y018155D01*
X027996Y018416D02*
X028343Y018416D01*
X028343Y018502D02*
X028343Y018155D01*
X028511Y018242D02*
X028598Y018155D01*
X028771Y018155D01*
X028858Y018242D01*
X028771Y018416D02*
X028598Y018416D01*
X028511Y018329D01*
X028511Y018242D01*
X028343Y018502D02*
X028169Y018676D01*
X027996Y018502D01*
X028511Y018589D02*
X028598Y018676D01*
X028771Y018676D01*
X028858Y018589D01*
X028858Y018502D01*
X028771Y018416D01*
X029544Y018502D02*
X029718Y018502D01*
X029631Y018589D02*
X029631Y018242D01*
X029544Y018155D01*
X029888Y018155D02*
X030061Y018155D01*
X029975Y018155D02*
X029975Y018502D01*
X030061Y018502D01*
X030230Y018416D02*
X030317Y018502D01*
X030577Y018502D01*
X030577Y018676D02*
X030577Y018155D01*
X030317Y018155D01*
X030230Y018242D01*
X030230Y018416D01*
X029975Y018676D02*
X029975Y018763D01*
X030746Y018676D02*
X030746Y018155D01*
X031093Y018155D02*
X031093Y018676D01*
X030919Y018502D01*
X030746Y018676D01*
X031261Y018676D02*
X031435Y018589D01*
X031608Y018416D01*
X031348Y018416D01*
X031261Y018329D01*
X031261Y018242D01*
X031348Y018155D01*
X031522Y018155D01*
X031608Y018242D01*
X031608Y018416D01*
X031777Y018155D02*
X032124Y018155D01*
X031950Y018155D02*
X031950Y018676D01*
X032124Y018502D01*
X020608Y018502D02*
X020435Y018502D01*
X020521Y018589D02*
X020521Y018242D01*
X020435Y018155D01*
X020264Y018242D02*
X020177Y018155D01*
X020004Y018155D01*
X019917Y018242D01*
X019917Y018416D01*
X020004Y018502D01*
X020177Y018502D01*
X020264Y018416D01*
X020264Y018242D01*
X019233Y018242D02*
X019233Y018329D01*
X019146Y018416D01*
X018973Y018416D01*
X018886Y018329D01*
X018886Y018242D01*
X018973Y018155D01*
X019146Y018155D01*
X019233Y018242D01*
X019146Y018416D02*
X019233Y018502D01*
X019233Y018589D01*
X019146Y018676D01*
X018973Y018676D01*
X018886Y018589D01*
X018886Y018502D01*
X018973Y018416D01*
X018717Y018676D02*
X018544Y018502D01*
X018370Y018676D01*
X018370Y018155D01*
X018202Y018155D02*
X017941Y018155D01*
X017855Y018242D01*
X017855Y018416D01*
X017941Y018502D01*
X018202Y018502D01*
X018202Y018676D02*
X018202Y018155D01*
X018717Y018155D02*
X018717Y018676D01*
X017686Y018502D02*
X017599Y018502D01*
X017599Y018155D01*
X017513Y018155D02*
X017686Y018155D01*
X017256Y018242D02*
X017256Y018589D01*
X017342Y018502D02*
X017169Y018502D01*
X017256Y018242D02*
X017169Y018155D01*
X017599Y018676D02*
X017599Y018763D01*
X016483Y018589D02*
X016483Y018502D01*
X016396Y018416D01*
X016223Y018416D01*
X016136Y018329D01*
X016136Y018242D01*
X016223Y018155D01*
X016396Y018155D01*
X016483Y018242D01*
X016483Y018589D02*
X016396Y018676D01*
X016223Y018676D01*
X016136Y018589D01*
X015967Y018676D02*
X015707Y018676D01*
X015620Y018589D01*
X015620Y018416D01*
X015707Y018329D01*
X015967Y018329D01*
X015794Y018329D02*
X015620Y018155D01*
X015452Y018155D02*
X015452Y018502D01*
X015278Y018676D01*
X015105Y018502D01*
X015105Y018155D01*
X014936Y018155D02*
X014936Y018676D01*
X014762Y018502D01*
X014589Y018676D01*
X014589Y018155D01*
X015105Y018416D02*
X015452Y018416D01*
X015967Y018676D02*
X015967Y018155D01*
X015050Y021955D02*
X014589Y021955D01*
X014743Y021955D02*
X015050Y022262D01*
X015050Y022415D02*
X014589Y022415D01*
X014589Y022262D02*
X014819Y022031D01*
X015050Y022415D02*
X014896Y022569D01*
X015050Y022722D01*
X014589Y022722D01*
X014666Y022875D02*
X014589Y022952D01*
X014589Y023106D01*
X014666Y023182D01*
X014743Y023182D01*
X014819Y023106D01*
X014819Y022875D01*
X014666Y022875D01*
X014819Y022875D02*
X014973Y023029D01*
X015050Y023182D01*
X014973Y023336D02*
X014896Y023336D01*
X014819Y023413D01*
X014819Y023566D01*
X014743Y023643D01*
X014666Y023643D01*
X014589Y023566D01*
X014589Y023413D01*
X014666Y023336D01*
X014743Y023336D01*
X014819Y023413D01*
X014819Y023566D02*
X014896Y023643D01*
X014973Y023643D01*
X015050Y023566D01*
X015050Y023413D01*
X014973Y023336D01*
X014819Y023796D02*
X014819Y024103D01*
X014666Y024257D02*
X014973Y024257D01*
X015050Y024333D01*
X015050Y024487D01*
X014973Y024564D01*
X014666Y024257D01*
X014589Y024333D01*
X014589Y024487D01*
X014666Y024564D01*
X014973Y024564D01*
X014973Y024717D02*
X014666Y024717D01*
X014973Y025024D01*
X014666Y025024D01*
X014589Y024947D01*
X014589Y024794D01*
X014666Y024717D01*
X014973Y024717D02*
X015050Y024794D01*
X015050Y024947D01*
X014973Y025024D01*
X014973Y025177D02*
X015050Y025254D01*
X015050Y025408D01*
X014973Y025484D01*
X014666Y025177D01*
X014589Y025254D01*
X014589Y025408D01*
X014666Y025484D01*
X014973Y025484D01*
X014896Y025638D02*
X014589Y025638D01*
X014819Y025638D02*
X014819Y025945D01*
X014896Y025945D02*
X014589Y025945D01*
X014589Y026098D02*
X014589Y026405D01*
X014666Y026559D02*
X014589Y026635D01*
X014589Y026789D01*
X014666Y026865D01*
X014819Y026865D01*
X014819Y026712D01*
X014666Y026559D02*
X014973Y026559D01*
X015050Y026635D01*
X015050Y026789D01*
X014973Y026865D01*
X015050Y026098D02*
X014589Y026098D01*
X014896Y025945D02*
X015050Y025791D01*
X014896Y025638D01*
X014973Y025177D02*
X014666Y025177D01*
X014589Y024026D02*
X015050Y024026D01*
X014819Y023796D01*
X007916Y023995D02*
X007685Y023765D01*
X007685Y024072D01*
X007532Y024225D02*
X007839Y024532D01*
X007532Y024532D01*
X007455Y024455D01*
X007455Y024302D01*
X007532Y024225D01*
X007839Y024225D01*
X007916Y024302D01*
X007916Y024455D01*
X007839Y024532D01*
X007839Y024686D02*
X007532Y024686D01*
X007839Y024992D01*
X007532Y024992D01*
X007455Y024916D01*
X007455Y024762D01*
X007532Y024686D01*
X007839Y024686D02*
X007916Y024762D01*
X007916Y024916D01*
X007839Y024992D01*
X007839Y025146D02*
X007916Y025223D01*
X007916Y025376D01*
X007839Y025453D01*
X007532Y025146D01*
X007455Y025223D01*
X007455Y025376D01*
X007532Y025453D01*
X007839Y025453D01*
X007762Y025606D02*
X007455Y025606D01*
X007685Y025606D02*
X007685Y025913D01*
X007762Y025913D02*
X007455Y025913D01*
X007455Y026067D02*
X007455Y026374D01*
X007532Y026527D02*
X007455Y026604D01*
X007455Y026757D01*
X007532Y026834D01*
X007685Y026834D01*
X007685Y026681D01*
X007839Y026527D02*
X007532Y026527D01*
X007839Y026527D02*
X007916Y026604D01*
X007916Y026757D01*
X007839Y026834D01*
X007916Y026067D02*
X007455Y026067D01*
X007762Y025913D02*
X007916Y025760D01*
X007762Y025606D01*
X007839Y025146D02*
X007532Y025146D01*
X007455Y023995D02*
X007916Y023995D01*
X007839Y023611D02*
X007762Y023611D01*
X007685Y023535D01*
X007685Y023381D01*
X007762Y023304D01*
X007839Y023304D01*
X007916Y023381D01*
X007916Y023535D01*
X007839Y023611D01*
X007685Y023535D02*
X007609Y023611D01*
X007532Y023611D01*
X007455Y023535D01*
X007455Y023381D01*
X007532Y023304D01*
X007609Y023304D01*
X007685Y023381D01*
X007609Y023151D02*
X007685Y023074D01*
X007685Y022844D01*
X007532Y022844D01*
X007455Y022921D01*
X007455Y023074D01*
X007532Y023151D01*
X007609Y023151D01*
X007839Y022997D02*
X007685Y022844D01*
X007839Y022997D02*
X007916Y023151D01*
X007916Y022690D02*
X007455Y022690D01*
X007455Y022384D02*
X007916Y022384D01*
X007762Y022537D01*
X007916Y022690D01*
X007916Y022230D02*
X007609Y021923D01*
X007685Y022000D02*
X007455Y022230D01*
X007455Y021923D02*
X007916Y021923D01*
X013334Y004732D02*
X013334Y004655D01*
D11*
X019551Y028268D02*
X019978Y028268D01*
X019765Y028268D02*
X019765Y028908D01*
X019978Y028695D01*
X020194Y028375D02*
X020194Y028268D01*
X020301Y028268D01*
X020301Y028375D01*
X020194Y028375D01*
X020518Y028695D02*
X020732Y028268D01*
X020945Y028695D01*
X021163Y028588D02*
X021163Y028481D01*
X021590Y028481D01*
X021590Y028375D02*
X021590Y028588D01*
X021483Y028695D01*
X021269Y028695D01*
X021163Y028588D01*
X021269Y028268D02*
X021483Y028268D01*
X021590Y028375D01*
X021807Y028268D02*
X022021Y028481D01*
X021914Y028481D02*
X022234Y028481D01*
X022234Y028268D02*
X022234Y028908D01*
X021914Y028908D01*
X021807Y028802D01*
X021807Y028588D01*
X021914Y028481D01*
X023096Y028375D02*
X023203Y028268D01*
X023417Y028268D01*
X023523Y028375D01*
X023096Y028802D01*
X023096Y028375D01*
X023096Y028802D02*
X023203Y028908D01*
X023417Y028908D01*
X023523Y028802D01*
X023523Y028375D01*
X023739Y028375D02*
X023739Y028268D01*
X023846Y028268D01*
X023846Y028375D01*
X023739Y028375D01*
X024063Y028268D02*
X024490Y028268D01*
X024277Y028268D02*
X024277Y028908D01*
X024490Y028695D01*
X024708Y028908D02*
X024708Y028481D01*
X024921Y028268D01*
X025135Y028481D01*
X025135Y028908D01*
X025996Y028695D02*
X026103Y028695D01*
X026316Y028481D01*
X026316Y028268D02*
X026316Y028695D01*
X026534Y028588D02*
X026534Y028481D01*
X026961Y028481D01*
X026961Y028375D02*
X026961Y028588D01*
X026854Y028695D01*
X026641Y028695D01*
X026534Y028588D01*
X026641Y028268D02*
X026854Y028268D01*
X026961Y028375D01*
X027177Y028268D02*
X027284Y028375D01*
X027284Y028802D01*
X027391Y028695D02*
X027177Y028695D01*
X027608Y028695D02*
X027928Y028695D01*
X028035Y028588D01*
X027928Y028481D01*
X027715Y028481D01*
X027608Y028375D01*
X027715Y028268D01*
X028035Y028268D01*
X028253Y028268D02*
X028253Y028588D01*
X028359Y028695D01*
X028573Y028695D01*
X028573Y028481D02*
X028253Y028481D01*
X028253Y028268D02*
X028573Y028268D01*
X028680Y028375D01*
X028573Y028481D01*
X028896Y028268D02*
X029109Y028268D01*
X029003Y028268D02*
X029003Y028908D01*
X029109Y028908D01*
X029327Y028588D02*
X029434Y028695D01*
X029754Y028695D01*
X029754Y028908D02*
X029754Y028268D01*
X029434Y028268D01*
X029327Y028375D01*
X029327Y028588D01*
X029971Y028695D02*
X030398Y028268D01*
X029971Y028268D01*
X029971Y028695D02*
X030398Y028695D01*
X030616Y028588D02*
X030723Y028695D01*
X030936Y028695D01*
X031043Y028588D01*
X031043Y028375D01*
X030936Y028268D01*
X030723Y028268D01*
X030616Y028375D01*
X030616Y028588D01*
X031261Y028268D02*
X031261Y028908D01*
X031688Y028908D02*
X031688Y028268D01*
X031474Y028481D01*
X031261Y028268D01*
X032550Y028588D02*
X032977Y028588D01*
X033839Y028268D02*
X034266Y028908D01*
X034483Y028802D02*
X034590Y028908D01*
X034804Y028908D01*
X034910Y028802D01*
X034910Y028695D01*
X034804Y028588D01*
X034590Y028588D01*
X034483Y028481D01*
X034483Y028375D01*
X034590Y028268D01*
X034804Y028268D01*
X034910Y028375D01*
X035128Y028268D02*
X035128Y028908D01*
X035341Y028695D01*
X035555Y028908D01*
X035555Y028268D01*
X034266Y028268D02*
X033839Y028908D01*
D12*
X031629Y007525D02*
X031814Y007340D01*
X031567Y007340D01*
X031446Y007401D02*
X031384Y007340D01*
X031199Y007340D01*
X031199Y007463D02*
X031199Y007216D01*
X031261Y007154D01*
X031384Y007154D01*
X031446Y007216D01*
X031446Y007401D02*
X031446Y007463D01*
X031384Y007525D01*
X031261Y007525D01*
X031199Y007463D01*
X030782Y007359D02*
X030536Y007359D01*
X030414Y007359D02*
X030291Y007421D01*
X030229Y007421D01*
X030167Y007359D01*
X030167Y007236D01*
X030229Y007174D01*
X030352Y007174D01*
X030414Y007236D01*
X030414Y007359D02*
X030414Y007544D01*
X030167Y007544D01*
X030046Y007421D02*
X029922Y007174D01*
X029799Y007421D01*
X030659Y007483D02*
X030659Y007236D01*
X031629Y007154D02*
X031629Y007525D01*
X031567Y004694D02*
X031814Y004694D01*
X031814Y004509D01*
X031691Y004571D01*
X031629Y004571D01*
X031567Y004509D01*
X031567Y004385D01*
X031629Y004324D01*
X031752Y004324D01*
X031814Y004385D01*
X031446Y004385D02*
X031199Y004632D01*
X031199Y004385D01*
X031261Y004324D01*
X031384Y004324D01*
X031446Y004385D01*
X031446Y004632D01*
X031384Y004694D01*
X031261Y004694D01*
X031199Y004632D01*
X030995Y004521D02*
X030748Y004521D01*
X030627Y004582D02*
X030503Y004706D01*
X030503Y004335D01*
X030380Y004335D02*
X030627Y004335D01*
X030872Y004397D02*
X030872Y004644D01*
X030258Y004644D02*
X030197Y004706D01*
X030073Y004706D01*
X030012Y004644D01*
X030012Y004582D01*
X030258Y004335D01*
X030012Y004335D01*
X029767Y004335D02*
X029643Y004582D01*
X029890Y004582D02*
X029767Y004335D01*
X007460Y004296D02*
X007213Y004543D01*
X007213Y004605D01*
X007274Y004666D01*
X007398Y004666D01*
X007460Y004605D01*
X007460Y004296D02*
X007213Y004296D01*
X007229Y007198D02*
X007475Y007198D01*
X007352Y007198D02*
X007352Y007568D01*
X007475Y007445D01*
D13*
X006547Y007643D02*
X006547Y000100D01*
X032047Y000100D01*
X032047Y007643D01*
X040733Y007643D01*
X040733Y029628D01*
X001362Y029628D01*
X001362Y007643D01*
X006547Y007643D01*
X001860Y008694D02*
X001862Y008744D01*
X001868Y008794D01*
X001878Y008843D01*
X001892Y008891D01*
X001909Y008938D01*
X001930Y008983D01*
X001955Y009027D01*
X001983Y009068D01*
X002015Y009107D01*
X002049Y009144D01*
X002086Y009178D01*
X002126Y009208D01*
X002168Y009235D01*
X002212Y009259D01*
X002258Y009280D01*
X002305Y009296D01*
X002353Y009309D01*
X002403Y009318D01*
X002452Y009323D01*
X002503Y009324D01*
X002553Y009321D01*
X002602Y009314D01*
X002651Y009303D01*
X002699Y009288D01*
X002745Y009270D01*
X002790Y009248D01*
X002833Y009222D01*
X002874Y009193D01*
X002913Y009161D01*
X002949Y009126D01*
X002981Y009088D01*
X003011Y009048D01*
X003038Y009005D01*
X003061Y008961D01*
X003080Y008915D01*
X003096Y008867D01*
X003108Y008818D01*
X003116Y008769D01*
X003120Y008719D01*
X003120Y008669D01*
X003116Y008619D01*
X003108Y008570D01*
X003096Y008521D01*
X003080Y008473D01*
X003061Y008427D01*
X003038Y008383D01*
X003011Y008340D01*
X002981Y008300D01*
X002949Y008262D01*
X002913Y008227D01*
X002874Y008195D01*
X002833Y008166D01*
X002790Y008140D01*
X002745Y008118D01*
X002699Y008100D01*
X002651Y008085D01*
X002602Y008074D01*
X002553Y008067D01*
X002503Y008064D01*
X002452Y008065D01*
X002403Y008070D01*
X002353Y008079D01*
X002305Y008092D01*
X002258Y008108D01*
X002212Y008129D01*
X002168Y008153D01*
X002126Y008180D01*
X002086Y008210D01*
X002049Y008244D01*
X002015Y008281D01*
X001983Y008320D01*
X001955Y008361D01*
X001930Y008405D01*
X001909Y008450D01*
X001892Y008497D01*
X001878Y008545D01*
X001868Y008594D01*
X001862Y008644D01*
X001860Y008694D01*
X001860Y028616D02*
X001862Y028666D01*
X001868Y028716D01*
X001878Y028765D01*
X001892Y028813D01*
X001909Y028860D01*
X001930Y028905D01*
X001955Y028949D01*
X001983Y028990D01*
X002015Y029029D01*
X002049Y029066D01*
X002086Y029100D01*
X002126Y029130D01*
X002168Y029157D01*
X002212Y029181D01*
X002258Y029202D01*
X002305Y029218D01*
X002353Y029231D01*
X002403Y029240D01*
X002452Y029245D01*
X002503Y029246D01*
X002553Y029243D01*
X002602Y029236D01*
X002651Y029225D01*
X002699Y029210D01*
X002745Y029192D01*
X002790Y029170D01*
X002833Y029144D01*
X002874Y029115D01*
X002913Y029083D01*
X002949Y029048D01*
X002981Y029010D01*
X003011Y028970D01*
X003038Y028927D01*
X003061Y028883D01*
X003080Y028837D01*
X003096Y028789D01*
X003108Y028740D01*
X003116Y028691D01*
X003120Y028641D01*
X003120Y028591D01*
X003116Y028541D01*
X003108Y028492D01*
X003096Y028443D01*
X003080Y028395D01*
X003061Y028349D01*
X003038Y028305D01*
X003011Y028262D01*
X002981Y028222D01*
X002949Y028184D01*
X002913Y028149D01*
X002874Y028117D01*
X002833Y028088D01*
X002790Y028062D01*
X002745Y028040D01*
X002699Y028022D01*
X002651Y028007D01*
X002602Y027996D01*
X002553Y027989D01*
X002503Y027986D01*
X002452Y027987D01*
X002403Y027992D01*
X002353Y028001D01*
X002305Y028014D01*
X002258Y028030D01*
X002212Y028051D01*
X002168Y028075D01*
X002126Y028102D01*
X002086Y028132D01*
X002049Y028166D01*
X002015Y028203D01*
X001983Y028242D01*
X001955Y028283D01*
X001930Y028327D01*
X001909Y028372D01*
X001892Y028419D01*
X001878Y028467D01*
X001868Y028516D01*
X001862Y028566D01*
X001860Y028616D01*
X038986Y028576D02*
X038988Y028626D01*
X038994Y028676D01*
X039004Y028725D01*
X039018Y028773D01*
X039035Y028820D01*
X039056Y028865D01*
X039081Y028909D01*
X039109Y028950D01*
X039141Y028989D01*
X039175Y029026D01*
X039212Y029060D01*
X039252Y029090D01*
X039294Y029117D01*
X039338Y029141D01*
X039384Y029162D01*
X039431Y029178D01*
X039479Y029191D01*
X039529Y029200D01*
X039578Y029205D01*
X039629Y029206D01*
X039679Y029203D01*
X039728Y029196D01*
X039777Y029185D01*
X039825Y029170D01*
X039871Y029152D01*
X039916Y029130D01*
X039959Y029104D01*
X040000Y029075D01*
X040039Y029043D01*
X040075Y029008D01*
X040107Y028970D01*
X040137Y028930D01*
X040164Y028887D01*
X040187Y028843D01*
X040206Y028797D01*
X040222Y028749D01*
X040234Y028700D01*
X040242Y028651D01*
X040246Y028601D01*
X040246Y028551D01*
X040242Y028501D01*
X040234Y028452D01*
X040222Y028403D01*
X040206Y028355D01*
X040187Y028309D01*
X040164Y028265D01*
X040137Y028222D01*
X040107Y028182D01*
X040075Y028144D01*
X040039Y028109D01*
X040000Y028077D01*
X039959Y028048D01*
X039916Y028022D01*
X039871Y028000D01*
X039825Y027982D01*
X039777Y027967D01*
X039728Y027956D01*
X039679Y027949D01*
X039629Y027946D01*
X039578Y027947D01*
X039529Y027952D01*
X039479Y027961D01*
X039431Y027974D01*
X039384Y027990D01*
X039338Y028011D01*
X039294Y028035D01*
X039252Y028062D01*
X039212Y028092D01*
X039175Y028126D01*
X039141Y028163D01*
X039109Y028202D01*
X039081Y028243D01*
X039056Y028287D01*
X039035Y028332D01*
X039018Y028379D01*
X039004Y028427D01*
X038994Y028476D01*
X038988Y028526D01*
X038986Y028576D01*
X038986Y008655D02*
X038988Y008705D01*
X038994Y008755D01*
X039004Y008804D01*
X039018Y008852D01*
X039035Y008899D01*
X039056Y008944D01*
X039081Y008988D01*
X039109Y009029D01*
X039141Y009068D01*
X039175Y009105D01*
X039212Y009139D01*
X039252Y009169D01*
X039294Y009196D01*
X039338Y009220D01*
X039384Y009241D01*
X039431Y009257D01*
X039479Y009270D01*
X039529Y009279D01*
X039578Y009284D01*
X039629Y009285D01*
X039679Y009282D01*
X039728Y009275D01*
X039777Y009264D01*
X039825Y009249D01*
X039871Y009231D01*
X039916Y009209D01*
X039959Y009183D01*
X040000Y009154D01*
X040039Y009122D01*
X040075Y009087D01*
X040107Y009049D01*
X040137Y009009D01*
X040164Y008966D01*
X040187Y008922D01*
X040206Y008876D01*
X040222Y008828D01*
X040234Y008779D01*
X040242Y008730D01*
X040246Y008680D01*
X040246Y008630D01*
X040242Y008580D01*
X040234Y008531D01*
X040222Y008482D01*
X040206Y008434D01*
X040187Y008388D01*
X040164Y008344D01*
X040137Y008301D01*
X040107Y008261D01*
X040075Y008223D01*
X040039Y008188D01*
X040000Y008156D01*
X039959Y008127D01*
X039916Y008101D01*
X039871Y008079D01*
X039825Y008061D01*
X039777Y008046D01*
X039728Y008035D01*
X039679Y008028D01*
X039629Y008025D01*
X039578Y008026D01*
X039529Y008031D01*
X039479Y008040D01*
X039431Y008053D01*
X039384Y008069D01*
X039338Y008090D01*
X039294Y008114D01*
X039252Y008141D01*
X039212Y008171D01*
X039175Y008205D01*
X039141Y008242D01*
X039109Y008281D01*
X039081Y008322D01*
X039056Y008366D01*
X039035Y008411D01*
X039018Y008458D01*
X039004Y008506D01*
X038994Y008555D01*
X038988Y008605D01*
X038986Y008655D01*
D14*
X031790Y006931D02*
X031790Y004931D01*
X006790Y004931D01*
X006790Y006931D01*
X031790Y006931D01*
D15*
X017451Y020885D02*
X017194Y020885D01*
X013502Y020885D01*
X013502Y028539D01*
X017194Y028539D01*
X017194Y020885D01*
X017451Y020885D02*
X017451Y028539D01*
X017194Y028539D01*
X010534Y028283D02*
X010277Y028283D01*
X010277Y020630D01*
X010534Y020630D01*
X010534Y028283D01*
X010277Y028283D02*
X006584Y028283D01*
X006584Y020630D01*
X010277Y020630D01*
M02*
