G75*
G70*
%OFA0B0*%
%FSLAX24Y24*%
%IPPOS*%
%LPD*%
%AMOC8*
5,1,8,0,0,1.08239X$1,22.5*
%
%ADD10C,0.0050*%
%ADD11C,0.0040*%
%ADD12C,0.0030*%
%ADD13C,0.0059*%
%ADD14C,0.0079*%
%ADD15R,0.0165X0.1102*%
%ADD16C,0.0000*%
%ADD17C,0.0060*%
%ADD18C,0.0100*%
%ADD19R,0.0150X0.0200*%
%ADD20C,0.0160*%
%ADD21R,0.0200X0.0150*%
%ADD22C,0.0080*%
D10*
X018618Y012602D02*
X018618Y012614D01*
X018618Y012618D01*
X018618Y012622D02*
X018626Y012622D01*
X018618Y012622D02*
X018618Y016007D01*
X018620Y016022D01*
X018625Y016036D01*
X018633Y016049D01*
X018643Y016059D01*
X018656Y016067D01*
X018670Y016072D01*
X018685Y016074D01*
X020040Y016074D01*
X020040Y016075D02*
X020062Y016073D01*
X020083Y016068D01*
X020103Y016060D01*
X020121Y016049D01*
X020138Y016035D01*
X020152Y016018D01*
X020163Y016000D01*
X020171Y015980D01*
X020176Y015959D01*
X020178Y015937D01*
X020177Y015937D02*
X020177Y012626D01*
X020175Y012608D01*
X020171Y012590D01*
X020163Y012573D01*
X020152Y012558D01*
X020139Y012545D01*
X020124Y012534D01*
X020107Y012526D01*
X020089Y012522D01*
X020071Y012520D01*
X020071Y012519D02*
X018729Y012519D01*
X018709Y012521D01*
X018689Y012526D01*
X018670Y012535D01*
X018653Y012547D01*
X018639Y012561D01*
X018627Y012578D01*
X018618Y012597D01*
X018613Y012617D01*
X018611Y012637D01*
X018626Y012622D02*
X018622Y012621D01*
X018619Y012618D01*
X018618Y012614D01*
X019728Y012842D02*
X019730Y012864D01*
X019736Y012885D01*
X019745Y012905D01*
X019758Y012923D01*
X019774Y012938D01*
X019793Y012950D01*
X019813Y012959D01*
X019834Y012964D01*
X019857Y012965D01*
X019878Y012962D01*
X019899Y012955D01*
X019919Y012945D01*
X019936Y012931D01*
X019951Y012914D01*
X019962Y012895D01*
X019970Y012875D01*
X019974Y012853D01*
X019974Y012831D01*
X019970Y012809D01*
X019962Y012789D01*
X019951Y012770D01*
X019936Y012753D01*
X019919Y012739D01*
X019899Y012729D01*
X019878Y012722D01*
X019857Y012719D01*
X019834Y012720D01*
X019813Y012725D01*
X019793Y012734D01*
X019774Y012746D01*
X019758Y012761D01*
X019745Y012779D01*
X019736Y012799D01*
X019730Y012820D01*
X019728Y012842D01*
X029593Y011683D02*
X029593Y016250D01*
X029595Y016283D01*
X029600Y016315D01*
X029608Y016347D01*
X029620Y016378D01*
X029635Y016407D01*
X029653Y016435D01*
X029674Y016461D01*
X029697Y016484D01*
X029723Y016505D01*
X029751Y016523D01*
X029780Y016538D01*
X029811Y016550D01*
X029843Y016558D01*
X029875Y016563D01*
X029908Y016565D01*
X036758Y016565D01*
X036758Y016564D02*
X036786Y016562D01*
X036814Y016557D01*
X036842Y016549D01*
X036868Y016537D01*
X036892Y016522D01*
X036914Y016505D01*
X036935Y016484D01*
X036952Y016462D01*
X036967Y016438D01*
X036979Y016412D01*
X036987Y016384D01*
X036992Y016356D01*
X036994Y016328D01*
X036994Y011801D01*
X036995Y011801D02*
X036989Y011764D01*
X036979Y011727D01*
X036966Y011692D01*
X036950Y011658D01*
X036931Y011626D01*
X036909Y011595D01*
X036884Y011567D01*
X036856Y011541D01*
X036827Y011518D01*
X036795Y011498D01*
X036762Y011481D01*
X036727Y011466D01*
X036691Y011455D01*
X036654Y011448D01*
X036617Y011444D01*
X036579Y011443D01*
X036542Y011446D01*
X029731Y011446D01*
X029707Y011454D01*
X029684Y011465D01*
X029663Y011479D01*
X029644Y011496D01*
X029627Y011515D01*
X029613Y011536D01*
X029602Y011558D01*
X029594Y011582D01*
X029589Y011607D01*
X029587Y011632D01*
X029589Y011657D01*
X029593Y011682D01*
X030071Y012155D02*
X030073Y012185D01*
X030079Y012215D01*
X030089Y012243D01*
X030102Y012270D01*
X030119Y012295D01*
X030138Y012318D01*
X030161Y012337D01*
X030186Y012354D01*
X030213Y012367D01*
X030241Y012377D01*
X030271Y012383D01*
X030301Y012385D01*
X030331Y012383D01*
X030361Y012377D01*
X030389Y012367D01*
X030416Y012354D01*
X030441Y012337D01*
X030464Y012318D01*
X030483Y012295D01*
X030500Y012270D01*
X030513Y012243D01*
X030523Y012215D01*
X030529Y012185D01*
X030531Y012155D01*
X030529Y012125D01*
X030523Y012095D01*
X030513Y012067D01*
X030500Y012040D01*
X030483Y012015D01*
X030464Y011992D01*
X030441Y011973D01*
X030416Y011956D01*
X030389Y011943D01*
X030361Y011933D01*
X030331Y011927D01*
X030301Y011925D01*
X030271Y011927D01*
X030241Y011933D01*
X030213Y011943D01*
X030186Y011956D01*
X030161Y011973D01*
X030138Y011992D01*
X030119Y012015D01*
X030102Y012040D01*
X030089Y012067D01*
X030079Y012095D01*
X030073Y012125D01*
X030071Y012155D01*
X030134Y028156D02*
X030134Y028517D01*
X030404Y028517D01*
X030494Y028427D01*
X030494Y028156D01*
X030677Y028247D02*
X030677Y028427D01*
X030768Y028517D01*
X031038Y028517D01*
X031038Y028698D02*
X031038Y028156D01*
X030768Y028156D01*
X030677Y028247D01*
X029951Y028156D02*
X029951Y028517D01*
X029951Y028156D02*
X029680Y028156D01*
X029590Y028247D01*
X029590Y028517D01*
X029407Y028427D02*
X029317Y028517D01*
X029136Y028517D01*
X029046Y028427D01*
X029046Y028247D01*
X029136Y028156D01*
X029317Y028156D01*
X029407Y028247D01*
X029407Y028427D01*
X028863Y028337D02*
X028863Y028247D01*
X028773Y028156D01*
X028593Y028156D01*
X028502Y028247D01*
X028593Y028427D02*
X028502Y028517D01*
X028502Y028607D01*
X028593Y028698D01*
X028773Y028698D01*
X028863Y028607D01*
X028773Y028427D02*
X028863Y028337D01*
X028773Y028427D02*
X028593Y028427D01*
X027776Y028517D02*
X027686Y028517D01*
X027505Y028337D01*
X027505Y028517D02*
X027505Y028156D01*
X027322Y028337D02*
X026962Y028337D01*
X026962Y028427D02*
X027052Y028517D01*
X027232Y028517D01*
X027322Y028427D01*
X027322Y028337D01*
X027232Y028156D02*
X027052Y028156D01*
X026962Y028247D01*
X026962Y028427D01*
X026779Y028517D02*
X026418Y028156D01*
X026779Y028156D01*
X026779Y028517D02*
X026418Y028517D01*
X026146Y028517D02*
X026146Y028156D01*
X026236Y028156D02*
X026055Y028156D01*
X025872Y028247D02*
X025782Y028156D01*
X025512Y028156D01*
X025602Y028337D02*
X025512Y028427D01*
X025602Y028517D01*
X025872Y028517D01*
X026055Y028517D02*
X026146Y028517D01*
X026146Y028698D02*
X026146Y028788D01*
X025782Y028337D02*
X025602Y028337D01*
X025782Y028337D02*
X025872Y028247D01*
X025329Y028337D02*
X024968Y028337D01*
X024968Y028427D02*
X025058Y028517D01*
X025238Y028517D01*
X025329Y028427D01*
X025329Y028337D01*
X025238Y028156D02*
X025058Y028156D01*
X024968Y028247D01*
X024968Y028427D01*
X024785Y028427D02*
X024785Y028156D01*
X024785Y028427D02*
X024695Y028517D01*
X024514Y028517D01*
X024424Y028427D01*
X024242Y028517D02*
X024062Y028517D01*
X024152Y028607D02*
X024152Y028247D01*
X024242Y028156D01*
X024424Y028156D02*
X024424Y028698D01*
X023878Y028427D02*
X023878Y028156D01*
X023878Y028427D02*
X023788Y028517D01*
X023518Y028517D01*
X023518Y028156D01*
X023335Y028156D02*
X023064Y028156D01*
X022974Y028247D01*
X022974Y028517D01*
X022791Y028607D02*
X022701Y028698D01*
X022520Y028698D01*
X022430Y028607D01*
X022430Y028517D01*
X022520Y028427D01*
X022701Y028427D01*
X022791Y028337D01*
X022791Y028247D01*
X022701Y028156D01*
X022520Y028156D01*
X022430Y028247D01*
X021703Y028337D02*
X021343Y028337D01*
X021343Y028427D02*
X021433Y028517D01*
X021613Y028517D01*
X021703Y028427D01*
X021703Y028337D01*
X021613Y028156D02*
X021433Y028156D01*
X021343Y028247D01*
X021343Y028427D01*
X021161Y028156D02*
X020980Y028156D01*
X021070Y028156D02*
X021070Y028698D01*
X020980Y028698D01*
X020797Y028427D02*
X020707Y028517D01*
X020436Y028517D01*
X020436Y028698D02*
X020436Y028156D01*
X020707Y028156D01*
X020797Y028247D01*
X020797Y028427D01*
X020253Y028427D02*
X020253Y028156D01*
X019983Y028156D01*
X019893Y028247D01*
X019983Y028337D01*
X020253Y028337D01*
X020253Y028427D02*
X020163Y028517D01*
X019983Y028517D01*
X019710Y028698D02*
X019349Y028698D01*
X019529Y028698D02*
X019529Y028156D01*
X018622Y028337D02*
X018261Y028337D01*
X018261Y028427D02*
X018352Y028517D01*
X018532Y028517D01*
X018622Y028427D01*
X018622Y028337D01*
X018532Y028156D02*
X018352Y028156D01*
X018261Y028247D01*
X018261Y028427D01*
X018078Y028517D02*
X017898Y028156D01*
X017718Y028517D01*
X017534Y028427D02*
X017534Y028156D01*
X017264Y028156D01*
X017174Y028247D01*
X017264Y028337D01*
X017534Y028337D01*
X017534Y028427D02*
X017444Y028517D01*
X017264Y028517D01*
X016991Y028698D02*
X016991Y028156D01*
X016810Y028337D01*
X016630Y028156D01*
X016630Y028698D01*
X015903Y028337D02*
X015723Y028156D01*
X015633Y028156D01*
X015543Y028247D01*
X015543Y028337D01*
X015723Y028517D01*
X015723Y028607D01*
X015633Y028698D01*
X015543Y028607D01*
X015543Y028517D01*
X015903Y028156D01*
X014816Y028156D02*
X014816Y028698D01*
X014635Y028517D01*
X014455Y028698D01*
X014455Y028156D01*
X014092Y028427D02*
X013911Y028427D01*
X013911Y028156D02*
X013911Y028698D01*
X014272Y028698D01*
X013184Y028427D02*
X012824Y028427D01*
X012097Y028427D02*
X011736Y028427D01*
X012007Y028698D01*
X012007Y028156D01*
X011553Y028156D02*
X011192Y028156D01*
X011192Y028698D01*
X011009Y028607D02*
X011009Y028427D01*
X010919Y028337D01*
X010649Y028337D01*
X010649Y028156D02*
X010649Y028698D01*
X010919Y028698D01*
X011009Y028607D01*
X010465Y028607D02*
X010465Y028247D01*
X010375Y028156D01*
X010195Y028156D01*
X010105Y028247D01*
X010105Y028607D01*
X010195Y028698D01*
X010375Y028698D01*
X010465Y028607D01*
X009378Y028427D02*
X009017Y028427D01*
X008290Y028156D02*
X007930Y028698D01*
X007747Y028607D02*
X007656Y028698D01*
X007476Y028698D01*
X007386Y028607D01*
X007386Y028517D01*
X007476Y028427D01*
X007656Y028427D01*
X007747Y028337D01*
X007747Y028247D01*
X007656Y028156D01*
X007476Y028156D01*
X007386Y028247D01*
X007203Y028156D02*
X007203Y028698D01*
X007023Y028517D01*
X006842Y028698D01*
X006842Y028156D01*
X007930Y028156D02*
X008290Y028698D01*
X001927Y025966D02*
X001557Y025966D01*
X001927Y025966D02*
X001927Y022344D01*
X001557Y022344D01*
X023154Y027976D02*
X023245Y027976D01*
X023335Y028066D01*
X023335Y028517D01*
X031765Y028607D02*
X031765Y028247D01*
X031855Y028156D01*
X032036Y028156D01*
X032126Y028247D01*
X032309Y028247D02*
X032399Y028156D01*
X032669Y028156D01*
X032669Y028427D01*
X032579Y028517D01*
X032399Y028517D01*
X032399Y028337D02*
X032669Y028337D01*
X032853Y028337D02*
X033033Y028517D01*
X033123Y028517D01*
X033306Y028517D02*
X033486Y028517D01*
X033396Y028607D02*
X033396Y028247D01*
X033486Y028156D01*
X033668Y028156D02*
X033668Y028517D01*
X033668Y028337D02*
X033849Y028517D01*
X033939Y028517D01*
X034121Y028517D02*
X034212Y028517D01*
X034212Y028156D01*
X034302Y028156D02*
X034121Y028156D01*
X034484Y028247D02*
X034484Y028427D01*
X034574Y028517D01*
X034845Y028517D01*
X034845Y028698D02*
X034845Y028156D01*
X034574Y028156D01*
X034484Y028247D01*
X034212Y028698D02*
X034212Y028788D01*
X035028Y028427D02*
X035028Y028247D01*
X035118Y028156D01*
X035388Y028156D01*
X035388Y028066D02*
X035388Y028517D01*
X035118Y028517D01*
X035028Y028427D01*
X035208Y027976D02*
X035298Y027976D01*
X035388Y028066D01*
X035571Y028247D02*
X035571Y028427D01*
X035662Y028517D01*
X035842Y028517D01*
X035932Y028427D01*
X035932Y028337D01*
X035571Y028337D01*
X035571Y028247D02*
X035662Y028156D01*
X035842Y028156D01*
X032853Y028156D02*
X032853Y028517D01*
X032399Y028337D02*
X032309Y028247D01*
X032126Y028607D02*
X032036Y028698D01*
X031855Y028698D01*
X031765Y028607D01*
D11*
X035943Y025267D02*
X036020Y025344D01*
X036174Y025344D01*
X036250Y025267D01*
X036250Y025191D01*
X035943Y024884D01*
X036250Y024884D01*
X036404Y024884D02*
X036404Y024961D01*
X036711Y025267D01*
X036711Y025344D01*
X036404Y025344D01*
X036864Y025267D02*
X036864Y024961D01*
X036941Y024884D01*
X037094Y024884D01*
X037171Y024961D01*
X037325Y024884D02*
X037632Y024884D01*
X037478Y024884D02*
X037478Y025344D01*
X037325Y025191D01*
X037171Y025267D02*
X037094Y025344D01*
X036941Y025344D01*
X036864Y025267D01*
X037785Y025114D02*
X037785Y024961D01*
X037862Y024884D01*
X038015Y024884D01*
X038092Y024961D01*
X038092Y025037D01*
X038015Y025114D01*
X037785Y025114D01*
X037938Y025267D01*
X038092Y025344D01*
X038245Y025267D02*
X038322Y025344D01*
X038476Y025344D01*
X038552Y025267D01*
X038245Y024961D01*
X038322Y024884D01*
X038476Y024884D01*
X038552Y024961D01*
X038552Y025267D01*
X038245Y025267D02*
X038245Y024961D01*
X035918Y014919D02*
X035611Y014919D01*
X035611Y014459D01*
X035611Y014689D02*
X035764Y014689D01*
X035457Y014689D02*
X035150Y014689D01*
X034997Y014766D02*
X034920Y014689D01*
X034690Y014689D01*
X034537Y014766D02*
X034460Y014689D01*
X034306Y014689D01*
X034230Y014766D01*
X034230Y014842D01*
X034306Y014919D01*
X034460Y014919D01*
X034537Y014842D01*
X034537Y014766D01*
X034460Y014689D02*
X034537Y014612D01*
X034537Y014535D01*
X034460Y014459D01*
X034306Y014459D01*
X034230Y014535D01*
X034230Y014612D01*
X034306Y014689D01*
X034076Y014842D02*
X034076Y014919D01*
X033769Y014919D01*
X033616Y014842D02*
X033539Y014919D01*
X033386Y014919D01*
X033309Y014842D01*
X033155Y014919D02*
X032849Y014919D01*
X032849Y014459D01*
X032695Y014459D02*
X032695Y014919D01*
X032542Y014766D01*
X032388Y014919D01*
X032388Y014459D01*
X032081Y014459D02*
X032081Y014689D01*
X032235Y014842D01*
X032235Y014919D01*
X032081Y014689D02*
X031928Y014842D01*
X031928Y014919D01*
X032849Y014689D02*
X033002Y014689D01*
X033309Y014459D02*
X033616Y014766D01*
X033616Y014842D01*
X033769Y014535D02*
X033769Y014459D01*
X033769Y014535D02*
X034076Y014842D01*
X033616Y014459D02*
X033309Y014459D01*
X034690Y014459D02*
X034920Y014459D01*
X034997Y014535D01*
X034997Y014612D01*
X034920Y014689D01*
X034997Y014766D02*
X034997Y014842D01*
X034920Y014919D01*
X034690Y014919D01*
X034690Y014459D01*
X023217Y010173D02*
X023217Y009866D01*
X023141Y009789D01*
X022910Y009789D01*
X022910Y010250D01*
X023141Y010250D01*
X023217Y010173D01*
X022757Y010173D02*
X022757Y010096D01*
X022680Y010019D01*
X022527Y010019D01*
X022450Y010096D01*
X022450Y010173D01*
X022527Y010250D01*
X022680Y010250D01*
X022757Y010173D01*
X022680Y010019D02*
X022757Y009943D01*
X022757Y009866D01*
X022680Y009789D01*
X022527Y009789D01*
X022450Y009866D01*
X022450Y009943D01*
X022527Y010019D01*
X022296Y009943D02*
X022143Y009789D01*
X021990Y009943D01*
X021990Y010250D01*
X021836Y010250D02*
X021683Y010173D01*
X021529Y010019D01*
X021759Y010019D01*
X021836Y009943D01*
X021836Y009866D01*
X021759Y009789D01*
X021606Y009789D01*
X021529Y009866D01*
X021529Y010019D01*
X021376Y009789D02*
X021069Y009789D01*
X021222Y009789D02*
X021222Y010250D01*
X021069Y010096D01*
X020915Y009789D02*
X020608Y009789D01*
X020608Y010250D01*
X020455Y010096D02*
X020455Y009789D01*
X020455Y010019D02*
X020148Y010019D01*
X020148Y010096D02*
X020301Y010250D01*
X020455Y010096D01*
X020148Y010096D02*
X020148Y009789D01*
X019994Y009866D02*
X019994Y010019D01*
X019841Y010019D01*
X019688Y009866D02*
X019764Y009789D01*
X019918Y009789D01*
X019994Y009866D01*
X019688Y009866D02*
X019688Y010173D01*
X019764Y010250D01*
X019918Y010250D01*
X019994Y010173D01*
X022296Y010250D02*
X022296Y009943D01*
D12*
X022944Y012339D02*
X023089Y012339D01*
X023190Y012339D02*
X023383Y012339D01*
X023287Y012339D02*
X023287Y012630D01*
X023190Y012533D01*
X023089Y012533D02*
X022944Y012533D01*
X022895Y012485D01*
X022895Y012388D01*
X022944Y012339D01*
X023484Y012388D02*
X023533Y012339D01*
X023630Y012339D01*
X023678Y012388D01*
X023678Y012436D01*
X023630Y012485D01*
X023581Y012485D01*
X023630Y012485D02*
X023678Y012533D01*
X023678Y012581D01*
X023630Y012630D01*
X023533Y012630D01*
X023484Y012581D01*
X023317Y014391D02*
X023365Y014439D01*
X023365Y014536D01*
X023317Y014584D01*
X023268Y014584D01*
X023220Y014536D01*
X023220Y014487D01*
X023220Y014536D02*
X023172Y014584D01*
X023123Y014584D01*
X023075Y014536D01*
X023075Y014439D01*
X023123Y014391D01*
X023317Y014685D02*
X023317Y014734D01*
X023365Y014734D01*
X023365Y014685D01*
X023317Y014685D01*
X023317Y014833D02*
X023365Y014881D01*
X023365Y014978D01*
X023317Y015026D01*
X023268Y015026D01*
X023220Y014978D01*
X023220Y014929D01*
X023220Y014978D02*
X023172Y015026D01*
X023123Y015026D01*
X023075Y014978D01*
X023075Y014881D01*
X023123Y014833D01*
X023075Y015127D02*
X023365Y015127D01*
X023268Y015127D02*
X023075Y015321D01*
X023220Y015176D02*
X023365Y015321D01*
X021617Y015250D02*
X021617Y015395D01*
X021617Y015496D02*
X021617Y015690D01*
X021617Y015593D02*
X021327Y015593D01*
X021424Y015496D01*
X021424Y015395D02*
X021424Y015250D01*
X021472Y015202D01*
X021569Y015202D01*
X021617Y015250D01*
X021472Y015791D02*
X021472Y015984D01*
X021327Y015936D02*
X021472Y015791D01*
X021617Y015936D02*
X021327Y015936D01*
X020664Y016628D02*
X020664Y016773D01*
X020664Y016874D02*
X020664Y017068D01*
X020664Y016971D02*
X020374Y016971D01*
X020471Y016874D01*
X020471Y016773D02*
X020471Y016628D01*
X020519Y016580D01*
X020616Y016580D01*
X020664Y016628D01*
X020616Y017169D02*
X020664Y017217D01*
X020664Y017314D01*
X020616Y017362D01*
X020519Y017362D01*
X020471Y017314D01*
X020471Y017266D01*
X020519Y017169D01*
X020374Y017169D01*
X020374Y017362D01*
X019527Y015501D02*
X019236Y015501D01*
X019333Y015404D01*
X019236Y015307D01*
X019527Y015307D01*
X019381Y015206D02*
X019381Y015013D01*
X019333Y014912D02*
X019381Y014863D01*
X019430Y014912D01*
X019478Y014912D01*
X019527Y014863D01*
X019527Y014767D01*
X019478Y014718D01*
X019527Y014617D02*
X019527Y014424D01*
X019527Y014520D02*
X019236Y014520D01*
X019333Y014424D01*
X019381Y014322D02*
X019478Y014322D01*
X019527Y014274D01*
X019527Y014177D01*
X019478Y014129D01*
X019381Y014129D02*
X019333Y014226D01*
X019333Y014274D01*
X019381Y014322D01*
X019236Y014322D02*
X019236Y014129D01*
X019381Y014129D01*
X019285Y014028D02*
X019236Y013979D01*
X019236Y013883D01*
X019285Y013834D01*
X019478Y013834D01*
X019527Y013883D01*
X019527Y013979D01*
X019478Y014028D01*
X019527Y013733D02*
X019333Y013733D01*
X019236Y013636D01*
X019333Y013540D01*
X019527Y013540D01*
X019381Y013540D02*
X019381Y013733D01*
X019285Y013438D02*
X019236Y013438D01*
X019285Y013438D02*
X019381Y013342D01*
X019527Y013342D01*
X019381Y013342D02*
X019285Y013245D01*
X019236Y013245D01*
X019285Y014718D02*
X019236Y014767D01*
X019236Y014863D01*
X019285Y014912D01*
X019333Y014912D01*
X019381Y014863D02*
X019381Y014815D01*
X016647Y014479D02*
X016647Y014431D01*
X016599Y014382D01*
X016502Y014382D01*
X016454Y014431D01*
X016454Y014479D01*
X016502Y014527D01*
X016599Y014527D01*
X016647Y014479D01*
X016599Y014382D02*
X016647Y014334D01*
X016647Y014285D01*
X016599Y014237D01*
X016502Y014237D01*
X016454Y014285D01*
X016454Y014334D01*
X016502Y014382D01*
X016352Y014431D02*
X016207Y014431D01*
X016159Y014382D01*
X016159Y014285D01*
X016207Y014237D01*
X016352Y014237D01*
X015108Y014143D02*
X014914Y014143D01*
X015011Y014143D02*
X015011Y014433D01*
X014914Y014336D01*
X014813Y014336D02*
X014668Y014336D01*
X014620Y014288D01*
X014620Y014191D01*
X014668Y014143D01*
X014813Y014143D01*
X014158Y014495D02*
X014158Y014640D01*
X014158Y014741D02*
X013964Y014934D01*
X013916Y014934D01*
X013867Y014886D01*
X013867Y014789D01*
X013916Y014741D01*
X013964Y014640D02*
X013964Y014495D01*
X014012Y014446D01*
X014109Y014446D01*
X014158Y014495D01*
X014158Y014741D02*
X014158Y014934D01*
X014158Y015035D02*
X013867Y015229D01*
X013916Y015330D02*
X013867Y015378D01*
X013867Y015475D01*
X013916Y015524D01*
X013964Y015524D01*
X014012Y015475D01*
X014061Y015524D01*
X014109Y015524D01*
X014158Y015475D01*
X014158Y015378D01*
X014109Y015330D01*
X014012Y015427D02*
X014012Y015475D01*
X014158Y015625D02*
X013867Y015818D01*
X013964Y015919D02*
X013867Y016016D01*
X014158Y016016D01*
X014158Y015919D02*
X014158Y016113D01*
X014158Y016214D02*
X014158Y016408D01*
X014158Y016311D02*
X013867Y016311D01*
X013964Y016214D01*
X012480Y016887D02*
X012335Y017032D01*
X012287Y016983D02*
X012480Y017177D01*
X012287Y017177D02*
X012287Y016887D01*
X012186Y016935D02*
X012186Y017129D01*
X011992Y016935D01*
X012041Y016887D01*
X012137Y016887D01*
X012186Y016935D01*
X012186Y017129D02*
X012137Y017177D01*
X012041Y017177D01*
X011992Y017129D01*
X011992Y016935D01*
X011891Y016935D02*
X011843Y016887D01*
X011746Y016887D01*
X011698Y016935D01*
X011891Y017129D01*
X011891Y016935D01*
X011698Y016935D02*
X011698Y017129D01*
X011746Y017177D01*
X011843Y017177D01*
X011891Y017129D01*
X011597Y016887D02*
X011403Y016887D01*
X011500Y016887D02*
X011500Y017177D01*
X011403Y017080D01*
X011690Y017906D02*
X011884Y017906D01*
X011787Y017906D02*
X011787Y018197D01*
X011690Y018100D01*
X011985Y018197D02*
X011985Y017906D01*
X011985Y018003D02*
X012179Y018197D01*
X012033Y018051D02*
X012179Y017906D01*
X012605Y019784D02*
X012750Y019784D01*
X012851Y019784D02*
X013045Y019784D01*
X012948Y019784D02*
X012948Y020075D01*
X012851Y019978D01*
X012750Y019978D02*
X012605Y019978D01*
X012557Y019929D01*
X012557Y019833D01*
X012605Y019784D01*
X013146Y019833D02*
X013194Y019784D01*
X013291Y019784D01*
X013339Y019833D01*
X013339Y020026D01*
X013291Y020075D01*
X013194Y020075D01*
X013146Y020026D01*
X013146Y019978D01*
X013194Y019929D01*
X013339Y019929D01*
X015064Y019744D02*
X015064Y019454D01*
X015258Y019454D01*
X015359Y019454D02*
X015359Y019744D01*
X015553Y019744D01*
X015654Y019695D02*
X015702Y019744D01*
X015799Y019744D01*
X015847Y019695D01*
X015847Y019647D01*
X015799Y019599D01*
X015847Y019550D01*
X015847Y019502D01*
X015799Y019454D01*
X015702Y019454D01*
X015654Y019502D01*
X015751Y019599D02*
X015799Y019599D01*
X015948Y019599D02*
X016094Y019744D01*
X016094Y019454D01*
X016243Y019454D02*
X016243Y019502D01*
X016437Y019695D01*
X016437Y019744D01*
X016243Y019744D01*
X016142Y019599D02*
X015948Y019599D01*
X015456Y019599D02*
X015359Y019599D01*
X009253Y017699D02*
X009253Y017506D01*
X009205Y017458D01*
X009108Y017458D01*
X009060Y017506D01*
X009108Y017603D02*
X009253Y017603D01*
X009253Y017699D02*
X009205Y017748D01*
X009108Y017748D01*
X009060Y017699D01*
X009060Y017651D01*
X009108Y017603D01*
X008959Y017651D02*
X008814Y017651D01*
X008765Y017603D01*
X008765Y017506D01*
X008814Y017458D01*
X008959Y017458D01*
X007288Y017530D02*
X007240Y017481D01*
X007143Y017481D01*
X007095Y017530D01*
X007288Y017723D01*
X007288Y017530D01*
X007288Y017723D02*
X007240Y017771D01*
X007143Y017771D01*
X007095Y017723D01*
X007095Y017530D01*
X006994Y017481D02*
X006800Y017481D01*
X006897Y017481D02*
X006897Y017771D01*
X006800Y017675D01*
X006699Y017675D02*
X006554Y017675D01*
X006505Y017626D01*
X006505Y017530D01*
X006554Y017481D01*
X006699Y017481D01*
X004469Y017126D02*
X004275Y016932D01*
X004324Y016981D02*
X004469Y016835D01*
X004275Y016835D02*
X004275Y017126D01*
X004174Y017077D02*
X003981Y016884D01*
X004029Y016835D01*
X004126Y016835D01*
X004174Y016884D01*
X004174Y017077D01*
X004126Y017126D01*
X004029Y017126D01*
X003981Y017077D01*
X003981Y016884D01*
X003879Y016884D02*
X003831Y016835D01*
X003734Y016835D01*
X003686Y016884D01*
X003879Y017077D01*
X003879Y016884D01*
X003686Y016884D02*
X003686Y017077D01*
X003734Y017126D01*
X003831Y017126D01*
X003879Y017077D01*
X003585Y016835D02*
X003391Y016835D01*
X003488Y016835D02*
X003488Y017126D01*
X003391Y017029D01*
X003643Y017839D02*
X003837Y017839D01*
X003740Y017839D02*
X003740Y018130D01*
X003643Y018033D01*
X003938Y018130D02*
X003938Y017839D01*
X003938Y017936D02*
X004131Y018130D01*
X003986Y017985D02*
X004131Y017839D01*
X001964Y016435D02*
X001964Y016241D01*
X001770Y016435D01*
X001722Y016435D01*
X001673Y016386D01*
X001673Y016290D01*
X001722Y016241D01*
X001673Y016043D02*
X001964Y016043D01*
X001964Y015947D02*
X001964Y016140D01*
X001770Y015947D02*
X001673Y016043D01*
X001673Y015845D02*
X001964Y015652D01*
X001915Y015551D02*
X001964Y015502D01*
X001964Y015406D01*
X001915Y015357D01*
X001818Y015357D02*
X001770Y015454D01*
X001770Y015502D01*
X001818Y015551D01*
X001915Y015551D01*
X001818Y015357D02*
X001673Y015357D01*
X001673Y015551D01*
X001673Y015256D02*
X001964Y015063D01*
X001964Y014913D02*
X001673Y014913D01*
X001818Y014768D01*
X001818Y014961D01*
X001770Y014667D02*
X001770Y014522D01*
X001818Y014473D01*
X001915Y014473D01*
X001964Y014522D01*
X001964Y014667D01*
X003663Y014033D02*
X003760Y014130D01*
X003760Y013839D01*
X003856Y013839D02*
X003663Y013839D01*
X003958Y013839D02*
X003958Y014130D01*
X004006Y013985D02*
X004151Y013839D01*
X003958Y013936D02*
X004151Y014130D01*
X004120Y013114D02*
X003926Y012920D01*
X003974Y012969D02*
X004120Y012824D01*
X003926Y012824D02*
X003926Y013114D01*
X003728Y013114D02*
X003728Y012824D01*
X003631Y012824D02*
X003825Y012824D01*
X003631Y013017D02*
X003728Y013114D01*
X003760Y012118D02*
X003663Y012021D01*
X003760Y012118D02*
X003760Y011828D01*
X003856Y011828D02*
X003663Y011828D01*
X003958Y011828D02*
X003958Y012118D01*
X004006Y011973D02*
X004151Y011828D01*
X003958Y011924D02*
X004151Y012118D01*
X005608Y011626D02*
X005608Y011530D01*
X005656Y011481D01*
X005801Y011481D01*
X005902Y011481D02*
X006096Y011675D01*
X006096Y011723D01*
X006048Y011771D01*
X005951Y011771D01*
X005902Y011723D01*
X005801Y011675D02*
X005656Y011675D01*
X005608Y011626D01*
X005902Y011481D02*
X006096Y011481D01*
X006197Y011530D02*
X006391Y011723D01*
X006391Y011530D01*
X006342Y011481D01*
X006245Y011481D01*
X006197Y011530D01*
X006197Y011723D01*
X006245Y011771D01*
X006342Y011771D01*
X006391Y011723D01*
X008340Y011622D02*
X008340Y011526D01*
X008388Y011477D01*
X008534Y011477D01*
X008635Y011526D02*
X008635Y011622D01*
X008780Y011622D01*
X008828Y011574D01*
X008828Y011526D01*
X008780Y011477D01*
X008683Y011477D01*
X008635Y011526D01*
X008635Y011622D02*
X008731Y011719D01*
X008828Y011767D01*
X008534Y011671D02*
X008388Y011671D01*
X008340Y011622D01*
X009561Y011614D02*
X009561Y011518D01*
X009609Y011469D01*
X009754Y011469D01*
X009855Y011469D02*
X009855Y011518D01*
X010049Y011711D01*
X010049Y011760D01*
X009855Y011760D01*
X009754Y011663D02*
X009609Y011663D01*
X009561Y011614D01*
X011639Y011808D02*
X011833Y011808D01*
X011736Y011808D02*
X011736Y012098D01*
X011639Y012001D01*
X011934Y011905D02*
X012127Y012098D01*
X011934Y012098D02*
X011934Y011808D01*
X011982Y011953D02*
X012127Y011808D01*
X012804Y010811D02*
X012853Y010811D01*
X012901Y010763D01*
X012950Y010811D01*
X012998Y010811D01*
X013046Y010763D01*
X013046Y010666D01*
X012998Y010618D01*
X013046Y010517D02*
X013046Y010323D01*
X012853Y010517D01*
X012804Y010517D01*
X012756Y010468D01*
X012756Y010371D01*
X012804Y010323D01*
X012853Y010222D02*
X012853Y010077D01*
X012901Y010028D01*
X012998Y010028D01*
X013046Y010077D01*
X013046Y010222D01*
X012804Y010618D02*
X012756Y010666D01*
X012756Y010763D01*
X012804Y010811D01*
X012901Y010763D02*
X012901Y010714D01*
X010284Y009857D02*
X010284Y009663D01*
X010236Y009615D01*
X010139Y009615D01*
X010091Y009663D01*
X010284Y009857D01*
X010236Y009905D01*
X010139Y009905D01*
X010091Y009857D01*
X010091Y009663D01*
X009990Y009663D02*
X009990Y009712D01*
X009941Y009760D01*
X009796Y009760D01*
X009796Y009663D01*
X009844Y009615D01*
X009941Y009615D01*
X009990Y009663D01*
X009893Y009857D02*
X009796Y009760D01*
X009695Y009712D02*
X009695Y009663D01*
X009647Y009615D01*
X009550Y009615D01*
X009501Y009663D01*
X009598Y009760D02*
X009647Y009760D01*
X009695Y009712D01*
X009647Y009760D02*
X009695Y009808D01*
X009695Y009857D01*
X009647Y009905D01*
X009550Y009905D01*
X009501Y009857D01*
X009893Y009857D02*
X009990Y009905D01*
X006280Y009857D02*
X006280Y009663D01*
X006232Y009615D01*
X006135Y009615D01*
X006087Y009663D01*
X006280Y009857D01*
X006232Y009905D01*
X006135Y009905D01*
X006087Y009857D01*
X006087Y009663D01*
X005986Y009663D02*
X005986Y009712D01*
X005937Y009760D01*
X005792Y009760D01*
X005792Y009663D01*
X005841Y009615D01*
X005937Y009615D01*
X005986Y009663D01*
X005889Y009857D02*
X005792Y009760D01*
X005691Y009712D02*
X005691Y009663D01*
X005643Y009615D01*
X005546Y009615D01*
X005498Y009663D01*
X005594Y009760D02*
X005643Y009760D01*
X005691Y009712D01*
X005643Y009760D02*
X005691Y009808D01*
X005691Y009857D01*
X005643Y009905D01*
X005546Y009905D01*
X005498Y009857D01*
X005889Y009857D02*
X005986Y009905D01*
X008036Y013654D02*
X008326Y013654D01*
X008326Y013848D01*
X008326Y013949D02*
X008036Y013949D01*
X008036Y014143D01*
X008084Y014244D02*
X008036Y014292D01*
X008036Y014389D01*
X008084Y014437D01*
X008132Y014437D01*
X008181Y014389D01*
X008229Y014437D01*
X008277Y014437D01*
X008326Y014389D01*
X008326Y014292D01*
X008277Y014244D01*
X008181Y014340D02*
X008181Y014389D01*
X008181Y014538D02*
X008181Y014732D01*
X008277Y014833D02*
X008326Y014833D01*
X008277Y014833D02*
X008084Y015026D01*
X008036Y015026D01*
X008036Y014833D01*
X008036Y014683D02*
X008181Y014538D01*
X008326Y014683D02*
X008036Y014683D01*
X008181Y014046D02*
X008181Y013949D01*
X011608Y014021D02*
X011705Y014118D01*
X011705Y013828D01*
X011801Y013828D02*
X011608Y013828D01*
X011902Y013828D02*
X011902Y014118D01*
X011951Y013973D02*
X012096Y013828D01*
X011902Y013924D02*
X012096Y014118D01*
X012116Y013122D02*
X011922Y012928D01*
X011970Y012977D02*
X012116Y012832D01*
X011922Y012832D02*
X011922Y013122D01*
X011724Y013122D02*
X011724Y012832D01*
X011627Y012832D02*
X011821Y012832D01*
X011627Y013025D02*
X011724Y013122D01*
X004446Y021044D02*
X004252Y021044D01*
X004446Y021238D01*
X004446Y021286D01*
X004397Y021334D01*
X004301Y021334D01*
X004252Y021286D01*
X004151Y021286D02*
X004103Y021334D01*
X004006Y021334D01*
X003958Y021286D01*
X003856Y021238D02*
X003711Y021238D01*
X003663Y021189D01*
X003663Y021093D01*
X003711Y021044D01*
X003856Y021044D01*
X003958Y021044D02*
X004151Y021238D01*
X004151Y021286D01*
X004151Y021044D02*
X003958Y021044D01*
X003901Y021965D02*
X003530Y021965D01*
X003901Y021965D02*
X003901Y022212D01*
X003715Y022334D02*
X003715Y022581D01*
X003592Y022702D02*
X003839Y022702D01*
X003901Y022764D01*
X003901Y022887D01*
X003839Y022949D01*
X003901Y023070D02*
X003530Y023070D01*
X003592Y022949D02*
X003530Y022887D01*
X003530Y022764D01*
X003592Y022702D01*
X003715Y023070D02*
X003715Y023317D01*
X003530Y023317D02*
X003901Y023317D01*
X003901Y024918D02*
X003530Y024918D01*
X003530Y025103D01*
X003592Y025165D01*
X003715Y025165D01*
X003777Y025103D01*
X003777Y024918D01*
X003777Y025042D02*
X003901Y025165D01*
X003715Y025286D02*
X003715Y025533D01*
X003592Y025655D02*
X003839Y025655D01*
X003901Y025716D01*
X003901Y025840D01*
X003839Y025902D01*
X003901Y026023D02*
X003530Y026023D01*
X003592Y025902D02*
X003530Y025840D01*
X003530Y025716D01*
X003592Y025655D01*
X003715Y026023D02*
X003715Y026270D01*
X003530Y026270D02*
X003901Y026270D01*
X004169Y027324D02*
X004266Y027324D01*
X004314Y027372D01*
X004314Y027517D01*
X004314Y027618D02*
X004314Y027812D01*
X004314Y027715D02*
X004024Y027715D01*
X004120Y027618D01*
X004120Y027517D02*
X004120Y027372D01*
X004169Y027324D01*
X004217Y027913D02*
X004169Y027961D01*
X004169Y028058D01*
X004217Y028106D01*
X004266Y028106D01*
X004314Y028058D01*
X004314Y027961D01*
X004266Y027913D01*
X004217Y027913D01*
X004169Y027961D02*
X004120Y027913D01*
X004072Y027913D01*
X004024Y027961D01*
X004024Y028058D01*
X004072Y028106D01*
X004120Y028106D01*
X004169Y028058D01*
X036746Y028904D02*
X036794Y028855D01*
X036939Y028855D01*
X037040Y028855D02*
X037234Y028855D01*
X037137Y028855D02*
X037137Y029145D01*
X037040Y029049D01*
X036939Y029049D02*
X036794Y029049D01*
X036746Y029000D01*
X036746Y028904D01*
X037335Y028904D02*
X037335Y028855D01*
X037335Y028904D02*
X037528Y029097D01*
X037528Y029145D01*
X037335Y029145D01*
X038216Y019748D02*
X038216Y019555D01*
X038216Y019651D02*
X037925Y019651D01*
X038022Y019555D01*
X038022Y019454D02*
X037974Y019454D01*
X037925Y019405D01*
X037925Y019308D01*
X037974Y019260D01*
X038022Y019159D02*
X038022Y019014D01*
X038070Y018965D01*
X038167Y018965D01*
X038216Y019014D01*
X038216Y019159D01*
X038216Y019260D02*
X038022Y019454D01*
X038216Y019454D02*
X038216Y019260D01*
X039609Y013275D02*
X039513Y013179D01*
X039411Y013179D02*
X039266Y013179D01*
X039218Y013130D01*
X039218Y013033D01*
X039266Y012985D01*
X039411Y012985D01*
X039513Y012985D02*
X039706Y012985D01*
X039609Y012985D02*
X039609Y013275D01*
X039807Y013130D02*
X039952Y013130D01*
X040001Y013082D01*
X040001Y013033D01*
X039952Y012985D01*
X039856Y012985D01*
X039807Y013033D01*
X039807Y013130D01*
X039904Y013227D01*
X040001Y013275D01*
D13*
X017431Y019163D02*
X014160Y019163D01*
X014160Y020076D01*
X014479Y020076D01*
X014479Y019167D01*
X014479Y020076D02*
X017431Y020076D01*
X017431Y019163D01*
X008412Y015080D02*
X008412Y011876D01*
X007420Y011876D01*
X007420Y011880D02*
X007420Y015080D01*
X008412Y015080D01*
X008404Y012191D02*
X007435Y012191D01*
D14*
X005010Y019328D02*
X003065Y019328D01*
X003065Y019431D01*
X003038Y020726D02*
X003038Y020856D01*
X005018Y020856D01*
X005018Y020750D01*
X005010Y019399D02*
X005006Y019399D01*
X005010Y019399D02*
X005010Y019328D01*
D15*
X003400Y020065D03*
D16*
X006547Y007643D02*
X006547Y000100D01*
X032047Y000100D01*
X032047Y007643D01*
X040733Y007643D01*
X040733Y029628D01*
X001362Y029628D01*
X001362Y007643D01*
X006547Y007643D01*
X001860Y008694D02*
X001862Y008744D01*
X001868Y008794D01*
X001878Y008843D01*
X001892Y008891D01*
X001909Y008938D01*
X001930Y008983D01*
X001955Y009027D01*
X001983Y009068D01*
X002015Y009107D01*
X002049Y009144D01*
X002086Y009178D01*
X002126Y009208D01*
X002168Y009235D01*
X002212Y009259D01*
X002258Y009280D01*
X002305Y009296D01*
X002353Y009309D01*
X002403Y009318D01*
X002452Y009323D01*
X002503Y009324D01*
X002553Y009321D01*
X002602Y009314D01*
X002651Y009303D01*
X002699Y009288D01*
X002745Y009270D01*
X002790Y009248D01*
X002833Y009222D01*
X002874Y009193D01*
X002913Y009161D01*
X002949Y009126D01*
X002981Y009088D01*
X003011Y009048D01*
X003038Y009005D01*
X003061Y008961D01*
X003080Y008915D01*
X003096Y008867D01*
X003108Y008818D01*
X003116Y008769D01*
X003120Y008719D01*
X003120Y008669D01*
X003116Y008619D01*
X003108Y008570D01*
X003096Y008521D01*
X003080Y008473D01*
X003061Y008427D01*
X003038Y008383D01*
X003011Y008340D01*
X002981Y008300D01*
X002949Y008262D01*
X002913Y008227D01*
X002874Y008195D01*
X002833Y008166D01*
X002790Y008140D01*
X002745Y008118D01*
X002699Y008100D01*
X002651Y008085D01*
X002602Y008074D01*
X002553Y008067D01*
X002503Y008064D01*
X002452Y008065D01*
X002403Y008070D01*
X002353Y008079D01*
X002305Y008092D01*
X002258Y008108D01*
X002212Y008129D01*
X002168Y008153D01*
X002126Y008180D01*
X002086Y008210D01*
X002049Y008244D01*
X002015Y008281D01*
X001983Y008320D01*
X001955Y008361D01*
X001930Y008405D01*
X001909Y008450D01*
X001892Y008497D01*
X001878Y008545D01*
X001868Y008594D01*
X001862Y008644D01*
X001860Y008694D01*
X001860Y028616D02*
X001862Y028666D01*
X001868Y028716D01*
X001878Y028765D01*
X001892Y028813D01*
X001909Y028860D01*
X001930Y028905D01*
X001955Y028949D01*
X001983Y028990D01*
X002015Y029029D01*
X002049Y029066D01*
X002086Y029100D01*
X002126Y029130D01*
X002168Y029157D01*
X002212Y029181D01*
X002258Y029202D01*
X002305Y029218D01*
X002353Y029231D01*
X002403Y029240D01*
X002452Y029245D01*
X002503Y029246D01*
X002553Y029243D01*
X002602Y029236D01*
X002651Y029225D01*
X002699Y029210D01*
X002745Y029192D01*
X002790Y029170D01*
X002833Y029144D01*
X002874Y029115D01*
X002913Y029083D01*
X002949Y029048D01*
X002981Y029010D01*
X003011Y028970D01*
X003038Y028927D01*
X003061Y028883D01*
X003080Y028837D01*
X003096Y028789D01*
X003108Y028740D01*
X003116Y028691D01*
X003120Y028641D01*
X003120Y028591D01*
X003116Y028541D01*
X003108Y028492D01*
X003096Y028443D01*
X003080Y028395D01*
X003061Y028349D01*
X003038Y028305D01*
X003011Y028262D01*
X002981Y028222D01*
X002949Y028184D01*
X002913Y028149D01*
X002874Y028117D01*
X002833Y028088D01*
X002790Y028062D01*
X002745Y028040D01*
X002699Y028022D01*
X002651Y028007D01*
X002602Y027996D01*
X002553Y027989D01*
X002503Y027986D01*
X002452Y027987D01*
X002403Y027992D01*
X002353Y028001D01*
X002305Y028014D01*
X002258Y028030D01*
X002212Y028051D01*
X002168Y028075D01*
X002126Y028102D01*
X002086Y028132D01*
X002049Y028166D01*
X002015Y028203D01*
X001983Y028242D01*
X001955Y028283D01*
X001930Y028327D01*
X001909Y028372D01*
X001892Y028419D01*
X001878Y028467D01*
X001868Y028516D01*
X001862Y028566D01*
X001860Y028616D01*
X038986Y028576D02*
X038988Y028626D01*
X038994Y028676D01*
X039004Y028725D01*
X039018Y028773D01*
X039035Y028820D01*
X039056Y028865D01*
X039081Y028909D01*
X039109Y028950D01*
X039141Y028989D01*
X039175Y029026D01*
X039212Y029060D01*
X039252Y029090D01*
X039294Y029117D01*
X039338Y029141D01*
X039384Y029162D01*
X039431Y029178D01*
X039479Y029191D01*
X039529Y029200D01*
X039578Y029205D01*
X039629Y029206D01*
X039679Y029203D01*
X039728Y029196D01*
X039777Y029185D01*
X039825Y029170D01*
X039871Y029152D01*
X039916Y029130D01*
X039959Y029104D01*
X040000Y029075D01*
X040039Y029043D01*
X040075Y029008D01*
X040107Y028970D01*
X040137Y028930D01*
X040164Y028887D01*
X040187Y028843D01*
X040206Y028797D01*
X040222Y028749D01*
X040234Y028700D01*
X040242Y028651D01*
X040246Y028601D01*
X040246Y028551D01*
X040242Y028501D01*
X040234Y028452D01*
X040222Y028403D01*
X040206Y028355D01*
X040187Y028309D01*
X040164Y028265D01*
X040137Y028222D01*
X040107Y028182D01*
X040075Y028144D01*
X040039Y028109D01*
X040000Y028077D01*
X039959Y028048D01*
X039916Y028022D01*
X039871Y028000D01*
X039825Y027982D01*
X039777Y027967D01*
X039728Y027956D01*
X039679Y027949D01*
X039629Y027946D01*
X039578Y027947D01*
X039529Y027952D01*
X039479Y027961D01*
X039431Y027974D01*
X039384Y027990D01*
X039338Y028011D01*
X039294Y028035D01*
X039252Y028062D01*
X039212Y028092D01*
X039175Y028126D01*
X039141Y028163D01*
X039109Y028202D01*
X039081Y028243D01*
X039056Y028287D01*
X039035Y028332D01*
X039018Y028379D01*
X039004Y028427D01*
X038994Y028476D01*
X038988Y028526D01*
X038986Y028576D01*
X038986Y008655D02*
X038988Y008705D01*
X038994Y008755D01*
X039004Y008804D01*
X039018Y008852D01*
X039035Y008899D01*
X039056Y008944D01*
X039081Y008988D01*
X039109Y009029D01*
X039141Y009068D01*
X039175Y009105D01*
X039212Y009139D01*
X039252Y009169D01*
X039294Y009196D01*
X039338Y009220D01*
X039384Y009241D01*
X039431Y009257D01*
X039479Y009270D01*
X039529Y009279D01*
X039578Y009284D01*
X039629Y009285D01*
X039679Y009282D01*
X039728Y009275D01*
X039777Y009264D01*
X039825Y009249D01*
X039871Y009231D01*
X039916Y009209D01*
X039959Y009183D01*
X040000Y009154D01*
X040039Y009122D01*
X040075Y009087D01*
X040107Y009049D01*
X040137Y009009D01*
X040164Y008966D01*
X040187Y008922D01*
X040206Y008876D01*
X040222Y008828D01*
X040234Y008779D01*
X040242Y008730D01*
X040246Y008680D01*
X040246Y008630D01*
X040242Y008580D01*
X040234Y008531D01*
X040222Y008482D01*
X040206Y008434D01*
X040187Y008388D01*
X040164Y008344D01*
X040137Y008301D01*
X040107Y008261D01*
X040075Y008223D01*
X040039Y008188D01*
X040000Y008156D01*
X039959Y008127D01*
X039916Y008101D01*
X039871Y008079D01*
X039825Y008061D01*
X039777Y008046D01*
X039728Y008035D01*
X039679Y008028D01*
X039629Y008025D01*
X039578Y008026D01*
X039529Y008031D01*
X039479Y008040D01*
X039431Y008053D01*
X039384Y008069D01*
X039338Y008090D01*
X039294Y008114D01*
X039252Y008141D01*
X039212Y008171D01*
X039175Y008205D01*
X039141Y008242D01*
X039109Y008281D01*
X039081Y008322D01*
X039056Y008366D01*
X039035Y008411D01*
X039018Y008458D01*
X039004Y008506D01*
X038994Y008555D01*
X038988Y008605D01*
X038986Y008655D01*
D17*
X039149Y013402D02*
X039949Y013402D01*
X039966Y013404D01*
X039983Y013408D01*
X039999Y013415D01*
X040013Y013425D01*
X040026Y013438D01*
X040036Y013452D01*
X040043Y013468D01*
X040047Y013485D01*
X040049Y013502D01*
X040049Y015202D01*
X040047Y015219D01*
X040043Y015236D01*
X040036Y015252D01*
X040026Y015266D01*
X040013Y015279D01*
X039999Y015289D01*
X039983Y015296D01*
X039966Y015300D01*
X039949Y015302D01*
X039149Y015302D01*
X039132Y015300D01*
X039115Y015296D01*
X039099Y015289D01*
X039085Y015279D01*
X039072Y015266D01*
X039062Y015252D01*
X039055Y015236D01*
X039051Y015219D01*
X039049Y015202D01*
X039049Y013502D01*
X039051Y013485D01*
X039055Y013468D01*
X039062Y013452D01*
X039072Y013438D01*
X039085Y013425D01*
X039099Y013415D01*
X039115Y013408D01*
X039132Y013404D01*
X039149Y013402D01*
X039549Y014202D02*
X039549Y014252D01*
X039549Y014452D02*
X039549Y014502D01*
X038927Y018733D02*
X038927Y018833D01*
X038827Y018833D01*
X038927Y018833D02*
X038927Y018933D01*
X038927Y018833D02*
X039027Y018833D01*
X038427Y019383D02*
X038429Y019446D01*
X038435Y019508D01*
X038445Y019570D01*
X038458Y019632D01*
X038476Y019692D01*
X038497Y019751D01*
X038522Y019809D01*
X038551Y019865D01*
X038583Y019919D01*
X038618Y019971D01*
X038656Y020020D01*
X038698Y020068D01*
X038742Y020112D01*
X038790Y020154D01*
X038839Y020192D01*
X038891Y020227D01*
X038945Y020259D01*
X039001Y020288D01*
X039059Y020313D01*
X039118Y020334D01*
X039178Y020352D01*
X039240Y020365D01*
X039302Y020375D01*
X039364Y020381D01*
X039427Y020383D01*
X039490Y020381D01*
X039552Y020375D01*
X039614Y020365D01*
X039676Y020352D01*
X039736Y020334D01*
X039795Y020313D01*
X039853Y020288D01*
X039909Y020259D01*
X039963Y020227D01*
X040015Y020192D01*
X040064Y020154D01*
X040112Y020112D01*
X040156Y020068D01*
X040198Y020020D01*
X040236Y019971D01*
X040271Y019919D01*
X040303Y019865D01*
X040332Y019809D01*
X040357Y019751D01*
X040378Y019692D01*
X040396Y019632D01*
X040409Y019570D01*
X040419Y019508D01*
X040425Y019446D01*
X040427Y019383D01*
X040425Y019320D01*
X040419Y019258D01*
X040409Y019196D01*
X040396Y019134D01*
X040378Y019074D01*
X040357Y019015D01*
X040332Y018957D01*
X040303Y018901D01*
X040271Y018847D01*
X040236Y018795D01*
X040198Y018746D01*
X040156Y018698D01*
X040112Y018654D01*
X040064Y018612D01*
X040015Y018574D01*
X039963Y018539D01*
X039909Y018507D01*
X039853Y018478D01*
X039795Y018453D01*
X039736Y018432D01*
X039676Y018414D01*
X039614Y018401D01*
X039552Y018391D01*
X039490Y018385D01*
X039427Y018383D01*
X039364Y018385D01*
X039302Y018391D01*
X039240Y018401D01*
X039178Y018414D01*
X039118Y018432D01*
X039059Y018453D01*
X039001Y018478D01*
X038945Y018507D01*
X038891Y018539D01*
X038839Y018574D01*
X038790Y018612D01*
X038742Y018654D01*
X038698Y018698D01*
X038656Y018746D01*
X038618Y018795D01*
X038583Y018847D01*
X038551Y018901D01*
X038522Y018957D01*
X038497Y019015D01*
X038476Y019074D01*
X038458Y019134D01*
X038445Y019196D01*
X038435Y019258D01*
X038429Y019320D01*
X038427Y019383D01*
X040509Y021563D02*
X018709Y021563D01*
X018709Y023663D01*
X018753Y023665D01*
X018796Y023671D01*
X018838Y023680D01*
X018880Y023693D01*
X018920Y023710D01*
X018959Y023730D01*
X018996Y023753D01*
X019030Y023780D01*
X019063Y023809D01*
X019092Y023842D01*
X019119Y023876D01*
X019142Y023913D01*
X019162Y023952D01*
X019179Y023992D01*
X019192Y024034D01*
X019201Y024076D01*
X019207Y024119D01*
X019209Y024163D01*
X019207Y024207D01*
X019201Y024250D01*
X019192Y024292D01*
X019179Y024334D01*
X019162Y024374D01*
X019142Y024413D01*
X019119Y024450D01*
X019092Y024484D01*
X019063Y024517D01*
X019030Y024546D01*
X018996Y024573D01*
X018959Y024596D01*
X018920Y024616D01*
X018880Y024633D01*
X018838Y024646D01*
X018796Y024655D01*
X018753Y024661D01*
X018709Y024663D01*
X018709Y026763D01*
X040509Y026763D01*
X040509Y021563D01*
X037959Y027734D02*
X036259Y027734D01*
X036242Y027736D01*
X036225Y027740D01*
X036209Y027747D01*
X036195Y027757D01*
X036182Y027770D01*
X036172Y027784D01*
X036165Y027800D01*
X036161Y027817D01*
X036159Y027834D01*
X036159Y028634D01*
X036161Y028651D01*
X036165Y028668D01*
X036172Y028684D01*
X036182Y028698D01*
X036195Y028711D01*
X036209Y028721D01*
X036225Y028728D01*
X036242Y028732D01*
X036259Y028734D01*
X037959Y028734D01*
X037976Y028732D01*
X037993Y028728D01*
X038009Y028721D01*
X038023Y028711D01*
X038036Y028698D01*
X038046Y028684D01*
X038053Y028668D01*
X038057Y028651D01*
X038059Y028634D01*
X038059Y027834D01*
X038057Y027817D01*
X038053Y027800D01*
X038046Y027784D01*
X038036Y027770D01*
X038023Y027757D01*
X038009Y027747D01*
X037993Y027740D01*
X037976Y027736D01*
X037959Y027734D01*
X037259Y028234D02*
X037209Y028234D01*
X037009Y028234D02*
X036959Y028234D01*
X022661Y017370D02*
X022661Y016570D01*
X022659Y016553D01*
X022655Y016536D01*
X022648Y016520D01*
X022638Y016506D01*
X022625Y016493D01*
X022611Y016483D01*
X022595Y016476D01*
X022578Y016472D01*
X022561Y016470D01*
X020861Y016470D01*
X020844Y016472D01*
X020827Y016476D01*
X020811Y016483D01*
X020797Y016493D01*
X020784Y016506D01*
X020774Y016520D01*
X020767Y016536D01*
X020763Y016553D01*
X020761Y016570D01*
X020761Y017370D01*
X020763Y017387D01*
X020767Y017404D01*
X020774Y017420D01*
X020784Y017434D01*
X020797Y017447D01*
X020811Y017457D01*
X020827Y017464D01*
X020844Y017468D01*
X020861Y017470D01*
X022561Y017470D01*
X022578Y017468D01*
X022595Y017464D01*
X022611Y017457D01*
X022625Y017447D01*
X022638Y017434D01*
X022648Y017420D01*
X022655Y017404D01*
X022659Y017387D01*
X022661Y017370D01*
X021861Y016970D02*
X021811Y016970D01*
X021611Y016970D02*
X021561Y016970D01*
X021803Y016306D02*
X022603Y016306D01*
X022620Y016304D01*
X022637Y016300D01*
X022653Y016293D01*
X022667Y016283D01*
X022680Y016270D01*
X022690Y016256D01*
X022697Y016240D01*
X022701Y016223D01*
X022703Y016206D01*
X022703Y014506D01*
X022701Y014489D01*
X022697Y014472D01*
X022690Y014456D01*
X022680Y014442D01*
X022667Y014429D01*
X022653Y014419D01*
X022637Y014412D01*
X022620Y014408D01*
X022603Y014406D01*
X021803Y014406D01*
X021786Y014408D01*
X021769Y014412D01*
X021753Y014419D01*
X021739Y014429D01*
X021726Y014442D01*
X021716Y014456D01*
X021709Y014472D01*
X021705Y014489D01*
X021703Y014506D01*
X021703Y016206D01*
X021705Y016223D01*
X021709Y016240D01*
X021716Y016256D01*
X021726Y016270D01*
X021739Y016283D01*
X021753Y016293D01*
X021769Y016300D01*
X021786Y016304D01*
X021803Y016306D01*
X022203Y015506D02*
X022203Y015456D01*
X022203Y015256D02*
X022203Y015206D01*
X022876Y015622D02*
X022876Y015772D01*
X022878Y015789D01*
X022882Y015806D01*
X022889Y015822D01*
X022899Y015836D01*
X022912Y015849D01*
X022926Y015859D01*
X022942Y015866D01*
X022959Y015870D01*
X022976Y015872D01*
X023576Y015872D01*
X023593Y015870D01*
X023610Y015866D01*
X023626Y015859D01*
X023640Y015849D01*
X023653Y015836D01*
X023663Y015822D01*
X023670Y015806D01*
X023674Y015789D01*
X023676Y015772D01*
X023676Y015622D01*
X023626Y015572D01*
X023626Y014172D01*
X023676Y014122D01*
X023676Y013972D01*
X023674Y013955D01*
X023670Y013938D01*
X023663Y013922D01*
X023653Y013908D01*
X023640Y013895D01*
X023626Y013885D01*
X023610Y013878D01*
X023593Y013874D01*
X023576Y013872D01*
X022976Y013872D01*
X022959Y013874D01*
X022942Y013878D01*
X022926Y013885D01*
X022912Y013895D01*
X022899Y013908D01*
X022889Y013922D01*
X022882Y013938D01*
X022878Y013955D01*
X022876Y013972D01*
X022876Y014122D01*
X022926Y014172D01*
X022926Y015572D01*
X022876Y015622D01*
X024114Y016123D02*
X024114Y013723D01*
X024116Y013673D01*
X024122Y013624D01*
X024131Y013575D01*
X024144Y013527D01*
X024161Y013480D01*
X024181Y013435D01*
X024205Y013391D01*
X024232Y013349D01*
X024263Y013309D01*
X024296Y013272D01*
X024332Y013238D01*
X024370Y013206D01*
X024411Y013177D01*
X024453Y013152D01*
X024498Y013130D01*
X024544Y013111D01*
X024592Y013096D01*
X024640Y013085D01*
X024689Y013077D01*
X024739Y013073D01*
X024789Y013073D01*
X024839Y013077D01*
X024888Y013085D01*
X024936Y013096D01*
X024984Y013111D01*
X025030Y013130D01*
X025075Y013152D01*
X025117Y013177D01*
X025158Y013206D01*
X025196Y013238D01*
X025232Y013272D01*
X025265Y013309D01*
X025296Y013349D01*
X025323Y013391D01*
X025347Y013435D01*
X025367Y013480D01*
X025384Y013527D01*
X025397Y013575D01*
X025406Y013624D01*
X025412Y013673D01*
X025414Y013723D01*
X025414Y016123D01*
X025412Y016173D01*
X025406Y016222D01*
X025397Y016271D01*
X025384Y016319D01*
X025367Y016366D01*
X025347Y016411D01*
X025323Y016455D01*
X025296Y016497D01*
X025265Y016537D01*
X025232Y016574D01*
X025196Y016608D01*
X025158Y016640D01*
X025117Y016669D01*
X025075Y016694D01*
X025030Y016716D01*
X024984Y016735D01*
X024936Y016750D01*
X024888Y016761D01*
X024839Y016769D01*
X024789Y016773D01*
X024739Y016773D01*
X024689Y016769D01*
X024640Y016761D01*
X024592Y016750D01*
X024544Y016735D01*
X024498Y016716D01*
X024453Y016694D01*
X024411Y016669D01*
X024370Y016640D01*
X024332Y016608D01*
X024296Y016574D01*
X024263Y016537D01*
X024232Y016497D01*
X024205Y016455D01*
X024181Y016411D01*
X024161Y016366D01*
X024144Y016319D01*
X024131Y016271D01*
X024122Y016222D01*
X024116Y016173D01*
X024114Y016123D01*
X024764Y015423D02*
X024764Y015173D01*
X025064Y015173D01*
X025064Y015023D02*
X025064Y014823D01*
X024464Y014823D01*
X024464Y015023D01*
X025064Y015023D01*
X024764Y015173D02*
X024464Y015173D01*
X024464Y014673D02*
X024764Y014673D01*
X024764Y014423D01*
X024764Y014673D02*
X025064Y014673D01*
X022723Y014080D02*
X022723Y012380D01*
X022721Y012363D01*
X022717Y012346D01*
X022710Y012330D01*
X022700Y012316D01*
X022687Y012303D01*
X022673Y012293D01*
X022657Y012286D01*
X022640Y012282D01*
X022623Y012280D01*
X021823Y012280D01*
X021806Y012282D01*
X021789Y012286D01*
X021773Y012293D01*
X021759Y012303D01*
X021746Y012316D01*
X021736Y012330D01*
X021729Y012346D01*
X021725Y012363D01*
X021723Y012380D01*
X021723Y014080D01*
X021725Y014097D01*
X021729Y014114D01*
X021736Y014130D01*
X021746Y014144D01*
X021759Y014157D01*
X021773Y014167D01*
X021789Y014174D01*
X021806Y014178D01*
X021823Y014180D01*
X022623Y014180D01*
X022640Y014178D01*
X022657Y014174D01*
X022673Y014167D01*
X022687Y014157D01*
X022700Y014144D01*
X022710Y014130D01*
X022717Y014114D01*
X022721Y014097D01*
X022723Y014080D01*
X022223Y013380D02*
X022223Y013330D01*
X022223Y013130D02*
X022223Y013080D01*
X024812Y010920D02*
X014412Y010920D01*
X014412Y010070D01*
X014442Y010068D01*
X014472Y010063D01*
X014501Y010054D01*
X014528Y010041D01*
X014554Y010026D01*
X014578Y010007D01*
X014599Y009986D01*
X014618Y009962D01*
X014633Y009936D01*
X014646Y009909D01*
X014655Y009880D01*
X014660Y009850D01*
X014662Y009820D01*
X014660Y009790D01*
X014655Y009760D01*
X014646Y009731D01*
X014633Y009704D01*
X014618Y009678D01*
X014599Y009654D01*
X014578Y009633D01*
X014554Y009614D01*
X014528Y009599D01*
X014501Y009586D01*
X014472Y009577D01*
X014442Y009572D01*
X014412Y009570D01*
X014412Y008720D01*
X024812Y008720D01*
X024812Y010920D01*
X016947Y012531D02*
X016847Y012531D01*
X016847Y012431D01*
X016847Y012531D02*
X016747Y012531D01*
X016847Y012531D02*
X016847Y012631D01*
X015297Y013031D02*
X015299Y013094D01*
X015305Y013156D01*
X015315Y013218D01*
X015328Y013280D01*
X015346Y013340D01*
X015367Y013399D01*
X015392Y013457D01*
X015421Y013513D01*
X015453Y013567D01*
X015488Y013619D01*
X015526Y013668D01*
X015568Y013716D01*
X015612Y013760D01*
X015660Y013802D01*
X015709Y013840D01*
X015761Y013875D01*
X015815Y013907D01*
X015871Y013936D01*
X015929Y013961D01*
X015988Y013982D01*
X016048Y014000D01*
X016110Y014013D01*
X016172Y014023D01*
X016234Y014029D01*
X016297Y014031D01*
X016360Y014029D01*
X016422Y014023D01*
X016484Y014013D01*
X016546Y014000D01*
X016606Y013982D01*
X016665Y013961D01*
X016723Y013936D01*
X016779Y013907D01*
X016833Y013875D01*
X016885Y013840D01*
X016934Y013802D01*
X016982Y013760D01*
X017026Y013716D01*
X017068Y013668D01*
X017106Y013619D01*
X017141Y013567D01*
X017173Y013513D01*
X017202Y013457D01*
X017227Y013399D01*
X017248Y013340D01*
X017266Y013280D01*
X017279Y013218D01*
X017289Y013156D01*
X017295Y013094D01*
X017297Y013031D01*
X017295Y012968D01*
X017289Y012906D01*
X017279Y012844D01*
X017266Y012782D01*
X017248Y012722D01*
X017227Y012663D01*
X017202Y012605D01*
X017173Y012549D01*
X017141Y012495D01*
X017106Y012443D01*
X017068Y012394D01*
X017026Y012346D01*
X016982Y012302D01*
X016934Y012260D01*
X016885Y012222D01*
X016833Y012187D01*
X016779Y012155D01*
X016723Y012126D01*
X016665Y012101D01*
X016606Y012080D01*
X016546Y012062D01*
X016484Y012049D01*
X016422Y012039D01*
X016360Y012033D01*
X016297Y012031D01*
X016234Y012033D01*
X016172Y012039D01*
X016110Y012049D01*
X016048Y012062D01*
X015988Y012080D01*
X015929Y012101D01*
X015871Y012126D01*
X015815Y012155D01*
X015761Y012187D01*
X015709Y012222D01*
X015660Y012260D01*
X015612Y012302D01*
X015568Y012346D01*
X015526Y012394D01*
X015488Y012443D01*
X015453Y012495D01*
X015421Y012549D01*
X015392Y012605D01*
X015367Y012663D01*
X015346Y012722D01*
X015328Y012782D01*
X015315Y012844D01*
X015305Y012906D01*
X015299Y012968D01*
X015297Y013031D01*
X014486Y012969D02*
X014486Y012919D01*
X014486Y013169D02*
X014486Y013219D01*
X013986Y013919D02*
X013988Y013936D01*
X013992Y013953D01*
X013999Y013969D01*
X014009Y013983D01*
X014022Y013996D01*
X014036Y014006D01*
X014052Y014013D01*
X014069Y014017D01*
X014086Y014019D01*
X014886Y014019D01*
X014903Y014017D01*
X014920Y014013D01*
X014936Y014006D01*
X014950Y013996D01*
X014963Y013983D01*
X014973Y013969D01*
X014980Y013953D01*
X014984Y013936D01*
X014986Y013919D01*
X014986Y012219D01*
X014984Y012202D01*
X014980Y012185D01*
X014973Y012169D01*
X014963Y012155D01*
X014950Y012142D01*
X014936Y012132D01*
X014920Y012125D01*
X014903Y012121D01*
X014886Y012119D01*
X014086Y012119D01*
X014069Y012121D01*
X014052Y012125D01*
X014036Y012132D01*
X014022Y012142D01*
X014009Y012155D01*
X013999Y012169D01*
X013992Y012185D01*
X013988Y012202D01*
X013986Y012219D01*
X013986Y013919D01*
X013568Y014504D02*
X012768Y014504D01*
X012751Y014506D01*
X012734Y014510D01*
X012718Y014517D01*
X012704Y014527D01*
X012691Y014540D01*
X012681Y014554D01*
X012674Y014570D01*
X012670Y014587D01*
X012668Y014604D01*
X012668Y016304D01*
X012670Y016321D01*
X012674Y016338D01*
X012681Y016354D01*
X012691Y016368D01*
X012704Y016381D01*
X012718Y016391D01*
X012734Y016398D01*
X012751Y016402D01*
X012768Y016404D01*
X013568Y016404D01*
X013585Y016402D01*
X013602Y016398D01*
X013618Y016391D01*
X013632Y016381D01*
X013645Y016368D01*
X013655Y016354D01*
X013662Y016338D01*
X013666Y016321D01*
X013668Y016304D01*
X013668Y014604D01*
X013666Y014587D01*
X013662Y014570D01*
X013655Y014554D01*
X013645Y014540D01*
X013632Y014527D01*
X013618Y014517D01*
X013602Y014510D01*
X013585Y014506D01*
X013568Y014504D01*
X012916Y014270D02*
X012916Y013670D01*
X012914Y013653D01*
X012910Y013636D01*
X012903Y013620D01*
X012893Y013606D01*
X012880Y013593D01*
X012866Y013583D01*
X012850Y013576D01*
X012833Y013572D01*
X012816Y013570D01*
X012666Y013570D01*
X012616Y013620D01*
X011216Y013620D01*
X011166Y013570D01*
X011016Y013570D01*
X010999Y013572D01*
X010982Y013576D01*
X010966Y013583D01*
X010952Y013593D01*
X010939Y013606D01*
X010929Y013620D01*
X010922Y013636D01*
X010918Y013653D01*
X010916Y013670D01*
X010916Y014270D01*
X010918Y014287D01*
X010922Y014304D01*
X010929Y014320D01*
X010939Y014334D01*
X010952Y014347D01*
X010966Y014357D01*
X010982Y014364D01*
X010999Y014368D01*
X011016Y014370D01*
X011166Y014370D01*
X011216Y014320D01*
X012616Y014320D01*
X012666Y014370D01*
X012816Y014370D01*
X012833Y014368D01*
X012850Y014364D01*
X012866Y014357D01*
X012880Y014347D01*
X012893Y014334D01*
X012903Y014320D01*
X012910Y014304D01*
X012914Y014287D01*
X012916Y014270D01*
X012427Y014624D02*
X012427Y016324D01*
X012425Y016341D01*
X012421Y016358D01*
X012414Y016374D01*
X012404Y016388D01*
X012391Y016401D01*
X012377Y016411D01*
X012361Y016418D01*
X012344Y016422D01*
X012327Y016424D01*
X011527Y016424D01*
X011510Y016422D01*
X011493Y016418D01*
X011477Y016411D01*
X011463Y016401D01*
X011450Y016388D01*
X011440Y016374D01*
X011433Y016358D01*
X011429Y016341D01*
X011427Y016324D01*
X011427Y014624D01*
X011429Y014607D01*
X011433Y014590D01*
X011440Y014574D01*
X011450Y014560D01*
X011463Y014547D01*
X011477Y014537D01*
X011493Y014530D01*
X011510Y014526D01*
X011527Y014524D01*
X012327Y014524D01*
X012344Y014526D01*
X012361Y014530D01*
X012377Y014537D01*
X012391Y014547D01*
X012404Y014560D01*
X012414Y014574D01*
X012421Y014590D01*
X012425Y014607D01*
X012427Y014624D01*
X011927Y015324D02*
X011927Y015374D01*
X011927Y015574D02*
X011927Y015624D01*
X011168Y016324D02*
X011168Y014624D01*
X011166Y014607D01*
X011162Y014590D01*
X011155Y014574D01*
X011145Y014560D01*
X011132Y014547D01*
X011118Y014537D01*
X011102Y014530D01*
X011085Y014526D01*
X011068Y014524D01*
X010268Y014524D01*
X010251Y014526D01*
X010234Y014530D01*
X010218Y014537D01*
X010204Y014547D01*
X010191Y014560D01*
X010181Y014574D01*
X010174Y014590D01*
X010170Y014607D01*
X010168Y014624D01*
X010168Y016324D01*
X010170Y016341D01*
X010174Y016358D01*
X010181Y016374D01*
X010191Y016388D01*
X010204Y016401D01*
X010218Y016411D01*
X010234Y016418D01*
X010251Y016422D01*
X010268Y016424D01*
X011068Y016424D01*
X011085Y016422D01*
X011102Y016418D01*
X011118Y016411D01*
X011132Y016401D01*
X011145Y016388D01*
X011155Y016374D01*
X011162Y016358D01*
X011166Y016341D01*
X011168Y016324D01*
X011166Y016649D02*
X011016Y016649D01*
X010999Y016651D01*
X010982Y016655D01*
X010966Y016662D01*
X010952Y016672D01*
X010939Y016685D01*
X010929Y016699D01*
X010922Y016715D01*
X010918Y016732D01*
X010916Y016749D01*
X010916Y017349D01*
X010918Y017366D01*
X010922Y017383D01*
X010929Y017399D01*
X010939Y017413D01*
X010952Y017426D01*
X010966Y017436D01*
X010982Y017443D01*
X010999Y017447D01*
X011016Y017449D01*
X011166Y017449D01*
X011216Y017399D01*
X012616Y017399D01*
X012666Y017449D01*
X012816Y017449D01*
X012833Y017447D01*
X012850Y017443D01*
X012866Y017436D01*
X012880Y017426D01*
X012893Y017413D01*
X012903Y017399D01*
X012910Y017383D01*
X012914Y017366D01*
X012916Y017349D01*
X012916Y016749D01*
X012914Y016732D01*
X012910Y016715D01*
X012903Y016699D01*
X012893Y016685D01*
X012880Y016672D01*
X012866Y016662D01*
X012850Y016655D01*
X012833Y016651D01*
X012816Y016649D01*
X012666Y016649D01*
X012616Y016699D01*
X011216Y016699D01*
X011166Y016649D01*
X011166Y017653D02*
X011016Y017653D01*
X010999Y017655D01*
X010982Y017659D01*
X010966Y017666D01*
X010952Y017676D01*
X010939Y017689D01*
X010929Y017703D01*
X010922Y017719D01*
X010918Y017736D01*
X010916Y017753D01*
X010916Y018353D01*
X010918Y018370D01*
X010922Y018387D01*
X010929Y018403D01*
X010939Y018417D01*
X010952Y018430D01*
X010966Y018440D01*
X010982Y018447D01*
X010999Y018451D01*
X011016Y018453D01*
X011166Y018453D01*
X011216Y018403D01*
X012616Y018403D01*
X012666Y018453D01*
X012816Y018453D01*
X012833Y018451D01*
X012850Y018447D01*
X012866Y018440D01*
X012880Y018430D01*
X012893Y018417D01*
X012903Y018403D01*
X012910Y018387D01*
X012914Y018370D01*
X012916Y018353D01*
X012916Y017753D01*
X012914Y017736D01*
X012910Y017719D01*
X012903Y017703D01*
X012893Y017689D01*
X012880Y017676D01*
X012866Y017666D01*
X012850Y017659D01*
X012833Y017655D01*
X012816Y017653D01*
X012666Y017653D01*
X012616Y017703D01*
X011216Y017703D01*
X011166Y017653D01*
X012105Y018639D02*
X013805Y018639D01*
X013822Y018641D01*
X013839Y018645D01*
X013855Y018652D01*
X013869Y018662D01*
X013882Y018675D01*
X013892Y018689D01*
X013899Y018705D01*
X013903Y018722D01*
X013905Y018739D01*
X013905Y019539D01*
X013903Y019556D01*
X013899Y019573D01*
X013892Y019589D01*
X013882Y019603D01*
X013869Y019616D01*
X013855Y019626D01*
X013839Y019633D01*
X013822Y019637D01*
X013805Y019639D01*
X012105Y019639D01*
X012088Y019637D01*
X012071Y019633D01*
X012055Y019626D01*
X012041Y019616D01*
X012028Y019603D01*
X012018Y019589D01*
X012011Y019573D01*
X012007Y019556D01*
X012005Y019539D01*
X012005Y018739D01*
X012007Y018722D01*
X012011Y018705D01*
X012018Y018689D01*
X012028Y018675D01*
X012041Y018662D01*
X012055Y018652D01*
X012071Y018645D01*
X012088Y018641D01*
X012105Y018639D01*
X012805Y019139D02*
X012855Y019139D01*
X013055Y019139D02*
X013105Y019139D01*
X007975Y016261D02*
X007977Y016324D01*
X007983Y016386D01*
X007993Y016448D01*
X008006Y016510D01*
X008024Y016570D01*
X008045Y016629D01*
X008070Y016687D01*
X008099Y016743D01*
X008131Y016797D01*
X008166Y016849D01*
X008204Y016898D01*
X008246Y016946D01*
X008290Y016990D01*
X008338Y017032D01*
X008387Y017070D01*
X008439Y017105D01*
X008493Y017137D01*
X008549Y017166D01*
X008607Y017191D01*
X008666Y017212D01*
X008726Y017230D01*
X008788Y017243D01*
X008850Y017253D01*
X008912Y017259D01*
X008975Y017261D01*
X009038Y017259D01*
X009100Y017253D01*
X009162Y017243D01*
X009224Y017230D01*
X009284Y017212D01*
X009343Y017191D01*
X009401Y017166D01*
X009457Y017137D01*
X009511Y017105D01*
X009563Y017070D01*
X009612Y017032D01*
X009660Y016990D01*
X009704Y016946D01*
X009746Y016898D01*
X009784Y016849D01*
X009819Y016797D01*
X009851Y016743D01*
X009880Y016687D01*
X009905Y016629D01*
X009926Y016570D01*
X009944Y016510D01*
X009957Y016448D01*
X009967Y016386D01*
X009973Y016324D01*
X009975Y016261D01*
X009973Y016198D01*
X009967Y016136D01*
X009957Y016074D01*
X009944Y016012D01*
X009926Y015952D01*
X009905Y015893D01*
X009880Y015835D01*
X009851Y015779D01*
X009819Y015725D01*
X009784Y015673D01*
X009746Y015624D01*
X009704Y015576D01*
X009660Y015532D01*
X009612Y015490D01*
X009563Y015452D01*
X009511Y015417D01*
X009457Y015385D01*
X009401Y015356D01*
X009343Y015331D01*
X009284Y015310D01*
X009224Y015292D01*
X009162Y015279D01*
X009100Y015269D01*
X009038Y015263D01*
X008975Y015261D01*
X008912Y015263D01*
X008850Y015269D01*
X008788Y015279D01*
X008726Y015292D01*
X008666Y015310D01*
X008607Y015331D01*
X008549Y015356D01*
X008493Y015385D01*
X008439Y015417D01*
X008387Y015452D01*
X008338Y015490D01*
X008290Y015532D01*
X008246Y015576D01*
X008204Y015624D01*
X008166Y015673D01*
X008131Y015725D01*
X008099Y015779D01*
X008070Y015835D01*
X008045Y015893D01*
X008024Y015952D01*
X008006Y016012D01*
X007993Y016074D01*
X007983Y016136D01*
X007977Y016198D01*
X007975Y016261D01*
X008425Y016661D02*
X008425Y016761D01*
X008425Y016861D01*
X008425Y016761D02*
X008525Y016761D01*
X008425Y016761D02*
X008325Y016761D01*
X005857Y016261D02*
X005859Y016324D01*
X005865Y016386D01*
X005875Y016448D01*
X005888Y016510D01*
X005906Y016570D01*
X005927Y016629D01*
X005952Y016687D01*
X005981Y016743D01*
X006013Y016797D01*
X006048Y016849D01*
X006086Y016898D01*
X006128Y016946D01*
X006172Y016990D01*
X006220Y017032D01*
X006269Y017070D01*
X006321Y017105D01*
X006375Y017137D01*
X006431Y017166D01*
X006489Y017191D01*
X006548Y017212D01*
X006608Y017230D01*
X006670Y017243D01*
X006732Y017253D01*
X006794Y017259D01*
X006857Y017261D01*
X006920Y017259D01*
X006982Y017253D01*
X007044Y017243D01*
X007106Y017230D01*
X007166Y017212D01*
X007225Y017191D01*
X007283Y017166D01*
X007339Y017137D01*
X007393Y017105D01*
X007445Y017070D01*
X007494Y017032D01*
X007542Y016990D01*
X007586Y016946D01*
X007628Y016898D01*
X007666Y016849D01*
X007701Y016797D01*
X007733Y016743D01*
X007762Y016687D01*
X007787Y016629D01*
X007808Y016570D01*
X007826Y016510D01*
X007839Y016448D01*
X007849Y016386D01*
X007855Y016324D01*
X007857Y016261D01*
X007855Y016198D01*
X007849Y016136D01*
X007839Y016074D01*
X007826Y016012D01*
X007808Y015952D01*
X007787Y015893D01*
X007762Y015835D01*
X007733Y015779D01*
X007701Y015725D01*
X007666Y015673D01*
X007628Y015624D01*
X007586Y015576D01*
X007542Y015532D01*
X007494Y015490D01*
X007445Y015452D01*
X007393Y015417D01*
X007339Y015385D01*
X007283Y015356D01*
X007225Y015331D01*
X007166Y015310D01*
X007106Y015292D01*
X007044Y015279D01*
X006982Y015269D01*
X006920Y015263D01*
X006857Y015261D01*
X006794Y015263D01*
X006732Y015269D01*
X006670Y015279D01*
X006608Y015292D01*
X006548Y015310D01*
X006489Y015331D01*
X006431Y015356D01*
X006375Y015385D01*
X006321Y015417D01*
X006269Y015452D01*
X006220Y015490D01*
X006172Y015532D01*
X006128Y015576D01*
X006086Y015624D01*
X006048Y015673D01*
X006013Y015725D01*
X005981Y015779D01*
X005952Y015835D01*
X005927Y015893D01*
X005906Y015952D01*
X005888Y016012D01*
X005875Y016074D01*
X005865Y016136D01*
X005859Y016198D01*
X005857Y016261D01*
X005666Y016320D02*
X005666Y014620D01*
X005664Y014603D01*
X005660Y014586D01*
X005653Y014570D01*
X005643Y014556D01*
X005630Y014543D01*
X005616Y014533D01*
X005600Y014526D01*
X005583Y014522D01*
X005566Y014520D01*
X004766Y014520D01*
X004749Y014522D01*
X004732Y014526D01*
X004716Y014533D01*
X004702Y014543D01*
X004689Y014556D01*
X004679Y014570D01*
X004672Y014586D01*
X004668Y014603D01*
X004666Y014620D01*
X004666Y016320D01*
X004668Y016337D01*
X004672Y016354D01*
X004679Y016370D01*
X004689Y016384D01*
X004702Y016397D01*
X004716Y016407D01*
X004732Y016414D01*
X004749Y016418D01*
X004766Y016420D01*
X005566Y016420D01*
X005583Y016418D01*
X005600Y016414D01*
X005616Y016407D01*
X005630Y016397D01*
X005643Y016384D01*
X005653Y016370D01*
X005660Y016354D01*
X005664Y016337D01*
X005666Y016320D01*
X006207Y016761D02*
X006307Y016761D01*
X006307Y016861D01*
X006307Y016761D02*
X006407Y016761D01*
X006307Y016761D02*
X006307Y016661D01*
X004916Y016670D02*
X004916Y017270D01*
X004914Y017287D01*
X004910Y017304D01*
X004903Y017320D01*
X004893Y017334D01*
X004880Y017347D01*
X004866Y017357D01*
X004850Y017364D01*
X004833Y017368D01*
X004816Y017370D01*
X004666Y017370D01*
X004616Y017320D01*
X003216Y017320D01*
X003166Y017370D01*
X003016Y017370D01*
X002999Y017368D01*
X002982Y017364D01*
X002966Y017357D01*
X002952Y017347D01*
X002939Y017334D01*
X002929Y017320D01*
X002922Y017304D01*
X002918Y017287D01*
X002916Y017270D01*
X002916Y016670D01*
X002918Y016653D01*
X002922Y016636D01*
X002929Y016620D01*
X002939Y016606D01*
X002952Y016593D01*
X002966Y016583D01*
X002982Y016576D01*
X002999Y016572D01*
X003016Y016570D01*
X003166Y016570D01*
X003216Y016620D01*
X004616Y016620D01*
X004666Y016570D01*
X004816Y016570D01*
X004833Y016572D01*
X004850Y016576D01*
X004866Y016583D01*
X004880Y016593D01*
X004893Y016606D01*
X004903Y016620D01*
X004910Y016636D01*
X004914Y016653D01*
X004916Y016670D01*
X004416Y016320D02*
X004416Y014620D01*
X004414Y014603D01*
X004410Y014586D01*
X004403Y014570D01*
X004393Y014556D01*
X004380Y014543D01*
X004366Y014533D01*
X004350Y014526D01*
X004333Y014522D01*
X004316Y014520D01*
X003516Y014520D01*
X003499Y014522D01*
X003482Y014526D01*
X003466Y014533D01*
X003452Y014543D01*
X003439Y014556D01*
X003429Y014570D01*
X003422Y014586D01*
X003418Y014603D01*
X003416Y014620D01*
X003416Y016320D01*
X003418Y016337D01*
X003422Y016354D01*
X003429Y016370D01*
X003439Y016384D01*
X003452Y016397D01*
X003466Y016407D01*
X003482Y016414D01*
X003499Y016418D01*
X003516Y016420D01*
X004316Y016420D01*
X004333Y016418D01*
X004350Y016414D01*
X004366Y016407D01*
X004380Y016397D01*
X004393Y016384D01*
X004403Y016370D01*
X004410Y016354D01*
X004414Y016337D01*
X004416Y016320D01*
X003916Y015620D02*
X003916Y015570D01*
X003916Y015370D02*
X003916Y015320D01*
X003166Y014620D02*
X003166Y016320D01*
X003164Y016337D01*
X003160Y016354D01*
X003153Y016370D01*
X003143Y016384D01*
X003130Y016397D01*
X003116Y016407D01*
X003100Y016414D01*
X003083Y016418D01*
X003066Y016420D01*
X002266Y016420D01*
X002249Y016418D01*
X002232Y016414D01*
X002216Y016407D01*
X002202Y016397D01*
X002189Y016384D01*
X002179Y016370D01*
X002172Y016354D01*
X002168Y016337D01*
X002166Y016320D01*
X002166Y014620D01*
X002168Y014603D01*
X002172Y014586D01*
X002179Y014570D01*
X002189Y014556D01*
X002202Y014543D01*
X002216Y014533D01*
X002232Y014526D01*
X002249Y014522D01*
X002266Y014520D01*
X003066Y014520D01*
X003083Y014522D01*
X003100Y014526D01*
X003116Y014533D01*
X003130Y014543D01*
X003143Y014556D01*
X003153Y014570D01*
X003160Y014586D01*
X003164Y014603D01*
X003166Y014620D01*
X003166Y014370D02*
X003016Y014370D01*
X002999Y014368D01*
X002982Y014364D01*
X002966Y014357D01*
X002952Y014347D01*
X002939Y014334D01*
X002929Y014320D01*
X002922Y014304D01*
X002918Y014287D01*
X002916Y014270D01*
X002916Y013670D01*
X002918Y013653D01*
X002922Y013636D01*
X002929Y013620D01*
X002939Y013606D01*
X002952Y013593D01*
X002966Y013583D01*
X002982Y013576D01*
X002999Y013572D01*
X003016Y013570D01*
X003166Y013570D01*
X003216Y013620D01*
X004616Y013620D01*
X004666Y013570D01*
X004816Y013570D01*
X004833Y013572D01*
X004850Y013576D01*
X004866Y013583D01*
X004880Y013593D01*
X004893Y013606D01*
X004903Y013620D01*
X004910Y013636D01*
X004914Y013653D01*
X004916Y013670D01*
X004916Y014270D01*
X004914Y014287D01*
X004910Y014304D01*
X004903Y014320D01*
X004893Y014334D01*
X004880Y014347D01*
X004866Y014357D01*
X004850Y014364D01*
X004833Y014368D01*
X004816Y014370D01*
X004666Y014370D01*
X004616Y014320D01*
X003216Y014320D01*
X003166Y014370D01*
X002666Y015320D02*
X002666Y015370D01*
X002666Y015570D02*
X002666Y015620D01*
X005166Y015620D02*
X005166Y015570D01*
X005166Y015370D02*
X005166Y015320D01*
X004816Y013370D02*
X004666Y013370D01*
X004616Y013320D01*
X003216Y013320D01*
X003166Y013370D01*
X003016Y013370D01*
X002999Y013368D01*
X002982Y013364D01*
X002966Y013357D01*
X002952Y013347D01*
X002939Y013334D01*
X002929Y013320D01*
X002922Y013304D01*
X002918Y013287D01*
X002916Y013270D01*
X002916Y012670D01*
X002918Y012653D01*
X002922Y012636D01*
X002929Y012620D01*
X002939Y012606D01*
X002952Y012593D01*
X002966Y012583D01*
X002982Y012576D01*
X002999Y012572D01*
X003016Y012570D01*
X003166Y012570D01*
X003216Y012620D01*
X004616Y012620D01*
X004666Y012570D01*
X004816Y012570D01*
X004833Y012572D01*
X004850Y012576D01*
X004866Y012583D01*
X004880Y012593D01*
X004893Y012606D01*
X004903Y012620D01*
X004910Y012636D01*
X004914Y012653D01*
X004916Y012670D01*
X004916Y013270D01*
X004914Y013287D01*
X004910Y013304D01*
X004903Y013320D01*
X004893Y013334D01*
X004880Y013347D01*
X004866Y013357D01*
X004850Y013364D01*
X004833Y013368D01*
X004816Y013370D01*
X004816Y012370D02*
X004666Y012370D01*
X004616Y012320D01*
X003216Y012320D01*
X003166Y012370D01*
X003016Y012370D01*
X002999Y012368D01*
X002982Y012364D01*
X002966Y012357D01*
X002952Y012347D01*
X002939Y012334D01*
X002929Y012320D01*
X002922Y012304D01*
X002918Y012287D01*
X002916Y012270D01*
X002916Y011670D01*
X002918Y011653D01*
X002922Y011636D01*
X002929Y011620D01*
X002939Y011606D01*
X002952Y011593D01*
X002966Y011583D01*
X002982Y011576D01*
X002999Y011572D01*
X003016Y011570D01*
X003166Y011570D01*
X003216Y011620D01*
X004616Y011620D01*
X004666Y011570D01*
X004816Y011570D01*
X004833Y011572D01*
X004850Y011576D01*
X004866Y011583D01*
X004880Y011593D01*
X004893Y011606D01*
X004903Y011620D01*
X004910Y011636D01*
X004914Y011653D01*
X004916Y011670D01*
X004916Y012270D01*
X004914Y012287D01*
X004910Y012304D01*
X004903Y012320D01*
X004893Y012334D01*
X004880Y012347D01*
X004866Y012357D01*
X004850Y012364D01*
X004833Y012368D01*
X004816Y012370D01*
X005018Y011383D02*
X006718Y011383D01*
X006735Y011381D01*
X006752Y011377D01*
X006768Y011370D01*
X006782Y011360D01*
X006795Y011347D01*
X006805Y011333D01*
X006812Y011317D01*
X006816Y011300D01*
X006818Y011283D01*
X006818Y010483D01*
X006816Y010466D01*
X006812Y010449D01*
X006805Y010433D01*
X006795Y010419D01*
X006782Y010406D01*
X006768Y010396D01*
X006752Y010389D01*
X006735Y010385D01*
X006718Y010383D01*
X005018Y010383D01*
X005001Y010385D01*
X004984Y010389D01*
X004968Y010396D01*
X004954Y010406D01*
X004941Y010419D01*
X004931Y010433D01*
X004924Y010449D01*
X004920Y010466D01*
X004918Y010483D01*
X004918Y011283D01*
X004920Y011300D01*
X004924Y011317D01*
X004931Y011333D01*
X004941Y011347D01*
X004954Y011360D01*
X004968Y011370D01*
X004984Y011377D01*
X005001Y011381D01*
X005018Y011383D01*
X005718Y010883D02*
X005768Y010883D01*
X005968Y010883D02*
X006018Y010883D01*
X006648Y010173D02*
X006798Y010173D01*
X006815Y010171D01*
X006832Y010167D01*
X006848Y010160D01*
X006862Y010150D01*
X006875Y010137D01*
X006885Y010123D01*
X006892Y010107D01*
X006896Y010090D01*
X006898Y010073D01*
X006898Y009473D01*
X006896Y009456D01*
X006892Y009439D01*
X006885Y009423D01*
X006875Y009409D01*
X006862Y009396D01*
X006848Y009386D01*
X006832Y009379D01*
X006815Y009375D01*
X006798Y009373D01*
X006648Y009373D01*
X006598Y009423D01*
X005198Y009423D01*
X005148Y009373D01*
X004998Y009373D01*
X004981Y009375D01*
X004964Y009379D01*
X004948Y009386D01*
X004934Y009396D01*
X004921Y009409D01*
X004911Y009423D01*
X004904Y009439D01*
X004900Y009456D01*
X004898Y009473D01*
X004898Y010073D01*
X004900Y010090D01*
X004904Y010107D01*
X004911Y010123D01*
X004921Y010137D01*
X004934Y010150D01*
X004948Y010160D01*
X004964Y010167D01*
X004981Y010171D01*
X004998Y010173D01*
X005148Y010173D01*
X005198Y010123D01*
X006598Y010123D01*
X006648Y010173D01*
X006946Y010476D02*
X006946Y011276D01*
X006948Y011293D01*
X006952Y011310D01*
X006959Y011326D01*
X006969Y011340D01*
X006982Y011353D01*
X006996Y011363D01*
X007012Y011370D01*
X007029Y011374D01*
X007046Y011376D01*
X008746Y011376D01*
X008763Y011374D01*
X008780Y011370D01*
X008796Y011363D01*
X008810Y011353D01*
X008823Y011340D01*
X008833Y011326D01*
X008840Y011310D01*
X008844Y011293D01*
X008846Y011276D01*
X008846Y010476D01*
X008844Y010459D01*
X008840Y010442D01*
X008833Y010426D01*
X008823Y010412D01*
X008810Y010399D01*
X008796Y010389D01*
X008780Y010382D01*
X008763Y010378D01*
X008746Y010376D01*
X007046Y010376D01*
X007029Y010378D01*
X007012Y010382D01*
X006996Y010389D01*
X006982Y010399D01*
X006969Y010412D01*
X006959Y010426D01*
X006952Y010442D01*
X006948Y010459D01*
X006946Y010476D01*
X007746Y010876D02*
X007796Y010876D01*
X007996Y010876D02*
X008046Y010876D01*
X008983Y011272D02*
X008983Y010472D01*
X008985Y010455D01*
X008989Y010438D01*
X008996Y010422D01*
X009006Y010408D01*
X009019Y010395D01*
X009033Y010385D01*
X009049Y010378D01*
X009066Y010374D01*
X009083Y010372D01*
X010783Y010372D01*
X010800Y010374D01*
X010817Y010378D01*
X010833Y010385D01*
X010847Y010395D01*
X010860Y010408D01*
X010870Y010422D01*
X010877Y010438D01*
X010881Y010455D01*
X010883Y010472D01*
X010883Y011272D01*
X010881Y011289D01*
X010877Y011306D01*
X010870Y011322D01*
X010860Y011336D01*
X010847Y011349D01*
X010833Y011359D01*
X010817Y011366D01*
X010800Y011370D01*
X010783Y011372D01*
X009083Y011372D01*
X009066Y011370D01*
X009049Y011366D01*
X009033Y011359D01*
X009019Y011349D01*
X009006Y011336D01*
X008996Y011322D01*
X008989Y011306D01*
X008985Y011289D01*
X008983Y011272D01*
X009783Y010872D02*
X009833Y010872D01*
X010033Y010872D02*
X010083Y010872D01*
X010656Y010173D02*
X010606Y010123D01*
X009206Y010123D01*
X009156Y010173D01*
X009006Y010173D01*
X008989Y010171D01*
X008972Y010167D01*
X008956Y010160D01*
X008942Y010150D01*
X008929Y010137D01*
X008919Y010123D01*
X008912Y010107D01*
X008908Y010090D01*
X008906Y010073D01*
X008906Y009473D01*
X008908Y009456D01*
X008912Y009439D01*
X008919Y009423D01*
X008929Y009409D01*
X008942Y009396D01*
X008956Y009386D01*
X008972Y009379D01*
X008989Y009375D01*
X009006Y009373D01*
X009156Y009373D01*
X009206Y009423D01*
X010606Y009423D01*
X010656Y009373D01*
X010806Y009373D01*
X010823Y009375D01*
X010840Y009379D01*
X010856Y009386D01*
X010870Y009396D01*
X010883Y009409D01*
X010893Y009423D01*
X010900Y009439D01*
X010904Y009456D01*
X010906Y009473D01*
X010906Y010073D01*
X010904Y010090D01*
X010900Y010107D01*
X010893Y010123D01*
X010883Y010137D01*
X010870Y010150D01*
X010856Y010160D01*
X010840Y010167D01*
X010823Y010171D01*
X010806Y010173D01*
X010656Y010173D01*
X011016Y011570D02*
X011166Y011570D01*
X011216Y011620D01*
X012616Y011620D01*
X012666Y011570D01*
X012816Y011570D01*
X012833Y011572D01*
X012850Y011576D01*
X012866Y011583D01*
X012880Y011593D01*
X012893Y011606D01*
X012903Y011620D01*
X012910Y011636D01*
X012914Y011653D01*
X012916Y011670D01*
X012916Y012270D01*
X012914Y012287D01*
X012910Y012304D01*
X012903Y012320D01*
X012893Y012334D01*
X012880Y012347D01*
X012866Y012357D01*
X012850Y012364D01*
X012833Y012368D01*
X012816Y012370D01*
X012666Y012370D01*
X012616Y012320D01*
X011216Y012320D01*
X011166Y012370D01*
X011016Y012370D01*
X010999Y012368D01*
X010982Y012364D01*
X010966Y012357D01*
X010952Y012347D01*
X010939Y012334D01*
X010929Y012320D01*
X010922Y012304D01*
X010918Y012287D01*
X010916Y012270D01*
X010916Y011670D01*
X010918Y011653D01*
X010922Y011636D01*
X010929Y011620D01*
X010939Y011606D01*
X010952Y011593D01*
X010966Y011583D01*
X010982Y011576D01*
X010999Y011572D01*
X011016Y011570D01*
X011016Y012570D02*
X011166Y012570D01*
X011216Y012620D01*
X012616Y012620D01*
X012666Y012570D01*
X012816Y012570D01*
X012833Y012572D01*
X012850Y012576D01*
X012866Y012583D01*
X012880Y012593D01*
X012893Y012606D01*
X012903Y012620D01*
X012910Y012636D01*
X012914Y012653D01*
X012916Y012670D01*
X012916Y013270D01*
X012914Y013287D01*
X012910Y013304D01*
X012903Y013320D01*
X012893Y013334D01*
X012880Y013347D01*
X012866Y013357D01*
X012850Y013364D01*
X012833Y013368D01*
X012816Y013370D01*
X012666Y013370D01*
X012616Y013320D01*
X011216Y013320D01*
X011166Y013370D01*
X011016Y013370D01*
X010999Y013368D01*
X010982Y013364D01*
X010966Y013357D01*
X010952Y013347D01*
X010939Y013334D01*
X010929Y013320D01*
X010922Y013304D01*
X010918Y013287D01*
X010916Y013270D01*
X010916Y012670D01*
X010918Y012653D01*
X010922Y012636D01*
X010929Y012620D01*
X010939Y012606D01*
X010952Y012593D01*
X010966Y012583D01*
X010982Y012576D01*
X010999Y012572D01*
X011016Y012570D01*
X013219Y011304D02*
X013219Y009604D01*
X013221Y009587D01*
X013225Y009570D01*
X013232Y009554D01*
X013242Y009540D01*
X013255Y009527D01*
X013269Y009517D01*
X013285Y009510D01*
X013302Y009506D01*
X013319Y009504D01*
X014119Y009504D01*
X014136Y009506D01*
X014153Y009510D01*
X014169Y009517D01*
X014183Y009527D01*
X014196Y009540D01*
X014206Y009554D01*
X014213Y009570D01*
X014217Y009587D01*
X014219Y009604D01*
X014219Y011304D01*
X014217Y011321D01*
X014213Y011338D01*
X014206Y011354D01*
X014196Y011368D01*
X014183Y011381D01*
X014169Y011391D01*
X014153Y011398D01*
X014136Y011402D01*
X014119Y011404D01*
X013319Y011404D01*
X013302Y011402D01*
X013285Y011398D01*
X013269Y011391D01*
X013255Y011381D01*
X013242Y011368D01*
X013232Y011354D01*
X013225Y011338D01*
X013221Y011321D01*
X013219Y011304D01*
X013719Y010604D02*
X013719Y010554D01*
X013719Y010354D02*
X013719Y010304D01*
X013168Y015304D02*
X013168Y015354D01*
X013168Y015554D02*
X013168Y015604D01*
X010668Y015624D02*
X010668Y015574D01*
X010668Y015374D02*
X010668Y015324D01*
X004916Y017670D02*
X004916Y018270D01*
X004914Y018287D01*
X004910Y018304D01*
X004903Y018320D01*
X004893Y018334D01*
X004880Y018347D01*
X004866Y018357D01*
X004850Y018364D01*
X004833Y018368D01*
X004816Y018370D01*
X004666Y018370D01*
X004616Y018320D01*
X003216Y018320D01*
X003166Y018370D01*
X003016Y018370D01*
X002999Y018368D01*
X002982Y018364D01*
X002966Y018357D01*
X002952Y018347D01*
X002939Y018334D01*
X002929Y018320D01*
X002922Y018304D01*
X002918Y018287D01*
X002916Y018270D01*
X002916Y017670D01*
X002918Y017653D01*
X002922Y017636D01*
X002929Y017620D01*
X002939Y017606D01*
X002952Y017593D01*
X002966Y017583D01*
X002982Y017576D01*
X002999Y017572D01*
X003016Y017570D01*
X003166Y017570D01*
X003216Y017620D01*
X004616Y017620D01*
X004666Y017570D01*
X004816Y017570D01*
X004833Y017572D01*
X004850Y017576D01*
X004866Y017583D01*
X004880Y017593D01*
X004893Y017606D01*
X004903Y017620D01*
X004910Y017636D01*
X004914Y017653D01*
X004916Y017670D01*
X004531Y026737D02*
X005331Y026737D01*
X005348Y026739D01*
X005365Y026743D01*
X005381Y026750D01*
X005395Y026760D01*
X005408Y026773D01*
X005418Y026787D01*
X005425Y026803D01*
X005429Y026820D01*
X005431Y026837D01*
X005431Y028537D01*
X005429Y028554D01*
X005425Y028571D01*
X005418Y028587D01*
X005408Y028601D01*
X005395Y028614D01*
X005381Y028624D01*
X005365Y028631D01*
X005348Y028635D01*
X005331Y028637D01*
X004531Y028637D01*
X004514Y028635D01*
X004497Y028631D01*
X004481Y028624D01*
X004467Y028614D01*
X004454Y028601D01*
X004444Y028587D01*
X004437Y028571D01*
X004433Y028554D01*
X004431Y028537D01*
X004431Y026837D01*
X004433Y026820D01*
X004437Y026803D01*
X004444Y026787D01*
X004454Y026773D01*
X004467Y026760D01*
X004481Y026750D01*
X004497Y026743D01*
X004514Y026739D01*
X004531Y026737D01*
X004931Y027537D02*
X004931Y027587D01*
X004931Y027787D02*
X004931Y027837D01*
D18*
X004931Y027787D02*
X004631Y027787D01*
X004631Y027587D02*
X004931Y027587D01*
X005231Y027587D01*
X005231Y027787D02*
X004931Y027787D01*
X012855Y019439D02*
X012855Y019139D01*
X012855Y018839D01*
X013055Y018839D02*
X013055Y019139D01*
X013055Y019439D01*
X013168Y015554D02*
X012868Y015554D01*
X012868Y015354D02*
X013168Y015354D01*
X013468Y015354D01*
X013468Y015554D02*
X013168Y015554D01*
X012227Y015574D02*
X011927Y015574D01*
X011627Y015574D01*
X011627Y015374D02*
X011927Y015374D01*
X012227Y015374D01*
X010968Y015374D02*
X010668Y015374D01*
X010368Y015374D01*
X010368Y015574D02*
X010668Y015574D01*
X010968Y015574D01*
X014186Y013169D02*
X014486Y013169D01*
X014786Y013169D01*
X014786Y012969D02*
X014486Y012969D01*
X014186Y012969D01*
X014019Y010554D02*
X013719Y010554D01*
X013419Y010554D01*
X013419Y010354D02*
X013719Y010354D01*
X014019Y010354D01*
X010033Y010572D02*
X010033Y010872D01*
X010033Y011172D01*
X009833Y011172D02*
X009833Y010872D01*
X009833Y010572D01*
X007996Y010576D02*
X007996Y010876D01*
X007996Y011176D01*
X007796Y011176D02*
X007796Y010876D01*
X007796Y010576D01*
X005968Y010583D02*
X005968Y010883D01*
X005968Y011183D01*
X005768Y011183D02*
X005768Y010883D01*
X005768Y010583D01*
X005466Y015370D02*
X005166Y015370D01*
X004866Y015370D01*
X004866Y015570D02*
X005166Y015570D01*
X005466Y015570D01*
X004216Y015570D02*
X003916Y015570D01*
X003616Y015570D01*
X003616Y015370D02*
X003916Y015370D01*
X004216Y015370D01*
X002966Y015370D02*
X002666Y015370D01*
X002366Y015370D01*
X002366Y015570D02*
X002666Y015570D01*
X002966Y015570D01*
X021611Y016670D02*
X021611Y016970D01*
X021611Y017270D01*
X021811Y017270D02*
X021811Y016970D01*
X021811Y016670D01*
X021903Y015456D02*
X022203Y015456D01*
X022503Y015456D01*
X022503Y015256D02*
X022203Y015256D01*
X021903Y015256D01*
X021923Y013330D02*
X022223Y013330D01*
X022523Y013330D01*
X022523Y013130D02*
X022223Y013130D01*
X021923Y013130D01*
X039249Y014252D02*
X039549Y014252D01*
X039849Y014252D01*
X039849Y014452D02*
X039549Y014452D01*
X039249Y014452D01*
X037209Y027934D02*
X037209Y028234D01*
X037209Y028534D01*
X037009Y028534D02*
X037009Y028234D01*
X037009Y027934D01*
D19*
X012991Y018053D03*
X012991Y017049D03*
X010841Y017049D03*
X010841Y018053D03*
X010841Y013970D03*
X010841Y012970D03*
X010841Y011970D03*
X012991Y011970D03*
X012991Y012970D03*
X012991Y013970D03*
X010981Y009773D03*
X008831Y009773D03*
X006973Y009773D03*
X004823Y009773D03*
X004991Y011970D03*
X004991Y012970D03*
X004991Y013970D03*
X002841Y013970D03*
X002841Y012970D03*
X002841Y011970D03*
X002841Y016970D03*
X002841Y017970D03*
X004991Y017970D03*
X004991Y016970D03*
D20*
X023914Y016123D02*
X023914Y013723D01*
X023916Y013666D01*
X023922Y013610D01*
X023931Y013554D01*
X023944Y013498D01*
X023961Y013444D01*
X023981Y013391D01*
X024005Y013340D01*
X024033Y013290D01*
X024063Y013242D01*
X024097Y013196D01*
X024134Y013153D01*
X024173Y013112D01*
X024215Y013074D01*
X024260Y013039D01*
X024307Y013007D01*
X024356Y012978D01*
X024406Y012952D01*
X024459Y012930D01*
X024512Y012911D01*
X024567Y012896D01*
X024623Y012885D01*
X024679Y012877D01*
X024736Y012873D01*
X024792Y012873D01*
X024849Y012877D01*
X024905Y012885D01*
X024961Y012896D01*
X025016Y012911D01*
X025069Y012930D01*
X025122Y012952D01*
X025172Y012978D01*
X025221Y013007D01*
X025268Y013039D01*
X025313Y013074D01*
X025355Y013112D01*
X025394Y013153D01*
X025431Y013196D01*
X025465Y013242D01*
X025495Y013290D01*
X025523Y013340D01*
X025547Y013391D01*
X025567Y013444D01*
X025584Y013498D01*
X025597Y013554D01*
X025606Y013610D01*
X025612Y013666D01*
X025614Y013723D01*
X025614Y016123D01*
X025612Y016180D01*
X025606Y016236D01*
X025597Y016292D01*
X025584Y016348D01*
X025567Y016402D01*
X025547Y016455D01*
X025523Y016506D01*
X025495Y016556D01*
X025465Y016604D01*
X025431Y016650D01*
X025394Y016693D01*
X025355Y016734D01*
X025313Y016772D01*
X025268Y016807D01*
X025221Y016839D01*
X025172Y016868D01*
X025122Y016894D01*
X025069Y016916D01*
X025016Y016935D01*
X024961Y016950D01*
X024905Y016961D01*
X024849Y016969D01*
X024792Y016973D01*
X024736Y016973D01*
X024679Y016969D01*
X024623Y016961D01*
X024567Y016950D01*
X024512Y016935D01*
X024459Y016916D01*
X024406Y016894D01*
X024356Y016868D01*
X024307Y016839D01*
X024260Y016807D01*
X024215Y016772D01*
X024173Y016734D01*
X024134Y016693D01*
X024097Y016650D01*
X024063Y016604D01*
X024033Y016556D01*
X024005Y016506D01*
X023981Y016455D01*
X023961Y016402D01*
X023944Y016348D01*
X023931Y016292D01*
X023922Y016236D01*
X023916Y016180D01*
X023914Y016123D01*
D21*
X023276Y015947D03*
X023276Y013797D03*
D22*
X005455Y021754D02*
X001557Y021754D01*
X001557Y022344D01*
X001557Y025966D01*
X001557Y026478D01*
X005455Y026478D01*
X005455Y021754D01*
M02*
