%
M48
M72
T01C0.0157
T02C0.0236
T03C0.0320
T04C0.0354
T05C0.0400
T06C0.1260
%
T01
X12018Y20529
X33057Y9238
X25939Y8301
X33695Y8919
X27498Y7620
X25766Y7383
X15175Y28462
X22199Y19242
X11258Y19411
X7671Y27206
X21849Y26210
X22443Y26301
X21026Y25754
X23357Y25966
X24723Y24293
X24443Y25824
X23975Y25265
X25231Y25427
X25238Y19415
X26612Y24443
X27609Y24025
X28609Y23509
X33451Y18340
X33400Y23053
X32609Y22533
X34187Y23419
X34593Y21966
X35132Y22706
X38105Y22348
X38727Y22033
X28916Y9824
X21435Y7462
X16813Y13990
X18864Y14994
X18872Y15545
X23561Y15100
X33168Y13840
X27896Y16994
X21538Y14706
X22695Y15572
X33561Y13525
X26002Y13368
X34585Y13053
X36990Y11923
X31609Y24801
X39471Y23777
X34955Y15738
X24675Y19706
X31199Y11399
X31435Y11793
X21699Y9009
X17498Y7226
T02
X7896Y13466
X2679Y22537
T03
X19609Y21163
X20609Y21163
X21609Y21163
X22609Y21163
X23609Y21163
X24609Y21163
X25609Y21163
X26609Y21163
X27609Y21163
X28609Y21163
X29609Y21163
X30609Y21163
X31609Y21163
X32609Y21163
X33609Y21163
X34609Y21163
X35609Y21163
X36609Y21163
X37609Y21163
X38609Y21163
X39609Y21163
X39609Y27163
X38609Y27163
X37609Y27163
X36609Y27163
X35609Y27163
X34609Y27163
X33609Y27163
X32609Y27163
X31609Y27163
X30609Y27163
X29609Y27163
X28609Y27163
X27609Y27163
X26609Y27163
X25609Y27163
X24609Y27163
X23609Y27163
X22609Y27163
X21609Y27163
X20609Y27163
X19609Y27163
X15112Y8320
X16112Y8320
X17112Y8320
X18112Y8320
X19112Y8320
X20112Y8320
X21112Y8320
X22112Y8320
X23112Y8320
X24112Y8320
X24112Y11320
X23112Y11320
X22112Y11320
X21112Y11320
X20112Y11320
X19112Y11320
X18112Y11320
X17112Y11320
X16112Y11320
X15112Y11320
X9433Y10872
X10433Y10872
X4398Y9773
X7398Y9773
X11406Y9773
X8406Y9773
X5416Y11970
X2416Y11970
X2416Y12970
X5416Y12970
X5416Y13970
X2416Y13970
X2416Y17970
X5416Y17970
X5416Y16970
X2416Y16970
X13416Y18053
X10416Y18053
X13416Y17049
X10416Y17049
X10416Y11970
X13416Y11970
X13416Y12970
X10416Y12970
X10416Y13970
X13416Y13970
X5166Y14970
X5166Y15970
X2666Y14970
X2666Y15970
X3916Y14970
X3916Y15970
X24764Y13973
X24764Y15873
X23276Y13372
X23276Y16372
X15797Y13031
X16797Y13031
X7357Y16261
X6357Y16261
X9475Y16261
X8475Y16261
X8396Y10876
X7396Y10876
X10668Y14974
X10668Y15974
X11927Y14974
X11927Y15974
X13168Y14954
X13168Y15954
X14486Y13569
X14486Y12569
X39549Y13852
X39549Y14852
X37609Y28234
X36609Y28234
X4931Y28187
X4931Y27187
X22223Y12730
X22223Y13730
X22203Y15856
X22203Y14856
X22211Y16970
X21211Y16970
X5368Y10883
X6368Y10883
X13455Y19139
X12455Y19139
X39427Y19883
X39427Y18883
X13719Y10954
X13719Y9954
T04
X4471Y22147
X4471Y26084
X4471Y23131
X4471Y25100
X2502Y24116
T05
X31290Y5431
X31290Y6431
X30290Y5431
X30290Y6431
X29290Y5431
X29290Y6431
X28290Y5431
X28290Y6431
X27290Y5431
X27290Y6431
X26290Y5431
X26290Y6431
X25290Y5431
X25290Y6431
X24290Y5431
X24290Y6431
X23290Y5431
X23290Y6431
X22290Y5431
X22290Y6431
X21290Y5431
X21290Y6431
X20290Y5431
X20290Y6431
X19290Y5431
X19290Y6431
X18290Y5431
X18290Y6431
X17290Y5431
X17290Y6431
X16290Y5431
X16290Y6431
X15290Y5431
X15290Y6431
X14290Y5431
X14290Y6431
X13290Y5431
X13290Y6431
X12290Y5431
X12290Y6431
X11290Y6431
X11290Y5431
X10290Y5431
X9290Y5431
X8290Y5431
X8290Y6431
X9290Y6431
X10290Y6431
X7290Y6431
X7290Y5431
T06
X39616Y8655
X2490Y8694
X39616Y28576
X2490Y28616
M30
