G75*
G70*
%OFA0B0*%
%FSLAX24Y24*%
%IPPOS*%
%LPD*%
%AMOC8*
5,1,8,0,0,1.08239X$1,22.5*
%
%ADD10C,0.0040*%
%ADD11C,0.0000*%
%ADD12R,0.0500X0.2882*%
%ADD13OC8,0.0600*%
%ADD14R,0.0866X0.0236*%
%ADD15C,0.0520*%
%ADD16OC8,0.0520*%
%ADD17OC8,0.0630*%
%ADD18C,0.0630*%
%ADD19C,0.0591*%
%ADD20C,0.0160*%
%ADD21C,0.0157*%
%ADD22C,0.0080*%
%ADD23C,0.0079*%
%ADD24C,0.0317*%
%ADD25C,0.0100*%
%ADD26C,0.0396*%
D10*
X004635Y008301D02*
X004635Y008648D01*
X004808Y008822D01*
X004982Y008648D01*
X004982Y008301D01*
X005150Y008301D02*
X005150Y008822D01*
X004982Y008561D02*
X004635Y008561D01*
X005150Y008301D02*
X005497Y008822D01*
X005497Y008301D01*
X005668Y008301D02*
X005841Y008301D01*
X005754Y008301D02*
X005754Y008822D01*
X005668Y008822D02*
X005841Y008822D01*
X006010Y008822D02*
X006357Y008822D01*
X006525Y008822D02*
X006525Y008301D01*
X006872Y008822D01*
X006872Y008301D01*
X007041Y008301D02*
X007388Y008301D01*
X007388Y008822D01*
X007041Y008822D01*
X007215Y008561D02*
X007388Y008561D01*
X007557Y008561D02*
X007730Y008561D01*
X007557Y008561D02*
X007557Y008388D01*
X007643Y008301D01*
X007817Y008301D01*
X007904Y008388D01*
X007904Y008735D01*
X007817Y008822D01*
X007643Y008822D01*
X007557Y008735D01*
X008072Y008735D02*
X008072Y008561D01*
X008159Y008475D01*
X008419Y008475D01*
X008246Y008475D02*
X008072Y008301D01*
X008419Y008301D02*
X008419Y008822D01*
X008159Y008822D01*
X008072Y008735D01*
X008588Y008648D02*
X008588Y008301D01*
X008588Y008561D02*
X008935Y008561D01*
X008935Y008648D02*
X008935Y008301D01*
X008935Y008648D02*
X008761Y008822D01*
X008588Y008648D01*
X006183Y008822D02*
X006183Y008301D01*
X037908Y012890D02*
X037908Y013043D01*
X037985Y013120D01*
X038138Y013120D01*
X038138Y012966D01*
X037985Y012813D02*
X037908Y012890D01*
X037985Y012813D02*
X038292Y012813D01*
X038368Y012890D01*
X038368Y013043D01*
X038292Y013120D01*
X037985Y013273D02*
X037985Y013350D01*
X037908Y013350D01*
X037908Y013273D01*
X037985Y013273D01*
X037908Y013504D02*
X037908Y013657D01*
X037908Y013580D02*
X038368Y013580D01*
X038368Y013504D02*
X038368Y013657D01*
X038292Y014271D02*
X038368Y014348D01*
X038368Y014501D01*
X038292Y014578D01*
X038215Y014578D01*
X037908Y014271D01*
X037908Y014578D01*
X037985Y014731D02*
X037908Y014808D01*
X037908Y014961D01*
X037985Y015038D01*
X038292Y015038D01*
X037985Y014731D01*
X038292Y014731D01*
X038368Y014808D01*
X038368Y014961D01*
X038292Y015038D01*
X038215Y015192D02*
X038368Y015345D01*
X037908Y015345D01*
X037908Y015192D02*
X037908Y015499D01*
X037908Y015652D02*
X038215Y015959D01*
X038292Y015959D01*
X038368Y015882D01*
X038368Y015729D01*
X038292Y015652D01*
X037908Y015652D02*
X037908Y015959D01*
X038061Y016573D02*
X037908Y016726D01*
X038061Y016880D01*
X038368Y016880D01*
X038215Y017033D02*
X038368Y017187D01*
X037908Y017187D01*
X037908Y017340D02*
X037908Y017033D01*
X037908Y017494D02*
X037908Y017570D01*
X037985Y017570D01*
X037985Y017494D01*
X037908Y017494D01*
X037985Y017724D02*
X037908Y017800D01*
X037908Y017954D01*
X037985Y018031D01*
X038292Y018031D01*
X037985Y017724D01*
X038292Y017724D01*
X038368Y017800D01*
X038368Y017954D01*
X038292Y018031D01*
X038368Y016573D02*
X038061Y016573D01*
D11*
X006547Y007643D02*
X006547Y000100D01*
X032047Y000100D01*
X032047Y007643D01*
X040733Y007643D01*
X040733Y029628D01*
X001362Y029628D01*
X001362Y007643D01*
X006547Y007643D01*
X001860Y008694D02*
X001862Y008744D01*
X001868Y008794D01*
X001878Y008843D01*
X001892Y008891D01*
X001909Y008938D01*
X001930Y008983D01*
X001955Y009027D01*
X001983Y009068D01*
X002015Y009107D01*
X002049Y009144D01*
X002086Y009178D01*
X002126Y009208D01*
X002168Y009235D01*
X002212Y009259D01*
X002258Y009280D01*
X002305Y009296D01*
X002353Y009309D01*
X002403Y009318D01*
X002452Y009323D01*
X002503Y009324D01*
X002553Y009321D01*
X002602Y009314D01*
X002651Y009303D01*
X002699Y009288D01*
X002745Y009270D01*
X002790Y009248D01*
X002833Y009222D01*
X002874Y009193D01*
X002913Y009161D01*
X002949Y009126D01*
X002981Y009088D01*
X003011Y009048D01*
X003038Y009005D01*
X003061Y008961D01*
X003080Y008915D01*
X003096Y008867D01*
X003108Y008818D01*
X003116Y008769D01*
X003120Y008719D01*
X003120Y008669D01*
X003116Y008619D01*
X003108Y008570D01*
X003096Y008521D01*
X003080Y008473D01*
X003061Y008427D01*
X003038Y008383D01*
X003011Y008340D01*
X002981Y008300D01*
X002949Y008262D01*
X002913Y008227D01*
X002874Y008195D01*
X002833Y008166D01*
X002790Y008140D01*
X002745Y008118D01*
X002699Y008100D01*
X002651Y008085D01*
X002602Y008074D01*
X002553Y008067D01*
X002503Y008064D01*
X002452Y008065D01*
X002403Y008070D01*
X002353Y008079D01*
X002305Y008092D01*
X002258Y008108D01*
X002212Y008129D01*
X002168Y008153D01*
X002126Y008180D01*
X002086Y008210D01*
X002049Y008244D01*
X002015Y008281D01*
X001983Y008320D01*
X001955Y008361D01*
X001930Y008405D01*
X001909Y008450D01*
X001892Y008497D01*
X001878Y008545D01*
X001868Y008594D01*
X001862Y008644D01*
X001860Y008694D01*
X001860Y028616D02*
X001862Y028666D01*
X001868Y028716D01*
X001878Y028765D01*
X001892Y028813D01*
X001909Y028860D01*
X001930Y028905D01*
X001955Y028949D01*
X001983Y028990D01*
X002015Y029029D01*
X002049Y029066D01*
X002086Y029100D01*
X002126Y029130D01*
X002168Y029157D01*
X002212Y029181D01*
X002258Y029202D01*
X002305Y029218D01*
X002353Y029231D01*
X002403Y029240D01*
X002452Y029245D01*
X002503Y029246D01*
X002553Y029243D01*
X002602Y029236D01*
X002651Y029225D01*
X002699Y029210D01*
X002745Y029192D01*
X002790Y029170D01*
X002833Y029144D01*
X002874Y029115D01*
X002913Y029083D01*
X002949Y029048D01*
X002981Y029010D01*
X003011Y028970D01*
X003038Y028927D01*
X003061Y028883D01*
X003080Y028837D01*
X003096Y028789D01*
X003108Y028740D01*
X003116Y028691D01*
X003120Y028641D01*
X003120Y028591D01*
X003116Y028541D01*
X003108Y028492D01*
X003096Y028443D01*
X003080Y028395D01*
X003061Y028349D01*
X003038Y028305D01*
X003011Y028262D01*
X002981Y028222D01*
X002949Y028184D01*
X002913Y028149D01*
X002874Y028117D01*
X002833Y028088D01*
X002790Y028062D01*
X002745Y028040D01*
X002699Y028022D01*
X002651Y028007D01*
X002602Y027996D01*
X002553Y027989D01*
X002503Y027986D01*
X002452Y027987D01*
X002403Y027992D01*
X002353Y028001D01*
X002305Y028014D01*
X002258Y028030D01*
X002212Y028051D01*
X002168Y028075D01*
X002126Y028102D01*
X002086Y028132D01*
X002049Y028166D01*
X002015Y028203D01*
X001983Y028242D01*
X001955Y028283D01*
X001930Y028327D01*
X001909Y028372D01*
X001892Y028419D01*
X001878Y028467D01*
X001868Y028516D01*
X001862Y028566D01*
X001860Y028616D01*
X038986Y028576D02*
X038988Y028626D01*
X038994Y028676D01*
X039004Y028725D01*
X039018Y028773D01*
X039035Y028820D01*
X039056Y028865D01*
X039081Y028909D01*
X039109Y028950D01*
X039141Y028989D01*
X039175Y029026D01*
X039212Y029060D01*
X039252Y029090D01*
X039294Y029117D01*
X039338Y029141D01*
X039384Y029162D01*
X039431Y029178D01*
X039479Y029191D01*
X039529Y029200D01*
X039578Y029205D01*
X039629Y029206D01*
X039679Y029203D01*
X039728Y029196D01*
X039777Y029185D01*
X039825Y029170D01*
X039871Y029152D01*
X039916Y029130D01*
X039959Y029104D01*
X040000Y029075D01*
X040039Y029043D01*
X040075Y029008D01*
X040107Y028970D01*
X040137Y028930D01*
X040164Y028887D01*
X040187Y028843D01*
X040206Y028797D01*
X040222Y028749D01*
X040234Y028700D01*
X040242Y028651D01*
X040246Y028601D01*
X040246Y028551D01*
X040242Y028501D01*
X040234Y028452D01*
X040222Y028403D01*
X040206Y028355D01*
X040187Y028309D01*
X040164Y028265D01*
X040137Y028222D01*
X040107Y028182D01*
X040075Y028144D01*
X040039Y028109D01*
X040000Y028077D01*
X039959Y028048D01*
X039916Y028022D01*
X039871Y028000D01*
X039825Y027982D01*
X039777Y027967D01*
X039728Y027956D01*
X039679Y027949D01*
X039629Y027946D01*
X039578Y027947D01*
X039529Y027952D01*
X039479Y027961D01*
X039431Y027974D01*
X039384Y027990D01*
X039338Y028011D01*
X039294Y028035D01*
X039252Y028062D01*
X039212Y028092D01*
X039175Y028126D01*
X039141Y028163D01*
X039109Y028202D01*
X039081Y028243D01*
X039056Y028287D01*
X039035Y028332D01*
X039018Y028379D01*
X039004Y028427D01*
X038994Y028476D01*
X038988Y028526D01*
X038986Y028576D01*
X038986Y008655D02*
X038988Y008705D01*
X038994Y008755D01*
X039004Y008804D01*
X039018Y008852D01*
X039035Y008899D01*
X039056Y008944D01*
X039081Y008988D01*
X039109Y009029D01*
X039141Y009068D01*
X039175Y009105D01*
X039212Y009139D01*
X039252Y009169D01*
X039294Y009196D01*
X039338Y009220D01*
X039384Y009241D01*
X039431Y009257D01*
X039479Y009270D01*
X039529Y009279D01*
X039578Y009284D01*
X039629Y009285D01*
X039679Y009282D01*
X039728Y009275D01*
X039777Y009264D01*
X039825Y009249D01*
X039871Y009231D01*
X039916Y009209D01*
X039959Y009183D01*
X040000Y009154D01*
X040039Y009122D01*
X040075Y009087D01*
X040107Y009049D01*
X040137Y009009D01*
X040164Y008966D01*
X040187Y008922D01*
X040206Y008876D01*
X040222Y008828D01*
X040234Y008779D01*
X040242Y008730D01*
X040246Y008680D01*
X040246Y008630D01*
X040242Y008580D01*
X040234Y008531D01*
X040222Y008482D01*
X040206Y008434D01*
X040187Y008388D01*
X040164Y008344D01*
X040137Y008301D01*
X040107Y008261D01*
X040075Y008223D01*
X040039Y008188D01*
X040000Y008156D01*
X039959Y008127D01*
X039916Y008101D01*
X039871Y008079D01*
X039825Y008061D01*
X039777Y008046D01*
X039728Y008035D01*
X039679Y008028D01*
X039629Y008025D01*
X039578Y008026D01*
X039529Y008031D01*
X039479Y008040D01*
X039431Y008053D01*
X039384Y008069D01*
X039338Y008090D01*
X039294Y008114D01*
X039252Y008141D01*
X039212Y008171D01*
X039175Y008205D01*
X039141Y008242D01*
X039109Y008281D01*
X039081Y008322D01*
X039056Y008366D01*
X039035Y008411D01*
X039018Y008458D01*
X039004Y008506D01*
X038994Y008555D01*
X038988Y008605D01*
X038986Y008655D01*
D12*
X031297Y001859D03*
X030297Y001859D03*
X029297Y001859D03*
X028297Y001859D03*
X027297Y001859D03*
X026297Y001859D03*
X025297Y001859D03*
X024297Y001859D03*
X023297Y001859D03*
X022297Y001859D03*
X021297Y001859D03*
X020297Y001859D03*
X019297Y001859D03*
X018297Y001859D03*
X017297Y001859D03*
X016297Y001859D03*
X015297Y001859D03*
X014297Y001859D03*
X013297Y001859D03*
X012297Y001859D03*
X011297Y001859D03*
X010297Y001859D03*
X009297Y001859D03*
X008297Y001859D03*
X007297Y001859D03*
D13*
X007290Y005431D03*
X008290Y005431D03*
X009290Y005431D03*
X010290Y005431D03*
X011290Y005431D03*
X012290Y005431D03*
X013290Y005431D03*
X014290Y005431D03*
X015290Y005431D03*
X016290Y005431D03*
X017290Y005431D03*
X018290Y005431D03*
X019290Y005431D03*
X020290Y005431D03*
X021290Y005431D03*
X022290Y005431D03*
X023290Y005431D03*
X024290Y005431D03*
X025290Y005431D03*
X026290Y005431D03*
X027290Y005431D03*
X028290Y005431D03*
X029290Y005431D03*
X030290Y005431D03*
X031290Y005431D03*
X031290Y006431D03*
X030290Y006431D03*
X029290Y006431D03*
X028290Y006431D03*
X027290Y006431D03*
X026290Y006431D03*
X025290Y006431D03*
X024290Y006431D03*
X023290Y006431D03*
X022290Y006431D03*
X021290Y006431D03*
X020290Y006431D03*
X019290Y006431D03*
X018290Y006431D03*
X017290Y006431D03*
X016290Y006431D03*
X015290Y006431D03*
X014290Y006431D03*
X013290Y006431D03*
X012290Y006431D03*
X011290Y006431D03*
X010290Y006431D03*
X009290Y006431D03*
X008290Y006431D03*
X007290Y006431D03*
D14*
X006033Y020706D03*
X006033Y021206D03*
X006033Y021706D03*
X006033Y022206D03*
X006033Y022706D03*
X006033Y023206D03*
X006033Y023706D03*
X006033Y024206D03*
X006033Y024706D03*
X006033Y025206D03*
X006033Y025706D03*
X006033Y026206D03*
X006033Y026706D03*
X006033Y027206D03*
X006033Y027706D03*
X006033Y028206D03*
X011085Y028206D03*
X011085Y027706D03*
X011085Y027206D03*
X011085Y026706D03*
X011085Y026206D03*
X011085Y025706D03*
X011085Y025206D03*
X011085Y024706D03*
X011085Y024206D03*
X011085Y023706D03*
X011085Y023206D03*
X011085Y022706D03*
X011085Y022206D03*
X011085Y021706D03*
X011085Y021206D03*
X011085Y020706D03*
X012951Y020962D03*
X012951Y021462D03*
X012951Y021962D03*
X012951Y022462D03*
X012951Y022962D03*
X012951Y023462D03*
X012951Y023962D03*
X012951Y024462D03*
X012951Y024962D03*
X012951Y025462D03*
X012951Y025962D03*
X012951Y026462D03*
X012951Y026962D03*
X012951Y027462D03*
X012951Y027962D03*
X012951Y028462D03*
X018003Y028462D03*
X018003Y027962D03*
X018003Y027462D03*
X018003Y026962D03*
X018003Y026462D03*
X018003Y025962D03*
X018003Y025462D03*
X018003Y024962D03*
X018003Y024462D03*
X018003Y023962D03*
X018003Y023462D03*
X018003Y022962D03*
X018003Y022462D03*
X018003Y021962D03*
X018003Y021462D03*
X018003Y020962D03*
D15*
X019609Y021163D03*
X020609Y021163D03*
X021609Y021163D03*
X022609Y021163D03*
X023609Y021163D03*
X024609Y021163D03*
X025609Y021163D03*
X026609Y021163D03*
X027609Y021163D03*
X028609Y021163D03*
X029609Y021163D03*
X030609Y021163D03*
X031609Y021163D03*
X032609Y021163D03*
X033609Y021163D03*
X034609Y021163D03*
X035609Y021163D03*
X036609Y021163D03*
X037609Y021163D03*
X038609Y021163D03*
X039609Y021163D03*
X039609Y027163D03*
X038609Y027163D03*
X037609Y027163D03*
X036609Y027163D03*
X035609Y027163D03*
X034609Y027163D03*
X033609Y027163D03*
X032609Y027163D03*
X031609Y027163D03*
X030609Y027163D03*
X029609Y027163D03*
X028609Y027163D03*
X027609Y027163D03*
X026609Y027163D03*
X025609Y027163D03*
X024609Y027163D03*
X023609Y027163D03*
X022609Y027163D03*
X021609Y027163D03*
X020609Y027163D03*
X019609Y027163D03*
X013455Y019139D03*
X012455Y019139D03*
X011927Y015974D03*
X011927Y014974D03*
X013168Y014954D03*
X013168Y015954D03*
X010668Y015974D03*
X010668Y014974D03*
X014486Y013569D03*
X014486Y012569D03*
X015112Y011320D03*
X016112Y011320D03*
X017112Y011320D03*
X018112Y011320D03*
X019112Y011320D03*
X020112Y011320D03*
X021112Y011320D03*
X022112Y011320D03*
X023112Y011320D03*
X024112Y011320D03*
X022223Y012730D03*
X022223Y013730D03*
X022203Y014856D03*
X022203Y015856D03*
X022211Y016970D03*
X021211Y016970D03*
X024764Y015873D03*
X024764Y013973D03*
X024112Y008320D03*
X023112Y008320D03*
X022112Y008320D03*
X021112Y008320D03*
X020112Y008320D03*
X019112Y008320D03*
X018112Y008320D03*
X017112Y008320D03*
X016112Y008320D03*
X015112Y008320D03*
X013719Y009954D03*
X013719Y010954D03*
X010433Y010872D03*
X009433Y010872D03*
X008396Y010876D03*
X007396Y010876D03*
X006368Y010883D03*
X005368Y010883D03*
X005166Y014970D03*
X005166Y015970D03*
X003916Y015970D03*
X003916Y014970D03*
X002666Y014970D03*
X002666Y015970D03*
X004931Y027187D03*
X004931Y028187D03*
X036609Y028234D03*
X037609Y028234D03*
X039549Y014852D03*
X039549Y013852D03*
D16*
X023276Y013372D03*
X023276Y016372D03*
X013416Y017049D03*
X013416Y018053D03*
X010416Y018053D03*
X010416Y017049D03*
X010416Y013970D03*
X010416Y012970D03*
X010416Y011970D03*
X013416Y011970D03*
X013416Y012970D03*
X013416Y013970D03*
X011406Y009773D03*
X008406Y009773D03*
X007398Y009773D03*
X005416Y011970D03*
X005416Y012970D03*
X005416Y013970D03*
X002416Y013970D03*
X002416Y012970D03*
X002416Y011970D03*
X004398Y009773D03*
X005416Y016970D03*
X005416Y017970D03*
X002416Y017970D03*
X002416Y016970D03*
D17*
X007357Y016261D03*
X009475Y016261D03*
X015797Y013031D03*
X039427Y019883D03*
D18*
X039427Y018883D03*
X016797Y013031D03*
X008475Y016261D03*
X006357Y016261D03*
D19*
X004471Y022147D03*
X004471Y023131D03*
X002502Y024116D03*
X004471Y025100D03*
X004471Y026084D03*
D20*
X002502Y026872D02*
X003707Y028076D01*
X003423Y028206D02*
X002904Y027687D01*
X001943Y027687D01*
X001794Y027537D01*
X001794Y022797D01*
X002053Y022537D01*
X002679Y022537D01*
X001794Y022797D02*
X001794Y010998D01*
X001904Y010887D01*
X005364Y010887D01*
X005368Y010883D01*
X005376Y010883D01*
X005908Y011415D01*
X007573Y011415D01*
X007896Y011738D01*
X007896Y013466D01*
X002502Y024116D02*
X002502Y026872D01*
X003423Y028206D02*
X003423Y028966D01*
X003644Y029187D01*
X038408Y029187D01*
X038542Y029053D01*
X038542Y028273D01*
X039171Y027643D01*
X040345Y027643D01*
X040451Y027537D01*
X040451Y027533D02*
X040451Y010844D01*
X037577Y007970D01*
X031821Y007970D01*
X030782Y006931D01*
X030782Y005895D01*
X030317Y005431D01*
X030290Y005431D01*
X030297Y005423D01*
X030297Y001859D01*
X028278Y006431D02*
X027290Y006431D01*
X028278Y006431D02*
X028837Y006990D01*
X030412Y006990D01*
X031671Y008250D01*
X037427Y008250D01*
X040203Y011025D01*
X040203Y014710D01*
X040061Y014852D01*
X039549Y014852D01*
X040203Y014710D02*
X040203Y019502D01*
X039817Y019887D01*
X039431Y019887D01*
X040203Y019502D02*
X040203Y026277D01*
X038128Y026754D02*
X038128Y027431D01*
X037892Y027667D01*
X037183Y027667D01*
X036612Y028238D01*
X036609Y028234D02*
X035979Y028864D01*
X035979Y028880D01*
X030963Y028880D01*
X012951Y028462D02*
X012947Y028458D01*
X012038Y028458D01*
X011904Y028592D01*
X008967Y028592D01*
X008581Y028206D01*
X006033Y028206D01*
D21*
X004951Y028206D01*
X004931Y028187D01*
X004042Y028076D02*
X004931Y027187D01*
X004042Y028076D02*
X003707Y028076D01*
X003707Y028840D01*
X003794Y028927D01*
X030282Y028927D01*
X030646Y028563D01*
X030963Y028880D01*
X030646Y028563D02*
X030609Y028525D01*
X030609Y027163D01*
X029609Y027163D01*
X038128Y026754D02*
X038601Y026281D01*
X040203Y026277D01*
X026290Y005431D02*
X026297Y005423D01*
X025297Y005423D02*
X025290Y005431D01*
X021297Y005423D02*
X021290Y005431D01*
X020297Y005423D02*
X020290Y005431D01*
X017297Y005423D02*
X017290Y005431D01*
X011297Y005423D02*
X011290Y005431D01*
X010297Y005423D02*
X010290Y005431D01*
D22*
X010333Y005494D01*
X010345Y005494D02*
X010345Y005506D01*
X010766Y005927D01*
X010766Y006911D01*
X011908Y008053D01*
X013128Y008053D01*
X015057Y009982D01*
X023601Y009982D01*
X024585Y010966D01*
X029664Y010966D01*
X030490Y011793D01*
X031435Y011793D01*
X031199Y011399D02*
X030569Y011399D01*
X029782Y010612D01*
X024546Y010612D01*
X023679Y009746D01*
X015136Y009746D01*
X013325Y007935D01*
X013325Y006478D01*
X013286Y006439D01*
X013290Y006431D02*
X013325Y006439D01*
X013805Y005946D02*
X013294Y005435D01*
X013805Y005946D02*
X013805Y008069D01*
X014679Y008943D01*
X016490Y008943D01*
X015254Y010454D02*
X015569Y010769D01*
X015569Y011517D01*
X016022Y011970D01*
X018758Y011970D01*
X018128Y011313D02*
X018128Y011092D01*
X018660Y010561D01*
X020364Y010561D01*
X021109Y011305D01*
X021120Y011313D02*
X021120Y011317D01*
X021120Y011313D02*
X023112Y011313D01*
X023112Y012840D01*
X022219Y013734D01*
X022203Y014856D02*
X022144Y014864D01*
X021278Y015730D01*
X021278Y016911D01*
X021211Y016970D01*
X022203Y015856D02*
X022223Y015809D01*
X022223Y015415D01*
X022695Y015336D02*
X022695Y015572D01*
X022695Y015336D02*
X023483Y014549D01*
X026002Y013368D02*
X026868Y013368D01*
X027656Y014155D01*
X028364Y014155D01*
X029152Y013368D01*
X032774Y013368D01*
X033089Y013053D01*
X034585Y013053D01*
X033168Y013840D02*
X029388Y013840D01*
X027734Y015494D01*
X026632Y015494D01*
X026238Y015100D01*
X024116Y011313D02*
X023112Y011313D01*
X025766Y007383D02*
X025766Y005966D01*
X025294Y005494D01*
X025290Y005431D01*
X020333Y005415D02*
X020313Y005427D01*
X020333Y005415D02*
X020290Y005431D01*
X020333Y005494D01*
X017341Y005415D02*
X017297Y005415D01*
X017290Y005431D02*
X017341Y005415D01*
X012605Y009773D02*
X011406Y009773D01*
X012065Y010198D02*
X004821Y010198D01*
X004392Y009769D01*
X007396Y010876D02*
X007565Y010876D01*
X008069Y011380D01*
X008266Y011380D01*
X008207Y011439D01*
X008207Y013072D01*
X008325Y013191D01*
X008325Y013998D01*
X006868Y015454D01*
X004431Y015454D01*
X003916Y015970D01*
X008266Y011380D02*
X009920Y011380D01*
X010431Y010868D01*
X010433Y010872D02*
X010412Y010927D01*
X010427Y010864D02*
X012431Y012868D01*
X012431Y015470D01*
X011927Y015974D01*
X014447Y012147D02*
X013699Y011399D01*
X013266Y011399D01*
X012065Y010198D01*
X012605Y009773D02*
X013286Y010454D01*
X015254Y010454D01*
X008754Y027206D02*
X007671Y027206D01*
X008754Y027206D02*
X009006Y027458D01*
X012951Y027458D01*
X012959Y027466D01*
D23*
X012951Y027462D02*
X012943Y027470D01*
X012939Y027470D02*
X012943Y027474D01*
X012951Y027462D02*
X015703Y027462D01*
X015951Y027710D01*
X018715Y027710D01*
X019329Y028332D01*
X025526Y028332D01*
X026014Y027844D01*
X026014Y026761D01*
X026388Y026387D01*
X027837Y026387D01*
X028609Y027159D01*
X028484Y026782D02*
X028529Y026764D01*
X028688Y026764D01*
X028835Y026824D01*
X028947Y026937D01*
X029008Y027084D01*
X029008Y027242D01*
X028947Y027389D01*
X028835Y027502D01*
X028688Y027562D01*
X028529Y027562D01*
X028382Y027502D01*
X028270Y027389D01*
X028209Y027242D01*
X028209Y027084D01*
X028230Y027033D01*
X027763Y026566D01*
X027268Y026566D01*
X027484Y026782D01*
X027529Y026764D01*
X027688Y026764D01*
X027835Y026824D01*
X027947Y026937D01*
X028008Y027084D01*
X028008Y027242D01*
X027947Y027389D01*
X027835Y027502D01*
X027688Y027562D01*
X027529Y027562D01*
X027382Y027502D01*
X027270Y027389D01*
X027209Y027242D01*
X027209Y027084D01*
X027230Y027033D01*
X027074Y026877D01*
X026887Y026877D01*
X026947Y026937D01*
X027008Y027084D01*
X027008Y027242D01*
X026947Y027389D01*
X026835Y027502D01*
X026787Y027521D01*
X026787Y028253D01*
X026683Y028357D01*
X026179Y028861D01*
X019255Y028861D01*
X019253Y028863D01*
X019181Y028861D01*
X019109Y028861D01*
X019108Y028860D01*
X019105Y028860D01*
X019056Y028808D01*
X019005Y028757D01*
X019005Y028754D01*
X018658Y028393D01*
X018575Y028393D01*
X018575Y028638D01*
X018493Y028720D01*
X017512Y028720D01*
X017433Y028641D01*
X015418Y028641D01*
X015344Y028715D01*
X015235Y028760D01*
X015116Y028760D01*
X015007Y028715D01*
X014923Y028631D01*
X014877Y028522D01*
X014877Y028417D01*
X014845Y028385D01*
X013523Y028385D01*
X013523Y028638D01*
X013441Y028720D01*
X012460Y028720D01*
X012418Y028678D01*
X012129Y028678D01*
X012123Y028683D01*
X011995Y028811D01*
X008876Y028811D01*
X008747Y028683D01*
X008490Y028426D01*
X006562Y028426D01*
X006524Y028464D01*
X005543Y028464D01*
X005503Y028424D01*
X005258Y028424D01*
X005158Y028525D01*
X005011Y028586D01*
X004852Y028586D01*
X004705Y028525D01*
X004593Y028413D01*
X004532Y028266D01*
X004532Y028107D01*
X004593Y027960D01*
X004705Y027848D01*
X004852Y027787D01*
X005011Y027787D01*
X005158Y027848D01*
X005270Y027960D01*
X005281Y027988D01*
X005503Y027988D01*
X005535Y027956D01*
X005461Y027882D01*
X005461Y027530D01*
X005535Y027456D01*
X005461Y027382D01*
X005461Y027030D01*
X005535Y026956D01*
X005464Y026885D01*
X005195Y026885D01*
X005242Y026932D01*
X005285Y026997D01*
X005315Y027070D01*
X005331Y027147D01*
X004971Y027147D01*
X004971Y027226D01*
X005331Y027226D01*
X005315Y027303D01*
X005285Y027376D01*
X005242Y027441D01*
X005186Y027497D01*
X005121Y027541D01*
X005048Y027571D01*
X004971Y027586D01*
X004971Y027226D01*
X004892Y027226D01*
X004892Y027586D01*
X004815Y027571D01*
X004742Y027541D01*
X004677Y027497D01*
X004621Y027441D01*
X004577Y027376D01*
X004547Y027303D01*
X004532Y027226D01*
X004892Y027226D01*
X004892Y027147D01*
X004532Y027147D01*
X004547Y027070D01*
X004577Y026997D01*
X004621Y026932D01*
X004668Y026885D01*
X004137Y026885D01*
X003743Y026491D01*
X003638Y026387D01*
X003638Y022920D01*
X003993Y022565D01*
X004097Y022461D01*
X004169Y022461D01*
X004102Y022393D01*
X004036Y022234D01*
X004036Y022061D01*
X004102Y021901D01*
X004225Y021779D01*
X004292Y021751D01*
X004292Y019325D01*
X005001Y018617D01*
X005105Y018512D01*
X011149Y018512D01*
X011690Y017971D01*
X011794Y017866D01*
X013037Y017866D01*
X013237Y017667D01*
X013237Y017435D01*
X013016Y017214D01*
X013016Y016883D01*
X013250Y016649D01*
X013581Y016649D01*
X013815Y016883D01*
X013815Y017214D01*
X013594Y017435D01*
X013594Y017667D01*
X013815Y017887D01*
X013815Y018218D01*
X013581Y018452D01*
X013250Y018452D01*
X013022Y018224D01*
X011942Y018224D01*
X011297Y018869D01*
X005253Y018869D01*
X004649Y019473D01*
X004649Y021751D01*
X004717Y021779D01*
X004749Y021811D01*
X004749Y020069D01*
X005174Y019644D01*
X005279Y019539D01*
X010989Y019539D01*
X010960Y019470D01*
X010960Y019352D01*
X011005Y019242D01*
X011089Y019158D01*
X011199Y019113D01*
X011317Y019113D01*
X011427Y019158D01*
X011511Y019242D01*
X011556Y019352D01*
X011556Y019362D01*
X012124Y019362D01*
X012101Y019329D01*
X012071Y019256D01*
X012056Y019179D01*
X012416Y019179D01*
X012416Y019100D01*
X012494Y019100D01*
X012494Y018740D01*
X012571Y018755D01*
X012644Y018785D01*
X012710Y018829D01*
X012765Y018885D01*
X012809Y018950D01*
X012839Y019023D01*
X012854Y019100D01*
X012494Y019100D01*
X012494Y019179D01*
X012854Y019179D01*
X012839Y019256D01*
X012809Y019329D01*
X012786Y019362D01*
X013115Y019362D01*
X013056Y019219D01*
X013056Y019060D01*
X013116Y018913D01*
X013229Y018801D01*
X013376Y018740D01*
X013534Y018740D01*
X013681Y018801D01*
X013794Y018913D01*
X013854Y019060D01*
X013854Y019219D01*
X013795Y019362D01*
X021830Y019362D01*
X021901Y019291D01*
X021901Y019182D01*
X021946Y019073D01*
X022030Y018989D01*
X022140Y018944D01*
X022258Y018944D01*
X022368Y018989D01*
X022452Y019073D01*
X022497Y019182D01*
X022497Y019301D01*
X022452Y019411D01*
X022368Y019494D01*
X022259Y019539D01*
X024422Y019539D01*
X024423Y019537D01*
X024507Y019454D01*
X024616Y019408D01*
X024735Y019408D01*
X024844Y019454D01*
X024928Y019537D01*
X024971Y019642D01*
X025008Y019606D01*
X024986Y019584D01*
X024940Y019474D01*
X024940Y019356D01*
X024986Y019246D01*
X025070Y019162D01*
X025179Y019117D01*
X025298Y019117D01*
X025407Y019162D01*
X025491Y019246D01*
X025537Y019356D01*
X025537Y019474D01*
X025491Y019584D01*
X025417Y019658D01*
X025417Y019702D01*
X025312Y019806D01*
X025091Y020028D01*
X025747Y020028D01*
X030115Y015660D01*
X030220Y015555D01*
X034716Y015555D01*
X034786Y015485D01*
X034896Y015440D01*
X035014Y015440D01*
X035124Y015485D01*
X035208Y015569D01*
X035253Y015678D01*
X035253Y015797D01*
X035211Y015898D01*
X035621Y015898D01*
X036812Y014707D01*
X036812Y012166D01*
X036738Y012092D01*
X036692Y011982D01*
X036692Y011864D01*
X036738Y011754D01*
X036822Y011670D01*
X036931Y011625D01*
X037050Y011625D01*
X037159Y011670D01*
X037243Y011754D01*
X037289Y011864D01*
X037289Y011982D01*
X037243Y012092D01*
X037169Y012166D01*
X037169Y014855D01*
X035874Y016150D01*
X035769Y016255D01*
X034962Y016255D01*
X033291Y017926D01*
X033291Y018084D01*
X033392Y018042D01*
X033510Y018042D01*
X033620Y018087D01*
X033704Y018171D01*
X033749Y018281D01*
X033749Y018399D01*
X033704Y018509D01*
X033630Y018583D01*
X033630Y018660D01*
X034080Y019110D01*
X037686Y019110D01*
X037742Y019165D01*
X039279Y020642D01*
X039281Y020642D01*
X039332Y020693D01*
X039384Y020743D01*
X039384Y020745D01*
X039386Y020746D01*
X039386Y020819D01*
X039386Y020823D01*
X039529Y020764D01*
X039688Y020764D01*
X039835Y020824D01*
X039947Y020937D01*
X040008Y021084D01*
X040008Y021242D01*
X039947Y021389D01*
X039835Y021502D01*
X039688Y021562D01*
X039529Y021562D01*
X039386Y021503D01*
X039386Y022682D01*
X039281Y022787D01*
X038933Y023135D01*
X038828Y023239D01*
X034429Y023239D01*
X034440Y023250D01*
X034485Y023360D01*
X034485Y023478D01*
X034440Y023588D01*
X034402Y023626D01*
X039211Y023626D01*
X039218Y023608D01*
X039302Y023524D01*
X039411Y023479D01*
X039530Y023479D01*
X039640Y023524D01*
X039723Y023608D01*
X039769Y023718D01*
X039769Y023836D01*
X039723Y023946D01*
X039640Y024030D01*
X039530Y024075D01*
X039411Y024075D01*
X039302Y024030D01*
X039255Y023983D01*
X028404Y023983D01*
X028398Y023988D01*
X028331Y023983D01*
X028263Y023983D01*
X028258Y023978D01*
X028251Y023978D01*
X028206Y023927D01*
X028172Y023893D01*
X027876Y023893D01*
X027907Y023966D01*
X027907Y024084D01*
X027861Y024194D01*
X027777Y024278D01*
X027668Y024323D01*
X027549Y024323D01*
X027440Y024278D01*
X027356Y024194D01*
X027334Y024141D01*
X024982Y024141D01*
X025021Y024234D01*
X025021Y024352D01*
X024975Y024462D01*
X024892Y024546D01*
X024782Y024591D01*
X024703Y024591D01*
X024753Y024642D01*
X025806Y024642D01*
X026060Y024388D01*
X026164Y024283D01*
X026356Y024283D01*
X026360Y024274D01*
X026444Y024190D01*
X026553Y024144D01*
X026672Y024144D01*
X026781Y024190D01*
X026865Y024274D01*
X026911Y024383D01*
X026911Y024502D01*
X026865Y024611D01*
X026855Y024622D01*
X031366Y024622D01*
X031440Y024548D01*
X031549Y024503D01*
X031668Y024503D01*
X031777Y024548D01*
X031861Y024632D01*
X031907Y024741D01*
X031907Y024860D01*
X031861Y024970D01*
X031777Y025054D01*
X031668Y025099D01*
X031549Y025099D01*
X031440Y025054D01*
X031366Y024980D01*
X026403Y024980D01*
X026135Y025247D01*
X025473Y025247D01*
X025483Y025258D01*
X025529Y025367D01*
X025529Y025486D01*
X025483Y025596D01*
X025399Y025679D01*
X025290Y025725D01*
X025171Y025725D01*
X025062Y025679D01*
X025011Y025629D01*
X024669Y025629D01*
X024696Y025656D01*
X024741Y025765D01*
X024741Y025884D01*
X024696Y025993D01*
X024612Y026077D01*
X024502Y026123D01*
X024384Y026123D01*
X024274Y026077D01*
X024190Y025993D01*
X024145Y025884D01*
X024145Y025810D01*
X023615Y025810D01*
X023655Y025907D01*
X023655Y026025D01*
X023609Y026135D01*
X023525Y026219D01*
X023416Y026264D01*
X023297Y026264D01*
X023188Y026219D01*
X023125Y026157D01*
X022975Y026157D01*
X022881Y026062D01*
X022626Y026062D01*
X022696Y026132D01*
X022741Y026241D01*
X022741Y026360D01*
X022696Y026470D01*
X022630Y026535D01*
X024234Y026535D01*
X024482Y026783D01*
X024529Y026764D01*
X024688Y026764D01*
X024835Y026824D01*
X024947Y026937D01*
X025008Y027084D01*
X025008Y027242D01*
X024947Y027389D01*
X024835Y027502D01*
X024688Y027562D01*
X024529Y027562D01*
X024382Y027502D01*
X024270Y027389D01*
X024209Y027242D01*
X024209Y027084D01*
X024229Y027036D01*
X024086Y026893D01*
X023903Y026893D01*
X023947Y026937D01*
X024008Y027084D01*
X024008Y027242D01*
X023947Y027389D01*
X023835Y027502D01*
X023688Y027562D01*
X023529Y027562D01*
X023482Y027543D01*
X023075Y027949D01*
X025184Y027949D01*
X025410Y027723D01*
X025410Y027513D01*
X025382Y027502D01*
X025270Y027389D01*
X025209Y027242D01*
X025209Y027084D01*
X025270Y026937D01*
X025382Y026824D01*
X025529Y026764D01*
X025688Y026764D01*
X025835Y026824D01*
X025835Y026825D01*
X025835Y026687D01*
X026209Y026313D01*
X026314Y026209D01*
X027911Y026209D01*
X028484Y026782D01*
X028450Y026748D02*
X040232Y026748D01*
X040232Y026825D02*
X039835Y026825D01*
X039835Y026824D02*
X039947Y026937D01*
X040008Y027084D01*
X040008Y027242D01*
X039947Y027389D01*
X039912Y027424D01*
X040232Y027424D01*
X040232Y010935D01*
X037486Y008189D01*
X031730Y008189D01*
X030569Y007028D01*
X025945Y007025D01*
X025945Y007141D01*
X026019Y007215D01*
X026064Y007324D01*
X026064Y007443D01*
X026019Y007552D01*
X025935Y007636D01*
X025825Y007682D01*
X025707Y007682D01*
X025597Y007636D01*
X025513Y007552D01*
X025468Y007443D01*
X025468Y007324D01*
X025513Y007215D01*
X025587Y007141D01*
X025587Y007025D01*
X022095Y007023D01*
X022659Y007587D01*
X023407Y007587D01*
X023663Y007843D01*
X023768Y007947D01*
X023768Y008118D01*
X023802Y008066D01*
X023858Y008010D01*
X023923Y007967D01*
X023996Y007936D01*
X024073Y007921D01*
X024073Y008281D01*
X024152Y008281D01*
X024152Y008360D01*
X024512Y008360D01*
X024496Y008437D01*
X024466Y008510D01*
X024423Y008575D01*
X024367Y008631D01*
X024302Y008674D01*
X024229Y008704D01*
X024152Y008720D01*
X024152Y008360D01*
X024073Y008360D01*
X024073Y008720D01*
X023996Y008704D01*
X023923Y008674D01*
X023858Y008631D01*
X023802Y008575D01*
X023768Y008523D01*
X023768Y008955D01*
X024458Y009646D01*
X028673Y009646D01*
X028747Y009572D01*
X028856Y009526D01*
X028975Y009526D01*
X029084Y009572D01*
X029168Y009656D01*
X029214Y009765D01*
X029214Y009884D01*
X029168Y009993D01*
X029084Y010077D01*
X028975Y010123D01*
X028856Y010123D01*
X028747Y010077D01*
X028673Y010003D01*
X024310Y010003D01*
X023410Y009103D01*
X023410Y008588D01*
X023339Y008659D01*
X023192Y008720D01*
X023033Y008720D01*
X022886Y008659D01*
X022774Y008547D01*
X022754Y008499D01*
X022664Y008499D01*
X022512Y008347D01*
X022512Y008400D01*
X022451Y008547D01*
X022339Y008659D01*
X022192Y008720D01*
X022033Y008720D01*
X021886Y008659D01*
X021797Y008570D01*
X021655Y008711D01*
X021758Y008711D01*
X021868Y008757D01*
X021952Y008841D01*
X021997Y008950D01*
X021997Y009069D01*
X021952Y009178D01*
X021868Y009262D01*
X021758Y009308D01*
X021654Y009308D01*
X021596Y009365D01*
X017861Y009365D01*
X017757Y009261D01*
X017426Y008930D01*
X017426Y008572D01*
X017339Y008659D01*
X017192Y008720D01*
X017033Y008720D01*
X016986Y008700D01*
X016670Y009016D01*
X016670Y009017D01*
X016565Y009122D01*
X014766Y009122D01*
X015210Y009566D01*
X023754Y009566D01*
X023859Y009671D01*
X024620Y010432D01*
X029856Y010432D01*
X029961Y010538D01*
X030643Y011220D01*
X030957Y011220D01*
X031030Y011146D01*
X031140Y011101D01*
X031258Y011101D01*
X031368Y011146D01*
X031452Y011230D01*
X031497Y011340D01*
X031497Y011459D01*
X031482Y011495D01*
X031495Y011495D01*
X031604Y011540D01*
X031688Y011624D01*
X031733Y011734D01*
X031733Y011852D01*
X031688Y011962D01*
X031604Y012046D01*
X031495Y012091D01*
X031376Y012091D01*
X031266Y012046D01*
X031193Y011972D01*
X030416Y011972D01*
X030311Y011867D01*
X029589Y011146D01*
X024511Y011146D01*
X024406Y011040D01*
X023526Y010161D01*
X014983Y010161D01*
X014878Y010056D01*
X013054Y008232D01*
X011833Y008232D01*
X011728Y008127D01*
X010617Y007016D01*
X006707Y007013D01*
X006707Y007709D01*
X006613Y007803D01*
X001522Y007803D01*
X001522Y029468D01*
X040573Y029468D01*
X040573Y027725D01*
X040564Y027734D01*
X040564Y027734D01*
X040436Y027863D01*
X039956Y027863D01*
X040063Y027907D01*
X040286Y028129D01*
X040406Y028419D01*
X040406Y028733D01*
X040286Y029023D01*
X040063Y029246D01*
X039773Y029366D01*
X039459Y029366D01*
X039169Y029246D01*
X038947Y029023D01*
X038827Y028733D01*
X038827Y028419D01*
X038913Y028212D01*
X038761Y028364D01*
X038761Y029144D01*
X038632Y029272D01*
X038499Y029406D01*
X003553Y029406D01*
X003333Y029186D01*
X003204Y029057D01*
X003204Y028955D01*
X003160Y029063D01*
X002937Y029285D01*
X002647Y029405D01*
X002333Y029405D01*
X002043Y029285D01*
X001821Y029063D01*
X001701Y028773D01*
X001701Y028459D01*
X001821Y028169D01*
X002043Y027947D01*
X002141Y027906D01*
X001852Y027906D01*
X001703Y027756D01*
X001574Y027628D01*
X001574Y010907D01*
X001684Y010797D01*
X001813Y010668D01*
X005025Y010668D01*
X005030Y010657D01*
X005142Y010545D01*
X005289Y010484D01*
X005448Y010484D01*
X005595Y010545D01*
X005707Y010657D01*
X005768Y010804D01*
X005768Y010963D01*
X005767Y010964D01*
X005999Y011196D01*
X006117Y011196D01*
X006114Y011194D01*
X006058Y011138D01*
X006014Y011073D01*
X005984Y011000D01*
X005969Y010923D01*
X006329Y010923D01*
X006329Y010844D01*
X006408Y010844D01*
X006408Y010923D01*
X006768Y010923D01*
X006752Y011000D01*
X006722Y011073D01*
X006679Y011138D01*
X006623Y011194D01*
X006620Y011196D01*
X007156Y011196D01*
X007141Y011186D01*
X007086Y011130D01*
X007042Y011065D01*
X007012Y010992D01*
X006997Y010915D01*
X007357Y010915D01*
X007357Y010836D01*
X007435Y010836D01*
X007435Y010476D01*
X007512Y010492D01*
X007585Y010522D01*
X007650Y010565D01*
X007706Y010621D01*
X007750Y010686D01*
X007780Y010759D01*
X007795Y010836D01*
X007435Y010836D01*
X007435Y010915D01*
X007795Y010915D01*
X007780Y010992D01*
X007750Y011065D01*
X007706Y011130D01*
X007650Y011186D01*
X007636Y011196D01*
X007664Y011196D01*
X007792Y011324D01*
X007987Y011518D01*
X008115Y011647D01*
X008115Y013208D01*
X008182Y013275D01*
X008233Y013399D01*
X008233Y013533D01*
X008182Y013657D01*
X008087Y013752D01*
X007963Y013804D01*
X007829Y013804D01*
X007705Y013752D01*
X007610Y013657D01*
X007558Y013533D01*
X007558Y013399D01*
X007610Y013275D01*
X007677Y013208D01*
X007677Y011829D01*
X007482Y011634D01*
X005817Y011634D01*
X005688Y011506D01*
X005460Y011278D01*
X005448Y011283D01*
X005289Y011283D01*
X005142Y011222D01*
X005030Y011110D01*
X005029Y011107D01*
X002013Y011107D01*
X002013Y022318D01*
X002421Y022318D01*
X002488Y022251D01*
X002612Y022200D01*
X002746Y022200D01*
X002871Y022251D01*
X002965Y022346D01*
X003017Y022470D01*
X003017Y022604D01*
X002965Y022728D01*
X002871Y022823D01*
X002746Y022874D01*
X002612Y022874D01*
X002488Y022823D01*
X002421Y022756D01*
X002144Y022756D01*
X002013Y022888D01*
X002013Y027446D01*
X002034Y027467D01*
X002995Y027467D01*
X003123Y027596D01*
X003643Y028115D01*
X003643Y028875D01*
X003735Y028967D01*
X038317Y028967D01*
X038322Y028962D01*
X038322Y028182D01*
X038952Y027552D01*
X039081Y027424D01*
X039305Y027424D01*
X039270Y027389D01*
X039209Y027242D01*
X039209Y027084D01*
X039270Y026937D01*
X039382Y026824D01*
X039529Y026764D01*
X039688Y026764D01*
X039835Y026824D01*
X039913Y026902D02*
X040232Y026902D01*
X040232Y026980D02*
X039965Y026980D01*
X039997Y027057D02*
X040232Y027057D01*
X040232Y027134D02*
X040008Y027134D01*
X040008Y027211D02*
X040232Y027211D01*
X040232Y027289D02*
X039989Y027289D01*
X039957Y027366D02*
X040232Y027366D01*
X040546Y027752D02*
X040573Y027752D01*
X040573Y027829D02*
X040469Y027829D01*
X040573Y027907D02*
X040062Y027907D01*
X040140Y027984D02*
X040573Y027984D01*
X040573Y028061D02*
X040217Y028061D01*
X040289Y028138D02*
X040573Y028138D01*
X040573Y028216D02*
X040321Y028216D01*
X040353Y028293D02*
X040573Y028293D01*
X040573Y028370D02*
X040385Y028370D01*
X040406Y028447D02*
X040573Y028447D01*
X040573Y028524D02*
X040406Y028524D01*
X040406Y028602D02*
X040573Y028602D01*
X040573Y028679D02*
X040406Y028679D01*
X040396Y028756D02*
X040573Y028756D01*
X040573Y028833D02*
X040364Y028833D01*
X040332Y028911D02*
X040573Y028911D01*
X040573Y028988D02*
X040300Y028988D01*
X040244Y029065D02*
X040573Y029065D01*
X040573Y029142D02*
X040167Y029142D01*
X040089Y029220D02*
X040573Y029220D01*
X040573Y029297D02*
X039939Y029297D01*
X039293Y029297D02*
X038608Y029297D01*
X038685Y029220D02*
X039143Y029220D01*
X039066Y029142D02*
X038761Y029142D01*
X038761Y029065D02*
X038989Y029065D01*
X038933Y028988D02*
X038761Y028988D01*
X038761Y028911D02*
X038901Y028911D01*
X038869Y028833D02*
X038761Y028833D01*
X038761Y028756D02*
X038837Y028756D01*
X038827Y028679D02*
X038761Y028679D01*
X038761Y028602D02*
X038827Y028602D01*
X038827Y028524D02*
X038761Y028524D01*
X038761Y028447D02*
X038827Y028447D01*
X038848Y028370D02*
X038761Y028370D01*
X038832Y028293D02*
X038880Y028293D01*
X038910Y028216D02*
X038912Y028216D01*
X038598Y027907D02*
X037846Y027907D01*
X037835Y027895D02*
X037947Y028008D01*
X038008Y028154D01*
X038008Y028313D01*
X037947Y028460D01*
X037835Y028572D01*
X037688Y028633D01*
X037529Y028633D01*
X037382Y028572D01*
X037270Y028460D01*
X037209Y028313D01*
X037209Y028154D01*
X037270Y028008D01*
X037382Y027895D01*
X037529Y027834D01*
X037688Y027834D01*
X037835Y027895D01*
X037923Y027984D02*
X038521Y027984D01*
X038444Y028061D02*
X037969Y028061D01*
X038001Y028138D02*
X038366Y028138D01*
X038322Y028216D02*
X038008Y028216D01*
X038008Y028293D02*
X038322Y028293D01*
X038322Y028370D02*
X037984Y028370D01*
X037952Y028447D02*
X038322Y028447D01*
X038322Y028524D02*
X037883Y028524D01*
X037764Y028602D02*
X038322Y028602D01*
X038322Y028679D02*
X026361Y028679D01*
X026284Y028756D02*
X038322Y028756D01*
X038322Y028833D02*
X026207Y028833D01*
X026105Y028683D02*
X026609Y028179D01*
X026609Y027163D01*
X026893Y027443D02*
X027324Y027443D01*
X027260Y027366D02*
X026957Y027366D01*
X026989Y027289D02*
X027228Y027289D01*
X027209Y027211D02*
X027008Y027211D01*
X027008Y027134D02*
X027209Y027134D01*
X027220Y027057D02*
X026997Y027057D01*
X026965Y026980D02*
X027176Y026980D01*
X027099Y026902D02*
X026913Y026902D01*
X027148Y026698D02*
X026447Y026698D01*
X026207Y026939D01*
X026207Y028194D01*
X025896Y028506D01*
X019258Y028506D01*
X018715Y027962D01*
X018003Y027962D01*
X018006Y027954D02*
X018006Y027970D01*
X017994Y027966D02*
X018006Y027954D01*
X017994Y027966D02*
X015951Y027966D01*
X015691Y027706D01*
X011085Y027706D01*
X011085Y028206D02*
X014920Y028206D01*
X015175Y028462D01*
X017990Y028462D01*
X018003Y028462D02*
X018007Y028466D01*
X018575Y028447D02*
X018710Y028447D01*
X018784Y028524D02*
X018575Y028524D01*
X018575Y028602D02*
X018858Y028602D01*
X018932Y028679D02*
X018534Y028679D01*
X019005Y028756D02*
X015245Y028756D01*
X015106Y028756D02*
X012050Y028756D01*
X012123Y028683D02*
X012123Y028683D01*
X012127Y028679D02*
X012419Y028679D01*
X012963Y027974D02*
X012951Y027962D01*
X008998Y027962D01*
X008742Y027706D01*
X006033Y027706D01*
X005461Y027675D02*
X003202Y027675D01*
X003125Y027598D02*
X005461Y027598D01*
X005471Y027520D02*
X005151Y027520D01*
X005240Y027443D02*
X005522Y027443D01*
X005461Y027366D02*
X005289Y027366D01*
X005318Y027289D02*
X005461Y027289D01*
X005461Y027211D02*
X004971Y027211D01*
X004971Y027289D02*
X004892Y027289D01*
X004892Y027366D02*
X004971Y027366D01*
X004971Y027443D02*
X004892Y027443D01*
X004892Y027520D02*
X004971Y027520D01*
X004712Y027520D02*
X003048Y027520D01*
X003279Y027752D02*
X005461Y027752D01*
X005461Y027829D02*
X005112Y027829D01*
X005216Y027907D02*
X005485Y027907D01*
X005508Y027984D02*
X005280Y027984D01*
X005236Y028447D02*
X005526Y028447D01*
X005158Y028524D02*
X008589Y028524D01*
X008512Y028447D02*
X006541Y028447D01*
X006033Y027206D02*
X007671Y027206D01*
X008750Y026706D02*
X009010Y026966D01*
X012951Y026966D01*
X012947Y026966D02*
X012951Y026962D01*
X012951Y026462D02*
X015699Y026462D01*
X015951Y026714D01*
X024160Y026714D01*
X024609Y027163D01*
X024893Y027443D02*
X025324Y027443D01*
X025260Y027366D02*
X024957Y027366D01*
X024989Y027289D02*
X025228Y027289D01*
X025209Y027211D02*
X025008Y027211D01*
X025008Y027134D02*
X025209Y027134D01*
X025220Y027057D02*
X024997Y027057D01*
X024965Y026980D02*
X025252Y026980D01*
X025304Y026902D02*
X024913Y026902D01*
X024835Y026825D02*
X025382Y026825D01*
X025577Y027147D02*
X025589Y027159D01*
X025589Y027797D01*
X025258Y028128D01*
X019400Y028128D01*
X018734Y027462D01*
X018003Y027462D01*
X015955Y027462D01*
X015699Y027206D01*
X011085Y027206D01*
X011085Y026706D02*
X015695Y026706D01*
X015951Y026962D01*
X017998Y026962D01*
X017998Y026966D01*
X017999Y026966D02*
X018510Y026966D01*
X019475Y027931D01*
X022841Y027931D01*
X023609Y027163D01*
X023893Y027443D02*
X024324Y027443D01*
X024260Y027366D02*
X023957Y027366D01*
X023989Y027289D02*
X024228Y027289D01*
X024209Y027211D02*
X024008Y027211D01*
X024008Y027134D02*
X024209Y027134D01*
X024220Y027057D02*
X023997Y027057D01*
X023965Y026980D02*
X024172Y026980D01*
X024095Y026902D02*
X023913Y026902D01*
X024292Y026593D02*
X025929Y026593D01*
X026006Y026516D02*
X022649Y026516D01*
X022709Y026439D02*
X026084Y026439D01*
X026161Y026362D02*
X022741Y026362D01*
X022741Y026284D02*
X026238Y026284D01*
X025852Y026671D02*
X024369Y026671D01*
X024446Y026748D02*
X025835Y026748D01*
X025410Y027520D02*
X024789Y027520D01*
X024428Y027520D02*
X023789Y027520D01*
X023427Y027598D02*
X025410Y027598D01*
X025410Y027675D02*
X023349Y027675D01*
X023272Y027752D02*
X025381Y027752D01*
X025304Y027829D02*
X023195Y027829D01*
X023118Y027907D02*
X025226Y027907D01*
X026105Y028683D02*
X019183Y028683D01*
X018734Y028214D01*
X015959Y028214D01*
X015695Y027966D01*
X012967Y027966D01*
X012963Y027962D01*
X012951Y027962D01*
X013523Y028447D02*
X014877Y028447D01*
X014879Y028524D02*
X013523Y028524D01*
X013523Y028602D02*
X014911Y028602D01*
X014971Y028679D02*
X013482Y028679D01*
X015380Y028679D02*
X017471Y028679D01*
X019080Y028833D02*
X003643Y028833D01*
X003643Y028756D02*
X008821Y028756D01*
X008743Y028679D02*
X003643Y028679D01*
X003643Y028602D02*
X008666Y028602D01*
X008750Y026706D02*
X006033Y026706D01*
X004211Y026706D01*
X003817Y026313D01*
X003817Y022994D01*
X004171Y022639D01*
X004668Y022639D01*
X004927Y022380D01*
X004927Y020143D01*
X005353Y019718D01*
X024664Y019718D01*
X024675Y019706D01*
X024473Y019487D02*
X022375Y019487D01*
X022452Y019410D02*
X024612Y019410D01*
X024739Y019410D02*
X024940Y019410D01*
X024946Y019487D02*
X024878Y019487D01*
X024939Y019565D02*
X024978Y019565D01*
X024950Y019333D02*
X022484Y019333D01*
X022497Y019256D02*
X024982Y019256D01*
X025053Y019178D02*
X022495Y019178D01*
X022463Y019101D02*
X026673Y019101D01*
X026596Y019178D02*
X025423Y019178D01*
X025495Y019256D02*
X026519Y019256D01*
X026442Y019333D02*
X025527Y019333D01*
X025537Y019410D02*
X026365Y019410D01*
X026287Y019487D02*
X025531Y019487D01*
X025499Y019565D02*
X026210Y019565D01*
X026133Y019642D02*
X025433Y019642D01*
X025400Y019719D02*
X026056Y019719D01*
X025978Y019796D02*
X025322Y019796D01*
X025245Y019874D02*
X025901Y019874D01*
X025824Y019951D02*
X025168Y019951D01*
X024864Y020002D02*
X025238Y019628D01*
X025238Y019411D01*
X024864Y020002D02*
X024467Y020002D01*
X024372Y019907D01*
X005451Y019907D01*
X005128Y020230D01*
X005128Y024348D01*
X005246Y024466D01*
X008770Y024466D01*
X009010Y024706D01*
X011085Y024706D01*
X015695Y024706D01*
X015951Y024962D01*
X018003Y024962D01*
X024132Y024962D01*
X024620Y025450D01*
X025227Y025450D01*
X025246Y025431D01*
X025242Y025431D01*
X025231Y025427D02*
X025207Y025450D01*
X025049Y025667D02*
X024700Y025667D01*
X024732Y025744D02*
X040232Y025744D01*
X040232Y025821D02*
X024741Y025821D01*
X024735Y025898D02*
X040232Y025898D01*
X040232Y025976D02*
X024703Y025976D01*
X024636Y026053D02*
X040232Y026053D01*
X040232Y026130D02*
X023611Y026130D01*
X023643Y026053D02*
X024250Y026053D01*
X024183Y025976D02*
X023655Y025976D01*
X023651Y025898D02*
X024151Y025898D01*
X024145Y025821D02*
X023619Y025821D01*
X023353Y025966D02*
X023341Y025978D01*
X023049Y025978D01*
X022955Y025883D01*
X021636Y025883D01*
X021479Y026041D01*
X020849Y026041D01*
X020774Y025966D01*
X018007Y025966D01*
X018003Y025962D01*
X017999Y025966D01*
X015951Y025966D01*
X015691Y025706D01*
X011085Y025706D01*
X011085Y025206D02*
X015699Y025206D01*
X015951Y025458D01*
X017999Y025458D01*
X022892Y025458D01*
X023065Y025631D01*
X024254Y025631D01*
X024451Y025828D01*
X023990Y025281D02*
X023975Y025265D01*
X023975Y025261D01*
X023979Y025261D01*
X023908Y025214D01*
X015955Y025214D01*
X015703Y024962D01*
X012951Y024962D01*
X012959Y024954D01*
X012951Y024962D02*
X012951Y024962D01*
X009006Y024962D01*
X008750Y024706D01*
X006033Y024706D01*
X006033Y025206D02*
X008758Y025206D01*
X009010Y025458D01*
X012947Y025458D01*
X015699Y025458D01*
X015951Y025710D01*
X020986Y025710D01*
X021030Y025754D01*
X021006Y026446D02*
X021073Y026513D01*
X022231Y026513D01*
X022443Y026301D01*
X022727Y026207D02*
X023176Y026207D01*
X022949Y026130D02*
X022694Y026130D01*
X023349Y025970D02*
X023349Y025966D01*
X023537Y026207D02*
X040232Y026207D01*
X040232Y026284D02*
X027987Y026284D01*
X028064Y026362D02*
X040232Y026362D01*
X040232Y026439D02*
X028141Y026439D01*
X028218Y026516D02*
X040232Y026516D01*
X040232Y026593D02*
X028296Y026593D01*
X028373Y026671D02*
X040232Y026671D01*
X039382Y026825D02*
X038835Y026825D01*
X038835Y026824D02*
X038947Y026937D01*
X039008Y027084D01*
X039008Y027242D01*
X038947Y027389D01*
X038835Y027502D01*
X038688Y027562D01*
X038529Y027562D01*
X038382Y027502D01*
X038270Y027389D01*
X038209Y027242D01*
X038209Y027084D01*
X038270Y026937D01*
X038382Y026824D01*
X038529Y026764D01*
X038688Y026764D01*
X038835Y026824D01*
X038913Y026902D02*
X039304Y026902D01*
X039252Y026980D02*
X038965Y026980D01*
X038997Y027057D02*
X039220Y027057D01*
X039209Y027134D02*
X039008Y027134D01*
X039008Y027211D02*
X039209Y027211D01*
X039228Y027289D02*
X038989Y027289D01*
X038957Y027366D02*
X039260Y027366D01*
X039061Y027443D02*
X038893Y027443D01*
X038984Y027520D02*
X038789Y027520D01*
X038907Y027598D02*
X026787Y027598D01*
X026787Y027675D02*
X038830Y027675D01*
X038753Y027752D02*
X026787Y027752D01*
X026787Y027829D02*
X038675Y027829D01*
X038428Y027520D02*
X037789Y027520D01*
X037835Y027502D02*
X037688Y027562D01*
X037529Y027562D01*
X037382Y027502D01*
X037270Y027389D01*
X037209Y027242D01*
X037209Y027084D01*
X037270Y026937D01*
X037382Y026824D01*
X037529Y026764D01*
X037688Y026764D01*
X037835Y026824D01*
X037947Y026937D01*
X038008Y027084D01*
X038008Y027242D01*
X037947Y027389D01*
X037835Y027502D01*
X037893Y027443D02*
X038324Y027443D01*
X038260Y027366D02*
X037957Y027366D01*
X037989Y027289D02*
X038228Y027289D01*
X038209Y027211D02*
X038008Y027211D01*
X038008Y027134D02*
X038209Y027134D01*
X038220Y027057D02*
X037997Y027057D01*
X037965Y026980D02*
X038252Y026980D01*
X038304Y026902D02*
X037913Y026902D01*
X037835Y026825D02*
X038382Y026825D01*
X037382Y026825D02*
X036835Y026825D01*
X036835Y026824D02*
X036947Y026937D01*
X037008Y027084D01*
X037008Y027242D01*
X036947Y027389D01*
X036835Y027502D01*
X036688Y027562D01*
X036529Y027562D01*
X036382Y027502D01*
X036270Y027389D01*
X036209Y027242D01*
X036209Y027084D01*
X036270Y026937D01*
X036382Y026824D01*
X036529Y026764D01*
X036688Y026764D01*
X036835Y026824D01*
X036913Y026902D02*
X037304Y026902D01*
X037252Y026980D02*
X036965Y026980D01*
X036997Y027057D02*
X037220Y027057D01*
X037209Y027134D02*
X037008Y027134D01*
X037008Y027211D02*
X037209Y027211D01*
X037228Y027289D02*
X036989Y027289D01*
X036957Y027366D02*
X037260Y027366D01*
X037324Y027443D02*
X036893Y027443D01*
X036789Y027520D02*
X037428Y027520D01*
X037371Y027907D02*
X036837Y027907D01*
X036863Y027924D02*
X036919Y027979D01*
X036962Y028045D01*
X036993Y028117D01*
X037008Y028194D01*
X036648Y028194D01*
X036648Y027834D01*
X036725Y027850D01*
X036798Y027880D01*
X036863Y027924D01*
X036922Y027984D02*
X037294Y027984D01*
X037248Y028061D02*
X036969Y028061D01*
X036997Y028138D02*
X037216Y028138D01*
X037209Y028216D02*
X036648Y028216D01*
X036648Y028194D02*
X036648Y028273D01*
X037008Y028273D01*
X036993Y028350D01*
X036962Y028423D01*
X036919Y028488D01*
X036863Y028544D01*
X036798Y028588D01*
X036725Y028618D01*
X036648Y028633D01*
X036648Y028273D01*
X036569Y028273D01*
X036569Y028194D01*
X036648Y028194D01*
X036648Y028138D02*
X036569Y028138D01*
X036569Y028194D02*
X036569Y027834D01*
X036492Y027850D01*
X036419Y027880D01*
X036354Y027924D01*
X036298Y027979D01*
X036255Y028045D01*
X036224Y028117D01*
X036209Y028194D01*
X036569Y028194D01*
X036569Y028216D02*
X026787Y028216D01*
X026787Y028138D02*
X036220Y028138D01*
X036248Y028061D02*
X026787Y028061D01*
X026787Y027984D02*
X036295Y027984D01*
X036380Y027907D02*
X026787Y027907D01*
X026789Y027520D02*
X027428Y027520D01*
X027789Y027520D02*
X028428Y027520D01*
X028324Y027443D02*
X027893Y027443D01*
X027957Y027366D02*
X028260Y027366D01*
X028228Y027289D02*
X027989Y027289D01*
X028008Y027211D02*
X028209Y027211D01*
X028209Y027134D02*
X028008Y027134D01*
X027997Y027057D02*
X028220Y027057D01*
X028176Y026980D02*
X027965Y026980D01*
X027913Y026902D02*
X028099Y026902D01*
X028022Y026825D02*
X027835Y026825D01*
X027945Y026748D02*
X027450Y026748D01*
X027373Y026671D02*
X027867Y026671D01*
X027790Y026593D02*
X027296Y026593D01*
X027148Y026698D02*
X027612Y027163D01*
X028789Y027520D02*
X029428Y027520D01*
X029419Y027517D02*
X029354Y027473D01*
X029298Y027418D01*
X029255Y027352D01*
X029224Y027279D01*
X029209Y027202D01*
X029569Y027202D01*
X029569Y027124D01*
X029209Y027124D01*
X029224Y027046D01*
X029255Y026974D01*
X029298Y026908D01*
X029354Y026853D01*
X029419Y026809D01*
X029492Y026779D01*
X029569Y026764D01*
X029569Y027124D01*
X029648Y027124D01*
X029648Y027202D01*
X030008Y027202D01*
X029993Y027279D01*
X029962Y027352D01*
X029919Y027418D01*
X029863Y027473D01*
X029798Y027517D01*
X029725Y027547D01*
X029648Y027562D01*
X029648Y027202D01*
X029569Y027202D01*
X029569Y027562D01*
X029492Y027547D01*
X029419Y027517D01*
X029324Y027443D02*
X028893Y027443D01*
X028957Y027366D02*
X029264Y027366D01*
X029228Y027289D02*
X028989Y027289D01*
X029008Y027211D02*
X029211Y027211D01*
X029222Y027057D02*
X028997Y027057D01*
X029008Y027134D02*
X029569Y027134D01*
X029569Y027057D02*
X029648Y027057D01*
X029648Y027124D02*
X029648Y026764D01*
X029725Y026779D01*
X029798Y026809D01*
X029863Y026853D01*
X029919Y026908D01*
X029962Y026974D01*
X029993Y027046D01*
X030008Y027124D01*
X029648Y027124D01*
X029648Y027134D02*
X030569Y027134D01*
X030569Y027124D02*
X030209Y027124D01*
X030224Y027046D01*
X030255Y026974D01*
X030298Y026908D01*
X030354Y026853D01*
X030419Y026809D01*
X030492Y026779D01*
X030569Y026764D01*
X030569Y027124D01*
X030569Y027202D01*
X030209Y027202D01*
X030224Y027279D01*
X030255Y027352D01*
X030298Y027418D01*
X030354Y027473D01*
X030419Y027517D01*
X030492Y027547D01*
X030569Y027562D01*
X030569Y027202D01*
X030648Y027202D01*
X031008Y027202D01*
X030993Y027279D01*
X030962Y027352D01*
X030919Y027418D01*
X030863Y027473D01*
X030798Y027517D01*
X030725Y027547D01*
X030648Y027562D01*
X030648Y027202D01*
X030648Y027124D01*
X031008Y027124D01*
X030993Y027046D01*
X030962Y026974D01*
X030919Y026908D01*
X030863Y026853D01*
X030798Y026809D01*
X030725Y026779D01*
X030648Y026764D01*
X030648Y027124D01*
X030569Y027124D01*
X030569Y027057D02*
X030648Y027057D01*
X030648Y027134D02*
X031209Y027134D01*
X031209Y027084D02*
X031270Y026937D01*
X031382Y026824D01*
X031529Y026764D01*
X031688Y026764D01*
X031835Y026824D01*
X031947Y026937D01*
X032008Y027084D01*
X032008Y027242D01*
X031947Y027389D01*
X031835Y027502D01*
X031688Y027562D01*
X031529Y027562D01*
X031382Y027502D01*
X031270Y027389D01*
X031209Y027242D01*
X031209Y027084D01*
X031220Y027057D02*
X030995Y027057D01*
X030965Y026980D02*
X031252Y026980D01*
X031304Y026902D02*
X030913Y026902D01*
X030822Y026825D02*
X031382Y026825D01*
X031209Y027211D02*
X031006Y027211D01*
X030989Y027289D02*
X031228Y027289D01*
X031260Y027366D02*
X030953Y027366D01*
X030893Y027443D02*
X031324Y027443D01*
X031428Y027520D02*
X030789Y027520D01*
X030648Y027520D02*
X030569Y027520D01*
X030569Y027443D02*
X030648Y027443D01*
X030648Y027366D02*
X030569Y027366D01*
X030569Y027289D02*
X030648Y027289D01*
X030648Y027211D02*
X030569Y027211D01*
X030569Y026980D02*
X030648Y026980D01*
X030648Y026902D02*
X030569Y026902D01*
X030569Y026825D02*
X030648Y026825D01*
X030395Y026825D02*
X029822Y026825D01*
X029913Y026902D02*
X030304Y026902D01*
X030252Y026980D02*
X029965Y026980D01*
X029995Y027057D02*
X030222Y027057D01*
X030211Y027211D02*
X030006Y027211D01*
X029989Y027289D02*
X030228Y027289D01*
X030264Y027366D02*
X029953Y027366D01*
X029893Y027443D02*
X030324Y027443D01*
X030428Y027520D02*
X029789Y027520D01*
X029648Y027520D02*
X029569Y027520D01*
X029569Y027443D02*
X029648Y027443D01*
X029648Y027366D02*
X029569Y027366D01*
X029569Y027289D02*
X029648Y027289D01*
X029648Y027211D02*
X029569Y027211D01*
X029569Y026980D02*
X029648Y026980D01*
X029648Y026902D02*
X029569Y026902D01*
X029569Y026825D02*
X029648Y026825D01*
X029395Y026825D02*
X028835Y026825D01*
X028913Y026902D02*
X029304Y026902D01*
X029252Y026980D02*
X028965Y026980D01*
X026747Y028293D02*
X036213Y028293D01*
X036209Y028273D02*
X036569Y028273D01*
X036569Y028633D01*
X036492Y028618D01*
X036419Y028588D01*
X036354Y028544D01*
X036298Y028488D01*
X036255Y028423D01*
X036224Y028350D01*
X036209Y028273D01*
X036233Y028370D02*
X026670Y028370D01*
X026593Y028447D02*
X036271Y028447D01*
X036334Y028524D02*
X026516Y028524D01*
X026438Y028602D02*
X036453Y028602D01*
X036569Y028602D02*
X036648Y028602D01*
X036648Y028524D02*
X036569Y028524D01*
X036569Y028447D02*
X036648Y028447D01*
X036648Y028370D02*
X036569Y028370D01*
X036569Y028293D02*
X036648Y028293D01*
X036648Y028061D02*
X036569Y028061D01*
X036569Y027984D02*
X036648Y027984D01*
X036648Y027907D02*
X036569Y027907D01*
X036428Y027520D02*
X035789Y027520D01*
X035835Y027502D02*
X035688Y027562D01*
X035529Y027562D01*
X035382Y027502D01*
X035270Y027389D01*
X035209Y027242D01*
X035209Y027084D01*
X035270Y026937D01*
X035382Y026824D01*
X035529Y026764D01*
X035688Y026764D01*
X035835Y026824D01*
X035947Y026937D01*
X036008Y027084D01*
X036008Y027242D01*
X035947Y027389D01*
X035835Y027502D01*
X035893Y027443D02*
X036324Y027443D01*
X036260Y027366D02*
X035957Y027366D01*
X035989Y027289D02*
X036228Y027289D01*
X036209Y027211D02*
X036008Y027211D01*
X036008Y027134D02*
X036209Y027134D01*
X036220Y027057D02*
X035997Y027057D01*
X035965Y026980D02*
X036252Y026980D01*
X036304Y026902D02*
X035913Y026902D01*
X035835Y026825D02*
X036382Y026825D01*
X035382Y026825D02*
X034835Y026825D01*
X034835Y026824D02*
X034947Y026937D01*
X035008Y027084D01*
X035008Y027242D01*
X034947Y027389D01*
X034835Y027502D01*
X034688Y027562D01*
X034529Y027562D01*
X034382Y027502D01*
X034270Y027389D01*
X034209Y027242D01*
X034209Y027084D01*
X034270Y026937D01*
X034382Y026824D01*
X034529Y026764D01*
X034688Y026764D01*
X034835Y026824D01*
X034913Y026902D02*
X035304Y026902D01*
X035252Y026980D02*
X034965Y026980D01*
X034997Y027057D02*
X035220Y027057D01*
X035209Y027134D02*
X035008Y027134D01*
X035008Y027211D02*
X035209Y027211D01*
X035228Y027289D02*
X034989Y027289D01*
X034957Y027366D02*
X035260Y027366D01*
X035324Y027443D02*
X034893Y027443D01*
X034789Y027520D02*
X035428Y027520D01*
X034428Y027520D02*
X033789Y027520D01*
X033835Y027502D02*
X033688Y027562D01*
X033529Y027562D01*
X033382Y027502D01*
X033270Y027389D01*
X033209Y027242D01*
X033209Y027084D01*
X033270Y026937D01*
X033382Y026824D01*
X033529Y026764D01*
X033688Y026764D01*
X033835Y026824D01*
X033947Y026937D01*
X034008Y027084D01*
X034008Y027242D01*
X033947Y027389D01*
X033835Y027502D01*
X033893Y027443D02*
X034324Y027443D01*
X034260Y027366D02*
X033957Y027366D01*
X033989Y027289D02*
X034228Y027289D01*
X034209Y027211D02*
X034008Y027211D01*
X034008Y027134D02*
X034209Y027134D01*
X034220Y027057D02*
X033997Y027057D01*
X033965Y026980D02*
X034252Y026980D01*
X034304Y026902D02*
X033913Y026902D01*
X033835Y026825D02*
X034382Y026825D01*
X033382Y026825D02*
X032835Y026825D01*
X032835Y026824D02*
X032947Y026937D01*
X033008Y027084D01*
X033008Y027242D01*
X032947Y027389D01*
X032835Y027502D01*
X032688Y027562D01*
X032529Y027562D01*
X032382Y027502D01*
X032270Y027389D01*
X032209Y027242D01*
X032209Y027084D01*
X032270Y026937D01*
X032382Y026824D01*
X032529Y026764D01*
X032688Y026764D01*
X032835Y026824D01*
X032913Y026902D02*
X033304Y026902D01*
X033252Y026980D02*
X032965Y026980D01*
X032997Y027057D02*
X033220Y027057D01*
X033209Y027134D02*
X033008Y027134D01*
X033008Y027211D02*
X033209Y027211D01*
X033228Y027289D02*
X032989Y027289D01*
X032957Y027366D02*
X033260Y027366D01*
X033324Y027443D02*
X032893Y027443D01*
X032789Y027520D02*
X033428Y027520D01*
X032428Y027520D02*
X031789Y027520D01*
X031893Y027443D02*
X032324Y027443D01*
X032260Y027366D02*
X031957Y027366D01*
X031989Y027289D02*
X032228Y027289D01*
X032209Y027211D02*
X032008Y027211D01*
X032008Y027134D02*
X032209Y027134D01*
X032220Y027057D02*
X031997Y027057D01*
X031965Y026980D02*
X032252Y026980D01*
X032304Y026902D02*
X031913Y026902D01*
X031835Y026825D02*
X032382Y026825D01*
X031782Y025049D02*
X040232Y025049D01*
X040232Y025126D02*
X026257Y025126D01*
X026334Y025049D02*
X031435Y025049D01*
X031609Y024801D02*
X026329Y024801D01*
X026061Y025069D01*
X024569Y025069D01*
X024179Y024710D01*
X015951Y024710D01*
X015707Y024466D01*
X012951Y024466D01*
X012947Y024462D01*
X012817Y024462D01*
X012805Y024450D01*
X012817Y024462D02*
X009010Y024462D01*
X008754Y024206D01*
X006033Y024206D01*
X006033Y023706D02*
X008750Y023706D01*
X009006Y023962D01*
X012951Y023962D01*
X012955Y023966D01*
X012951Y023962D02*
X012951Y023962D01*
X015695Y023962D01*
X015947Y024214D01*
X024644Y024214D01*
X024723Y024293D01*
X024929Y024508D02*
X025940Y024508D01*
X026017Y024431D02*
X024988Y024431D01*
X025020Y024353D02*
X026094Y024353D01*
X026238Y024462D02*
X026601Y024462D01*
X026605Y024458D01*
X026609Y024458D01*
X026616Y024466D01*
X026612Y024466D01*
X026605Y024458D02*
X026597Y024458D01*
X026612Y024443D01*
X026597Y024458D02*
X026593Y024462D01*
X026359Y024276D02*
X025021Y024276D01*
X025006Y024199D02*
X026434Y024199D01*
X026238Y024462D02*
X025880Y024820D01*
X024679Y024820D01*
X024321Y024462D01*
X018003Y024462D01*
X017998Y024462D02*
X018014Y024446D01*
X018010Y024446D01*
X017998Y024462D02*
X015955Y024462D01*
X015699Y024206D01*
X011085Y024206D01*
X011085Y023706D02*
X015695Y023706D01*
X015951Y023962D01*
X018003Y023962D01*
X027546Y023962D01*
X027609Y024025D01*
X027907Y024045D02*
X039337Y024045D01*
X039443Y023805D02*
X039471Y023777D01*
X039443Y023805D02*
X028337Y023805D01*
X028258Y023714D01*
X015951Y023714D01*
X015699Y023462D01*
X012951Y023462D01*
X012955Y022970D02*
X012947Y022962D01*
X009006Y022962D01*
X008750Y022706D01*
X006033Y022706D01*
X005605Y023206D02*
X005360Y022962D01*
X005360Y020423D01*
X005577Y020206D01*
X025821Y020206D01*
X030294Y015734D01*
X034959Y015734D01*
X035231Y015625D02*
X035893Y015625D01*
X035816Y015703D02*
X035253Y015703D01*
X035253Y015780D02*
X035739Y015780D01*
X035662Y015857D02*
X035228Y015857D01*
X035187Y015548D02*
X035971Y015548D01*
X036048Y015471D02*
X035089Y015471D01*
X034820Y015471D02*
X028011Y015471D01*
X027934Y015548D02*
X034723Y015548D01*
X034888Y016076D02*
X033112Y017852D01*
X033112Y018793D01*
X033833Y019513D01*
X037577Y019513D01*
X039010Y020895D01*
X039010Y021561D01*
X038896Y021639D01*
X035301Y021639D01*
X035132Y021470D01*
X035132Y020482D01*
X034931Y020281D01*
X030770Y020281D01*
X029947Y021104D01*
X029679Y021104D01*
X029624Y021159D01*
X029991Y021283D02*
X029947Y021389D01*
X029835Y021502D01*
X029772Y021528D01*
X030445Y021528D01*
X030419Y021517D01*
X030354Y021473D01*
X030298Y021418D01*
X030255Y021352D01*
X030224Y021279D01*
X030209Y021202D01*
X030569Y021202D01*
X030569Y021124D01*
X030209Y021124D01*
X030216Y021087D01*
X030126Y021178D01*
X030021Y021283D01*
X029991Y021283D01*
X030040Y021264D02*
X030221Y021264D01*
X030250Y021341D02*
X029967Y021341D01*
X029918Y021418D02*
X030299Y021418D01*
X030387Y021496D02*
X029841Y021496D01*
X030117Y021187D02*
X030569Y021187D01*
X030569Y021124D02*
X030648Y021124D01*
X030648Y021202D01*
X031008Y021202D01*
X030993Y021279D01*
X030962Y021352D01*
X030919Y021418D01*
X030863Y021473D01*
X030798Y021517D01*
X030772Y021528D01*
X031445Y021528D01*
X031382Y021502D01*
X031270Y021389D01*
X031209Y021242D01*
X031209Y021084D01*
X031270Y020937D01*
X031382Y020824D01*
X031529Y020764D01*
X031688Y020764D01*
X031835Y020824D01*
X031947Y020937D01*
X032008Y021084D01*
X032008Y021242D01*
X031947Y021389D01*
X031835Y021502D01*
X031772Y021528D01*
X032445Y021528D01*
X032382Y021502D01*
X032270Y021389D01*
X032209Y021242D01*
X032209Y021084D01*
X032270Y020937D01*
X032382Y020824D01*
X032529Y020764D01*
X032688Y020764D01*
X032835Y020824D01*
X032947Y020937D01*
X033008Y021084D01*
X033008Y021242D01*
X032947Y021389D01*
X032835Y021502D01*
X032772Y021528D01*
X033445Y021528D01*
X033382Y021502D01*
X033270Y021389D01*
X033209Y021242D01*
X033209Y021084D01*
X033270Y020937D01*
X033382Y020824D01*
X033529Y020764D01*
X033688Y020764D01*
X033835Y020824D01*
X033947Y020937D01*
X034008Y021084D01*
X034008Y021242D01*
X033947Y021389D01*
X033835Y021502D01*
X033772Y021528D01*
X034131Y021528D01*
X034296Y021439D01*
X034308Y021427D01*
X034270Y021389D01*
X034209Y021242D01*
X034209Y021084D01*
X034270Y020937D01*
X034382Y020824D01*
X034529Y020764D01*
X034688Y020764D01*
X034835Y020824D01*
X034947Y020937D01*
X034953Y020952D01*
X034953Y020556D01*
X034857Y020460D01*
X030844Y020460D01*
X030533Y020771D01*
X030569Y020764D01*
X030569Y021124D01*
X030569Y021109D02*
X030648Y021109D01*
X030648Y021124D02*
X030648Y020764D01*
X030725Y020779D01*
X030798Y020809D01*
X030863Y020853D01*
X030919Y020908D01*
X030962Y020974D01*
X030993Y021046D01*
X031008Y021124D01*
X030648Y021124D01*
X030648Y021187D02*
X031209Y021187D01*
X031218Y021264D02*
X030996Y021264D01*
X030967Y021341D02*
X031250Y021341D01*
X031299Y021418D02*
X030918Y021418D01*
X030830Y021496D02*
X031376Y021496D01*
X031209Y021109D02*
X031005Y021109D01*
X030987Y021032D02*
X031230Y021032D01*
X031262Y020955D02*
X030950Y020955D01*
X030888Y020878D02*
X031329Y020878D01*
X031440Y020800D02*
X030777Y020800D01*
X030648Y020800D02*
X030569Y020800D01*
X030569Y020878D02*
X030648Y020878D01*
X030648Y020955D02*
X030569Y020955D01*
X030569Y021032D02*
X030648Y021032D01*
X030581Y020723D02*
X034953Y020723D01*
X034953Y020646D02*
X030658Y020646D01*
X030735Y020569D02*
X034953Y020569D01*
X034889Y020491D02*
X030812Y020491D01*
X030589Y020072D02*
X035522Y020072D01*
X036609Y021159D01*
X034953Y020878D02*
X034888Y020878D01*
X034953Y020800D02*
X034777Y020800D01*
X034440Y020800D02*
X033777Y020800D01*
X033888Y020878D02*
X034329Y020878D01*
X034262Y020955D02*
X033955Y020955D01*
X033987Y021032D02*
X034230Y021032D01*
X034209Y021109D02*
X034008Y021109D01*
X034008Y021187D02*
X034209Y021187D01*
X034218Y021264D02*
X033999Y021264D01*
X033967Y021341D02*
X034250Y021341D01*
X034299Y021418D02*
X033918Y021418D01*
X033841Y021496D02*
X034190Y021496D01*
X034175Y021706D02*
X034404Y021584D01*
X034790Y021584D01*
X035065Y021860D01*
X038557Y021860D01*
X038734Y022037D01*
X038105Y022348D02*
X038097Y022340D01*
X034357Y022340D01*
X034223Y022206D01*
X015951Y022206D01*
X015707Y021962D01*
X012951Y021962D01*
X012947Y021943D02*
X012927Y021962D01*
X009002Y021962D01*
X008746Y021706D01*
X006033Y021706D01*
X006033Y022206D02*
X008750Y022206D01*
X009002Y022458D01*
X012955Y022458D01*
X012951Y022462D02*
X015703Y022462D01*
X015951Y022710D01*
X032112Y022710D01*
X032274Y022872D01*
X033057Y022872D01*
X033223Y022706D01*
X035109Y022706D01*
X035116Y022714D01*
X035120Y022710D02*
X035128Y022702D01*
X035132Y022706D01*
X034449Y023272D02*
X040232Y023272D01*
X040232Y023195D02*
X038873Y023195D01*
X038950Y023118D02*
X040232Y023118D01*
X040232Y023040D02*
X039027Y023040D01*
X039104Y022963D02*
X040232Y022963D01*
X040232Y022886D02*
X039182Y022886D01*
X039259Y022809D02*
X040232Y022809D01*
X040232Y022731D02*
X039336Y022731D01*
X039281Y022787D02*
X039281Y022787D01*
X039386Y022654D02*
X040232Y022654D01*
X040232Y022577D02*
X039386Y022577D01*
X039386Y022500D02*
X040232Y022500D01*
X040232Y022422D02*
X039386Y022422D01*
X039386Y022345D02*
X040232Y022345D01*
X040232Y022268D02*
X039386Y022268D01*
X039386Y022191D02*
X040232Y022191D01*
X040232Y022114D02*
X039386Y022114D01*
X039386Y022036D02*
X040232Y022036D01*
X040232Y021959D02*
X039386Y021959D01*
X039386Y021882D02*
X040232Y021882D01*
X040232Y021805D02*
X039386Y021805D01*
X039386Y021727D02*
X040232Y021727D01*
X040232Y021650D02*
X039386Y021650D01*
X039386Y021573D02*
X040232Y021573D01*
X040232Y021496D02*
X039841Y021496D01*
X039918Y021418D02*
X040232Y021418D01*
X040232Y021341D02*
X039967Y021341D01*
X039999Y021264D02*
X040232Y021264D01*
X040232Y021187D02*
X040008Y021187D01*
X040008Y021109D02*
X040232Y021109D01*
X040232Y021032D02*
X039987Y021032D01*
X039955Y020955D02*
X040232Y020955D01*
X040232Y020878D02*
X039888Y020878D01*
X039777Y020800D02*
X040232Y020800D01*
X040232Y020723D02*
X039364Y020723D01*
X039386Y020800D02*
X039440Y020800D01*
X039285Y020646D02*
X040232Y020646D01*
X040232Y020569D02*
X039203Y020569D01*
X039122Y020491D02*
X040232Y020491D01*
X040232Y020414D02*
X039042Y020414D01*
X038962Y020337D02*
X039238Y020337D01*
X039239Y020338D02*
X038973Y020072D01*
X038973Y019923D01*
X039388Y019923D01*
X039388Y020338D01*
X039239Y020338D01*
X039161Y020260D02*
X038881Y020260D01*
X038801Y020183D02*
X039084Y020183D01*
X039007Y020105D02*
X038720Y020105D01*
X038640Y020028D02*
X038973Y020028D01*
X038973Y019951D02*
X038559Y019951D01*
X038479Y019874D02*
X039388Y019874D01*
X039388Y019844D02*
X038973Y019844D01*
X038973Y019695D01*
X039239Y019429D01*
X039388Y019429D01*
X039388Y019844D01*
X039467Y019844D01*
X039467Y019923D01*
X039882Y019923D01*
X039882Y020072D01*
X039616Y020338D01*
X039467Y020338D01*
X039467Y019923D01*
X039388Y019923D01*
X039388Y019844D01*
X039388Y019796D02*
X039467Y019796D01*
X039467Y019844D02*
X039467Y019429D01*
X039616Y019429D01*
X039882Y019695D01*
X039882Y019844D01*
X039467Y019844D01*
X039467Y019874D02*
X040232Y019874D01*
X040232Y019951D02*
X039882Y019951D01*
X039882Y020028D02*
X040232Y020028D01*
X040232Y020105D02*
X039848Y020105D01*
X039771Y020183D02*
X040232Y020183D01*
X040232Y020260D02*
X039694Y020260D01*
X039616Y020337D02*
X040232Y020337D01*
X040232Y019796D02*
X039882Y019796D01*
X039882Y019719D02*
X040232Y019719D01*
X040232Y019642D02*
X039828Y019642D01*
X039751Y019565D02*
X040232Y019565D01*
X040232Y019487D02*
X039674Y019487D01*
X039467Y019487D02*
X039388Y019487D01*
X039388Y019565D02*
X039467Y019565D01*
X039467Y019642D02*
X039388Y019642D01*
X039388Y019719D02*
X039467Y019719D01*
X039467Y019951D02*
X039388Y019951D01*
X039388Y020028D02*
X039467Y020028D01*
X039467Y020105D02*
X039388Y020105D01*
X039388Y020183D02*
X039467Y020183D01*
X039467Y020260D02*
X039388Y020260D01*
X039388Y020337D02*
X039467Y020337D01*
X039207Y020820D02*
X037616Y019293D01*
X037612Y019289D02*
X034006Y019289D01*
X033451Y018734D01*
X033451Y018340D01*
X033749Y018329D02*
X040232Y018329D01*
X040232Y018406D02*
X033746Y018406D01*
X033714Y018483D02*
X039206Y018483D01*
X039170Y018498D02*
X039337Y018429D01*
X039518Y018429D01*
X039685Y018498D01*
X039813Y018626D01*
X039882Y018793D01*
X039882Y018974D01*
X039813Y019141D01*
X039685Y019269D01*
X039518Y019338D01*
X039337Y019338D01*
X039170Y019269D01*
X039042Y019141D01*
X038973Y018974D01*
X038973Y018793D01*
X039042Y018626D01*
X039170Y018498D01*
X039108Y018560D02*
X033652Y018560D01*
X033630Y018638D02*
X039037Y018638D01*
X039005Y018715D02*
X033685Y018715D01*
X033762Y018792D02*
X038973Y018792D01*
X038973Y018869D02*
X033839Y018869D01*
X033917Y018947D02*
X038973Y018947D01*
X038994Y019024D02*
X033994Y019024D01*
X034071Y019101D02*
X039026Y019101D01*
X039080Y019178D02*
X037755Y019178D01*
X037836Y019256D02*
X039157Y019256D01*
X039325Y019333D02*
X037916Y019333D01*
X037996Y019410D02*
X040232Y019410D01*
X040232Y019333D02*
X039530Y019333D01*
X039698Y019256D02*
X040232Y019256D01*
X040232Y019178D02*
X039775Y019178D01*
X039829Y019101D02*
X040232Y019101D01*
X040232Y019024D02*
X039861Y019024D01*
X039882Y018947D02*
X040232Y018947D01*
X040232Y018869D02*
X039882Y018869D01*
X039881Y018792D02*
X040232Y018792D01*
X040232Y018715D02*
X039849Y018715D01*
X039817Y018638D02*
X040232Y018638D01*
X040232Y018560D02*
X039747Y018560D01*
X039648Y018483D02*
X040232Y018483D01*
X040232Y018251D02*
X033737Y018251D01*
X033705Y018174D02*
X037903Y018174D01*
X037919Y018190D02*
X037861Y018133D01*
X037825Y018097D01*
X037806Y018077D01*
X037749Y018020D01*
X037749Y017734D01*
X037798Y017685D01*
X037749Y017636D01*
X037749Y017428D01*
X037759Y017417D01*
X037749Y017406D01*
X037749Y016967D01*
X037836Y016880D01*
X037749Y016792D01*
X037749Y016660D01*
X037842Y016567D01*
X037995Y016413D01*
X038128Y016413D01*
X038434Y016413D01*
X038528Y016507D01*
X038528Y016639D01*
X038440Y016726D01*
X038528Y016814D01*
X038528Y016946D01*
X038440Y017033D01*
X038528Y017121D01*
X038528Y017253D01*
X038526Y017254D01*
X038434Y017346D01*
X038067Y017346D01*
X038067Y017351D01*
X038144Y017428D01*
X038144Y017564D01*
X038358Y017564D01*
X038414Y017620D01*
X038434Y017641D01*
X038434Y017641D01*
X038472Y017679D01*
X038528Y017734D01*
X038528Y018020D01*
X038451Y018097D01*
X040232Y018097D01*
X040232Y018020D02*
X038528Y018020D01*
X038528Y017943D02*
X040232Y017943D01*
X040232Y017865D02*
X038528Y017865D01*
X038528Y017788D02*
X040232Y017788D01*
X040232Y017711D02*
X038504Y017711D01*
X038427Y017634D02*
X040232Y017634D01*
X040232Y017556D02*
X038144Y017556D01*
X038144Y017479D02*
X040232Y017479D01*
X040232Y017402D02*
X038118Y017402D01*
X038456Y017325D02*
X040232Y017325D01*
X040232Y017247D02*
X038528Y017247D01*
X038528Y017170D02*
X040232Y017170D01*
X040232Y017093D02*
X038500Y017093D01*
X038458Y017016D02*
X040232Y017016D01*
X040232Y016938D02*
X038528Y016938D01*
X038528Y016861D02*
X040232Y016861D01*
X040232Y016784D02*
X038498Y016784D01*
X038460Y016707D02*
X040232Y016707D01*
X040232Y016629D02*
X038528Y016629D01*
X038528Y016552D02*
X040232Y016552D01*
X040232Y016475D02*
X038496Y016475D01*
X038358Y016118D02*
X038149Y016118D01*
X038061Y016031D01*
X037974Y016118D01*
X037842Y016118D01*
X037749Y016025D01*
X037749Y015586D01*
X037759Y015575D01*
X037749Y015565D01*
X037749Y015126D01*
X037798Y015077D01*
X037749Y015027D01*
X037749Y014742D01*
X037798Y014693D01*
X037749Y014644D01*
X037749Y014205D01*
X037842Y014111D01*
X037974Y014111D01*
X038132Y014270D01*
X038132Y014205D01*
X038226Y014111D01*
X038358Y014111D01*
X038434Y014188D01*
X038434Y014188D01*
X038470Y014224D01*
X038528Y014282D01*
X038528Y014567D01*
X038440Y014654D01*
X038472Y014686D01*
X038528Y014742D01*
X038528Y015027D01*
X038451Y015104D01*
X038402Y015153D01*
X038528Y015279D01*
X038528Y015411D01*
X038434Y015504D01*
X038370Y015504D01*
X038434Y015569D01*
X038434Y015569D01*
X038470Y015605D01*
X038528Y015663D01*
X038528Y015948D01*
X038434Y016042D01*
X038358Y016118D01*
X038387Y016089D02*
X040232Y016089D01*
X040232Y016166D02*
X035858Y016166D01*
X035781Y016243D02*
X040232Y016243D01*
X040232Y016320D02*
X034897Y016320D01*
X034819Y016398D02*
X040232Y016398D01*
X040232Y016012D02*
X038464Y016012D01*
X038528Y015934D02*
X040232Y015934D01*
X040232Y015857D02*
X038528Y015857D01*
X038528Y015780D02*
X040232Y015780D01*
X040232Y015703D02*
X038528Y015703D01*
X038490Y015625D02*
X040232Y015625D01*
X040232Y015548D02*
X038413Y015548D01*
X038468Y015471D02*
X040232Y015471D01*
X040232Y015394D02*
X038528Y015394D01*
X038528Y015316D02*
X040232Y015316D01*
X040232Y015239D02*
X039650Y015239D01*
X039666Y015236D02*
X039589Y015251D01*
X039589Y014891D01*
X039949Y014891D01*
X039933Y014968D01*
X039903Y015041D01*
X039860Y015107D01*
X039804Y015162D01*
X039739Y015206D01*
X039666Y015236D01*
X039589Y015239D02*
X039510Y015239D01*
X039510Y015251D02*
X039433Y015236D01*
X039360Y015206D01*
X039295Y015162D01*
X039239Y015107D01*
X039196Y015041D01*
X039165Y014968D01*
X039150Y014891D01*
X039510Y014891D01*
X039510Y014813D01*
X039150Y014813D01*
X039165Y014735D01*
X039196Y014663D01*
X039239Y014597D01*
X039295Y014542D01*
X039360Y014498D01*
X039433Y014468D01*
X039510Y014453D01*
X039510Y014813D01*
X039589Y014813D01*
X039589Y014891D01*
X039510Y014891D01*
X039510Y015251D01*
X039449Y015239D02*
X038488Y015239D01*
X038411Y015162D02*
X039295Y015162D01*
X039225Y015085D02*
X038471Y015085D01*
X038528Y015007D02*
X039182Y015007D01*
X039158Y014930D02*
X038528Y014930D01*
X038528Y014853D02*
X039510Y014853D01*
X039510Y014930D02*
X039589Y014930D01*
X039589Y014853D02*
X040232Y014853D01*
X040232Y014930D02*
X039941Y014930D01*
X039917Y015007D02*
X040232Y015007D01*
X040232Y015085D02*
X039874Y015085D01*
X039804Y015162D02*
X040232Y015162D01*
X040232Y014776D02*
X039941Y014776D01*
X039949Y014813D02*
X039589Y014813D01*
X039589Y014453D01*
X039666Y014468D01*
X039739Y014498D01*
X039804Y014542D01*
X039860Y014597D01*
X039903Y014663D01*
X039933Y014735D01*
X039949Y014813D01*
X039918Y014698D02*
X040232Y014698D01*
X040232Y014621D02*
X039876Y014621D01*
X039806Y014544D02*
X040232Y014544D01*
X040232Y014467D02*
X039660Y014467D01*
X039589Y014467D02*
X039510Y014467D01*
X039439Y014467D02*
X038528Y014467D01*
X038528Y014544D02*
X039293Y014544D01*
X039223Y014621D02*
X038474Y014621D01*
X038484Y014698D02*
X039181Y014698D01*
X039157Y014776D02*
X038528Y014776D01*
X038528Y014389D02*
X040232Y014389D01*
X040232Y014312D02*
X038528Y014312D01*
X038481Y014235D02*
X039431Y014235D01*
X039470Y014251D02*
X039323Y014191D01*
X039211Y014078D01*
X039150Y013931D01*
X039150Y013773D01*
X039211Y013626D01*
X039323Y013513D01*
X039470Y013453D01*
X039629Y013453D01*
X039776Y013513D01*
X039888Y013626D01*
X039949Y013773D01*
X039949Y013931D01*
X039888Y014078D01*
X039776Y014191D01*
X039629Y014251D01*
X039470Y014251D01*
X039668Y014235D02*
X040232Y014235D01*
X040232Y014158D02*
X039808Y014158D01*
X039886Y014081D02*
X040232Y014081D01*
X040232Y014003D02*
X039919Y014003D01*
X039949Y013926D02*
X040232Y013926D01*
X040232Y013849D02*
X039949Y013849D01*
X039948Y013772D02*
X040232Y013772D01*
X040232Y013694D02*
X039916Y013694D01*
X039879Y013617D02*
X040232Y013617D01*
X040232Y013540D02*
X039802Y013540D01*
X039653Y013463D02*
X040232Y013463D01*
X040232Y013385D02*
X038476Y013385D01*
X038434Y013344D02*
X038528Y013437D01*
X038528Y013723D01*
X038434Y013816D01*
X038302Y013816D01*
X038226Y013740D01*
X038051Y013740D01*
X037974Y013816D01*
X037842Y013816D01*
X037749Y013723D01*
X037749Y013437D01*
X037759Y013427D01*
X037749Y013416D01*
X037749Y013207D01*
X037798Y013158D01*
X037749Y013109D01*
X037749Y012824D01*
X037842Y012730D01*
X037919Y012654D01*
X038358Y012654D01*
X038415Y012711D01*
X038434Y012730D01*
X038434Y012730D01*
X038470Y012766D01*
X038528Y012824D01*
X038528Y013109D01*
X038434Y013202D01*
X038358Y013279D01*
X038226Y013279D01*
X038215Y013268D01*
X038204Y013279D01*
X038144Y013279D01*
X038144Y013416D01*
X038139Y013421D01*
X038226Y013421D01*
X038302Y013344D01*
X038434Y013344D01*
X038406Y013231D02*
X040232Y013231D01*
X040232Y013308D02*
X038144Y013308D01*
X038144Y013385D02*
X038261Y013385D01*
X038528Y013463D02*
X039446Y013463D01*
X039297Y013540D02*
X038528Y013540D01*
X038528Y013617D02*
X039220Y013617D01*
X039182Y013694D02*
X038528Y013694D01*
X038479Y013772D02*
X039150Y013772D01*
X039150Y013849D02*
X037169Y013849D01*
X037169Y013926D02*
X039150Y013926D01*
X039180Y014003D02*
X037169Y014003D01*
X037169Y014081D02*
X039213Y014081D01*
X039290Y014158D02*
X038404Y014158D01*
X038179Y014158D02*
X038020Y014158D01*
X038098Y014235D02*
X038132Y014235D01*
X037796Y014158D02*
X037169Y014158D01*
X037169Y014235D02*
X037749Y014235D01*
X037749Y014312D02*
X037169Y014312D01*
X037169Y014389D02*
X037749Y014389D01*
X037749Y014467D02*
X037169Y014467D01*
X037169Y014544D02*
X037749Y014544D01*
X037749Y014621D02*
X037169Y014621D01*
X037169Y014698D02*
X037792Y014698D01*
X037749Y014776D02*
X037169Y014776D01*
X037169Y014853D02*
X037749Y014853D01*
X037749Y014930D02*
X037094Y014930D01*
X037017Y015007D02*
X037749Y015007D01*
X037790Y015085D02*
X036940Y015085D01*
X036862Y015162D02*
X037749Y015162D01*
X037749Y015239D02*
X036785Y015239D01*
X036708Y015316D02*
X037749Y015316D01*
X037749Y015394D02*
X036631Y015394D01*
X036553Y015471D02*
X037749Y015471D01*
X037749Y015548D02*
X036476Y015548D01*
X036399Y015625D02*
X037749Y015625D01*
X037749Y015703D02*
X036322Y015703D01*
X036244Y015780D02*
X037749Y015780D01*
X037749Y015857D02*
X036167Y015857D01*
X036090Y015934D02*
X037749Y015934D01*
X037749Y016012D02*
X036013Y016012D01*
X035936Y016089D02*
X037812Y016089D01*
X038004Y016089D02*
X038119Y016089D01*
X037934Y016475D02*
X034742Y016475D01*
X034665Y016552D02*
X037857Y016552D01*
X037779Y016629D02*
X034588Y016629D01*
X034510Y016707D02*
X037749Y016707D01*
X037749Y016784D02*
X034433Y016784D01*
X034356Y016861D02*
X037818Y016861D01*
X037777Y016938D02*
X034279Y016938D01*
X034202Y017016D02*
X037749Y017016D01*
X037749Y017093D02*
X034124Y017093D01*
X034047Y017170D02*
X037749Y017170D01*
X037749Y017247D02*
X033970Y017247D01*
X033893Y017325D02*
X037749Y017325D01*
X037749Y017402D02*
X033815Y017402D01*
X033738Y017479D02*
X037749Y017479D01*
X037749Y017556D02*
X033661Y017556D01*
X033584Y017634D02*
X037749Y017634D01*
X037772Y017711D02*
X033506Y017711D01*
X033429Y017788D02*
X037749Y017788D01*
X037749Y017865D02*
X033352Y017865D01*
X033291Y017943D02*
X037749Y017943D01*
X037749Y018020D02*
X033291Y018020D01*
X033629Y018097D02*
X037826Y018097D01*
X037825Y018097D02*
X037825Y018097D01*
X037919Y018190D02*
X038358Y018190D01*
X038451Y018097D01*
X038374Y018174D02*
X040232Y018174D01*
X039181Y019487D02*
X038077Y019487D01*
X038157Y019565D02*
X039104Y019565D01*
X039026Y019642D02*
X038238Y019642D01*
X038318Y019719D02*
X038973Y019719D01*
X038973Y019796D02*
X038399Y019796D01*
X037325Y019883D02*
X038589Y021147D01*
X039207Y020820D02*
X039207Y022608D01*
X038754Y023061D01*
X033412Y023061D01*
X033388Y023041D02*
X033372Y023041D01*
X033368Y023037D01*
X032101Y023037D01*
X032026Y022962D01*
X018003Y022962D01*
X017999Y022966D01*
X018002Y022966D02*
X017998Y022962D01*
X015955Y022962D01*
X015699Y022706D01*
X011085Y022706D01*
X011085Y022206D02*
X015691Y022206D01*
X015951Y022466D01*
X017999Y022466D01*
X018003Y022462D01*
X032152Y022462D01*
X032223Y022533D01*
X032609Y022533D01*
X032612Y022537D01*
X032593Y023214D02*
X032849Y023458D01*
X034148Y023458D01*
X034187Y023419D01*
X034485Y023427D02*
X040232Y023427D01*
X040232Y023504D02*
X039590Y023504D01*
X039696Y023581D02*
X040232Y023581D01*
X040232Y023658D02*
X039744Y023658D01*
X039769Y023736D02*
X040232Y023736D01*
X040232Y023813D02*
X039769Y023813D01*
X039747Y023890D02*
X040232Y023890D01*
X040232Y023967D02*
X039702Y023967D01*
X039604Y024045D02*
X040232Y024045D01*
X040232Y024122D02*
X027891Y024122D01*
X027856Y024199D02*
X040232Y024199D01*
X040232Y024276D02*
X027779Y024276D01*
X027907Y023967D02*
X028241Y023967D01*
X028609Y023509D02*
X028561Y023462D01*
X018003Y023462D01*
X017999Y023466D01*
X018002Y023462D02*
X015955Y023462D01*
X015699Y023206D01*
X011085Y023206D01*
X012951Y022962D02*
X015699Y022962D01*
X015951Y023214D01*
X032593Y023214D01*
X031815Y024585D02*
X040232Y024585D01*
X040232Y024508D02*
X031681Y024508D01*
X031536Y024508D02*
X026908Y024508D01*
X026911Y024431D02*
X040232Y024431D01*
X040232Y024353D02*
X026898Y024353D01*
X026866Y024276D02*
X027438Y024276D01*
X027361Y024199D02*
X026791Y024199D01*
X026876Y024585D02*
X031402Y024585D01*
X031874Y024662D02*
X040232Y024662D01*
X040232Y024740D02*
X031906Y024740D01*
X031907Y024817D02*
X040232Y024817D01*
X040232Y024894D02*
X031892Y024894D01*
X031859Y024971D02*
X040232Y024971D01*
X040232Y025203D02*
X026179Y025203D01*
X025525Y025358D02*
X040232Y025358D01*
X040232Y025435D02*
X025529Y025435D01*
X025518Y025512D02*
X040232Y025512D01*
X040232Y025589D02*
X025486Y025589D01*
X025412Y025667D02*
X040232Y025667D01*
X040232Y025280D02*
X025493Y025280D01*
X025863Y024585D02*
X024796Y024585D01*
X021849Y026206D02*
X021841Y026214D01*
X015955Y026214D01*
X015703Y025962D01*
X012951Y025962D01*
X012943Y025954D01*
X012939Y025954D02*
X009014Y025954D01*
X008766Y025706D01*
X006033Y025706D01*
X006033Y026206D02*
X008758Y026206D01*
X009014Y026462D01*
X012951Y026462D01*
X012951Y025462D02*
X012947Y025458D01*
X012951Y025462D02*
X012951Y025462D01*
X011085Y026206D02*
X015699Y026206D01*
X015959Y026466D01*
X017999Y026466D01*
X018003Y026462D01*
X017994Y026446D02*
X017983Y026458D01*
X017994Y026446D02*
X021006Y026446D01*
X018003Y026962D02*
X017999Y026966D01*
X017998Y026962D02*
X018002Y026962D01*
X018003Y025462D02*
X017999Y025458D01*
X018003Y023962D02*
X017999Y023958D01*
X018003Y021962D02*
X034589Y021962D01*
X034593Y021966D01*
X034175Y021706D02*
X015951Y021706D01*
X015707Y021462D01*
X012951Y021462D01*
X012947Y021458D01*
X012939Y021450D01*
X009002Y021450D01*
X008758Y021206D01*
X006033Y021206D01*
X006033Y020706D02*
X008758Y020706D01*
X009010Y020958D01*
X012943Y020958D01*
X012955Y020946D01*
X015683Y020946D01*
X015951Y021214D01*
X018640Y021214D01*
X018766Y021080D01*
X018766Y020817D01*
X019195Y020387D01*
X029951Y020387D01*
X030455Y019883D01*
X037325Y019883D01*
X033440Y020800D02*
X032777Y020800D01*
X032888Y020878D02*
X033329Y020878D01*
X033262Y020955D02*
X032955Y020955D01*
X032987Y021032D02*
X033230Y021032D01*
X033209Y021109D02*
X033008Y021109D01*
X033008Y021187D02*
X033209Y021187D01*
X033218Y021264D02*
X032999Y021264D01*
X032967Y021341D02*
X033250Y021341D01*
X033299Y021418D02*
X032918Y021418D01*
X032841Y021496D02*
X033376Y021496D01*
X032376Y021496D02*
X031841Y021496D01*
X031918Y021418D02*
X032299Y021418D01*
X032250Y021341D02*
X031967Y021341D01*
X031999Y021264D02*
X032218Y021264D01*
X032209Y021187D02*
X032008Y021187D01*
X032008Y021109D02*
X032209Y021109D01*
X032230Y021032D02*
X031987Y021032D01*
X031955Y020955D02*
X032262Y020955D01*
X032329Y020878D02*
X031888Y020878D01*
X031777Y020800D02*
X032440Y020800D01*
X030589Y020072D02*
X030046Y020616D01*
X019404Y020616D01*
X019030Y020990D01*
X019030Y021336D01*
X018920Y021446D01*
X018042Y021446D01*
X018018Y021470D01*
X018003Y021462D02*
X018337Y021462D01*
X018003Y021462D02*
X015951Y021462D01*
X015695Y021206D01*
X011085Y021206D01*
X011066Y020726D02*
X010513Y020726D01*
X010513Y020780D01*
X009084Y020780D01*
X008832Y020528D01*
X006603Y020528D01*
X006524Y020449D01*
X005587Y020449D01*
X005651Y020385D01*
X018945Y020385D01*
X018587Y020742D01*
X018587Y021009D01*
X018575Y021022D01*
X018575Y020982D01*
X018022Y020982D01*
X018022Y020943D01*
X018575Y020943D01*
X018575Y020826D01*
X018566Y020790D01*
X018547Y020759D01*
X018521Y020733D01*
X018489Y020714D01*
X018454Y020705D01*
X018022Y020705D01*
X018022Y020943D01*
X017983Y020943D01*
X017430Y020943D01*
X017430Y020826D01*
X017440Y020790D01*
X017458Y020759D01*
X017484Y020733D01*
X017516Y020714D01*
X017551Y020705D01*
X017983Y020705D01*
X017983Y020943D01*
X017983Y020982D01*
X017430Y020982D01*
X017430Y021035D01*
X016025Y021035D01*
X015757Y020768D01*
X013504Y020768D01*
X013441Y020705D01*
X012460Y020705D01*
X012385Y020780D01*
X011658Y020780D01*
X011658Y020726D01*
X011105Y020726D01*
X011105Y020687D01*
X011658Y020687D01*
X011658Y020570D01*
X011648Y020534D01*
X011630Y020503D01*
X011604Y020477D01*
X011572Y020458D01*
X011537Y020449D01*
X011105Y020449D01*
X011105Y020687D01*
X011066Y020687D01*
X011066Y020449D01*
X010634Y020449D01*
X010598Y020458D01*
X010567Y020477D01*
X010541Y020503D01*
X010522Y020534D01*
X010513Y020570D01*
X010513Y020687D01*
X011066Y020687D01*
X011066Y020726D01*
X011066Y020723D02*
X009028Y020723D01*
X008951Y020646D02*
X010513Y020646D01*
X010513Y020569D02*
X008873Y020569D01*
X010552Y020491D02*
X006567Y020491D01*
X005622Y020414D02*
X018916Y020414D01*
X018838Y020491D02*
X011619Y020491D01*
X011657Y020569D02*
X018761Y020569D01*
X018684Y020646D02*
X011658Y020646D01*
X011841Y020706D02*
X012018Y020529D01*
X012022Y020521D02*
X012038Y020537D01*
X013447Y020537D01*
X013605Y020694D01*
X016687Y020694D01*
X016955Y020962D01*
X018003Y020962D01*
X018022Y020955D02*
X018587Y020955D01*
X018575Y020878D02*
X018587Y020878D01*
X018587Y020800D02*
X018568Y020800D01*
X018607Y020723D02*
X018505Y020723D01*
X018022Y020723D02*
X017983Y020723D01*
X017983Y020800D02*
X018022Y020800D01*
X018022Y020878D02*
X017983Y020878D01*
X017983Y020955D02*
X015945Y020955D01*
X016022Y021032D02*
X017430Y021032D01*
X017430Y020878D02*
X015867Y020878D01*
X015790Y020800D02*
X017437Y020800D01*
X017500Y020723D02*
X013460Y020723D01*
X012441Y020723D02*
X011105Y020723D01*
X011085Y020706D02*
X011841Y020706D01*
X011105Y020646D02*
X011066Y020646D01*
X011066Y020569D02*
X011105Y020569D01*
X011105Y020491D02*
X011066Y020491D01*
X011388Y019541D02*
X011258Y019411D01*
X011388Y019541D02*
X021904Y019541D01*
X022199Y019246D01*
X022199Y019242D01*
X021901Y019256D02*
X013839Y019256D01*
X013854Y019178D02*
X021903Y019178D01*
X021935Y019101D02*
X013854Y019101D01*
X013839Y019024D02*
X021995Y019024D01*
X022132Y018947D02*
X013807Y018947D01*
X013750Y018869D02*
X026905Y018869D01*
X026982Y018792D02*
X013660Y018792D01*
X013250Y018792D02*
X012654Y018792D01*
X012750Y018869D02*
X013160Y018869D01*
X013103Y018947D02*
X012807Y018947D01*
X012839Y019024D02*
X013071Y019024D01*
X013056Y019101D02*
X012494Y019101D01*
X012494Y019024D02*
X012416Y019024D01*
X012416Y019100D02*
X012416Y018740D01*
X012338Y018755D01*
X012266Y018785D01*
X012200Y018829D01*
X012145Y018885D01*
X012101Y018950D01*
X012071Y019023D01*
X012056Y019100D01*
X012416Y019100D01*
X012416Y019101D02*
X005022Y019101D01*
X005099Y019024D02*
X012071Y019024D01*
X012103Y018947D02*
X005176Y018947D01*
X005253Y018869D02*
X012160Y018869D01*
X012256Y018792D02*
X011374Y018792D01*
X011451Y018715D02*
X027060Y018715D01*
X027137Y018638D02*
X011528Y018638D01*
X011606Y018560D02*
X027214Y018560D01*
X027291Y018483D02*
X011683Y018483D01*
X011760Y018406D02*
X013204Y018406D01*
X013127Y018329D02*
X011837Y018329D01*
X011915Y018251D02*
X013050Y018251D01*
X013038Y017865D02*
X010793Y017865D01*
X010815Y017887D02*
X010581Y017653D01*
X010250Y017653D01*
X010016Y017887D01*
X010016Y018218D01*
X010250Y018452D01*
X010581Y018452D01*
X010815Y018218D01*
X010815Y017887D01*
X010815Y017943D02*
X011718Y017943D01*
X011641Y018020D02*
X010815Y018020D01*
X010815Y018097D02*
X011563Y018097D01*
X011486Y018174D02*
X010815Y018174D01*
X010782Y018251D02*
X011409Y018251D01*
X011332Y018329D02*
X010704Y018329D01*
X010627Y018406D02*
X011254Y018406D01*
X011177Y018483D02*
X002013Y018483D01*
X002013Y018406D02*
X010204Y018406D01*
X010127Y018329D02*
X005622Y018329D01*
X005581Y018369D02*
X005250Y018369D01*
X005016Y018136D01*
X005016Y017805D01*
X005215Y017606D01*
X003033Y017606D01*
X002815Y017823D01*
X002815Y018136D01*
X002581Y018369D01*
X002250Y018369D01*
X002016Y018136D01*
X002016Y017805D01*
X002250Y017571D01*
X002562Y017571D01*
X002885Y017248D01*
X005129Y017248D01*
X005016Y017136D01*
X005016Y016805D01*
X005250Y016571D01*
X005581Y016571D01*
X005815Y016805D01*
X005815Y017136D01*
X005702Y017248D01*
X006751Y017248D01*
X007158Y016841D01*
X007158Y016706D01*
X006902Y016450D01*
X006902Y016073D01*
X007168Y015807D01*
X007545Y015807D01*
X007811Y016073D01*
X007811Y016450D01*
X007545Y016716D01*
X007516Y016716D01*
X007516Y016989D01*
X007411Y017094D01*
X006899Y017606D01*
X005616Y017606D01*
X005815Y017805D01*
X005815Y018136D01*
X005581Y018369D01*
X005699Y018251D02*
X010050Y018251D01*
X010016Y018174D02*
X005776Y018174D01*
X005815Y018097D02*
X010016Y018097D01*
X010016Y018020D02*
X005815Y018020D01*
X005815Y017943D02*
X010016Y017943D01*
X010038Y017865D02*
X005815Y017865D01*
X005798Y017788D02*
X010115Y017788D01*
X010193Y017711D02*
X005721Y017711D01*
X005644Y017634D02*
X013237Y017634D01*
X013237Y017556D02*
X006948Y017556D01*
X007025Y017479D02*
X013237Y017479D01*
X013204Y017402D02*
X010627Y017402D01*
X010581Y017448D02*
X010815Y017214D01*
X010815Y017088D01*
X010455Y017088D01*
X010455Y017009D01*
X010455Y016649D01*
X010581Y016649D01*
X010815Y016883D01*
X010815Y017009D01*
X010455Y017009D01*
X010376Y017009D01*
X010376Y016649D01*
X010250Y016649D01*
X010016Y016883D01*
X010016Y017009D01*
X010376Y017009D01*
X010376Y017088D01*
X010016Y017088D01*
X010016Y017214D01*
X010250Y017448D01*
X010376Y017448D01*
X010376Y017088D01*
X010455Y017088D01*
X010455Y017448D01*
X010581Y017448D01*
X010455Y017402D02*
X010376Y017402D01*
X010376Y017325D02*
X010455Y017325D01*
X010455Y017247D02*
X010376Y017247D01*
X010376Y017170D02*
X010455Y017170D01*
X010455Y017093D02*
X010376Y017093D01*
X010376Y017016D02*
X007489Y017016D01*
X007516Y016938D02*
X010016Y016938D01*
X010038Y016861D02*
X007516Y016861D01*
X007516Y016784D02*
X010116Y016784D01*
X010193Y016707D02*
X009672Y016707D01*
X009663Y016716D02*
X009286Y016716D01*
X009020Y016450D01*
X009020Y016073D01*
X009286Y015807D01*
X009663Y015807D01*
X009929Y016073D01*
X009929Y016450D01*
X009663Y016716D01*
X009749Y016629D02*
X020418Y016629D01*
X020418Y016552D02*
X009826Y016552D01*
X009904Y016475D02*
X020418Y016475D01*
X020418Y016398D02*
X009929Y016398D01*
X009929Y016320D02*
X010460Y016320D01*
X010441Y016313D02*
X010329Y016200D01*
X010268Y016053D01*
X010268Y015895D01*
X010329Y015748D01*
X010441Y015635D01*
X010588Y015575D01*
X010747Y015575D01*
X010894Y015635D01*
X011006Y015748D01*
X011067Y015895D01*
X011067Y016053D01*
X011006Y016200D01*
X010894Y016313D01*
X010747Y016373D01*
X010588Y016373D01*
X010441Y016313D01*
X010372Y016243D02*
X009929Y016243D01*
X009929Y016166D02*
X010315Y016166D01*
X010283Y016089D02*
X009929Y016089D01*
X009867Y016012D02*
X010268Y016012D01*
X010268Y015934D02*
X009790Y015934D01*
X009713Y015857D02*
X010284Y015857D01*
X010316Y015780D02*
X005519Y015780D01*
X005504Y015744D02*
X005565Y015891D01*
X005565Y016050D01*
X005504Y016196D01*
X005392Y016309D01*
X005245Y016369D01*
X005086Y016369D01*
X004939Y016309D01*
X004827Y016196D01*
X004766Y016050D01*
X004766Y015891D01*
X004827Y015744D01*
X004939Y015632D01*
X005086Y015571D01*
X005245Y015571D01*
X005392Y015632D01*
X005504Y015744D01*
X005463Y015703D02*
X010374Y015703D01*
X010466Y015625D02*
X005377Y015625D01*
X005245Y015369D02*
X005086Y015369D01*
X004939Y015309D01*
X004827Y015196D01*
X004766Y015050D01*
X004766Y014891D01*
X004827Y014744D01*
X004939Y014632D01*
X005086Y014571D01*
X005245Y014571D01*
X005392Y014632D01*
X005504Y014744D01*
X005565Y014891D01*
X005565Y015050D01*
X005504Y015196D01*
X005392Y015309D01*
X005245Y015369D01*
X005373Y015316D02*
X010450Y015316D01*
X010441Y015313D02*
X010329Y015200D01*
X010268Y015053D01*
X010268Y014895D01*
X010329Y014748D01*
X010441Y014635D01*
X010588Y014575D01*
X010747Y014575D01*
X010894Y014635D01*
X011006Y014748D01*
X011067Y014895D01*
X011067Y015053D01*
X011006Y015200D01*
X010894Y015313D01*
X010747Y015373D01*
X010588Y015373D01*
X010441Y015313D01*
X010368Y015239D02*
X005461Y015239D01*
X005518Y015162D02*
X010313Y015162D01*
X010281Y015085D02*
X005550Y015085D01*
X005565Y015007D02*
X010268Y015007D01*
X010268Y014930D02*
X005565Y014930D01*
X005549Y014853D02*
X010285Y014853D01*
X010317Y014776D02*
X005517Y014776D01*
X005459Y014698D02*
X010378Y014698D01*
X010476Y014621D02*
X005367Y014621D01*
X005250Y014369D02*
X005016Y014136D01*
X005016Y013805D01*
X005250Y013571D01*
X005581Y013571D01*
X005815Y013805D01*
X005815Y014136D01*
X005581Y014369D01*
X005250Y014369D01*
X005193Y014312D02*
X003197Y014312D01*
X003197Y014235D02*
X005116Y014235D01*
X005038Y014158D02*
X003197Y014158D01*
X003197Y014081D02*
X005016Y014081D01*
X005016Y014003D02*
X003197Y014003D01*
X003197Y013926D02*
X005016Y013926D01*
X005016Y013849D02*
X003197Y013849D01*
X003197Y013772D02*
X005049Y013772D01*
X005127Y013694D02*
X003197Y013694D01*
X003197Y013617D02*
X005204Y013617D01*
X005250Y013369D02*
X005016Y013136D01*
X005016Y012805D01*
X005250Y012571D01*
X005581Y012571D01*
X005815Y012805D01*
X005815Y013136D01*
X005581Y013369D01*
X005250Y013369D01*
X005189Y013308D02*
X003006Y013308D01*
X002929Y013231D02*
X005112Y013231D01*
X005034Y013154D02*
X002852Y013154D01*
X002815Y013117D02*
X003197Y013498D01*
X003197Y014690D01*
X003092Y014794D01*
X003045Y014842D01*
X003065Y014891D01*
X003065Y015050D01*
X003004Y015196D01*
X002892Y015309D01*
X002745Y015369D01*
X002586Y015369D01*
X002439Y015309D01*
X002327Y015196D01*
X002266Y015050D01*
X002266Y014891D01*
X002327Y014744D01*
X002439Y014632D01*
X002586Y014571D01*
X002745Y014571D01*
X002791Y014590D01*
X002839Y014542D01*
X002839Y013646D01*
X002562Y013369D01*
X002250Y013369D01*
X002016Y013136D01*
X002016Y012805D01*
X002250Y012571D01*
X002581Y012571D01*
X002815Y012805D01*
X002815Y013117D01*
X002815Y013076D02*
X005016Y013076D01*
X005016Y012999D02*
X002815Y012999D01*
X002815Y012922D02*
X005016Y012922D01*
X005016Y012845D02*
X002815Y012845D01*
X002778Y012767D02*
X005053Y012767D01*
X005131Y012690D02*
X002700Y012690D01*
X002623Y012613D02*
X005208Y012613D01*
X005250Y012369D02*
X005016Y012136D01*
X005016Y011805D01*
X005250Y011571D01*
X005581Y011571D01*
X005815Y011805D01*
X005815Y012136D01*
X005581Y012369D01*
X005250Y012369D01*
X005185Y012304D02*
X002646Y012304D01*
X002581Y012369D02*
X002250Y012369D01*
X002016Y012136D01*
X002016Y011805D01*
X002250Y011571D01*
X002581Y011571D01*
X002815Y011805D01*
X002815Y012136D01*
X002581Y012369D01*
X002724Y012227D02*
X005107Y012227D01*
X005030Y012150D02*
X002801Y012150D01*
X002815Y012072D02*
X005016Y012072D01*
X005016Y011995D02*
X002815Y011995D01*
X002815Y011918D02*
X005016Y011918D01*
X005016Y011841D02*
X002815Y011841D01*
X002774Y011763D02*
X005058Y011763D01*
X005135Y011686D02*
X002696Y011686D01*
X002619Y011609D02*
X005212Y011609D01*
X005619Y011609D02*
X005791Y011609D01*
X005714Y011532D02*
X002013Y011532D01*
X002013Y011609D02*
X002212Y011609D01*
X002135Y011686D02*
X002013Y011686D01*
X002013Y011763D02*
X002058Y011763D01*
X002016Y011841D02*
X002013Y011841D01*
X002013Y011918D02*
X002016Y011918D01*
X002013Y011995D02*
X002016Y011995D01*
X002013Y012072D02*
X002016Y012072D01*
X002013Y012150D02*
X002030Y012150D01*
X002013Y012227D02*
X002107Y012227D01*
X002185Y012304D02*
X002013Y012304D01*
X002013Y012381D02*
X007677Y012381D01*
X007677Y012304D02*
X005646Y012304D01*
X005724Y012227D02*
X007677Y012227D01*
X007677Y012150D02*
X005801Y012150D01*
X005815Y012072D02*
X007677Y012072D01*
X007677Y011995D02*
X005815Y011995D01*
X005815Y011918D02*
X007677Y011918D01*
X007677Y011841D02*
X005815Y011841D01*
X005774Y011763D02*
X007611Y011763D01*
X007534Y011686D02*
X005696Y011686D01*
X005637Y011454D02*
X002013Y011454D01*
X002013Y011377D02*
X005560Y011377D01*
X005482Y011300D02*
X002013Y011300D01*
X002013Y011223D02*
X005144Y011223D01*
X005065Y011145D02*
X002013Y011145D01*
X001574Y011145D02*
X001522Y011145D01*
X001522Y011068D02*
X001574Y011068D01*
X001574Y010991D02*
X001522Y010991D01*
X001522Y010914D02*
X001574Y010914D01*
X001522Y010836D02*
X001645Y010836D01*
X001722Y010759D02*
X001522Y010759D01*
X001522Y010682D02*
X001799Y010682D01*
X001522Y010605D02*
X005082Y010605D01*
X005184Y010527D02*
X001522Y010527D01*
X001522Y010450D02*
X012063Y010450D01*
X011991Y010378D02*
X004747Y010378D01*
X004542Y010173D01*
X004232Y010173D01*
X003999Y009939D01*
X003999Y009608D01*
X004232Y009374D01*
X004563Y009374D01*
X004797Y009608D01*
X004797Y009921D01*
X004895Y010019D01*
X007079Y010019D01*
X006999Y009939D01*
X006999Y009608D01*
X007232Y009374D01*
X007563Y009374D01*
X007797Y009608D01*
X007797Y009939D01*
X007717Y010019D01*
X008087Y010019D01*
X008006Y009939D01*
X008006Y009608D01*
X008240Y009374D01*
X008571Y009374D01*
X008805Y009608D01*
X008805Y009939D01*
X008725Y010019D01*
X011087Y010019D01*
X011006Y009939D01*
X011006Y009608D01*
X011240Y009374D01*
X011571Y009374D01*
X011791Y009594D01*
X012679Y009594D01*
X012784Y009699D01*
X013360Y010275D01*
X013480Y010275D01*
X013464Y010265D01*
X013409Y010209D01*
X013365Y010144D01*
X013335Y010071D01*
X013319Y009994D01*
X013679Y009994D01*
X013679Y009915D01*
X013319Y009915D01*
X013335Y009838D01*
X013365Y009765D01*
X013409Y009700D01*
X013464Y009644D01*
X013530Y009600D01*
X013602Y009570D01*
X013679Y009555D01*
X013679Y009915D01*
X013758Y009915D01*
X013758Y009555D01*
X013835Y009570D01*
X013908Y009600D01*
X013973Y009644D01*
X014029Y009700D01*
X014073Y009765D01*
X014103Y009838D01*
X014118Y009915D01*
X013758Y009915D01*
X013758Y009994D01*
X014118Y009994D01*
X014103Y010071D01*
X014073Y010144D01*
X014029Y010209D01*
X013973Y010265D01*
X013958Y010275D01*
X015328Y010275D01*
X015643Y010590D01*
X015749Y010695D01*
X015749Y011155D01*
X015774Y011094D01*
X015886Y010982D01*
X016033Y010921D01*
X016192Y010921D01*
X016339Y010982D01*
X016451Y011094D01*
X016512Y011241D01*
X016512Y011400D01*
X016451Y011547D01*
X016339Y011659D01*
X016192Y011720D01*
X016033Y011720D01*
X016020Y011714D01*
X016096Y011791D01*
X018832Y011791D01*
X018937Y011896D01*
X018937Y011897D01*
X019482Y012441D01*
X019586Y012546D01*
X019586Y015083D01*
X019170Y015500D01*
X019170Y015604D01*
X019125Y015714D01*
X019041Y015798D01*
X018932Y015843D01*
X018813Y015843D01*
X018703Y015798D01*
X018620Y015714D01*
X018574Y015604D01*
X018574Y015486D01*
X018620Y015376D01*
X018703Y015292D01*
X018755Y015271D01*
X018696Y015246D01*
X018612Y015163D01*
X018566Y015053D01*
X018566Y014934D01*
X018612Y014825D01*
X018696Y014741D01*
X018805Y014696D01*
X018910Y014696D01*
X019016Y014589D01*
X019016Y012776D01*
X018566Y012326D01*
X014809Y012326D01*
X014825Y012342D01*
X014886Y012489D01*
X014886Y012648D01*
X014864Y012701D01*
X015343Y013180D01*
X015343Y013070D01*
X015758Y013070D01*
X015758Y012992D01*
X015343Y012992D01*
X015343Y012843D01*
X015609Y012577D01*
X015758Y012577D01*
X015758Y012992D01*
X015837Y012992D01*
X015837Y013070D01*
X016252Y013070D01*
X016252Y013219D01*
X015986Y013485D01*
X015837Y013485D01*
X015837Y013070D01*
X015758Y013070D01*
X015758Y013485D01*
X015648Y013485D01*
X015974Y013811D01*
X016570Y013811D01*
X016644Y013737D01*
X016754Y013692D01*
X016873Y013692D01*
X016982Y013737D01*
X017066Y013821D01*
X017111Y013930D01*
X017111Y014049D01*
X017066Y014159D01*
X016982Y014242D01*
X016873Y014288D01*
X016754Y014288D01*
X016644Y014242D01*
X016570Y014169D01*
X015826Y014169D01*
X014608Y012951D01*
X014566Y012968D01*
X014407Y012968D01*
X014260Y012907D01*
X014148Y012795D01*
X014087Y012648D01*
X014087Y012489D01*
X014148Y012342D01*
X014260Y012230D01*
X014271Y012225D01*
X013625Y011579D01*
X013589Y011579D01*
X013815Y011805D01*
X013815Y012136D01*
X013594Y012356D01*
X013594Y012584D01*
X013815Y012805D01*
X013815Y013136D01*
X013581Y013369D01*
X013261Y013369D01*
X013075Y013556D01*
X013075Y013746D01*
X013250Y013571D01*
X013581Y013571D01*
X013815Y013805D01*
X013815Y014136D01*
X013581Y014369D01*
X013250Y014369D01*
X013075Y014194D01*
X013075Y014561D01*
X013088Y014555D01*
X013247Y014555D01*
X013394Y014616D01*
X013506Y014728D01*
X013567Y014875D01*
X013567Y015034D01*
X013506Y015181D01*
X013394Y015293D01*
X013247Y015354D01*
X013088Y015354D01*
X012941Y015293D01*
X012829Y015181D01*
X012768Y015034D01*
X012768Y014875D01*
X012788Y014827D01*
X012717Y014757D01*
X012717Y013408D01*
X012822Y013303D01*
X013016Y013109D01*
X013016Y012805D01*
X013237Y012584D01*
X013237Y012356D01*
X013016Y012136D01*
X013016Y011805D01*
X013242Y011579D01*
X013192Y011579D01*
X013087Y011474D01*
X011991Y010378D01*
X012141Y010527D02*
X010637Y010527D01*
X010622Y010518D02*
X010688Y010561D01*
X010744Y010617D01*
X010787Y010682D01*
X012295Y010682D01*
X012372Y010759D02*
X010818Y010759D01*
X010817Y010755D02*
X010833Y010832D01*
X010473Y010832D01*
X010473Y010911D01*
X010833Y010911D01*
X010817Y010988D01*
X010787Y011061D01*
X010744Y011126D01*
X010688Y011182D01*
X010622Y011226D01*
X010550Y011256D01*
X010473Y011271D01*
X010473Y010911D01*
X010394Y010911D01*
X010394Y011271D01*
X010317Y011256D01*
X010244Y011226D01*
X010179Y011182D01*
X010123Y011126D01*
X010079Y011061D01*
X010049Y010988D01*
X010034Y010911D01*
X010394Y010911D01*
X010394Y010832D01*
X010473Y010832D01*
X010473Y010472D01*
X010550Y010488D01*
X010622Y010518D01*
X010731Y010605D02*
X012218Y010605D01*
X012450Y010836D02*
X010473Y010836D01*
X010473Y010759D02*
X010394Y010759D01*
X010394Y010832D02*
X010394Y010472D01*
X010317Y010488D01*
X010244Y010518D01*
X010179Y010561D01*
X010123Y010617D01*
X010079Y010682D01*
X010049Y010755D01*
X010034Y010832D01*
X010394Y010832D01*
X010394Y010836D02*
X009833Y010836D01*
X009833Y010792D02*
X009772Y010645D01*
X009660Y010533D01*
X009513Y010472D01*
X009354Y010472D01*
X009207Y010533D01*
X009095Y010645D01*
X009034Y010792D01*
X009034Y010951D01*
X009095Y011098D01*
X009207Y011210D01*
X009354Y011271D01*
X009513Y011271D01*
X009660Y011210D01*
X009772Y011098D01*
X009833Y010951D01*
X009833Y010792D01*
X009819Y010759D02*
X010048Y010759D01*
X010080Y010682D02*
X009787Y010682D01*
X009731Y010605D02*
X010135Y010605D01*
X010230Y010527D02*
X009646Y010527D01*
X009221Y010527D02*
X008599Y010527D01*
X008622Y010537D02*
X008734Y010649D01*
X008795Y010796D01*
X008795Y010955D01*
X008734Y011102D01*
X008622Y011214D01*
X008475Y011275D01*
X008316Y011275D01*
X008170Y011214D01*
X008057Y011102D01*
X007997Y010955D01*
X007997Y010796D01*
X008057Y010649D01*
X008170Y010537D01*
X008316Y010476D01*
X008475Y010476D01*
X008622Y010537D01*
X008690Y010605D02*
X009135Y010605D01*
X009080Y010682D02*
X008748Y010682D01*
X008780Y010759D02*
X009048Y010759D01*
X009034Y010836D02*
X008795Y010836D01*
X008795Y010914D02*
X009034Y010914D01*
X009050Y010991D02*
X008780Y010991D01*
X008748Y011068D02*
X009082Y011068D01*
X009142Y011145D02*
X008691Y011145D01*
X008602Y011223D02*
X009237Y011223D01*
X009630Y011223D02*
X010240Y011223D01*
X010142Y011145D02*
X009724Y011145D01*
X009784Y011068D02*
X010084Y011068D01*
X010050Y010991D02*
X009816Y010991D01*
X009833Y010914D02*
X010034Y010914D01*
X010394Y010914D02*
X010473Y010914D01*
X010473Y010991D02*
X010394Y010991D01*
X010394Y011068D02*
X010473Y011068D01*
X010473Y011145D02*
X010394Y011145D01*
X010394Y011223D02*
X010473Y011223D01*
X010627Y011223D02*
X012836Y011223D01*
X012913Y011300D02*
X007768Y011300D01*
X007691Y011223D02*
X008190Y011223D01*
X008101Y011145D02*
X007691Y011145D01*
X007748Y011068D02*
X008043Y011068D01*
X008011Y010991D02*
X007780Y010991D01*
X007997Y010914D02*
X007435Y010914D01*
X007435Y010836D02*
X007997Y010836D01*
X008012Y010759D02*
X007780Y010759D01*
X007747Y010682D02*
X008044Y010682D01*
X008102Y010605D02*
X007690Y010605D01*
X007594Y010527D02*
X008193Y010527D01*
X008054Y009987D02*
X007749Y009987D01*
X007797Y009910D02*
X008006Y009910D01*
X008006Y009832D02*
X007797Y009832D01*
X007797Y009755D02*
X008006Y009755D01*
X008006Y009678D02*
X007797Y009678D01*
X007790Y009601D02*
X008014Y009601D01*
X008091Y009523D02*
X007713Y009523D01*
X007636Y009446D02*
X008168Y009446D01*
X008093Y008981D02*
X008006Y008894D01*
X007988Y008876D01*
X007976Y008888D01*
X007944Y008920D01*
X007883Y008981D01*
X007577Y008981D01*
X007516Y008919D01*
X007454Y008981D01*
X006975Y008981D01*
X006957Y008963D01*
X006938Y008981D01*
X006921Y008981D01*
X006906Y008991D01*
X006857Y008981D01*
X006806Y008981D01*
X006794Y008968D01*
X006776Y008965D01*
X006749Y008923D01*
X006713Y008888D01*
X006713Y008870D01*
X006685Y008827D01*
X006685Y008888D01*
X006591Y008981D01*
X006459Y008981D01*
X006441Y008963D01*
X006423Y008981D01*
X005944Y008981D01*
X005925Y008963D01*
X005907Y008981D01*
X005602Y008981D01*
X005583Y008962D01*
X005563Y008981D01*
X005546Y008981D01*
X005531Y008991D01*
X005482Y008981D01*
X005431Y008981D01*
X005419Y008968D01*
X005401Y008965D01*
X005374Y008923D01*
X005338Y008888D01*
X005338Y008870D01*
X005310Y008827D01*
X005310Y008888D01*
X005216Y008981D01*
X005084Y008981D01*
X004991Y008888D01*
X004991Y008864D01*
X004874Y008981D01*
X004742Y008981D01*
X004741Y008980D01*
X004649Y008888D01*
X004649Y008888D01*
X004569Y008807D01*
X004475Y008714D01*
X004475Y008235D01*
X004569Y008142D01*
X004701Y008142D01*
X004794Y008235D01*
X004794Y008402D01*
X004822Y008402D01*
X004822Y008235D01*
X004916Y008142D01*
X005048Y008142D01*
X005066Y008160D01*
X005084Y008142D01*
X005102Y008142D01*
X005117Y008132D01*
X005166Y008142D01*
X005216Y008142D01*
X005229Y008154D01*
X005246Y008158D01*
X005274Y008200D01*
X005310Y008235D01*
X005310Y008253D01*
X005338Y008295D01*
X005338Y008235D01*
X005431Y008142D01*
X005563Y008142D01*
X005583Y008161D01*
X005602Y008142D01*
X005907Y008142D01*
X006000Y008235D01*
X006000Y008367D01*
X005914Y008454D01*
X005914Y008669D01*
X005925Y008681D01*
X005944Y008662D01*
X006024Y008662D01*
X006024Y008235D01*
X006117Y008142D01*
X006249Y008142D01*
X006343Y008235D01*
X006343Y008662D01*
X006366Y008662D01*
X006366Y008349D01*
X006356Y008335D01*
X006366Y008285D01*
X006366Y008235D01*
X006379Y008223D01*
X006382Y008205D01*
X006424Y008177D01*
X006459Y008142D01*
X006477Y008142D01*
X006492Y008132D01*
X006541Y008142D01*
X006591Y008142D01*
X006604Y008154D01*
X006621Y008158D01*
X006649Y008200D01*
X006685Y008235D01*
X006685Y008253D01*
X006713Y008295D01*
X006713Y008235D01*
X006806Y008142D01*
X006938Y008142D01*
X006957Y008160D01*
X006975Y008142D01*
X007454Y008142D01*
X007516Y008203D01*
X007518Y008201D01*
X007577Y008142D01*
X007883Y008142D01*
X007945Y008203D01*
X008006Y008142D01*
X008138Y008142D01*
X008260Y008263D01*
X008260Y008235D01*
X008353Y008142D01*
X008485Y008142D01*
X008504Y008160D01*
X008522Y008142D01*
X008654Y008142D01*
X008747Y008235D01*
X008747Y008402D01*
X008776Y008402D01*
X008776Y008235D01*
X008869Y008142D01*
X009001Y008142D01*
X009094Y008235D01*
X009094Y008714D01*
X008827Y008981D01*
X008695Y008981D01*
X008694Y008980D01*
X008602Y008888D01*
X008602Y008888D01*
X008579Y008864D01*
X008579Y008888D01*
X008485Y008981D01*
X008093Y008981D01*
X008018Y008905D02*
X007958Y008905D01*
X007976Y008888D02*
X007976Y008888D01*
X008561Y008905D02*
X008620Y008905D01*
X008903Y008905D02*
X013727Y008905D01*
X013650Y008828D02*
X008980Y008828D01*
X009057Y008751D02*
X013573Y008751D01*
X013495Y008674D02*
X009094Y008674D01*
X009094Y008596D02*
X013418Y008596D01*
X013341Y008519D02*
X009094Y008519D01*
X009094Y008442D02*
X013264Y008442D01*
X013186Y008365D02*
X009094Y008365D01*
X009094Y008287D02*
X013109Y008287D01*
X013804Y008983D02*
X006918Y008983D01*
X006865Y008983D02*
X005543Y008983D01*
X005490Y008983D02*
X003225Y008983D01*
X003193Y009060D02*
X013882Y009060D01*
X013959Y009137D02*
X003161Y009137D01*
X003160Y009142D02*
X002937Y009364D01*
X002647Y009484D01*
X002333Y009484D01*
X002043Y009364D01*
X001821Y009142D01*
X001701Y008851D01*
X001701Y008537D01*
X001821Y008247D01*
X002043Y008025D01*
X002333Y007905D01*
X002647Y007905D01*
X002937Y008025D01*
X003160Y008247D01*
X003280Y008537D01*
X003280Y008851D01*
X003160Y009142D01*
X003087Y009214D02*
X014036Y009214D01*
X014113Y009292D02*
X003009Y009292D01*
X002925Y009369D02*
X014191Y009369D01*
X014268Y009446D02*
X011643Y009446D01*
X011721Y009523D02*
X014345Y009523D01*
X014422Y009601D02*
X013908Y009601D01*
X014007Y009678D02*
X014500Y009678D01*
X014577Y009755D02*
X014066Y009755D01*
X014100Y009832D02*
X014654Y009832D01*
X014731Y009910D02*
X014117Y009910D01*
X014104Y010064D02*
X014886Y010064D01*
X014963Y010141D02*
X014074Y010141D01*
X014019Y010218D02*
X023584Y010218D01*
X023661Y010296D02*
X015349Y010296D01*
X015426Y010373D02*
X023738Y010373D01*
X023815Y010450D02*
X015504Y010450D01*
X015581Y010527D02*
X023893Y010527D01*
X023970Y010605D02*
X015658Y010605D01*
X015735Y010682D02*
X024047Y010682D01*
X024124Y010759D02*
X015749Y010759D01*
X015749Y010836D02*
X024201Y010836D01*
X024152Y010921D02*
X024229Y010936D01*
X024302Y010967D01*
X024367Y011010D01*
X024423Y011066D01*
X024466Y011131D01*
X024496Y011204D01*
X024512Y011281D01*
X024152Y011281D01*
X024152Y011360D01*
X024512Y011360D01*
X024496Y011437D01*
X024466Y011510D01*
X024423Y011575D01*
X024367Y011631D01*
X024302Y011674D01*
X024229Y011704D01*
X024152Y011720D01*
X024152Y011360D01*
X024073Y011360D01*
X024073Y011720D01*
X023996Y011704D01*
X023923Y011674D01*
X023858Y011631D01*
X023802Y011575D01*
X023759Y011510D01*
X023728Y011437D01*
X023713Y011360D01*
X024073Y011360D01*
X024073Y011281D01*
X024152Y011281D01*
X024152Y010921D01*
X024152Y010991D02*
X024073Y010991D01*
X024073Y010921D02*
X024073Y011281D01*
X023713Y011281D01*
X023728Y011204D01*
X023759Y011131D01*
X023802Y011066D01*
X023858Y011010D01*
X023923Y010967D01*
X023996Y010936D01*
X024073Y010921D01*
X024073Y011068D02*
X024152Y011068D01*
X024152Y011145D02*
X024073Y011145D01*
X024073Y011223D02*
X024152Y011223D01*
X024152Y011300D02*
X029744Y011300D01*
X029821Y011377D02*
X024508Y011377D01*
X024489Y011454D02*
X029898Y011454D01*
X029975Y011532D02*
X024452Y011532D01*
X024389Y011609D02*
X030053Y011609D01*
X030130Y011686D02*
X024273Y011686D01*
X024152Y011686D02*
X024073Y011686D01*
X024073Y011609D02*
X024152Y011609D01*
X024152Y011532D02*
X024073Y011532D01*
X024073Y011454D02*
X024152Y011454D01*
X024152Y011377D02*
X024073Y011377D01*
X024073Y011300D02*
X023152Y011300D01*
X023152Y011281D02*
X023152Y011360D01*
X023512Y011360D01*
X023496Y011437D01*
X023466Y011510D01*
X023423Y011575D01*
X023367Y011631D01*
X023302Y011674D01*
X023229Y011704D01*
X023152Y011720D01*
X023152Y011360D01*
X023073Y011360D01*
X023073Y011720D01*
X022996Y011704D01*
X022923Y011674D01*
X022858Y011631D01*
X022802Y011575D01*
X022759Y011510D01*
X022728Y011437D01*
X022713Y011360D01*
X023073Y011360D01*
X023073Y011281D01*
X023152Y011281D01*
X023512Y011281D01*
X023496Y011204D01*
X023466Y011131D01*
X023423Y011066D01*
X023367Y011010D01*
X023302Y010967D01*
X023229Y010936D01*
X023152Y010921D01*
X023152Y011281D01*
X023152Y011223D02*
X023073Y011223D01*
X023073Y011281D02*
X023073Y010921D01*
X022996Y010936D01*
X022923Y010967D01*
X022858Y011010D01*
X022802Y011066D01*
X022759Y011131D01*
X022728Y011204D01*
X022713Y011281D01*
X023073Y011281D01*
X023073Y011300D02*
X022152Y011300D01*
X022152Y011281D02*
X022152Y011360D01*
X022512Y011360D01*
X022496Y011437D01*
X022466Y011510D01*
X022423Y011575D01*
X022367Y011631D01*
X022302Y011674D01*
X022229Y011704D01*
X022152Y011720D01*
X022152Y011360D01*
X022073Y011360D01*
X022073Y011720D01*
X021996Y011704D01*
X021923Y011674D01*
X021858Y011631D01*
X021802Y011575D01*
X021759Y011510D01*
X021728Y011437D01*
X021713Y011360D01*
X022073Y011360D01*
X022073Y011281D01*
X022152Y011281D01*
X022512Y011281D01*
X022496Y011204D01*
X022466Y011131D01*
X022423Y011066D01*
X022367Y011010D01*
X022302Y010967D01*
X022229Y010936D01*
X022152Y010921D01*
X022152Y011281D01*
X022152Y011223D02*
X022073Y011223D01*
X022073Y011281D02*
X022073Y010921D01*
X021996Y010936D01*
X021923Y010967D01*
X021858Y011010D01*
X021802Y011066D01*
X021759Y011131D01*
X021728Y011204D01*
X021713Y011281D01*
X022073Y011281D01*
X022073Y011300D02*
X021152Y011300D01*
X021152Y011281D02*
X021152Y011360D01*
X021512Y011360D01*
X021496Y011437D01*
X021466Y011510D01*
X021423Y011575D01*
X021367Y011631D01*
X021302Y011674D01*
X021229Y011704D01*
X021152Y011720D01*
X021152Y011360D01*
X021073Y011360D01*
X021073Y011720D01*
X020996Y011704D01*
X020923Y011674D01*
X020858Y011631D01*
X020802Y011575D01*
X020759Y011510D01*
X020728Y011437D01*
X020713Y011360D01*
X021073Y011360D01*
X021073Y011281D01*
X021152Y011281D01*
X021512Y011281D01*
X021496Y011204D01*
X021466Y011131D01*
X021423Y011066D01*
X021367Y011010D01*
X021302Y010967D01*
X021229Y010936D01*
X021152Y010921D01*
X021152Y011281D01*
X021152Y011223D02*
X021073Y011223D01*
X021073Y011281D02*
X021073Y010921D01*
X020996Y010936D01*
X020923Y010967D01*
X020858Y011010D01*
X020802Y011066D01*
X020759Y011131D01*
X020728Y011204D01*
X020713Y011281D01*
X021073Y011281D01*
X021073Y011300D02*
X020512Y011300D01*
X020512Y011241D02*
X020512Y011400D01*
X020451Y011547D01*
X020339Y011659D01*
X020192Y011720D01*
X020033Y011720D01*
X019886Y011659D01*
X019774Y011547D01*
X019713Y011400D01*
X019713Y011241D01*
X019774Y011094D01*
X019886Y010982D01*
X020033Y010921D01*
X020192Y010921D01*
X020339Y010982D01*
X020451Y011094D01*
X020512Y011241D01*
X020504Y011223D02*
X020725Y011223D01*
X020753Y011145D02*
X020472Y011145D01*
X020425Y011068D02*
X020801Y011068D01*
X020887Y010991D02*
X020348Y010991D01*
X019877Y010991D02*
X019348Y010991D01*
X019339Y010982D02*
X019451Y011094D01*
X019512Y011241D01*
X019512Y011400D01*
X019451Y011547D01*
X019339Y011659D01*
X019192Y011720D01*
X019033Y011720D01*
X018886Y011659D01*
X018774Y011547D01*
X018713Y011400D01*
X018713Y011241D01*
X018774Y011094D01*
X018886Y010982D01*
X019033Y010921D01*
X019192Y010921D01*
X019339Y010982D01*
X019425Y011068D02*
X019800Y011068D01*
X019753Y011145D02*
X019472Y011145D01*
X019504Y011223D02*
X019721Y011223D01*
X019713Y011300D02*
X019512Y011300D01*
X019512Y011377D02*
X019713Y011377D01*
X019736Y011454D02*
X019489Y011454D01*
X019457Y011532D02*
X019768Y011532D01*
X019836Y011609D02*
X019389Y011609D01*
X019273Y011686D02*
X019951Y011686D01*
X020273Y011686D02*
X020951Y011686D01*
X021073Y011686D02*
X021152Y011686D01*
X021152Y011609D02*
X021073Y011609D01*
X021073Y011532D02*
X021152Y011532D01*
X021152Y011454D02*
X021073Y011454D01*
X021073Y011377D02*
X021152Y011377D01*
X021152Y011145D02*
X021073Y011145D01*
X021073Y011068D02*
X021152Y011068D01*
X021152Y010991D02*
X021073Y010991D01*
X021338Y010991D02*
X021887Y010991D01*
X021801Y011068D02*
X021424Y011068D01*
X021472Y011145D02*
X021753Y011145D01*
X021725Y011223D02*
X021500Y011223D01*
X021508Y011377D02*
X021717Y011377D01*
X021736Y011454D02*
X021489Y011454D01*
X021452Y011532D02*
X021773Y011532D01*
X021836Y011609D02*
X021389Y011609D01*
X021273Y011686D02*
X021951Y011686D01*
X022073Y011686D02*
X022152Y011686D01*
X022152Y011609D02*
X022073Y011609D01*
X022073Y011532D02*
X022152Y011532D01*
X022152Y011454D02*
X022073Y011454D01*
X022073Y011377D02*
X022152Y011377D01*
X022152Y011145D02*
X022073Y011145D01*
X022073Y011068D02*
X022152Y011068D01*
X022152Y010991D02*
X022073Y010991D01*
X022338Y010991D02*
X022887Y010991D01*
X022801Y011068D02*
X022424Y011068D01*
X022472Y011145D02*
X022753Y011145D01*
X022725Y011223D02*
X022500Y011223D01*
X022508Y011377D02*
X022717Y011377D01*
X022736Y011454D02*
X022489Y011454D01*
X022452Y011532D02*
X022773Y011532D01*
X022836Y011609D02*
X022389Y011609D01*
X022273Y011686D02*
X022951Y011686D01*
X023073Y011686D02*
X023152Y011686D01*
X023152Y011609D02*
X023073Y011609D01*
X023073Y011532D02*
X023152Y011532D01*
X023152Y011454D02*
X023073Y011454D01*
X023073Y011377D02*
X023152Y011377D01*
X023152Y011145D02*
X023073Y011145D01*
X023073Y011068D02*
X023152Y011068D01*
X023152Y010991D02*
X023073Y010991D01*
X023338Y010991D02*
X023887Y010991D01*
X023801Y011068D02*
X023424Y011068D01*
X023472Y011145D02*
X023753Y011145D01*
X023725Y011223D02*
X023500Y011223D01*
X023508Y011377D02*
X023717Y011377D01*
X023736Y011454D02*
X023489Y011454D01*
X023452Y011532D02*
X023773Y011532D01*
X023836Y011609D02*
X023389Y011609D01*
X023273Y011686D02*
X023951Y011686D01*
X024500Y011223D02*
X029666Y011223D01*
X030183Y010759D02*
X040056Y010759D01*
X039979Y010682D02*
X030106Y010682D01*
X030028Y010605D02*
X039901Y010605D01*
X039824Y010527D02*
X029951Y010527D01*
X029874Y010450D02*
X039747Y010450D01*
X039670Y010373D02*
X024560Y010373D01*
X024483Y010296D02*
X039592Y010296D01*
X039515Y010218D02*
X024406Y010218D01*
X024329Y010141D02*
X039438Y010141D01*
X039361Y010064D02*
X029098Y010064D01*
X029171Y009987D02*
X039283Y009987D01*
X039206Y009910D02*
X029203Y009910D01*
X029214Y009832D02*
X039129Y009832D01*
X039052Y009755D02*
X029210Y009755D01*
X029178Y009678D02*
X038975Y009678D01*
X038897Y009601D02*
X029113Y009601D01*
X028916Y009824D02*
X024384Y009824D01*
X023589Y009029D01*
X023589Y008021D01*
X023333Y007765D01*
X022585Y007765D01*
X021774Y006954D01*
X021774Y006092D01*
X021620Y005939D01*
X020786Y005939D01*
X020341Y005494D01*
X020333Y005494D01*
X020290Y006423D02*
X020282Y006423D01*
X020849Y006990D01*
X021408Y006990D01*
X022738Y008320D01*
X023112Y008320D01*
X022824Y008596D02*
X022401Y008596D01*
X022462Y008519D02*
X022762Y008519D01*
X022607Y008442D02*
X022494Y008442D01*
X022512Y008365D02*
X022530Y008365D01*
X022303Y008674D02*
X022922Y008674D01*
X023303Y008674D02*
X023410Y008674D01*
X023410Y008751D02*
X021854Y008751D01*
X021922Y008674D02*
X021693Y008674D01*
X021770Y008596D02*
X021824Y008596D01*
X021939Y008828D02*
X023410Y008828D01*
X023410Y008905D02*
X021979Y008905D01*
X021997Y008983D02*
X023410Y008983D01*
X023410Y009060D02*
X021997Y009060D01*
X021969Y009137D02*
X023444Y009137D01*
X023521Y009214D02*
X021916Y009214D01*
X021797Y009292D02*
X023599Y009292D01*
X023676Y009369D02*
X015013Y009369D01*
X015090Y009446D02*
X023753Y009446D01*
X023830Y009523D02*
X015167Y009523D01*
X014936Y009292D02*
X017787Y009292D01*
X017710Y009214D02*
X014858Y009214D01*
X014781Y009137D02*
X017633Y009137D01*
X017556Y009060D02*
X016627Y009060D01*
X016703Y008983D02*
X017479Y008983D01*
X017426Y008905D02*
X016780Y008905D01*
X016858Y008828D02*
X017426Y008828D01*
X017426Y008751D02*
X016935Y008751D01*
X017303Y008674D02*
X017426Y008674D01*
X017426Y008596D02*
X017401Y008596D01*
X017605Y008856D02*
X017605Y008069D01*
X017498Y007962D01*
X017498Y007226D01*
X016786Y007112D02*
X016337Y007561D01*
X015872Y007561D01*
X015112Y008320D01*
X016490Y008943D02*
X017116Y008317D01*
X017605Y008856D02*
X017935Y009187D01*
X021522Y009187D01*
X021699Y009009D01*
X021144Y008970D02*
X018927Y008970D01*
X018589Y008631D01*
X018589Y007730D01*
X017290Y006431D01*
X016786Y005887D02*
X016786Y007112D01*
X016786Y005887D02*
X017242Y005431D01*
X017290Y005431D01*
X020112Y008320D02*
X020971Y007462D01*
X021435Y007462D01*
X022124Y007052D02*
X025587Y007052D01*
X025587Y007129D02*
X022201Y007129D01*
X022278Y007206D02*
X025522Y007206D01*
X025485Y007283D02*
X022356Y007283D01*
X022433Y007361D02*
X025468Y007361D01*
X025468Y007438D02*
X022510Y007438D01*
X022587Y007515D02*
X025498Y007515D01*
X025553Y007592D02*
X023413Y007592D01*
X023490Y007670D02*
X025678Y007670D01*
X025854Y007670D02*
X027200Y007670D01*
X027200Y007679D02*
X027200Y007560D01*
X027246Y007451D01*
X027329Y007367D01*
X027439Y007322D01*
X027558Y007322D01*
X027667Y007367D01*
X027741Y007441D01*
X030765Y007441D01*
X031620Y008295D01*
X033623Y008295D01*
X033773Y008445D01*
X033878Y008550D01*
X033878Y008680D01*
X033948Y008750D01*
X033993Y008860D01*
X033993Y008978D01*
X033948Y009088D01*
X033864Y009172D01*
X033754Y009217D01*
X033636Y009217D01*
X033526Y009172D01*
X033442Y009088D01*
X033397Y008978D01*
X033397Y008860D01*
X033442Y008750D01*
X033508Y008685D01*
X033475Y008653D01*
X032725Y008653D01*
X033012Y008940D01*
X033117Y008940D01*
X033226Y008985D01*
X033310Y009069D01*
X033355Y009178D01*
X033355Y009297D01*
X033310Y009407D01*
X033226Y009491D01*
X033117Y009536D01*
X032998Y009536D01*
X032888Y009491D01*
X032805Y009407D01*
X032759Y009297D01*
X032759Y009192D01*
X032401Y008834D01*
X031401Y008834D01*
X031296Y008729D01*
X031046Y008480D01*
X026182Y008480D01*
X026108Y008554D01*
X025999Y008599D01*
X025880Y008599D01*
X025770Y008554D01*
X025686Y008470D01*
X025641Y008360D01*
X025641Y008241D01*
X025686Y008132D01*
X025770Y008048D01*
X025880Y008003D01*
X025999Y008003D01*
X026108Y008048D01*
X026182Y008122D01*
X030941Y008122D01*
X030617Y007798D01*
X027741Y007798D01*
X027667Y007872D01*
X027558Y007918D01*
X027439Y007918D01*
X027329Y007872D01*
X027246Y007789D01*
X027200Y007679D01*
X027228Y007747D02*
X023567Y007747D01*
X023644Y007824D02*
X027281Y007824D01*
X027399Y007901D02*
X023722Y007901D01*
X023768Y007979D02*
X023905Y007979D01*
X023812Y008056D02*
X023768Y008056D01*
X023768Y008281D02*
X023768Y008360D01*
X024073Y008360D01*
X024073Y008281D01*
X023768Y008281D01*
X023768Y008287D02*
X024073Y008287D01*
X024112Y008320D02*
X024711Y007722D01*
X026231Y007722D01*
X027290Y006663D01*
X027290Y006431D01*
X027345Y007361D02*
X026064Y007361D01*
X026064Y007438D02*
X027259Y007438D01*
X027219Y007515D02*
X026034Y007515D01*
X025979Y007592D02*
X027200Y007592D01*
X027498Y007620D02*
X030691Y007620D01*
X031546Y008474D01*
X033549Y008474D01*
X033699Y008624D01*
X033699Y008915D01*
X033695Y008919D01*
X033492Y009137D02*
X033338Y009137D01*
X033355Y009214D02*
X033629Y009214D01*
X033761Y009214D02*
X038511Y009214D01*
X038434Y009137D02*
X033898Y009137D01*
X033959Y009060D02*
X038357Y009060D01*
X038279Y008983D02*
X033991Y008983D01*
X033993Y008905D02*
X038202Y008905D01*
X038125Y008828D02*
X033980Y008828D01*
X033948Y008751D02*
X038048Y008751D01*
X037970Y008674D02*
X033878Y008674D01*
X033878Y008596D02*
X037893Y008596D01*
X037816Y008519D02*
X033847Y008519D01*
X033770Y008442D02*
X037739Y008442D01*
X037661Y008365D02*
X033693Y008365D01*
X033496Y008674D02*
X032746Y008674D01*
X032823Y008751D02*
X033442Y008751D01*
X033410Y008828D02*
X032900Y008828D01*
X032978Y008905D02*
X033397Y008905D01*
X033399Y008983D02*
X033220Y008983D01*
X033301Y009060D02*
X033431Y009060D01*
X033355Y009292D02*
X038588Y009292D01*
X038666Y009369D02*
X033326Y009369D01*
X033271Y009446D02*
X038743Y009446D01*
X038820Y009523D02*
X033147Y009523D01*
X032968Y009523D02*
X024336Y009523D01*
X024259Y009446D02*
X032844Y009446D01*
X032789Y009369D02*
X024181Y009369D01*
X024104Y009292D02*
X032759Y009292D01*
X032759Y009214D02*
X024027Y009214D01*
X023950Y009137D02*
X032704Y009137D01*
X032627Y009060D02*
X023872Y009060D01*
X023795Y008983D02*
X032549Y008983D01*
X032472Y008905D02*
X023768Y008905D01*
X023768Y008828D02*
X031395Y008828D01*
X031318Y008751D02*
X023768Y008751D01*
X023768Y008674D02*
X023922Y008674D01*
X023824Y008596D02*
X023768Y008596D01*
X024073Y008596D02*
X024152Y008596D01*
X024152Y008519D02*
X024073Y008519D01*
X024073Y008442D02*
X024152Y008442D01*
X024152Y008365D02*
X024073Y008365D01*
X024152Y008287D02*
X025641Y008287D01*
X025643Y008365D02*
X024511Y008365D01*
X024494Y008442D02*
X025675Y008442D01*
X025736Y008519D02*
X024460Y008519D01*
X024401Y008596D02*
X025874Y008596D01*
X026004Y008596D02*
X031163Y008596D01*
X031086Y008519D02*
X026142Y008519D01*
X025939Y008301D02*
X031120Y008301D01*
X031475Y008655D01*
X032475Y008655D01*
X033057Y009238D01*
X031612Y008287D02*
X037584Y008287D01*
X037507Y008210D02*
X031535Y008210D01*
X031457Y008133D02*
X031674Y008133D01*
X031597Y008056D02*
X031380Y008056D01*
X031303Y007979D02*
X031519Y007979D01*
X031442Y007901D02*
X031226Y007901D01*
X031148Y007824D02*
X031365Y007824D01*
X031288Y007747D02*
X031071Y007747D01*
X030994Y007670D02*
X031210Y007670D01*
X031133Y007592D02*
X030917Y007592D01*
X030839Y007515D02*
X031056Y007515D01*
X030979Y007438D02*
X027738Y007438D01*
X027652Y007361D02*
X030901Y007361D01*
X030824Y007283D02*
X026047Y007283D01*
X026010Y007206D02*
X030747Y007206D01*
X030670Y007129D02*
X025945Y007129D01*
X025945Y007052D02*
X030592Y007052D01*
X030643Y007824D02*
X027716Y007824D01*
X027597Y007901D02*
X030720Y007901D01*
X030797Y007979D02*
X024320Y007979D01*
X024302Y007967D02*
X024367Y008010D01*
X024423Y008066D01*
X024466Y008131D01*
X024496Y008204D01*
X024512Y008281D01*
X024152Y008281D01*
X024152Y007921D01*
X024229Y007936D01*
X024302Y007967D01*
X024413Y008056D02*
X025763Y008056D01*
X025686Y008133D02*
X024467Y008133D01*
X024498Y008210D02*
X025654Y008210D01*
X026116Y008056D02*
X030874Y008056D01*
X031240Y008674D02*
X024303Y008674D01*
X024152Y008674D02*
X024073Y008674D01*
X023410Y008596D02*
X023401Y008596D01*
X024073Y008210D02*
X024152Y008210D01*
X024152Y008133D02*
X024073Y008133D01*
X024073Y008056D02*
X024152Y008056D01*
X024152Y007979D02*
X024073Y007979D01*
X022112Y008320D02*
X021794Y008320D01*
X021144Y008970D01*
X018877Y010991D02*
X018338Y010991D01*
X018367Y011010D02*
X018302Y010967D01*
X018229Y010936D01*
X018152Y010921D01*
X018152Y011281D01*
X018152Y011360D01*
X018512Y011360D01*
X018496Y011437D01*
X018466Y011510D01*
X018423Y011575D01*
X018367Y011631D01*
X018302Y011674D01*
X018229Y011704D01*
X018152Y011720D01*
X018152Y011360D01*
X018073Y011360D01*
X018073Y011720D01*
X017996Y011704D01*
X017923Y011674D01*
X017858Y011631D01*
X017802Y011575D01*
X017759Y011510D01*
X017728Y011437D01*
X017713Y011360D01*
X018073Y011360D01*
X018073Y011281D01*
X018152Y011281D01*
X018512Y011281D01*
X018496Y011204D01*
X018466Y011131D01*
X018423Y011066D01*
X018367Y011010D01*
X018424Y011068D02*
X018800Y011068D01*
X018753Y011145D02*
X018472Y011145D01*
X018500Y011223D02*
X018721Y011223D01*
X018713Y011300D02*
X018152Y011300D01*
X018152Y011377D02*
X018073Y011377D01*
X018073Y011300D02*
X017512Y011300D01*
X017512Y011241D02*
X017512Y011400D01*
X017451Y011547D01*
X017339Y011659D01*
X017192Y011720D01*
X017033Y011720D01*
X016886Y011659D01*
X016774Y011547D01*
X016713Y011400D01*
X016713Y011241D01*
X016774Y011094D01*
X016886Y010982D01*
X017033Y010921D01*
X017192Y010921D01*
X017339Y010982D01*
X017451Y011094D01*
X017512Y011241D01*
X017504Y011223D02*
X017725Y011223D01*
X017728Y011204D02*
X017759Y011131D01*
X017802Y011066D01*
X017858Y011010D01*
X017923Y010967D01*
X017996Y010936D01*
X018073Y010921D01*
X018073Y011281D01*
X017713Y011281D01*
X017728Y011204D01*
X017753Y011145D02*
X017472Y011145D01*
X017425Y011068D02*
X017801Y011068D01*
X017887Y010991D02*
X017348Y010991D01*
X016877Y010991D02*
X016348Y010991D01*
X016425Y011068D02*
X016800Y011068D01*
X016753Y011145D02*
X016472Y011145D01*
X016504Y011223D02*
X016721Y011223D01*
X016713Y011300D02*
X016512Y011300D01*
X016512Y011377D02*
X016713Y011377D01*
X016736Y011454D02*
X016489Y011454D01*
X016457Y011532D02*
X016768Y011532D01*
X016836Y011609D02*
X016389Y011609D01*
X016273Y011686D02*
X016951Y011686D01*
X017273Y011686D02*
X017951Y011686D01*
X018073Y011686D02*
X018152Y011686D01*
X018152Y011609D02*
X018073Y011609D01*
X018073Y011532D02*
X018152Y011532D01*
X018152Y011454D02*
X018073Y011454D01*
X018073Y011223D02*
X018152Y011223D01*
X018152Y011145D02*
X018073Y011145D01*
X018073Y011068D02*
X018152Y011068D01*
X018152Y010991D02*
X018073Y010991D01*
X017717Y011377D02*
X017512Y011377D01*
X017489Y011454D02*
X017736Y011454D01*
X017773Y011532D02*
X017457Y011532D01*
X017389Y011609D02*
X017836Y011609D01*
X018273Y011686D02*
X018951Y011686D01*
X018836Y011609D02*
X018389Y011609D01*
X018452Y011532D02*
X018768Y011532D01*
X018736Y011454D02*
X018489Y011454D01*
X018508Y011377D02*
X018713Y011377D01*
X018882Y011841D02*
X030284Y011841D01*
X030362Y011918D02*
X018959Y011918D01*
X019036Y011995D02*
X031216Y011995D01*
X031331Y012072D02*
X019113Y012072D01*
X019190Y012150D02*
X036795Y012150D01*
X036812Y012227D02*
X019268Y012227D01*
X019345Y012304D02*
X036812Y012304D01*
X036812Y012381D02*
X022424Y012381D01*
X022449Y012391D02*
X022561Y012504D01*
X022622Y012650D01*
X022622Y012809D01*
X022561Y012956D01*
X022449Y013068D01*
X022302Y013129D01*
X022143Y013129D01*
X021996Y013068D01*
X021884Y012956D01*
X021823Y012809D01*
X021823Y012650D01*
X021884Y012504D01*
X021996Y012391D01*
X022143Y012331D01*
X022302Y012331D01*
X022449Y012391D01*
X022516Y012458D02*
X036812Y012458D01*
X036812Y012536D02*
X022575Y012536D01*
X022606Y012613D02*
X036812Y012613D01*
X036812Y012690D02*
X022622Y012690D01*
X022622Y012767D02*
X034495Y012767D01*
X034526Y012755D02*
X034644Y012755D01*
X034754Y012800D01*
X034838Y012884D01*
X034883Y012993D01*
X034883Y013112D01*
X034838Y013222D01*
X034754Y013305D01*
X034644Y013351D01*
X034526Y013351D01*
X034416Y013305D01*
X034343Y013232D01*
X033633Y013232D01*
X033730Y013272D01*
X033814Y013356D01*
X033859Y013466D01*
X033859Y013584D01*
X033814Y013694D01*
X033730Y013778D01*
X033621Y013823D01*
X033502Y013823D01*
X033466Y013808D01*
X033466Y013899D01*
X033420Y014009D01*
X033336Y014093D01*
X033227Y014138D01*
X033108Y014138D01*
X032999Y014093D01*
X032925Y014020D01*
X029462Y014020D01*
X027914Y015568D01*
X027809Y015673D01*
X026558Y015673D01*
X026453Y015568D01*
X026163Y015279D01*
X023804Y015279D01*
X023730Y015353D01*
X023621Y015398D01*
X023502Y015398D01*
X023392Y015353D01*
X023309Y015269D01*
X023263Y015159D01*
X023263Y015041D01*
X023276Y015009D01*
X022915Y015370D01*
X022948Y015404D01*
X022993Y015513D01*
X022993Y015632D01*
X022948Y015741D01*
X022864Y015825D01*
X022754Y015871D01*
X022636Y015871D01*
X022602Y015857D01*
X022603Y015857D01*
X022602Y015857D02*
X022602Y015935D01*
X022542Y016082D01*
X022429Y016194D01*
X022282Y016255D01*
X022124Y016255D01*
X021977Y016194D01*
X021864Y016082D01*
X021804Y015935D01*
X021804Y015776D01*
X021864Y015630D01*
X021977Y015517D01*
X022043Y015490D01*
X022043Y015341D01*
X022134Y015249D01*
X022086Y015240D01*
X022014Y015210D01*
X021948Y015166D01*
X021893Y015110D01*
X021849Y015045D01*
X021819Y014972D01*
X021804Y014895D01*
X022164Y014895D01*
X022164Y014817D01*
X021815Y014817D01*
X021790Y014875D01*
X021707Y014959D01*
X021597Y015004D01*
X021492Y015004D01*
X020775Y015721D01*
X020775Y016947D01*
X020838Y017009D01*
X021171Y017009D01*
X021171Y016931D01*
X020812Y016931D01*
X020827Y016854D01*
X020857Y016781D01*
X020901Y016715D01*
X020956Y016660D01*
X021022Y016616D01*
X021094Y016586D01*
X021171Y016571D01*
X021171Y016931D01*
X021250Y016931D01*
X021250Y017009D01*
X021610Y017009D01*
X021595Y017087D01*
X021565Y017159D01*
X021521Y017225D01*
X021465Y017280D01*
X021402Y017323D01*
X022019Y017323D01*
X021985Y017309D01*
X021872Y017196D01*
X021811Y017050D01*
X021811Y016891D01*
X021872Y016744D01*
X021985Y016632D01*
X022131Y016571D01*
X022290Y016571D01*
X022437Y016632D01*
X022549Y016744D01*
X022610Y016891D01*
X022610Y017050D01*
X022549Y017196D01*
X022437Y017309D01*
X022403Y017323D01*
X022515Y017323D01*
X023023Y016815D01*
X027653Y016815D01*
X027727Y016741D01*
X027837Y016696D01*
X027955Y016696D01*
X028065Y016741D01*
X028149Y016825D01*
X028194Y016934D01*
X028194Y017053D01*
X028149Y017163D01*
X028065Y017246D01*
X027955Y017292D01*
X027837Y017292D01*
X027727Y017246D01*
X027653Y017172D01*
X023171Y017172D01*
X022768Y017576D01*
X022663Y017680D01*
X021003Y017680D01*
X020523Y017200D01*
X020418Y017095D01*
X020418Y015573D01*
X021240Y014752D01*
X021240Y014647D01*
X021285Y014537D01*
X021369Y014454D01*
X021478Y014408D01*
X021597Y014408D01*
X021707Y014454D01*
X021790Y014537D01*
X021836Y014647D01*
X021836Y014699D01*
X021849Y014667D01*
X021893Y014601D01*
X021948Y014546D01*
X022014Y014502D01*
X022086Y014472D01*
X022164Y014457D01*
X022164Y014817D01*
X022242Y014817D01*
X022242Y014457D01*
X022319Y014472D01*
X022392Y014502D01*
X022458Y014546D01*
X022513Y014601D01*
X022557Y014667D01*
X022587Y014739D01*
X022597Y014788D01*
X023099Y014286D01*
X023099Y013760D01*
X022876Y013537D01*
X022876Y013206D01*
X023110Y012972D01*
X023441Y012972D01*
X023675Y013206D01*
X023675Y013516D01*
X023953Y013794D01*
X024406Y013794D01*
X024425Y013747D01*
X024538Y013634D01*
X024685Y013573D01*
X024843Y013573D01*
X024990Y013634D01*
X025103Y013747D01*
X025163Y013893D01*
X025163Y014052D01*
X025103Y014199D01*
X024990Y014311D01*
X024849Y014370D01*
X028243Y014370D01*
X028279Y014334D01*
X027581Y014334D01*
X027476Y014229D01*
X026794Y013547D01*
X026244Y013547D01*
X026171Y013620D01*
X026062Y013666D01*
X025943Y013666D01*
X025833Y013620D01*
X025749Y013537D01*
X025704Y013427D01*
X025704Y013308D01*
X023675Y013308D01*
X023675Y013231D02*
X025736Y013231D01*
X025749Y013199D02*
X025833Y013115D01*
X025943Y013070D01*
X026062Y013070D01*
X026171Y013115D01*
X026244Y013188D01*
X026943Y013188D01*
X027730Y013976D01*
X028290Y013976D01*
X028972Y013293D01*
X029078Y013188D01*
X032700Y013188D01*
X032909Y012978D01*
X033015Y012873D01*
X034343Y012873D01*
X034416Y012800D01*
X034526Y012755D01*
X034675Y012767D02*
X036812Y012767D01*
X036812Y012845D02*
X034798Y012845D01*
X034853Y012922D02*
X036812Y012922D01*
X036812Y012999D02*
X034883Y012999D01*
X034883Y013076D02*
X036812Y013076D01*
X036812Y013154D02*
X034866Y013154D01*
X034828Y013231D02*
X036812Y013231D01*
X036812Y013308D02*
X034747Y013308D01*
X034422Y013308D02*
X033766Y013308D01*
X033826Y013385D02*
X036812Y013385D01*
X036812Y013463D02*
X033858Y013463D01*
X033859Y013540D02*
X036812Y013540D01*
X036812Y013617D02*
X033846Y013617D01*
X033814Y013694D02*
X036812Y013694D01*
X036812Y013772D02*
X033736Y013772D01*
X033466Y013849D02*
X036812Y013849D01*
X036812Y013926D02*
X033455Y013926D01*
X033423Y014003D02*
X036812Y014003D01*
X036812Y014081D02*
X033349Y014081D01*
X032986Y014081D02*
X029401Y014081D01*
X029324Y014158D02*
X036812Y014158D01*
X036812Y014235D02*
X029247Y014235D01*
X029170Y014312D02*
X036812Y014312D01*
X036812Y014389D02*
X029092Y014389D01*
X029015Y014467D02*
X036812Y014467D01*
X036812Y014544D02*
X028938Y014544D01*
X028861Y014621D02*
X036812Y014621D01*
X036812Y014698D02*
X028783Y014698D01*
X028706Y014776D02*
X036743Y014776D01*
X036666Y014853D02*
X028629Y014853D01*
X028552Y014930D02*
X036589Y014930D01*
X036511Y015007D02*
X028474Y015007D01*
X028397Y015085D02*
X036434Y015085D01*
X036357Y015162D02*
X028320Y015162D01*
X028243Y015239D02*
X036280Y015239D01*
X036202Y015316D02*
X028165Y015316D01*
X028088Y015394D02*
X036125Y015394D01*
X035695Y016076D02*
X036990Y014781D01*
X036990Y011923D01*
X036692Y011918D02*
X031706Y011918D01*
X031733Y011841D02*
X036702Y011841D01*
X036734Y011763D02*
X031733Y011763D01*
X031714Y011686D02*
X036806Y011686D01*
X036698Y011995D02*
X031655Y011995D01*
X031540Y012072D02*
X036730Y012072D01*
X037185Y012150D02*
X040232Y012150D01*
X040232Y012227D02*
X037169Y012227D01*
X037169Y012304D02*
X040232Y012304D01*
X040232Y012381D02*
X037169Y012381D01*
X037169Y012458D02*
X040232Y012458D01*
X040232Y012536D02*
X037169Y012536D01*
X037169Y012613D02*
X040232Y012613D01*
X040232Y012690D02*
X038394Y012690D01*
X038472Y012767D02*
X040232Y012767D01*
X040232Y012845D02*
X038528Y012845D01*
X038528Y012922D02*
X040232Y012922D01*
X040232Y012999D02*
X038528Y012999D01*
X038528Y013076D02*
X040232Y013076D01*
X040232Y013154D02*
X038483Y013154D01*
X038258Y013772D02*
X038019Y013772D01*
X037797Y013772D02*
X037169Y013772D01*
X037169Y013694D02*
X037749Y013694D01*
X037749Y013617D02*
X037169Y013617D01*
X037169Y013540D02*
X037749Y013540D01*
X037749Y013463D02*
X037169Y013463D01*
X037169Y013385D02*
X037749Y013385D01*
X037749Y013308D02*
X037169Y013308D01*
X037169Y013231D02*
X037749Y013231D01*
X037793Y013154D02*
X037169Y013154D01*
X037169Y013076D02*
X037749Y013076D01*
X037749Y012999D02*
X037169Y012999D01*
X037169Y012922D02*
X037749Y012922D01*
X037749Y012845D02*
X037169Y012845D01*
X037169Y012767D02*
X037805Y012767D01*
X037882Y012690D02*
X037169Y012690D01*
X037251Y012072D02*
X040232Y012072D01*
X040232Y011995D02*
X037283Y011995D01*
X037289Y011918D02*
X040232Y011918D01*
X040232Y011841D02*
X037279Y011841D01*
X037247Y011763D02*
X040232Y011763D01*
X040232Y011686D02*
X037175Y011686D01*
X034371Y012845D02*
X022607Y012845D01*
X022575Y012922D02*
X032966Y012922D01*
X032889Y012999D02*
X023468Y012999D01*
X023545Y013076D02*
X025927Y013076D01*
X026078Y013076D02*
X032812Y013076D01*
X032734Y013154D02*
X026210Y013154D01*
X025795Y013154D02*
X023623Y013154D01*
X023675Y013385D02*
X025704Y013385D01*
X025704Y013308D02*
X025749Y013199D01*
X025719Y013463D02*
X023675Y013463D01*
X023699Y013540D02*
X025753Y013540D01*
X025830Y013617D02*
X024949Y013617D01*
X025050Y013694D02*
X026941Y013694D01*
X026864Y013617D02*
X026174Y013617D01*
X027019Y013772D02*
X025113Y013772D01*
X025145Y013849D02*
X027096Y013849D01*
X027173Y013926D02*
X025163Y013926D01*
X025163Y014003D02*
X027250Y014003D01*
X027327Y014081D02*
X025152Y014081D01*
X025120Y014158D02*
X027405Y014158D01*
X027482Y014235D02*
X025067Y014235D01*
X024988Y014312D02*
X027559Y014312D01*
X027680Y013926D02*
X028340Y013926D01*
X028417Y013849D02*
X027603Y013849D01*
X027526Y013772D02*
X028494Y013772D01*
X028572Y013694D02*
X027449Y013694D01*
X027371Y013617D02*
X028649Y013617D01*
X028726Y013540D02*
X027294Y013540D01*
X027217Y013463D02*
X028803Y013463D01*
X028881Y013385D02*
X027140Y013385D01*
X027062Y013308D02*
X028958Y013308D01*
X029035Y013231D02*
X026985Y013231D01*
X028317Y014549D02*
X029274Y013592D01*
X032955Y013592D01*
X033022Y013525D01*
X033549Y013525D01*
X033561Y013513D01*
X033553Y013513D01*
X031673Y011609D02*
X040232Y011609D01*
X040232Y011532D02*
X031583Y011532D01*
X031497Y011454D02*
X040232Y011454D01*
X040232Y011377D02*
X031497Y011377D01*
X031481Y011300D02*
X040232Y011300D01*
X040232Y011223D02*
X031444Y011223D01*
X031365Y011145D02*
X040232Y011145D01*
X040232Y011068D02*
X030492Y011068D01*
X030569Y011145D02*
X031033Y011145D01*
X030414Y010991D02*
X040232Y010991D01*
X040210Y010914D02*
X030337Y010914D01*
X030260Y010836D02*
X040133Y010836D01*
X039589Y014544D02*
X039510Y014544D01*
X039510Y014621D02*
X039589Y014621D01*
X039589Y014698D02*
X039510Y014698D01*
X039510Y014776D02*
X039589Y014776D01*
X039589Y015007D02*
X039510Y015007D01*
X039510Y015085D02*
X039589Y015085D01*
X039589Y015162D02*
X039510Y015162D01*
X035695Y016076D02*
X034888Y016076D01*
X030149Y015625D02*
X027857Y015625D01*
X027914Y015568D02*
X027914Y015568D01*
X029145Y016629D02*
X023583Y016629D01*
X023660Y016552D02*
X029222Y016552D01*
X029300Y016475D02*
X023675Y016475D01*
X023675Y016537D02*
X023441Y016771D01*
X023110Y016771D01*
X022876Y016537D01*
X022876Y016206D01*
X023110Y015972D01*
X023441Y015972D01*
X023675Y016206D01*
X023675Y016537D01*
X023675Y016398D02*
X029377Y016398D01*
X029454Y016320D02*
X023675Y016320D01*
X023675Y016243D02*
X024615Y016243D01*
X024685Y016272D02*
X024538Y016211D01*
X024425Y016099D01*
X024365Y015952D01*
X024365Y015793D01*
X024425Y015647D01*
X024538Y015534D01*
X024685Y015473D01*
X024843Y015473D01*
X024990Y015534D01*
X025103Y015647D01*
X025163Y015793D01*
X025163Y015952D01*
X025103Y016099D01*
X024990Y016211D01*
X024843Y016272D01*
X024685Y016272D01*
X024492Y016166D02*
X023635Y016166D01*
X023558Y016089D02*
X024421Y016089D01*
X024389Y016012D02*
X023480Y016012D01*
X023071Y016012D02*
X022571Y016012D01*
X022602Y015934D02*
X024365Y015934D01*
X024365Y015857D02*
X022787Y015857D01*
X022909Y015780D02*
X024370Y015780D01*
X024402Y015703D02*
X022964Y015703D01*
X022993Y015625D02*
X024447Y015625D01*
X024524Y015548D02*
X022993Y015548D01*
X022976Y015471D02*
X026356Y015471D01*
X026433Y015548D02*
X025004Y015548D01*
X025081Y015625D02*
X026510Y015625D01*
X026278Y015394D02*
X023631Y015394D01*
X023491Y015394D02*
X022938Y015394D01*
X022969Y015316D02*
X023356Y015316D01*
X023296Y015239D02*
X023046Y015239D01*
X023123Y015162D02*
X023264Y015162D01*
X023263Y015085D02*
X023200Y015085D01*
X023561Y015100D02*
X026238Y015100D01*
X026201Y015316D02*
X023766Y015316D01*
X023483Y014549D02*
X028317Y014549D01*
X030072Y015703D02*
X025126Y015703D01*
X025158Y015780D02*
X029995Y015780D01*
X029918Y015857D02*
X025163Y015857D01*
X025163Y015934D02*
X029840Y015934D01*
X029763Y016012D02*
X025139Y016012D01*
X025107Y016089D02*
X029686Y016089D01*
X029609Y016166D02*
X025036Y016166D01*
X024913Y016243D02*
X029531Y016243D01*
X029068Y016707D02*
X027982Y016707D01*
X028108Y016784D02*
X028991Y016784D01*
X028913Y016861D02*
X028164Y016861D01*
X028194Y016938D02*
X028836Y016938D01*
X028759Y017016D02*
X028194Y017016D01*
X028177Y017093D02*
X028682Y017093D01*
X028604Y017170D02*
X028141Y017170D01*
X028062Y017247D02*
X028527Y017247D01*
X028450Y017325D02*
X023019Y017325D01*
X023096Y017247D02*
X027729Y017247D01*
X027896Y016994D02*
X023097Y016994D01*
X022589Y017502D01*
X021077Y017502D01*
X020597Y017021D01*
X020597Y015647D01*
X021538Y014706D01*
X021836Y014698D02*
X021836Y014698D01*
X021825Y014621D02*
X021880Y014621D01*
X021951Y014544D02*
X021793Y014544D01*
X021720Y014467D02*
X022112Y014467D01*
X022164Y014467D02*
X022242Y014467D01*
X022294Y014467D02*
X022918Y014467D01*
X022841Y014544D02*
X022455Y014544D01*
X022526Y014621D02*
X022764Y014621D01*
X022686Y014698D02*
X022570Y014698D01*
X022594Y014776D02*
X022609Y014776D01*
X022242Y014776D02*
X022164Y014776D01*
X022164Y014853D02*
X021800Y014853D01*
X021811Y014930D02*
X021735Y014930D01*
X021833Y015007D02*
X021489Y015007D01*
X021412Y015085D02*
X021876Y015085D01*
X021944Y015162D02*
X021335Y015162D01*
X021258Y015239D02*
X022085Y015239D01*
X022068Y015316D02*
X021180Y015316D01*
X021103Y015394D02*
X022043Y015394D01*
X022043Y015471D02*
X021026Y015471D01*
X020949Y015548D02*
X021946Y015548D01*
X021869Y015625D02*
X020871Y015625D01*
X020794Y015703D02*
X021834Y015703D01*
X021804Y015780D02*
X020775Y015780D01*
X020775Y015857D02*
X021804Y015857D01*
X021804Y015934D02*
X020775Y015934D01*
X020775Y016012D02*
X021835Y016012D01*
X021871Y016089D02*
X020775Y016089D01*
X020775Y016166D02*
X021948Y016166D01*
X022095Y016243D02*
X020775Y016243D01*
X020775Y016320D02*
X022876Y016320D01*
X022876Y016243D02*
X022311Y016243D01*
X022458Y016166D02*
X022917Y016166D01*
X022994Y016089D02*
X022535Y016089D01*
X022876Y016398D02*
X020775Y016398D01*
X020775Y016475D02*
X022876Y016475D01*
X022892Y016552D02*
X020775Y016552D01*
X020775Y016629D02*
X021002Y016629D01*
X020909Y016707D02*
X020775Y016707D01*
X020775Y016784D02*
X020856Y016784D01*
X020825Y016861D02*
X020775Y016861D01*
X020775Y016938D02*
X021171Y016938D01*
X021171Y016861D02*
X021250Y016861D01*
X021250Y016931D02*
X021250Y016571D01*
X021327Y016586D01*
X021400Y016616D01*
X021465Y016660D01*
X021521Y016715D01*
X021565Y016781D01*
X021595Y016854D01*
X021610Y016931D01*
X021250Y016931D01*
X021250Y016938D02*
X021811Y016938D01*
X021811Y017016D02*
X021609Y017016D01*
X021592Y017093D02*
X021829Y017093D01*
X021861Y017170D02*
X021558Y017170D01*
X021498Y017247D02*
X021923Y017247D01*
X021824Y016861D02*
X021596Y016861D01*
X021566Y016784D02*
X021856Y016784D01*
X021909Y016707D02*
X021512Y016707D01*
X021420Y016629D02*
X021990Y016629D01*
X022432Y016629D02*
X022969Y016629D01*
X023046Y016707D02*
X022512Y016707D01*
X022566Y016784D02*
X027684Y016784D01*
X027810Y016707D02*
X023506Y016707D01*
X022976Y016861D02*
X022598Y016861D01*
X022610Y016938D02*
X022899Y016938D01*
X022822Y017016D02*
X022610Y017016D01*
X022592Y017093D02*
X022745Y017093D01*
X022667Y017170D02*
X022560Y017170D01*
X022590Y017247D02*
X022498Y017247D01*
X022787Y017556D02*
X028218Y017556D01*
X028296Y017479D02*
X022864Y017479D01*
X022941Y017402D02*
X028373Y017402D01*
X028141Y017634D02*
X022710Y017634D01*
X021250Y016784D02*
X021171Y016784D01*
X021171Y016707D02*
X021250Y016707D01*
X021250Y016629D02*
X021171Y016629D01*
X020418Y016707D02*
X013638Y016707D01*
X013715Y016784D02*
X020418Y016784D01*
X020418Y016861D02*
X013793Y016861D01*
X013815Y016938D02*
X020418Y016938D01*
X020418Y017016D02*
X013815Y017016D01*
X013815Y017093D02*
X020418Y017093D01*
X020493Y017170D02*
X013815Y017170D01*
X013782Y017247D02*
X020570Y017247D01*
X020647Y017325D02*
X013705Y017325D01*
X013627Y017402D02*
X020725Y017402D01*
X020802Y017479D02*
X013594Y017479D01*
X013594Y017556D02*
X020879Y017556D01*
X020956Y017634D02*
X013594Y017634D01*
X013638Y017711D02*
X028064Y017711D01*
X027987Y017788D02*
X013716Y017788D01*
X013793Y017865D02*
X027909Y017865D01*
X027832Y017943D02*
X013815Y017943D01*
X013815Y018020D02*
X027755Y018020D01*
X027678Y018097D02*
X013815Y018097D01*
X013815Y018174D02*
X027600Y018174D01*
X027523Y018251D02*
X013782Y018251D01*
X013704Y018329D02*
X027446Y018329D01*
X027369Y018406D02*
X013627Y018406D01*
X013439Y018045D02*
X011868Y018045D01*
X011223Y018691D01*
X005179Y018691D01*
X004471Y019399D01*
X004471Y022147D01*
X004078Y021959D02*
X002013Y021959D01*
X002013Y021882D02*
X004121Y021882D01*
X004199Y021805D02*
X002013Y021805D01*
X002013Y021727D02*
X004292Y021727D01*
X004292Y021650D02*
X002013Y021650D01*
X002013Y021573D02*
X004292Y021573D01*
X004292Y021496D02*
X002013Y021496D01*
X002013Y021418D02*
X004292Y021418D01*
X004292Y021341D02*
X002013Y021341D01*
X002013Y021264D02*
X004292Y021264D01*
X004292Y021187D02*
X002013Y021187D01*
X002013Y021109D02*
X004292Y021109D01*
X004292Y021032D02*
X002013Y021032D01*
X002013Y020955D02*
X004292Y020955D01*
X004292Y020878D02*
X002013Y020878D01*
X002013Y020800D02*
X004292Y020800D01*
X004292Y020723D02*
X002013Y020723D01*
X002013Y020646D02*
X004292Y020646D01*
X004292Y020569D02*
X002013Y020569D01*
X002013Y020491D02*
X004292Y020491D01*
X004292Y020414D02*
X002013Y020414D01*
X002013Y020337D02*
X004292Y020337D01*
X004292Y020260D02*
X002013Y020260D01*
X002013Y020183D02*
X004292Y020183D01*
X004292Y020105D02*
X002013Y020105D01*
X002013Y020028D02*
X004292Y020028D01*
X004292Y019951D02*
X002013Y019951D01*
X002013Y019874D02*
X004292Y019874D01*
X004292Y019796D02*
X002013Y019796D01*
X002013Y019719D02*
X004292Y019719D01*
X004292Y019642D02*
X002013Y019642D01*
X002013Y019565D02*
X004292Y019565D01*
X004292Y019487D02*
X002013Y019487D01*
X002013Y019410D02*
X004292Y019410D01*
X004292Y019333D02*
X002013Y019333D01*
X002013Y019256D02*
X004362Y019256D01*
X004439Y019178D02*
X002013Y019178D01*
X002013Y019101D02*
X004516Y019101D01*
X004593Y019024D02*
X002013Y019024D01*
X002013Y018947D02*
X004670Y018947D01*
X004748Y018869D02*
X002013Y018869D01*
X002013Y018792D02*
X004825Y018792D01*
X004902Y018715D02*
X002013Y018715D01*
X002013Y018638D02*
X004979Y018638D01*
X005057Y018560D02*
X002013Y018560D01*
X002013Y018329D02*
X002209Y018329D01*
X002132Y018251D02*
X002013Y018251D01*
X002013Y018174D02*
X002055Y018174D01*
X002016Y018097D02*
X002013Y018097D01*
X002013Y018020D02*
X002016Y018020D01*
X002013Y017943D02*
X002016Y017943D01*
X002013Y017865D02*
X002016Y017865D01*
X002013Y017788D02*
X002033Y017788D01*
X002013Y017711D02*
X002110Y017711D01*
X002187Y017634D02*
X002013Y017634D01*
X002013Y017556D02*
X002577Y017556D01*
X002654Y017479D02*
X002013Y017479D01*
X002013Y017402D02*
X002731Y017402D01*
X002808Y017325D02*
X002626Y017325D01*
X002581Y017369D02*
X002455Y017369D01*
X002455Y017009D01*
X002815Y017009D01*
X002815Y017136D01*
X002581Y017369D01*
X002455Y017325D02*
X002376Y017325D01*
X002376Y017369D02*
X002250Y017369D01*
X002016Y017136D01*
X002016Y017009D01*
X002376Y017009D01*
X002376Y016931D01*
X002016Y016931D01*
X002016Y016805D01*
X002250Y016571D01*
X002376Y016571D01*
X002376Y016931D01*
X002455Y016931D01*
X002455Y017009D01*
X002376Y017009D01*
X002376Y017369D01*
X002376Y017247D02*
X002455Y017247D01*
X002455Y017170D02*
X002376Y017170D01*
X002376Y017093D02*
X002455Y017093D01*
X002455Y017016D02*
X002376Y017016D01*
X002376Y016938D02*
X002013Y016938D01*
X002013Y016861D02*
X002016Y016861D01*
X002013Y016784D02*
X002037Y016784D01*
X002013Y016707D02*
X002114Y016707D01*
X002191Y016629D02*
X002013Y016629D01*
X002013Y016552D02*
X006005Y016552D01*
X005971Y016519D02*
X005902Y016352D01*
X005902Y016171D01*
X005971Y016004D01*
X006099Y015876D01*
X006266Y015807D01*
X006447Y015807D01*
X006614Y015876D01*
X006742Y016004D01*
X006811Y016171D01*
X006811Y016352D01*
X006742Y016519D01*
X006614Y016647D01*
X006447Y016716D01*
X006266Y016716D01*
X006099Y016647D01*
X005971Y016519D01*
X005953Y016475D02*
X002013Y016475D01*
X002013Y016398D02*
X005921Y016398D01*
X005902Y016320D02*
X005363Y016320D01*
X005457Y016243D02*
X005902Y016243D01*
X005904Y016166D02*
X005517Y016166D01*
X005549Y016089D02*
X005936Y016089D01*
X005968Y016012D02*
X005565Y016012D01*
X005565Y015934D02*
X006041Y015934D01*
X006145Y015857D02*
X005551Y015857D01*
X004954Y015625D02*
X004118Y015625D01*
X004105Y015616D02*
X004170Y015660D01*
X004226Y015715D01*
X004270Y015781D01*
X004300Y015854D01*
X004315Y015931D01*
X003955Y015931D01*
X003955Y016009D01*
X004315Y016009D01*
X004300Y016087D01*
X004270Y016159D01*
X004226Y016225D01*
X004170Y016280D01*
X004105Y016324D01*
X004032Y016354D01*
X003955Y016369D01*
X003955Y016009D01*
X003876Y016009D01*
X003876Y015931D01*
X003516Y015931D01*
X003532Y015854D01*
X003562Y015781D01*
X003605Y015715D01*
X003661Y015660D01*
X003726Y015616D01*
X003799Y015586D01*
X003876Y015571D01*
X003876Y015931D01*
X003955Y015931D01*
X003955Y015571D01*
X004032Y015586D01*
X004105Y015616D01*
X004213Y015703D02*
X004868Y015703D01*
X004812Y015780D02*
X004269Y015780D01*
X004300Y015857D02*
X004780Y015857D01*
X004766Y015934D02*
X003955Y015934D01*
X003955Y015857D02*
X003876Y015857D01*
X003876Y015780D02*
X003955Y015780D01*
X003955Y015703D02*
X003876Y015703D01*
X003876Y015625D02*
X003955Y015625D01*
X003713Y015625D02*
X002868Y015625D01*
X002855Y015616D02*
X002920Y015660D01*
X002976Y015715D01*
X003020Y015781D01*
X003050Y015854D01*
X003065Y015931D01*
X002705Y015931D01*
X002705Y016009D01*
X003065Y016009D01*
X003050Y016087D01*
X003020Y016159D01*
X002976Y016225D01*
X002920Y016280D01*
X002855Y016324D01*
X002782Y016354D01*
X002705Y016369D01*
X002705Y016009D01*
X002626Y016009D01*
X002626Y015931D01*
X002266Y015931D01*
X002282Y015854D01*
X002312Y015781D01*
X002355Y015715D01*
X002411Y015660D01*
X002476Y015616D01*
X002549Y015586D01*
X002626Y015571D01*
X002626Y015931D01*
X002705Y015931D01*
X002705Y015571D01*
X002782Y015586D01*
X002855Y015616D01*
X002963Y015703D02*
X003618Y015703D01*
X003562Y015780D02*
X003019Y015780D01*
X003050Y015857D02*
X003531Y015857D01*
X003516Y016009D02*
X003876Y016009D01*
X003876Y016369D01*
X003799Y016354D01*
X003726Y016324D01*
X003661Y016280D01*
X003605Y016225D01*
X003562Y016159D01*
X003532Y016087D01*
X003516Y016009D01*
X003517Y016012D02*
X003065Y016012D01*
X003049Y016089D02*
X003532Y016089D01*
X003566Y016166D02*
X003015Y016166D01*
X002957Y016243D02*
X003624Y016243D01*
X003721Y016320D02*
X002860Y016320D01*
X002705Y016320D02*
X002626Y016320D01*
X002626Y016369D02*
X002626Y016009D01*
X002266Y016009D01*
X002282Y016087D01*
X002312Y016159D01*
X002355Y016225D01*
X002411Y016280D01*
X002476Y016324D01*
X002549Y016354D01*
X002626Y016369D01*
X002626Y016243D02*
X002705Y016243D01*
X002705Y016166D02*
X002626Y016166D01*
X002626Y016089D02*
X002705Y016089D01*
X002705Y016012D02*
X002626Y016012D01*
X002626Y015934D02*
X002013Y015934D01*
X002013Y015857D02*
X002281Y015857D01*
X002312Y015780D02*
X002013Y015780D01*
X002013Y015703D02*
X002368Y015703D01*
X002463Y015625D02*
X002013Y015625D01*
X002013Y015548D02*
X018574Y015548D01*
X018580Y015471D02*
X002013Y015471D01*
X002013Y015394D02*
X018612Y015394D01*
X018679Y015316D02*
X013337Y015316D01*
X013448Y015239D02*
X018688Y015239D01*
X018611Y015162D02*
X013514Y015162D01*
X013546Y015085D02*
X018579Y015085D01*
X018566Y015007D02*
X013567Y015007D01*
X013567Y014930D02*
X018568Y014930D01*
X018600Y014853D02*
X013558Y014853D01*
X013526Y014776D02*
X018661Y014776D01*
X018798Y014698D02*
X013476Y014698D01*
X013399Y014621D02*
X018984Y014621D01*
X019016Y014544D02*
X013075Y014544D01*
X013075Y014467D02*
X019016Y014467D01*
X019016Y014389D02*
X013075Y014389D01*
X013075Y014312D02*
X013193Y014312D01*
X013116Y014235D02*
X013075Y014235D01*
X012717Y014235D02*
X010715Y014235D01*
X010638Y014312D02*
X012717Y014312D01*
X012717Y014389D02*
X003197Y014389D01*
X003197Y014467D02*
X012717Y014467D01*
X012717Y014544D02*
X003197Y014544D01*
X003197Y014621D02*
X003714Y014621D01*
X003689Y014632D02*
X003836Y014571D01*
X003995Y014571D01*
X004142Y014632D01*
X004254Y014744D01*
X004315Y014891D01*
X004315Y015050D01*
X004254Y015196D01*
X004142Y015309D01*
X003995Y015369D01*
X003836Y015369D01*
X003689Y015309D01*
X003577Y015196D01*
X003516Y015050D01*
X003516Y014891D01*
X003577Y014744D01*
X003689Y014632D01*
X003622Y014698D02*
X003188Y014698D01*
X003111Y014776D02*
X003564Y014776D01*
X003532Y014853D02*
X003049Y014853D01*
X003065Y014930D02*
X003516Y014930D01*
X003516Y015007D02*
X003065Y015007D01*
X003050Y015085D02*
X003531Y015085D01*
X003563Y015162D02*
X003018Y015162D01*
X002961Y015239D02*
X003620Y015239D01*
X003708Y015316D02*
X002873Y015316D01*
X002705Y015625D02*
X002626Y015625D01*
X002626Y015703D02*
X002705Y015703D01*
X002705Y015780D02*
X002626Y015780D01*
X002626Y015857D02*
X002705Y015857D01*
X002705Y015934D02*
X003876Y015934D01*
X003876Y016012D02*
X003955Y016012D01*
X003955Y016089D02*
X003876Y016089D01*
X003876Y016166D02*
X003955Y016166D01*
X003955Y016243D02*
X003876Y016243D01*
X003876Y016320D02*
X003955Y016320D01*
X004110Y016320D02*
X004968Y016320D01*
X004874Y016243D02*
X004207Y016243D01*
X004265Y016166D02*
X004814Y016166D01*
X004782Y016089D02*
X004299Y016089D01*
X004315Y016012D02*
X004766Y016012D01*
X004958Y015316D02*
X004123Y015316D01*
X004211Y015239D02*
X004870Y015239D01*
X004813Y015162D02*
X004268Y015162D01*
X004300Y015085D02*
X004781Y015085D01*
X004766Y015007D02*
X004315Y015007D01*
X004315Y014930D02*
X004766Y014930D01*
X004782Y014853D02*
X004299Y014853D01*
X004267Y014776D02*
X004814Y014776D01*
X004872Y014698D02*
X004209Y014698D01*
X004117Y014621D02*
X004964Y014621D01*
X005638Y014312D02*
X010193Y014312D01*
X010250Y014369D02*
X010016Y014136D01*
X010016Y013805D01*
X010250Y013571D01*
X010581Y013571D01*
X010815Y013805D01*
X010815Y014136D01*
X010581Y014369D01*
X010250Y014369D01*
X010116Y014235D02*
X005715Y014235D01*
X005793Y014158D02*
X010038Y014158D01*
X010016Y014081D02*
X005815Y014081D01*
X005815Y014003D02*
X010016Y014003D01*
X010016Y013926D02*
X005815Y013926D01*
X005815Y013849D02*
X010016Y013849D01*
X010049Y013772D02*
X008040Y013772D01*
X008145Y013694D02*
X010127Y013694D01*
X010204Y013617D02*
X008199Y013617D01*
X008231Y013540D02*
X012717Y013540D01*
X012717Y013617D02*
X010627Y013617D01*
X010705Y013694D02*
X012717Y013694D01*
X012717Y013772D02*
X010782Y013772D01*
X010815Y013849D02*
X012717Y013849D01*
X012717Y013926D02*
X010815Y013926D01*
X010815Y014003D02*
X012717Y014003D01*
X012717Y014081D02*
X010815Y014081D01*
X010793Y014158D02*
X012717Y014158D01*
X013075Y013694D02*
X013127Y013694D01*
X013075Y013617D02*
X013204Y013617D01*
X013091Y013540D02*
X014447Y013540D01*
X014447Y013529D02*
X014087Y013529D01*
X014102Y013452D01*
X014133Y013379D01*
X014176Y013314D01*
X014232Y013258D01*
X014297Y013215D01*
X014370Y013184D01*
X014447Y013169D01*
X014447Y013529D01*
X014526Y013529D01*
X014526Y013608D01*
X014886Y013608D01*
X014870Y013685D01*
X014840Y013758D01*
X014797Y013823D01*
X014741Y013879D01*
X014676Y013922D01*
X014603Y013953D01*
X014526Y013968D01*
X014526Y013608D01*
X014447Y013608D01*
X014447Y013968D01*
X014370Y013953D01*
X014297Y013922D01*
X014232Y013879D01*
X014176Y013823D01*
X014133Y013758D01*
X014102Y013685D01*
X014087Y013608D01*
X014447Y013608D01*
X014447Y013529D01*
X014486Y013569D02*
X014486Y014635D01*
X013168Y015954D01*
X013207Y015934D02*
X020418Y015934D01*
X020418Y015857D02*
X013555Y015857D01*
X013552Y015838D02*
X013567Y015915D01*
X013207Y015915D01*
X013207Y015994D01*
X013128Y015994D01*
X013128Y016354D01*
X013051Y016338D01*
X012978Y016308D01*
X012913Y016265D01*
X012857Y016209D01*
X012814Y016144D01*
X012784Y016071D01*
X012768Y015994D01*
X013128Y015994D01*
X013128Y015915D01*
X012768Y015915D01*
X012784Y015838D01*
X012814Y015765D01*
X012857Y015700D01*
X012913Y015644D01*
X012978Y015600D01*
X013051Y015570D01*
X013128Y015555D01*
X013128Y015915D01*
X013207Y015915D01*
X013207Y015555D01*
X013284Y015570D01*
X013357Y015600D01*
X013422Y015644D01*
X013478Y015700D01*
X013521Y015765D01*
X013552Y015838D01*
X013528Y015780D02*
X018686Y015780D01*
X018615Y015703D02*
X013480Y015703D01*
X013394Y015625D02*
X018583Y015625D01*
X018872Y015545D02*
X019408Y015009D01*
X019408Y012620D01*
X018762Y011974D01*
X018640Y012147D02*
X019195Y012702D01*
X019195Y014663D01*
X018864Y014994D01*
X019276Y015394D02*
X020598Y015394D01*
X020675Y015316D02*
X019354Y015316D01*
X019431Y015239D02*
X020752Y015239D01*
X020829Y015162D02*
X019508Y015162D01*
X019585Y015085D02*
X020907Y015085D01*
X020984Y015007D02*
X019586Y015007D01*
X019586Y014930D02*
X021061Y014930D01*
X021138Y014853D02*
X019586Y014853D01*
X019586Y014776D02*
X021215Y014776D01*
X021240Y014698D02*
X019586Y014698D01*
X019586Y014621D02*
X021250Y014621D01*
X021282Y014544D02*
X019586Y014544D01*
X019586Y014467D02*
X021356Y014467D01*
X021912Y013985D02*
X021869Y013919D01*
X021839Y013846D01*
X021823Y013769D01*
X022183Y013769D01*
X022183Y013691D01*
X021823Y013691D01*
X021839Y013613D01*
X021869Y013541D01*
X021912Y013475D01*
X021968Y013420D01*
X022034Y013376D01*
X022106Y013346D01*
X022183Y013331D01*
X022183Y013691D01*
X022262Y013691D01*
X022262Y013769D01*
X022622Y013769D01*
X022607Y013846D01*
X022577Y013919D01*
X022533Y013985D01*
X022477Y014040D01*
X022412Y014084D01*
X022339Y014114D01*
X022262Y014129D01*
X022262Y013769D01*
X022183Y013769D01*
X022183Y014129D01*
X022106Y014114D01*
X022034Y014084D01*
X021968Y014040D01*
X021912Y013985D01*
X021931Y014003D02*
X019586Y014003D01*
X019586Y013926D02*
X021873Y013926D01*
X021840Y013849D02*
X019586Y013849D01*
X019586Y013772D02*
X021824Y013772D01*
X021838Y013617D02*
X019586Y013617D01*
X019586Y013540D02*
X021869Y013540D01*
X021925Y013463D02*
X019586Y013463D01*
X019586Y013385D02*
X022020Y013385D01*
X022183Y013385D02*
X022262Y013385D01*
X022262Y013331D02*
X022339Y013346D01*
X022412Y013376D01*
X022477Y013420D01*
X022533Y013475D01*
X022577Y013541D01*
X022607Y013613D01*
X022622Y013691D01*
X022262Y013691D01*
X022262Y013331D01*
X022262Y013463D02*
X022183Y013463D01*
X022183Y013540D02*
X022262Y013540D01*
X022262Y013617D02*
X022183Y013617D01*
X022183Y013694D02*
X019586Y013694D01*
X019586Y014081D02*
X022029Y014081D01*
X022183Y014081D02*
X022262Y014081D01*
X022262Y014003D02*
X022183Y014003D01*
X022183Y013926D02*
X022262Y013926D01*
X022262Y013849D02*
X022183Y013849D01*
X022183Y013772D02*
X022262Y013772D01*
X022262Y013694D02*
X023034Y013694D01*
X023099Y013772D02*
X022622Y013772D01*
X022606Y013849D02*
X023099Y013849D01*
X023099Y013926D02*
X022572Y013926D01*
X022514Y014003D02*
X023099Y014003D01*
X023099Y014081D02*
X022417Y014081D01*
X022242Y014544D02*
X022164Y014544D01*
X022164Y014621D02*
X022242Y014621D01*
X022242Y014698D02*
X022164Y014698D01*
X022223Y015415D02*
X023278Y014360D01*
X023278Y013372D01*
X023879Y013973D01*
X024764Y013973D01*
X024478Y013694D02*
X023853Y013694D01*
X023776Y013617D02*
X024579Y013617D01*
X024415Y013772D02*
X023930Y013772D01*
X023099Y014158D02*
X019586Y014158D01*
X019586Y014235D02*
X023099Y014235D01*
X023073Y014312D02*
X019586Y014312D01*
X019586Y014389D02*
X022995Y014389D01*
X022956Y013617D02*
X022607Y013617D01*
X022576Y013540D02*
X022879Y013540D01*
X022876Y013463D02*
X022520Y013463D01*
X022426Y013385D02*
X022876Y013385D01*
X022876Y013308D02*
X019586Y013308D01*
X019586Y013231D02*
X022876Y013231D01*
X022929Y013154D02*
X019586Y013154D01*
X019586Y013076D02*
X022016Y013076D01*
X021927Y012999D02*
X019586Y012999D01*
X019586Y012922D02*
X021870Y012922D01*
X021838Y012845D02*
X019586Y012845D01*
X019586Y012767D02*
X021823Y012767D01*
X021823Y012690D02*
X019586Y012690D01*
X019586Y012613D02*
X021839Y012613D01*
X021871Y012536D02*
X019577Y012536D01*
X019499Y012458D02*
X021929Y012458D01*
X022021Y012381D02*
X019422Y012381D01*
X019007Y012767D02*
X017176Y012767D01*
X017183Y012774D02*
X017252Y012941D01*
X017252Y013121D01*
X017183Y013288D01*
X017055Y013416D01*
X016888Y013485D01*
X016707Y013485D01*
X016540Y013416D01*
X016412Y013288D01*
X016343Y013121D01*
X016343Y012941D01*
X016412Y012774D01*
X016540Y012646D01*
X016707Y012577D01*
X016888Y012577D01*
X017055Y012646D01*
X017183Y012774D01*
X017212Y012845D02*
X019016Y012845D01*
X019016Y012922D02*
X017244Y012922D01*
X017252Y012999D02*
X019016Y012999D01*
X019016Y013076D02*
X017252Y013076D01*
X017239Y013154D02*
X019016Y013154D01*
X019016Y013231D02*
X017207Y013231D01*
X017163Y013308D02*
X019016Y013308D01*
X019016Y013385D02*
X017086Y013385D01*
X016943Y013463D02*
X019016Y013463D01*
X019016Y013540D02*
X015703Y013540D01*
X015758Y013463D02*
X015837Y013463D01*
X015837Y013385D02*
X015758Y013385D01*
X015758Y013308D02*
X015837Y013308D01*
X015837Y013231D02*
X015758Y013231D01*
X015758Y013154D02*
X015837Y013154D01*
X015837Y013076D02*
X015758Y013076D01*
X015758Y012999D02*
X015162Y012999D01*
X015085Y012922D02*
X015343Y012922D01*
X015343Y012845D02*
X015008Y012845D01*
X014930Y012767D02*
X015419Y012767D01*
X015496Y012690D02*
X014868Y012690D01*
X014886Y012613D02*
X015573Y012613D01*
X015758Y012613D02*
X015837Y012613D01*
X015837Y012577D02*
X015986Y012577D01*
X016252Y012843D01*
X016252Y012992D01*
X015837Y012992D01*
X015837Y012577D01*
X015837Y012690D02*
X015758Y012690D01*
X015758Y012767D02*
X015837Y012767D01*
X015837Y012845D02*
X015758Y012845D01*
X015758Y012922D02*
X015837Y012922D01*
X015837Y012999D02*
X016343Y012999D01*
X016343Y013076D02*
X016252Y013076D01*
X016252Y013154D02*
X016356Y013154D01*
X016388Y013231D02*
X016240Y013231D01*
X016163Y013308D02*
X016432Y013308D01*
X016509Y013385D02*
X016086Y013385D01*
X016009Y013463D02*
X016652Y013463D01*
X016748Y013694D02*
X015857Y013694D01*
X015780Y013617D02*
X019016Y013617D01*
X019016Y013694D02*
X016879Y013694D01*
X017017Y013772D02*
X019016Y013772D01*
X019016Y013849D02*
X017078Y013849D01*
X017110Y013926D02*
X019016Y013926D01*
X019016Y014003D02*
X017111Y014003D01*
X017098Y014081D02*
X019016Y014081D01*
X019016Y014158D02*
X017066Y014158D01*
X016990Y014235D02*
X019016Y014235D01*
X019016Y014312D02*
X013638Y014312D01*
X013715Y014235D02*
X016637Y014235D01*
X016813Y013990D02*
X015900Y013990D01*
X014483Y012572D01*
X014198Y012845D02*
X013815Y012845D01*
X013815Y012922D02*
X014296Y012922D01*
X014137Y012767D02*
X013778Y012767D01*
X013700Y012690D02*
X014105Y012690D01*
X014087Y012613D02*
X013623Y012613D01*
X013594Y012536D02*
X014087Y012536D01*
X014100Y012458D02*
X013594Y012458D01*
X013594Y012381D02*
X014132Y012381D01*
X014186Y012304D02*
X013646Y012304D01*
X013724Y012227D02*
X014268Y012227D01*
X014196Y012150D02*
X013801Y012150D01*
X013815Y012072D02*
X014118Y012072D01*
X014041Y011995D02*
X013815Y011995D01*
X013815Y011918D02*
X013964Y011918D01*
X013887Y011841D02*
X013815Y011841D01*
X013809Y011763D02*
X013774Y011763D01*
X013732Y011686D02*
X013696Y011686D01*
X013655Y011609D02*
X013619Y011609D01*
X013212Y011609D02*
X010619Y011609D01*
X010581Y011571D02*
X010815Y011805D01*
X010815Y012136D01*
X010581Y012369D01*
X010250Y012369D01*
X010016Y012136D01*
X010016Y011805D01*
X010250Y011571D01*
X010581Y011571D01*
X010696Y011686D02*
X013135Y011686D01*
X013058Y011763D02*
X010774Y011763D01*
X010815Y011841D02*
X013016Y011841D01*
X013016Y011918D02*
X010815Y011918D01*
X010815Y011995D02*
X013016Y011995D01*
X013016Y012072D02*
X010815Y012072D01*
X010801Y012150D02*
X013030Y012150D01*
X013107Y012227D02*
X010724Y012227D01*
X010646Y012304D02*
X013185Y012304D01*
X013237Y012381D02*
X008115Y012381D01*
X008115Y012304D02*
X010185Y012304D01*
X010107Y012227D02*
X008115Y012227D01*
X008115Y012150D02*
X010030Y012150D01*
X010016Y012072D02*
X008115Y012072D01*
X008115Y011995D02*
X010016Y011995D01*
X010016Y011918D02*
X008115Y011918D01*
X008115Y011841D02*
X010016Y011841D01*
X010058Y011763D02*
X008115Y011763D01*
X008115Y011686D02*
X010135Y011686D01*
X010212Y011609D02*
X008077Y011609D01*
X008000Y011532D02*
X013145Y011532D01*
X013067Y011454D02*
X007923Y011454D01*
X007845Y011377D02*
X012990Y011377D01*
X012758Y011145D02*
X010724Y011145D01*
X010782Y011068D02*
X012681Y011068D01*
X012604Y010991D02*
X010816Y010991D01*
X010832Y010914D02*
X012527Y010914D01*
X013226Y010141D02*
X013364Y010141D01*
X013333Y010064D02*
X013149Y010064D01*
X013072Y009987D02*
X013679Y009987D01*
X013679Y009910D02*
X013758Y009910D01*
X013758Y009987D02*
X014809Y009987D01*
X013758Y009832D02*
X013679Y009832D01*
X013679Y009755D02*
X013758Y009755D01*
X013758Y009678D02*
X013679Y009678D01*
X013679Y009601D02*
X013758Y009601D01*
X013529Y009601D02*
X012686Y009601D01*
X012763Y009678D02*
X013430Y009678D01*
X013372Y009755D02*
X012840Y009755D01*
X012917Y009832D02*
X013337Y009832D01*
X013320Y009910D02*
X012995Y009910D01*
X013303Y010218D02*
X013418Y010218D01*
X011054Y009987D02*
X008757Y009987D01*
X008805Y009910D02*
X011006Y009910D01*
X011006Y009832D02*
X008805Y009832D01*
X008805Y009755D02*
X011006Y009755D01*
X011006Y009678D02*
X008805Y009678D01*
X008798Y009601D02*
X011014Y009601D01*
X011091Y009523D02*
X008721Y009523D01*
X008643Y009446D02*
X011168Y009446D01*
X010473Y010527D02*
X010394Y010527D01*
X010394Y010605D02*
X010473Y010605D01*
X010473Y010682D02*
X010394Y010682D01*
X010787Y010682D02*
X010817Y010755D01*
X010581Y012571D02*
X010815Y012805D01*
X010815Y013136D01*
X010581Y013369D01*
X010250Y013369D01*
X010016Y013136D01*
X010016Y012805D01*
X010250Y012571D01*
X010581Y012571D01*
X010623Y012613D02*
X013208Y012613D01*
X013237Y012536D02*
X008115Y012536D01*
X008115Y012613D02*
X010208Y012613D01*
X010131Y012690D02*
X008115Y012690D01*
X008115Y012767D02*
X010053Y012767D01*
X010016Y012845D02*
X008115Y012845D01*
X008115Y012922D02*
X010016Y012922D01*
X010016Y012999D02*
X008115Y012999D01*
X008115Y013076D02*
X010016Y013076D01*
X010034Y013154D02*
X008115Y013154D01*
X008138Y013231D02*
X010112Y013231D01*
X010189Y013308D02*
X008196Y013308D01*
X008228Y013385D02*
X012740Y013385D01*
X012717Y013463D02*
X008233Y013463D01*
X007751Y013772D02*
X005782Y013772D01*
X005705Y013694D02*
X007647Y013694D01*
X007593Y013617D02*
X005627Y013617D01*
X005642Y013308D02*
X007596Y013308D01*
X007564Y013385D02*
X003084Y013385D01*
X003161Y013463D02*
X007558Y013463D01*
X007561Y013540D02*
X003197Y013540D01*
X003018Y013572D02*
X002416Y012970D01*
X002131Y012690D02*
X002013Y012690D01*
X002013Y012613D02*
X002208Y012613D01*
X002013Y012536D02*
X007677Y012536D01*
X007677Y012613D02*
X005623Y012613D01*
X005700Y012690D02*
X007677Y012690D01*
X007677Y012767D02*
X005778Y012767D01*
X005815Y012845D02*
X007677Y012845D01*
X007677Y012922D02*
X005815Y012922D01*
X005815Y012999D02*
X007677Y012999D01*
X007677Y013076D02*
X005815Y013076D01*
X005797Y013154D02*
X007677Y013154D01*
X007654Y013231D02*
X005720Y013231D01*
X007677Y012458D02*
X002013Y012458D01*
X002013Y012767D02*
X002053Y012767D01*
X002016Y012845D02*
X002013Y012845D01*
X002013Y012922D02*
X002016Y012922D01*
X002013Y012999D02*
X002016Y012999D01*
X002013Y013076D02*
X002016Y013076D01*
X002013Y013154D02*
X002034Y013154D01*
X002013Y013231D02*
X002112Y013231D01*
X002189Y013308D02*
X002013Y013308D01*
X002013Y013385D02*
X002578Y013385D01*
X002655Y013463D02*
X002013Y013463D01*
X002013Y013540D02*
X002733Y013540D01*
X002810Y013617D02*
X002627Y013617D01*
X002581Y013571D02*
X002815Y013805D01*
X002815Y014136D01*
X002581Y014369D01*
X002250Y014369D01*
X002016Y014136D01*
X002016Y013805D01*
X002250Y013571D01*
X002581Y013571D01*
X002705Y013694D02*
X002839Y013694D01*
X002839Y013772D02*
X002782Y013772D01*
X002815Y013849D02*
X002839Y013849D01*
X002839Y013926D02*
X002815Y013926D01*
X002815Y014003D02*
X002839Y014003D01*
X002839Y014081D02*
X002815Y014081D01*
X002793Y014158D02*
X002839Y014158D01*
X002839Y014235D02*
X002715Y014235D01*
X002638Y014312D02*
X002839Y014312D01*
X002839Y014389D02*
X002013Y014389D01*
X002013Y014312D02*
X002193Y014312D01*
X002116Y014235D02*
X002013Y014235D01*
X002013Y014158D02*
X002038Y014158D01*
X002013Y014081D02*
X002016Y014081D01*
X002013Y014003D02*
X002016Y014003D01*
X002013Y013926D02*
X002016Y013926D01*
X002013Y013849D02*
X002016Y013849D01*
X002013Y013772D02*
X002049Y013772D01*
X002013Y013694D02*
X002127Y013694D01*
X002204Y013617D02*
X002013Y013617D01*
X001574Y013617D02*
X001522Y013617D01*
X001522Y013540D02*
X001574Y013540D01*
X001574Y013463D02*
X001522Y013463D01*
X001522Y013385D02*
X001574Y013385D01*
X001574Y013308D02*
X001522Y013308D01*
X001522Y013231D02*
X001574Y013231D01*
X001574Y013154D02*
X001522Y013154D01*
X001522Y013076D02*
X001574Y013076D01*
X001574Y012999D02*
X001522Y012999D01*
X001522Y012922D02*
X001574Y012922D01*
X001574Y012845D02*
X001522Y012845D01*
X001522Y012767D02*
X001574Y012767D01*
X001574Y012690D02*
X001522Y012690D01*
X001522Y012613D02*
X001574Y012613D01*
X001574Y012536D02*
X001522Y012536D01*
X001522Y012458D02*
X001574Y012458D01*
X001574Y012381D02*
X001522Y012381D01*
X001522Y012304D02*
X001574Y012304D01*
X001574Y012227D02*
X001522Y012227D01*
X001522Y012150D02*
X001574Y012150D01*
X001574Y012072D02*
X001522Y012072D01*
X001522Y011995D02*
X001574Y011995D01*
X001574Y011918D02*
X001522Y011918D01*
X001522Y011841D02*
X001574Y011841D01*
X001574Y011763D02*
X001522Y011763D01*
X001522Y011686D02*
X001574Y011686D01*
X001574Y011609D02*
X001522Y011609D01*
X001522Y011532D02*
X001574Y011532D01*
X001574Y011454D02*
X001522Y011454D01*
X001522Y011377D02*
X001574Y011377D01*
X001574Y011300D02*
X001522Y011300D01*
X001522Y011223D02*
X001574Y011223D01*
X001522Y010373D02*
X004742Y010373D01*
X004665Y010296D02*
X001522Y010296D01*
X001522Y010218D02*
X004588Y010218D01*
X004863Y009987D02*
X007047Y009987D01*
X006999Y009910D02*
X004797Y009910D01*
X004797Y009832D02*
X006999Y009832D01*
X006999Y009755D02*
X004797Y009755D01*
X004797Y009678D02*
X006999Y009678D01*
X007006Y009601D02*
X004790Y009601D01*
X004713Y009523D02*
X007083Y009523D01*
X007160Y009446D02*
X004636Y009446D01*
X004160Y009446D02*
X002738Y009446D01*
X002242Y009446D02*
X001522Y009446D01*
X001522Y009369D02*
X002056Y009369D01*
X001971Y009292D02*
X001522Y009292D01*
X001522Y009214D02*
X001894Y009214D01*
X001819Y009137D02*
X001522Y009137D01*
X001522Y009060D02*
X001787Y009060D01*
X001755Y008983D02*
X001522Y008983D01*
X001522Y008905D02*
X001723Y008905D01*
X001701Y008828D02*
X001522Y008828D01*
X001522Y008751D02*
X001701Y008751D01*
X001701Y008674D02*
X001522Y008674D01*
X001522Y008596D02*
X001701Y008596D01*
X001709Y008519D02*
X001522Y008519D01*
X001522Y008442D02*
X001741Y008442D01*
X001773Y008365D02*
X001522Y008365D01*
X001522Y008287D02*
X001805Y008287D01*
X001858Y008210D02*
X001522Y008210D01*
X001522Y008133D02*
X001936Y008133D01*
X002013Y008056D02*
X001522Y008056D01*
X001522Y007979D02*
X002156Y007979D01*
X002824Y007979D02*
X011580Y007979D01*
X011657Y008056D02*
X002968Y008056D01*
X003045Y008133D02*
X005115Y008133D01*
X005123Y008133D02*
X006490Y008133D01*
X006498Y008133D02*
X011734Y008133D01*
X011812Y008210D02*
X009069Y008210D01*
X008800Y008210D02*
X008723Y008210D01*
X008747Y008287D02*
X008776Y008287D01*
X008776Y008365D02*
X008747Y008365D01*
X008285Y008210D02*
X008207Y008210D01*
X006738Y008210D02*
X006660Y008210D01*
X006708Y008287D02*
X006713Y008287D01*
X006381Y008210D02*
X006318Y008210D01*
X006343Y008287D02*
X006366Y008287D01*
X006366Y008365D02*
X006343Y008365D01*
X006343Y008442D02*
X006366Y008442D01*
X006366Y008519D02*
X006343Y008519D01*
X006343Y008596D02*
X006366Y008596D01*
X006024Y008596D02*
X005914Y008596D01*
X005914Y008519D02*
X006024Y008519D01*
X006024Y008442D02*
X005926Y008442D01*
X006000Y008365D02*
X006024Y008365D01*
X006024Y008287D02*
X006000Y008287D01*
X005976Y008210D02*
X006049Y008210D01*
X005363Y008210D02*
X005285Y008210D01*
X005333Y008287D02*
X005338Y008287D01*
X004847Y008210D02*
X004769Y008210D01*
X004794Y008287D02*
X004822Y008287D01*
X004822Y008365D02*
X004794Y008365D01*
X004475Y008365D02*
X003208Y008365D01*
X003240Y008442D02*
X004475Y008442D01*
X004475Y008519D02*
X003272Y008519D01*
X003280Y008596D02*
X004475Y008596D01*
X004475Y008674D02*
X003280Y008674D01*
X003280Y008751D02*
X004512Y008751D01*
X004569Y008807D02*
X004569Y008807D01*
X004589Y008828D02*
X003280Y008828D01*
X003257Y008905D02*
X004667Y008905D01*
X004950Y008905D02*
X005009Y008905D01*
X005292Y008905D02*
X005356Y008905D01*
X005310Y008828D02*
X005310Y008828D01*
X005919Y008674D02*
X005932Y008674D01*
X006685Y008828D02*
X006685Y008828D01*
X006667Y008905D02*
X006731Y008905D01*
X006669Y007747D02*
X011348Y007747D01*
X011425Y007824D02*
X001522Y007824D01*
X001522Y007901D02*
X011503Y007901D01*
X011271Y007670D02*
X006707Y007670D01*
X006707Y007592D02*
X011194Y007592D01*
X011116Y007515D02*
X006707Y007515D01*
X006707Y007438D02*
X011039Y007438D01*
X010962Y007361D02*
X006707Y007361D01*
X006707Y007283D02*
X010885Y007283D01*
X010807Y007206D02*
X006707Y007206D01*
X006707Y007129D02*
X010730Y007129D01*
X010653Y007052D02*
X006707Y007052D01*
X004500Y008210D02*
X003122Y008210D01*
X003176Y008287D02*
X004475Y008287D01*
X004083Y009523D02*
X001522Y009523D01*
X001522Y009601D02*
X004006Y009601D01*
X003999Y009678D02*
X001522Y009678D01*
X001522Y009755D02*
X003999Y009755D01*
X003999Y009832D02*
X001522Y009832D01*
X001522Y009910D02*
X003999Y009910D01*
X004047Y009987D02*
X001522Y009987D01*
X001522Y010064D02*
X004124Y010064D01*
X004201Y010141D02*
X001522Y010141D01*
X005552Y010527D02*
X006184Y010527D01*
X006179Y010530D02*
X006252Y010499D01*
X006329Y010484D01*
X006329Y010844D01*
X005969Y010844D01*
X005984Y010767D01*
X006014Y010694D01*
X006058Y010629D01*
X006114Y010573D01*
X006179Y010530D01*
X006082Y010605D02*
X005654Y010605D01*
X005717Y010682D02*
X006023Y010682D01*
X005988Y010759D02*
X005749Y010759D01*
X005768Y010836D02*
X005971Y010836D01*
X005983Y010991D02*
X005794Y010991D01*
X005768Y010914D02*
X006329Y010914D01*
X006329Y010836D02*
X006408Y010836D01*
X006408Y010844D02*
X006408Y010484D01*
X006485Y010499D01*
X006558Y010530D01*
X006623Y010573D01*
X006679Y010629D01*
X006722Y010694D01*
X006752Y010767D01*
X006768Y010844D01*
X006408Y010844D01*
X006408Y010914D02*
X007357Y010914D01*
X007357Y010836D02*
X006766Y010836D01*
X006749Y010759D02*
X007012Y010759D01*
X007042Y010686D01*
X007086Y010621D01*
X007141Y010565D01*
X007207Y010522D01*
X007279Y010492D01*
X007357Y010476D01*
X007357Y010836D01*
X006997Y010836D01*
X007012Y010759D01*
X007045Y010682D02*
X006714Y010682D01*
X006654Y010605D02*
X007102Y010605D01*
X007198Y010527D02*
X006552Y010527D01*
X006408Y010527D02*
X006329Y010527D01*
X006329Y010605D02*
X006408Y010605D01*
X006408Y010682D02*
X006329Y010682D01*
X006329Y010759D02*
X006408Y010759D01*
X006754Y010991D02*
X007012Y010991D01*
X007044Y011068D02*
X006724Y011068D01*
X006671Y011145D02*
X007101Y011145D01*
X007357Y010759D02*
X007435Y010759D01*
X007435Y010682D02*
X007357Y010682D01*
X007357Y010605D02*
X007435Y010605D01*
X007435Y010527D02*
X007357Y010527D01*
X006065Y011145D02*
X005948Y011145D01*
X006013Y011068D02*
X005871Y011068D01*
X008115Y012458D02*
X013237Y012458D01*
X013131Y012690D02*
X010700Y012690D01*
X010778Y012767D02*
X013053Y012767D01*
X013016Y012845D02*
X010815Y012845D01*
X010815Y012922D02*
X013016Y012922D01*
X013016Y012999D02*
X010815Y012999D01*
X010815Y013076D02*
X013016Y013076D01*
X012971Y013154D02*
X010797Y013154D01*
X010720Y013231D02*
X012894Y013231D01*
X012817Y013308D02*
X010642Y013308D01*
X010859Y014621D02*
X011736Y014621D01*
X011701Y014635D02*
X011848Y014575D01*
X012007Y014575D01*
X012154Y014635D01*
X012266Y014748D01*
X012327Y014895D01*
X012327Y015053D01*
X012266Y015200D01*
X012154Y015313D01*
X012007Y015373D01*
X011848Y015373D01*
X011701Y015313D01*
X011589Y015200D01*
X011528Y015053D01*
X011528Y014895D01*
X011589Y014748D01*
X011701Y014635D01*
X011638Y014698D02*
X010957Y014698D01*
X011018Y014776D02*
X011577Y014776D01*
X011545Y014853D02*
X011050Y014853D01*
X011067Y014930D02*
X011528Y014930D01*
X011528Y015007D02*
X011067Y015007D01*
X011054Y015085D02*
X011541Y015085D01*
X011573Y015162D02*
X011022Y015162D01*
X010967Y015239D02*
X011628Y015239D01*
X011710Y015316D02*
X010885Y015316D01*
X010869Y015625D02*
X011730Y015625D01*
X011738Y015620D02*
X011811Y015590D01*
X011888Y015575D01*
X011888Y015935D01*
X011528Y015935D01*
X011543Y015858D01*
X011573Y015785D01*
X011617Y015719D01*
X011673Y015664D01*
X011738Y015620D01*
X011634Y015703D02*
X010961Y015703D01*
X011019Y015780D02*
X011577Y015780D01*
X011544Y015857D02*
X011051Y015857D01*
X011067Y015934D02*
X011528Y015934D01*
X011528Y016013D02*
X011888Y016013D01*
X011888Y015935D01*
X011967Y015935D01*
X011967Y016013D01*
X012327Y016013D01*
X012311Y016091D01*
X012281Y016163D01*
X012238Y016229D01*
X012182Y016284D01*
X012117Y016328D01*
X012044Y016358D01*
X011967Y016373D01*
X011967Y016013D01*
X011888Y016013D01*
X011888Y016373D01*
X011811Y016358D01*
X011738Y016328D01*
X011673Y016284D01*
X011617Y016229D01*
X011573Y016163D01*
X011543Y016091D01*
X011528Y016013D01*
X011543Y016089D02*
X011052Y016089D01*
X011067Y016012D02*
X011888Y016012D01*
X011888Y016089D02*
X011967Y016089D01*
X011967Y016166D02*
X011888Y016166D01*
X011888Y016243D02*
X011967Y016243D01*
X011967Y016320D02*
X011888Y016320D01*
X011727Y016320D02*
X010875Y016320D01*
X010963Y016243D02*
X011632Y016243D01*
X011575Y016166D02*
X011020Y016166D01*
X010638Y016707D02*
X013193Y016707D01*
X013116Y016784D02*
X010715Y016784D01*
X010793Y016861D02*
X013038Y016861D01*
X013016Y016938D02*
X010815Y016938D01*
X010815Y017093D02*
X013016Y017093D01*
X013016Y017170D02*
X010815Y017170D01*
X010782Y017247D02*
X013049Y017247D01*
X013127Y017325D02*
X010705Y017325D01*
X010638Y017711D02*
X013193Y017711D01*
X013115Y017788D02*
X010716Y017788D01*
X010204Y017402D02*
X007103Y017402D01*
X007180Y017325D02*
X010127Y017325D01*
X010049Y017247D02*
X007257Y017247D01*
X007334Y017170D02*
X010016Y017170D01*
X010016Y017093D02*
X007412Y017093D01*
X007337Y016915D02*
X007337Y016281D01*
X007353Y016265D01*
X007005Y016552D02*
X006708Y016552D01*
X006760Y016475D02*
X006928Y016475D01*
X006902Y016398D02*
X006792Y016398D01*
X006811Y016320D02*
X006902Y016320D01*
X006902Y016243D02*
X006811Y016243D01*
X006809Y016166D02*
X006902Y016166D01*
X006902Y016089D02*
X006777Y016089D01*
X006745Y016012D02*
X006964Y016012D01*
X007041Y015934D02*
X006672Y015934D01*
X006568Y015857D02*
X007118Y015857D01*
X007595Y015857D02*
X008264Y015857D01*
X008217Y015876D02*
X008384Y015807D01*
X008565Y015807D01*
X008732Y015876D01*
X008860Y016004D01*
X008929Y016171D01*
X008929Y016352D01*
X008860Y016519D01*
X008732Y016647D01*
X008565Y016716D01*
X008384Y016716D01*
X008217Y016647D01*
X008089Y016519D01*
X008020Y016352D01*
X008020Y016171D01*
X008089Y016004D01*
X008217Y015876D01*
X008159Y015934D02*
X007672Y015934D01*
X007749Y016012D02*
X008086Y016012D01*
X008054Y016089D02*
X007811Y016089D01*
X007811Y016166D02*
X008022Y016166D01*
X008020Y016243D02*
X007811Y016243D01*
X007811Y016320D02*
X008020Y016320D01*
X008039Y016398D02*
X007811Y016398D01*
X007786Y016475D02*
X008071Y016475D01*
X008123Y016552D02*
X007708Y016552D01*
X007631Y016629D02*
X008200Y016629D01*
X008362Y016707D02*
X007554Y016707D01*
X007337Y016915D02*
X006825Y017427D01*
X002959Y017427D01*
X002416Y017970D01*
X002699Y018251D02*
X005132Y018251D01*
X005055Y018174D02*
X002776Y018174D01*
X002815Y018097D02*
X005016Y018097D01*
X005016Y018020D02*
X002815Y018020D01*
X002815Y017943D02*
X005016Y017943D01*
X005016Y017865D02*
X002815Y017865D01*
X002850Y017788D02*
X005033Y017788D01*
X005110Y017711D02*
X002928Y017711D01*
X003005Y017634D02*
X005187Y017634D01*
X005128Y017247D02*
X002703Y017247D01*
X002780Y017170D02*
X005051Y017170D01*
X005016Y017093D02*
X002815Y017093D01*
X002815Y017016D02*
X005016Y017016D01*
X005016Y016938D02*
X002455Y016938D01*
X002455Y016931D02*
X002815Y016931D01*
X002815Y016805D01*
X002581Y016571D01*
X002455Y016571D01*
X002455Y016931D01*
X002455Y016861D02*
X002376Y016861D01*
X002376Y016784D02*
X002455Y016784D01*
X002455Y016707D02*
X002376Y016707D01*
X002376Y016629D02*
X002455Y016629D01*
X002640Y016629D02*
X005191Y016629D01*
X005114Y016707D02*
X002717Y016707D01*
X002794Y016784D02*
X005037Y016784D01*
X005016Y016861D02*
X002815Y016861D01*
X002051Y017170D02*
X002013Y017170D01*
X002013Y017093D02*
X002016Y017093D01*
X002013Y017016D02*
X002016Y017016D01*
X002013Y017247D02*
X002128Y017247D01*
X002205Y017325D02*
X002013Y017325D01*
X001574Y017325D02*
X001522Y017325D01*
X001522Y017402D02*
X001574Y017402D01*
X001574Y017479D02*
X001522Y017479D01*
X001522Y017556D02*
X001574Y017556D01*
X001574Y017634D02*
X001522Y017634D01*
X001522Y017711D02*
X001574Y017711D01*
X001574Y017788D02*
X001522Y017788D01*
X001522Y017865D02*
X001574Y017865D01*
X001574Y017943D02*
X001522Y017943D01*
X001522Y018020D02*
X001574Y018020D01*
X001574Y018097D02*
X001522Y018097D01*
X001522Y018174D02*
X001574Y018174D01*
X001574Y018251D02*
X001522Y018251D01*
X001522Y018329D02*
X001574Y018329D01*
X001574Y018406D02*
X001522Y018406D01*
X001522Y018483D02*
X001574Y018483D01*
X001574Y018560D02*
X001522Y018560D01*
X001522Y018638D02*
X001574Y018638D01*
X001574Y018715D02*
X001522Y018715D01*
X001522Y018792D02*
X001574Y018792D01*
X001574Y018869D02*
X001522Y018869D01*
X001522Y018947D02*
X001574Y018947D01*
X001574Y019024D02*
X001522Y019024D01*
X001522Y019101D02*
X001574Y019101D01*
X001574Y019178D02*
X001522Y019178D01*
X001522Y019256D02*
X001574Y019256D01*
X001574Y019333D02*
X001522Y019333D01*
X001522Y019410D02*
X001574Y019410D01*
X001574Y019487D02*
X001522Y019487D01*
X001522Y019565D02*
X001574Y019565D01*
X001574Y019642D02*
X001522Y019642D01*
X001522Y019719D02*
X001574Y019719D01*
X001574Y019796D02*
X001522Y019796D01*
X001522Y019874D02*
X001574Y019874D01*
X001574Y019951D02*
X001522Y019951D01*
X001522Y020028D02*
X001574Y020028D01*
X001574Y020105D02*
X001522Y020105D01*
X001522Y020183D02*
X001574Y020183D01*
X001574Y020260D02*
X001522Y020260D01*
X001522Y020337D02*
X001574Y020337D01*
X001574Y020414D02*
X001522Y020414D01*
X001522Y020491D02*
X001574Y020491D01*
X001574Y020569D02*
X001522Y020569D01*
X001522Y020646D02*
X001574Y020646D01*
X001574Y020723D02*
X001522Y020723D01*
X001522Y020800D02*
X001574Y020800D01*
X001574Y020878D02*
X001522Y020878D01*
X001522Y020955D02*
X001574Y020955D01*
X001574Y021032D02*
X001522Y021032D01*
X001522Y021109D02*
X001574Y021109D01*
X001574Y021187D02*
X001522Y021187D01*
X001522Y021264D02*
X001574Y021264D01*
X001574Y021341D02*
X001522Y021341D01*
X001522Y021418D02*
X001574Y021418D01*
X001574Y021496D02*
X001522Y021496D01*
X001522Y021573D02*
X001574Y021573D01*
X001574Y021650D02*
X001522Y021650D01*
X001522Y021727D02*
X001574Y021727D01*
X001574Y021805D02*
X001522Y021805D01*
X001522Y021882D02*
X001574Y021882D01*
X001574Y021959D02*
X001522Y021959D01*
X001522Y022036D02*
X001574Y022036D01*
X001574Y022114D02*
X001522Y022114D01*
X001522Y022191D02*
X001574Y022191D01*
X001574Y022268D02*
X001522Y022268D01*
X001522Y022345D02*
X001574Y022345D01*
X001574Y022422D02*
X001522Y022422D01*
X001522Y022500D02*
X001574Y022500D01*
X001574Y022577D02*
X001522Y022577D01*
X001522Y022654D02*
X001574Y022654D01*
X001574Y022731D02*
X001522Y022731D01*
X001522Y022809D02*
X001574Y022809D01*
X001574Y022886D02*
X001522Y022886D01*
X001522Y022963D02*
X001574Y022963D01*
X001574Y023040D02*
X001522Y023040D01*
X001522Y023118D02*
X001574Y023118D01*
X001574Y023195D02*
X001522Y023195D01*
X001522Y023272D02*
X001574Y023272D01*
X001574Y023349D02*
X001522Y023349D01*
X001522Y023427D02*
X001574Y023427D01*
X001574Y023504D02*
X001522Y023504D01*
X001522Y023581D02*
X001574Y023581D01*
X001574Y023658D02*
X001522Y023658D01*
X001522Y023736D02*
X001574Y023736D01*
X001574Y023813D02*
X001522Y023813D01*
X001522Y023890D02*
X001574Y023890D01*
X001574Y023967D02*
X001522Y023967D01*
X001522Y024045D02*
X001574Y024045D01*
X001574Y024122D02*
X001522Y024122D01*
X001522Y024199D02*
X001574Y024199D01*
X001574Y024276D02*
X001522Y024276D01*
X001522Y024353D02*
X001574Y024353D01*
X001574Y024431D02*
X001522Y024431D01*
X001522Y024508D02*
X001574Y024508D01*
X001574Y024585D02*
X001522Y024585D01*
X001522Y024662D02*
X001574Y024662D01*
X001574Y024740D02*
X001522Y024740D01*
X001522Y024817D02*
X001574Y024817D01*
X001574Y024894D02*
X001522Y024894D01*
X001522Y024971D02*
X001574Y024971D01*
X001574Y025049D02*
X001522Y025049D01*
X001522Y025126D02*
X001574Y025126D01*
X001574Y025203D02*
X001522Y025203D01*
X001522Y025280D02*
X001574Y025280D01*
X001574Y025358D02*
X001522Y025358D01*
X001522Y025435D02*
X001574Y025435D01*
X001574Y025512D02*
X001522Y025512D01*
X001522Y025589D02*
X001574Y025589D01*
X001574Y025667D02*
X001522Y025667D01*
X001522Y025744D02*
X001574Y025744D01*
X001574Y025821D02*
X001522Y025821D01*
X001522Y025898D02*
X001574Y025898D01*
X001574Y025976D02*
X001522Y025976D01*
X001522Y026053D02*
X001574Y026053D01*
X001574Y026130D02*
X001522Y026130D01*
X001522Y026207D02*
X001574Y026207D01*
X001574Y026284D02*
X001522Y026284D01*
X001522Y026362D02*
X001574Y026362D01*
X001574Y026439D02*
X001522Y026439D01*
X001522Y026516D02*
X001574Y026516D01*
X001574Y026593D02*
X001522Y026593D01*
X001522Y026671D02*
X001574Y026671D01*
X001574Y026748D02*
X001522Y026748D01*
X001522Y026825D02*
X001574Y026825D01*
X001574Y026902D02*
X001522Y026902D01*
X001522Y026980D02*
X001574Y026980D01*
X001574Y027057D02*
X001522Y027057D01*
X001522Y027134D02*
X001574Y027134D01*
X001574Y027211D02*
X001522Y027211D01*
X001522Y027289D02*
X001574Y027289D01*
X001574Y027366D02*
X001522Y027366D01*
X001522Y027443D02*
X001574Y027443D01*
X001574Y027520D02*
X001522Y027520D01*
X001522Y027598D02*
X001574Y027598D01*
X001621Y027675D02*
X001522Y027675D01*
X001522Y027752D02*
X001698Y027752D01*
X001776Y027829D02*
X001522Y027829D01*
X001522Y027907D02*
X002140Y027907D01*
X002006Y027984D02*
X001522Y027984D01*
X001522Y028061D02*
X001929Y028061D01*
X001852Y028138D02*
X001522Y028138D01*
X001522Y028216D02*
X001802Y028216D01*
X001770Y028293D02*
X001522Y028293D01*
X001522Y028370D02*
X001738Y028370D01*
X001706Y028447D02*
X001522Y028447D01*
X001522Y028524D02*
X001701Y028524D01*
X001701Y028602D02*
X001522Y028602D01*
X001522Y028679D02*
X001701Y028679D01*
X001701Y028756D02*
X001522Y028756D01*
X001522Y028833D02*
X001726Y028833D01*
X001758Y028911D02*
X001522Y028911D01*
X001522Y028988D02*
X001790Y028988D01*
X001824Y029065D02*
X001522Y029065D01*
X001522Y029142D02*
X001901Y029142D01*
X001978Y029220D02*
X001522Y029220D01*
X001522Y029297D02*
X002072Y029297D01*
X002259Y029374D02*
X001522Y029374D01*
X001522Y029451D02*
X040573Y029451D01*
X040573Y029374D02*
X038530Y029374D01*
X038322Y028911D02*
X003678Y028911D01*
X003367Y029220D02*
X003003Y029220D01*
X003080Y029142D02*
X003289Y029142D01*
X003212Y029065D02*
X003157Y029065D01*
X003191Y028988D02*
X003204Y028988D01*
X003444Y029297D02*
X002909Y029297D01*
X002722Y029374D02*
X003521Y029374D01*
X003643Y028524D02*
X004704Y028524D01*
X004627Y028447D02*
X003643Y028447D01*
X003643Y028370D02*
X004575Y028370D01*
X004543Y028293D02*
X003643Y028293D01*
X003643Y028216D02*
X004532Y028216D01*
X004532Y028138D02*
X003643Y028138D01*
X003588Y028061D02*
X004551Y028061D01*
X004583Y027984D02*
X003511Y027984D01*
X003434Y027907D02*
X004647Y027907D01*
X004750Y027829D02*
X003357Y027829D01*
X004077Y026825D02*
X002013Y026825D01*
X002013Y026748D02*
X004000Y026748D01*
X003922Y026671D02*
X002013Y026671D01*
X002013Y026593D02*
X003845Y026593D01*
X003768Y026516D02*
X002013Y026516D01*
X002013Y026439D02*
X003691Y026439D01*
X003638Y026362D02*
X002013Y026362D01*
X002013Y026284D02*
X003638Y026284D01*
X003638Y026207D02*
X002013Y026207D01*
X002013Y026130D02*
X003638Y026130D01*
X003638Y026053D02*
X002013Y026053D01*
X002013Y025976D02*
X003638Y025976D01*
X003638Y025898D02*
X002013Y025898D01*
X002013Y025821D02*
X003638Y025821D01*
X003638Y025744D02*
X002013Y025744D01*
X002013Y025667D02*
X003638Y025667D01*
X003638Y025589D02*
X002013Y025589D01*
X002013Y025512D02*
X003638Y025512D01*
X003638Y025435D02*
X002013Y025435D01*
X002013Y025358D02*
X003638Y025358D01*
X003638Y025280D02*
X002013Y025280D01*
X002013Y025203D02*
X003638Y025203D01*
X003638Y025126D02*
X002013Y025126D01*
X002013Y025049D02*
X003638Y025049D01*
X003638Y024971D02*
X002013Y024971D01*
X002013Y024894D02*
X003638Y024894D01*
X003638Y024817D02*
X002013Y024817D01*
X002013Y024740D02*
X003638Y024740D01*
X003638Y024662D02*
X002013Y024662D01*
X002013Y024585D02*
X003638Y024585D01*
X003638Y024508D02*
X002690Y024508D01*
X002669Y024519D02*
X002604Y024540D01*
X002542Y024550D01*
X002542Y024155D01*
X002936Y024155D01*
X002926Y024218D01*
X002905Y024283D01*
X002874Y024344D01*
X002834Y024399D01*
X002785Y024447D01*
X002730Y024487D01*
X002669Y024519D01*
X002542Y024508D02*
X002463Y024508D01*
X002463Y024550D02*
X002400Y024540D01*
X002335Y024519D01*
X002274Y024487D01*
X002219Y024447D01*
X002171Y024399D01*
X002130Y024344D01*
X002099Y024283D01*
X002078Y024218D01*
X002068Y024155D01*
X002463Y024155D01*
X002463Y024076D01*
X002542Y024076D01*
X002542Y024155D01*
X002463Y024155D01*
X002463Y024550D01*
X002463Y024431D02*
X002542Y024431D01*
X002542Y024353D02*
X002463Y024353D01*
X002463Y024276D02*
X002542Y024276D01*
X002542Y024199D02*
X002463Y024199D01*
X002463Y024122D02*
X002013Y024122D01*
X002068Y024076D02*
X002078Y024014D01*
X002099Y023949D01*
X002130Y023888D01*
X002171Y023833D01*
X002219Y023784D01*
X002274Y023744D01*
X002335Y023713D01*
X002400Y023692D01*
X002463Y023682D01*
X002463Y024076D01*
X002068Y024076D01*
X002073Y024045D02*
X002013Y024045D01*
X002013Y023967D02*
X002093Y023967D01*
X002129Y023890D02*
X002013Y023890D01*
X002013Y023813D02*
X002190Y023813D01*
X002291Y023736D02*
X002013Y023736D01*
X002013Y023658D02*
X003638Y023658D01*
X003638Y023581D02*
X002013Y023581D01*
X002013Y023504D02*
X003638Y023504D01*
X003638Y023427D02*
X002013Y023427D01*
X002013Y023349D02*
X003638Y023349D01*
X003638Y023272D02*
X002013Y023272D01*
X002013Y023195D02*
X003638Y023195D01*
X003638Y023118D02*
X002013Y023118D01*
X002013Y023040D02*
X003638Y023040D01*
X003638Y022963D02*
X002013Y022963D01*
X002015Y022886D02*
X003672Y022886D01*
X003749Y022809D02*
X002885Y022809D01*
X002962Y022731D02*
X003827Y022731D01*
X003904Y022654D02*
X002996Y022654D01*
X003017Y022577D02*
X003981Y022577D01*
X004058Y022500D02*
X003017Y022500D01*
X002997Y022422D02*
X004131Y022422D01*
X004082Y022345D02*
X002965Y022345D01*
X002888Y022268D02*
X004050Y022268D01*
X004036Y022191D02*
X002013Y022191D01*
X002013Y022268D02*
X002471Y022268D01*
X002013Y022114D02*
X004036Y022114D01*
X004046Y022036D02*
X002013Y022036D01*
X002092Y022809D02*
X002474Y022809D01*
X002542Y023682D02*
X002604Y023692D01*
X002669Y023713D01*
X002730Y023744D01*
X002785Y023784D01*
X002834Y023833D01*
X002874Y023888D01*
X002905Y023949D01*
X002926Y024014D01*
X002936Y024076D01*
X002542Y024076D01*
X002542Y023682D01*
X002542Y023736D02*
X002463Y023736D01*
X002463Y023813D02*
X002542Y023813D01*
X002542Y023890D02*
X002463Y023890D01*
X002463Y023967D02*
X002542Y023967D01*
X002542Y024045D02*
X002463Y024045D01*
X002542Y024122D02*
X003638Y024122D01*
X003638Y024199D02*
X002929Y024199D01*
X002907Y024276D02*
X003638Y024276D01*
X003638Y024353D02*
X002867Y024353D01*
X002802Y024431D02*
X003638Y024431D01*
X003638Y024045D02*
X002931Y024045D01*
X002911Y023967D02*
X003638Y023967D01*
X003638Y023890D02*
X002875Y023890D01*
X002814Y023813D02*
X003638Y023813D01*
X003638Y023736D02*
X002713Y023736D01*
X002075Y024199D02*
X002013Y024199D01*
X002013Y024276D02*
X002097Y024276D01*
X002138Y024353D02*
X002013Y024353D01*
X002013Y024431D02*
X002203Y024431D01*
X002315Y024508D02*
X002013Y024508D01*
X002013Y026902D02*
X004651Y026902D01*
X004589Y026980D02*
X002013Y026980D01*
X002013Y027057D02*
X004553Y027057D01*
X004535Y027134D02*
X002013Y027134D01*
X002013Y027211D02*
X004892Y027211D01*
X004573Y027366D02*
X002013Y027366D01*
X002013Y027443D02*
X004623Y027443D01*
X004544Y027289D02*
X002013Y027289D01*
X005212Y026902D02*
X005481Y026902D01*
X005512Y026980D02*
X005273Y026980D01*
X005310Y027057D02*
X005461Y027057D01*
X005461Y027134D02*
X005328Y027134D01*
X005605Y023206D02*
X006033Y023206D01*
X004749Y021805D02*
X004743Y021805D01*
X004749Y021727D02*
X004649Y021727D01*
X004649Y021650D02*
X004749Y021650D01*
X004749Y021573D02*
X004649Y021573D01*
X004649Y021496D02*
X004749Y021496D01*
X004749Y021418D02*
X004649Y021418D01*
X004649Y021341D02*
X004749Y021341D01*
X004749Y021264D02*
X004649Y021264D01*
X004649Y021187D02*
X004749Y021187D01*
X004749Y021109D02*
X004649Y021109D01*
X004649Y021032D02*
X004749Y021032D01*
X004749Y020955D02*
X004649Y020955D01*
X004649Y020878D02*
X004749Y020878D01*
X004749Y020800D02*
X004649Y020800D01*
X004649Y020723D02*
X004749Y020723D01*
X004749Y020646D02*
X004649Y020646D01*
X004649Y020569D02*
X004749Y020569D01*
X004749Y020491D02*
X004649Y020491D01*
X004649Y020414D02*
X004749Y020414D01*
X004749Y020337D02*
X004649Y020337D01*
X004649Y020260D02*
X004749Y020260D01*
X004749Y020183D02*
X004649Y020183D01*
X004649Y020105D02*
X004749Y020105D01*
X004790Y020028D02*
X004649Y020028D01*
X004649Y019951D02*
X004867Y019951D01*
X004944Y019874D02*
X004649Y019874D01*
X004649Y019796D02*
X005022Y019796D01*
X005099Y019719D02*
X004649Y019719D01*
X004649Y019642D02*
X005176Y019642D01*
X005253Y019565D02*
X004649Y019565D01*
X004649Y019487D02*
X010967Y019487D01*
X010960Y019410D02*
X004713Y019410D01*
X004790Y019333D02*
X010968Y019333D01*
X011000Y019256D02*
X004867Y019256D01*
X004944Y019178D02*
X011069Y019178D01*
X011447Y019178D02*
X012416Y019178D01*
X012494Y019178D02*
X013056Y019178D01*
X013071Y019256D02*
X012839Y019256D01*
X012806Y019333D02*
X013103Y019333D01*
X013807Y019333D02*
X021859Y019333D01*
X022266Y018947D02*
X026828Y018947D01*
X026751Y019024D02*
X022403Y019024D01*
X020418Y016320D02*
X013327Y016320D01*
X013357Y016308D02*
X013284Y016338D01*
X013207Y016354D01*
X013207Y015994D01*
X013567Y015994D01*
X013552Y016071D01*
X013521Y016144D01*
X013478Y016209D01*
X013422Y016265D01*
X013357Y016308D01*
X013443Y016243D02*
X020418Y016243D01*
X020418Y016166D02*
X013506Y016166D01*
X013544Y016089D02*
X020418Y016089D01*
X020418Y016012D02*
X013563Y016012D01*
X013207Y016012D02*
X013128Y016012D01*
X013128Y016089D02*
X013207Y016089D01*
X013207Y016166D02*
X013128Y016166D01*
X013128Y016243D02*
X013207Y016243D01*
X013207Y016320D02*
X013128Y016320D01*
X013008Y016320D02*
X012128Y016320D01*
X012223Y016243D02*
X012892Y016243D01*
X012829Y016166D02*
X012279Y016166D01*
X012312Y016089D02*
X012791Y016089D01*
X012772Y016012D02*
X011967Y016012D01*
X011967Y015935D02*
X012327Y015935D01*
X012311Y015858D01*
X012281Y015785D01*
X012238Y015719D01*
X012182Y015664D01*
X012117Y015620D01*
X012044Y015590D01*
X011967Y015575D01*
X011967Y015935D01*
X011967Y015934D02*
X011888Y015934D01*
X011888Y015857D02*
X011967Y015857D01*
X011967Y015780D02*
X011888Y015780D01*
X011888Y015703D02*
X011967Y015703D01*
X011967Y015625D02*
X011888Y015625D01*
X012124Y015625D02*
X012941Y015625D01*
X012855Y015703D02*
X012221Y015703D01*
X012278Y015780D02*
X012808Y015780D01*
X012780Y015857D02*
X012311Y015857D01*
X012327Y015934D02*
X013128Y015934D01*
X013128Y015857D02*
X013207Y015857D01*
X013207Y015780D02*
X013128Y015780D01*
X013128Y015703D02*
X013207Y015703D01*
X013207Y015625D02*
X013128Y015625D01*
X012998Y015316D02*
X012145Y015316D01*
X012227Y015239D02*
X012888Y015239D01*
X012821Y015162D02*
X012282Y015162D01*
X012314Y015085D02*
X012789Y015085D01*
X012768Y015007D02*
X012327Y015007D01*
X012327Y014930D02*
X012768Y014930D01*
X012777Y014853D02*
X012310Y014853D01*
X012278Y014776D02*
X012736Y014776D01*
X012717Y014698D02*
X012217Y014698D01*
X012119Y014621D02*
X012717Y014621D01*
X012896Y014683D02*
X013168Y014954D01*
X012896Y014683D02*
X012896Y013482D01*
X013408Y012970D01*
X013416Y012970D01*
X013416Y011970D01*
X014455Y012147D02*
X018640Y012147D01*
X018621Y012381D02*
X014841Y012381D01*
X014873Y012458D02*
X018698Y012458D01*
X018776Y012536D02*
X014886Y012536D01*
X014656Y012999D02*
X013815Y012999D01*
X013815Y013076D02*
X014734Y013076D01*
X014811Y013154D02*
X013797Y013154D01*
X013720Y013231D02*
X014273Y013231D01*
X014182Y013308D02*
X013642Y013308D01*
X013627Y013617D02*
X014089Y013617D01*
X014106Y013694D02*
X013705Y013694D01*
X013782Y013772D02*
X014142Y013772D01*
X014202Y013849D02*
X013815Y013849D01*
X013815Y013926D02*
X014306Y013926D01*
X014447Y013926D02*
X014526Y013926D01*
X014526Y013849D02*
X014447Y013849D01*
X014447Y013772D02*
X014526Y013772D01*
X014526Y013694D02*
X014447Y013694D01*
X014447Y013617D02*
X014526Y013617D01*
X014526Y013540D02*
X015197Y013540D01*
X015274Y013617D02*
X014884Y013617D01*
X014867Y013694D02*
X015352Y013694D01*
X015429Y013772D02*
X014831Y013772D01*
X014771Y013849D02*
X015506Y013849D01*
X015583Y013926D02*
X014667Y013926D01*
X014526Y013529D02*
X014886Y013529D01*
X014870Y013452D01*
X014840Y013379D01*
X014797Y013314D01*
X014741Y013258D01*
X014676Y013215D01*
X014603Y013184D01*
X014526Y013169D01*
X014526Y013529D01*
X014526Y013463D02*
X014447Y013463D01*
X014447Y013385D02*
X014526Y013385D01*
X014526Y013308D02*
X014447Y013308D01*
X014447Y013231D02*
X014526Y013231D01*
X014700Y013231D02*
X014888Y013231D01*
X014965Y013308D02*
X014791Y013308D01*
X014843Y013385D02*
X015043Y013385D01*
X015120Y013463D02*
X014873Y013463D01*
X015316Y013154D02*
X015343Y013154D01*
X015343Y013076D02*
X015239Y013076D01*
X016022Y012613D02*
X016620Y012613D01*
X016496Y012690D02*
X016099Y012690D01*
X016176Y012767D02*
X016419Y012767D01*
X016383Y012845D02*
X016252Y012845D01*
X016252Y012922D02*
X016351Y012922D01*
X016975Y012613D02*
X018853Y012613D01*
X018930Y012690D02*
X017099Y012690D01*
X016069Y011763D02*
X030207Y011763D01*
X031423Y011777D02*
X031435Y011789D01*
X031431Y011789D02*
X031435Y011793D01*
X028734Y010064D02*
X024251Y010064D01*
X024294Y009987D02*
X024174Y009987D01*
X024216Y009910D02*
X024097Y009910D01*
X024139Y009832D02*
X024020Y009832D01*
X024062Y009755D02*
X023942Y009755D01*
X023985Y009678D02*
X023865Y009678D01*
X023907Y009601D02*
X023788Y009601D01*
X024413Y009601D02*
X028718Y009601D01*
X024510Y011145D02*
X024472Y011145D01*
X024433Y011068D02*
X024424Y011068D01*
X024356Y010991D02*
X024338Y010991D01*
X024279Y010914D02*
X015749Y010914D01*
X015749Y010991D02*
X015877Y010991D01*
X015800Y011068D02*
X015749Y011068D01*
X015749Y011145D02*
X015753Y011145D01*
X014130Y013385D02*
X013245Y013385D01*
X013168Y013463D02*
X014100Y013463D01*
X013815Y014003D02*
X015661Y014003D01*
X015738Y014081D02*
X013815Y014081D01*
X013793Y014158D02*
X015815Y014158D01*
X015934Y013772D02*
X016610Y013772D01*
X019170Y015548D02*
X020443Y015548D01*
X020418Y015625D02*
X019162Y015625D01*
X019130Y015703D02*
X020418Y015703D01*
X020418Y015780D02*
X019059Y015780D01*
X019199Y015471D02*
X020520Y015471D01*
X022430Y013076D02*
X023006Y013076D01*
X023084Y012999D02*
X022518Y012999D01*
X020836Y011609D02*
X020389Y011609D01*
X020457Y011532D02*
X020773Y011532D01*
X020736Y011454D02*
X020489Y011454D01*
X020512Y011377D02*
X020717Y011377D01*
X013416Y017049D02*
X013416Y018049D01*
X013420Y018053D01*
X013016Y017016D02*
X010455Y017016D01*
X010455Y016938D02*
X010376Y016938D01*
X010376Y016861D02*
X010455Y016861D01*
X010455Y016784D02*
X010376Y016784D01*
X010376Y016707D02*
X010455Y016707D01*
X009277Y016707D02*
X008587Y016707D01*
X008749Y016629D02*
X009200Y016629D01*
X009123Y016552D02*
X008826Y016552D01*
X008878Y016475D02*
X009046Y016475D01*
X009020Y016398D02*
X008910Y016398D01*
X008929Y016320D02*
X009020Y016320D01*
X009020Y016243D02*
X008929Y016243D01*
X008927Y016166D02*
X009020Y016166D01*
X009020Y016089D02*
X008895Y016089D01*
X008863Y016012D02*
X009082Y016012D01*
X009159Y015934D02*
X008790Y015934D01*
X008686Y015857D02*
X009236Y015857D01*
X007158Y016707D02*
X006469Y016707D01*
X006631Y016629D02*
X007082Y016629D01*
X007158Y016784D02*
X005794Y016784D01*
X005815Y016861D02*
X007138Y016861D01*
X007061Y016938D02*
X005815Y016938D01*
X005815Y017016D02*
X006983Y017016D01*
X006906Y017093D02*
X005815Y017093D01*
X005780Y017170D02*
X006829Y017170D01*
X006752Y017247D02*
X005703Y017247D01*
X005717Y016707D02*
X006244Y016707D01*
X006082Y016629D02*
X005640Y016629D01*
X005209Y018329D02*
X002622Y018329D01*
X001574Y017247D02*
X001522Y017247D01*
X001522Y017170D02*
X001574Y017170D01*
X001574Y017093D02*
X001522Y017093D01*
X001522Y017016D02*
X001574Y017016D01*
X001574Y016938D02*
X001522Y016938D01*
X001522Y016861D02*
X001574Y016861D01*
X001574Y016784D02*
X001522Y016784D01*
X001522Y016707D02*
X001574Y016707D01*
X001574Y016629D02*
X001522Y016629D01*
X001522Y016552D02*
X001574Y016552D01*
X001574Y016475D02*
X001522Y016475D01*
X001522Y016398D02*
X001574Y016398D01*
X001574Y016320D02*
X001522Y016320D01*
X001522Y016243D02*
X001574Y016243D01*
X001574Y016166D02*
X001522Y016166D01*
X001522Y016089D02*
X001574Y016089D01*
X001574Y016012D02*
X001522Y016012D01*
X001522Y015934D02*
X001574Y015934D01*
X001574Y015857D02*
X001522Y015857D01*
X001522Y015780D02*
X001574Y015780D01*
X001574Y015703D02*
X001522Y015703D01*
X001522Y015625D02*
X001574Y015625D01*
X001574Y015548D02*
X001522Y015548D01*
X001522Y015471D02*
X001574Y015471D01*
X001574Y015394D02*
X001522Y015394D01*
X001522Y015316D02*
X001574Y015316D01*
X001574Y015239D02*
X001522Y015239D01*
X001522Y015162D02*
X001574Y015162D01*
X001574Y015085D02*
X001522Y015085D01*
X001522Y015007D02*
X001574Y015007D01*
X001574Y014930D02*
X001522Y014930D01*
X001522Y014853D02*
X001574Y014853D01*
X001574Y014776D02*
X001522Y014776D01*
X001522Y014698D02*
X001574Y014698D01*
X001574Y014621D02*
X001522Y014621D01*
X001522Y014544D02*
X001574Y014544D01*
X001574Y014467D02*
X001522Y014467D01*
X001522Y014389D02*
X001574Y014389D01*
X001574Y014312D02*
X001522Y014312D01*
X001522Y014235D02*
X001574Y014235D01*
X001574Y014158D02*
X001522Y014158D01*
X001522Y014081D02*
X001574Y014081D01*
X001574Y014003D02*
X001522Y014003D01*
X001522Y013926D02*
X001574Y013926D01*
X001574Y013849D02*
X001522Y013849D01*
X001522Y013772D02*
X001574Y013772D01*
X001574Y013694D02*
X001522Y013694D01*
X002013Y014467D02*
X002839Y014467D01*
X002837Y014544D02*
X002013Y014544D01*
X002013Y014621D02*
X002464Y014621D01*
X002372Y014698D02*
X002013Y014698D01*
X002013Y014776D02*
X002314Y014776D01*
X002282Y014853D02*
X002013Y014853D01*
X002013Y014930D02*
X002266Y014930D01*
X002266Y015007D02*
X002013Y015007D01*
X002013Y015085D02*
X002281Y015085D01*
X002313Y015162D02*
X002013Y015162D01*
X002013Y015239D02*
X002370Y015239D01*
X002458Y015316D02*
X002013Y015316D01*
X002013Y016012D02*
X002267Y016012D01*
X002282Y016089D02*
X002013Y016089D01*
X002013Y016166D02*
X002316Y016166D01*
X002374Y016243D02*
X002013Y016243D01*
X002013Y016320D02*
X002471Y016320D01*
X002666Y014970D02*
X002666Y014968D01*
X003018Y014616D01*
X003018Y013572D01*
X011516Y019256D02*
X012071Y019256D01*
X012104Y019333D02*
X011548Y019333D01*
X012416Y018947D02*
X012494Y018947D01*
X012494Y018869D02*
X012416Y018869D01*
X012416Y018792D02*
X012494Y018792D01*
X012947Y021458D02*
X012947Y021458D01*
X011085Y021706D02*
X015699Y021706D01*
X015951Y021958D01*
X018034Y021958D01*
X011085Y024706D02*
X011081Y024710D01*
X030194Y021109D02*
X030212Y021109D01*
X034481Y023349D02*
X040232Y023349D01*
X039352Y023504D02*
X034475Y023504D01*
X034443Y023581D02*
X039245Y023581D01*
X037209Y028293D02*
X037004Y028293D01*
X036984Y028370D02*
X037233Y028370D01*
X037265Y028447D02*
X036946Y028447D01*
X036883Y028524D02*
X037334Y028524D01*
X037453Y028602D02*
X036764Y028602D01*
X029290Y005431D02*
X028290Y005431D01*
X028475Y003033D02*
X028435Y002994D01*
X028435Y001738D01*
X028297Y001859D01*
X029297Y001859D02*
X029297Y002915D01*
X029179Y003033D01*
X028475Y003033D01*
X010345Y005494D02*
X010333Y005494D01*
D24*
X017498Y007226D03*
X021435Y007462D03*
X021699Y009009D03*
X025939Y008301D03*
X025766Y007383D03*
X027498Y007620D03*
X028916Y009824D03*
X031199Y011399D03*
X031435Y011793D03*
X033561Y013525D03*
X033168Y013840D03*
X034585Y013053D03*
X036990Y011923D03*
X033695Y008919D03*
X033057Y009238D03*
X026002Y013368D03*
X023561Y015100D03*
X022695Y015572D03*
X021538Y014706D03*
X018864Y014994D03*
X018872Y015545D03*
X016813Y013990D03*
X022199Y019242D03*
X024675Y019706D03*
X025238Y019415D03*
X027896Y016994D03*
X033451Y018340D03*
X034955Y015738D03*
X034593Y021966D03*
X035132Y022706D03*
X034187Y023419D03*
X033400Y023053D03*
X032609Y022533D03*
X031609Y024801D03*
X028609Y023509D03*
X027609Y024025D03*
X026612Y024443D03*
X025231Y025427D03*
X024443Y025824D03*
X023975Y025265D03*
X023357Y025966D03*
X022443Y026301D03*
X021849Y026210D03*
X021026Y025754D03*
X024723Y024293D03*
X015175Y028462D03*
X007671Y027206D03*
X012018Y020529D03*
X011258Y019411D03*
X038105Y022348D03*
X038727Y022033D03*
X039471Y023777D03*
D25*
X026297Y005423D02*
X026297Y001859D01*
X025297Y001859D02*
X025297Y005423D01*
X024297Y005423D02*
X024290Y005431D01*
X024297Y005423D02*
X024297Y001859D01*
X023297Y001859D02*
X023297Y005423D01*
X023290Y005431D01*
X022297Y005423D02*
X022290Y005431D01*
X022297Y005423D02*
X022297Y001859D01*
X021297Y001859D02*
X021297Y005423D01*
X020313Y005427D02*
X020297Y005411D01*
X020297Y001859D01*
X017297Y001859D02*
X017297Y005415D01*
X017290Y005423D01*
X013290Y005423D02*
X013290Y001659D01*
X013297Y001859D01*
X011297Y001859D02*
X011297Y005423D01*
X010297Y005423D02*
X010297Y001859D01*
D26*
X007896Y013466D03*
X002679Y022537D03*
M02*
