%TF.GenerationSoftware,KiCad,Pcbnew,(6.0.5)*%
%TF.CreationDate,2022-11-15T11:28:17-03:00*%
%TF.ProjectId,MSX OPL4 Wozblaster,4d535820-4f50-44c3-9420-576f7a626c61,rev?*%
%TF.SameCoordinates,Original*%
%TF.FileFunction,Profile,NP*%
%FSLAX46Y46*%
G04 Gerber Fmt 4.6, Leading zero omitted, Abs format (unit mm)*
G04 Created by KiCad (PCBNEW (6.0.5)) date 2022-11-15 11:28:17*
%MOMM*%
%LPD*%
G01*
G04 APERTURE LIST*
%TA.AperFunction,Profile*%
%ADD10C,0.050000*%
%TD*%
%TA.AperFunction,Profile*%
%ADD11C,0.100000*%
%TD*%
G04 APERTURE END LIST*
D10*
%TO.C,IC1*%
X117962716Y-118230000D02*
G75*
G03*
X117962716Y-118230000I-2872716J0D01*
G01*
X174164456Y-113430000D02*
G75*
G03*
X174164456Y-113430000I-2874456J0D01*
G01*
D11*
X104612540Y-98068005D02*
X104532270Y-98080705D01*
X187480430Y-100711220D02*
X187465450Y-100790720D01*
X102820060Y-98942775D02*
X102762150Y-98999425D01*
X188327520Y-99078510D02*
X188272410Y-99137950D01*
X189380860Y-98336580D02*
X189307200Y-98370360D01*
X101858410Y-100690045D02*
X101843430Y-100769545D01*
X104294530Y-98131245D02*
X104216300Y-98151825D01*
X107649360Y-103428925D02*
X107700160Y-103365685D01*
X106653430Y-104246295D02*
X106724550Y-104207185D01*
X101893970Y-102136575D02*
X101914550Y-102214805D01*
X101794910Y-101334185D02*
X101795930Y-101415215D01*
X106998360Y-104033955D02*
X107063890Y-103986455D01*
X193737720Y-100017290D02*
X193703940Y-99943630D01*
X104452770Y-104572685D02*
X104532270Y-104587675D01*
X192875650Y-98854990D02*
X192813670Y-98802920D01*
X187845940Y-102983000D02*
X187886830Y-103052850D01*
X108335410Y-100690045D02*
X108318650Y-100610795D01*
X193957430Y-101999510D02*
X193972420Y-101920010D01*
X108363100Y-101818565D02*
X108374020Y-101738305D01*
X187559170Y-102313960D02*
X187583560Y-102391180D01*
X104061100Y-98198815D02*
X103984390Y-98225225D01*
X193854310Y-100319550D02*
X193827890Y-100242850D01*
X102184800Y-102890705D02*
X102223920Y-102961825D01*
X193271380Y-103450100D02*
X193322180Y-103386860D01*
X189838320Y-98173000D02*
X189760340Y-98195610D01*
X105820310Y-98112455D02*
X105741060Y-98095685D01*
X189455280Y-98304830D02*
X189380860Y-98336580D01*
X187733930Y-99943630D02*
X187700140Y-100017290D01*
X105820310Y-104555925D02*
X105899300Y-104537125D01*
X193165460Y-99137950D02*
X193110340Y-99078510D01*
X108009020Y-102890705D02*
X108046360Y-102818815D01*
X108397900Y-101253165D02*
X108394850Y-101172135D01*
X103758840Y-104352975D02*
X103833260Y-104384725D01*
X188952360Y-98565680D02*
X188884550Y-98609880D01*
X188562220Y-103855740D02*
X188624200Y-103907810D01*
X101830730Y-101818565D02*
X101843430Y-101898835D01*
X104692800Y-98057085D02*
X104612540Y-98068005D01*
X105258970Y-98036255D02*
X105177940Y-98033205D01*
X193878690Y-102313960D02*
X193901300Y-102235980D01*
X187480430Y-101999510D02*
X187497200Y-102078760D01*
X104216300Y-98151825D02*
X104138320Y-98174425D01*
X191754750Y-104490740D02*
X191831450Y-104464330D01*
X194016870Y-101517420D02*
X194019920Y-101436390D01*
X188272410Y-99137950D02*
X188218560Y-99198650D01*
X101803800Y-101091365D02*
X101798980Y-101172135D01*
X105339740Y-104627295D02*
X105420510Y-104620185D01*
X187559170Y-100396770D02*
X187536570Y-100474750D01*
X188166490Y-99260630D02*
X188115690Y-99323870D01*
X108394850Y-101496245D02*
X108397900Y-101415215D01*
X191907400Y-98274600D02*
X191831450Y-98246410D01*
X102596540Y-103490905D02*
X102650390Y-103551605D01*
X102493670Y-99302695D02*
X102444650Y-99367215D01*
X105501030Y-98057085D02*
X105420510Y-98048195D01*
X105899300Y-104537125D02*
X105977530Y-104516555D01*
X107543440Y-103551605D02*
X107597290Y-103490905D01*
X190961760Y-104648480D02*
X191042530Y-104641360D01*
X187452750Y-100870990D02*
X187441830Y-100951250D01*
X103262530Y-98588705D02*
X103195470Y-98634425D01*
X190154290Y-104608850D02*
X190234560Y-104621550D01*
D10*
X175360000Y-122940000D02*
X187955000Y-122940000D01*
D11*
X104692800Y-104611295D02*
X104773320Y-104620185D01*
X105977530Y-104516555D02*
X106055510Y-104493945D01*
X102879490Y-103780715D02*
X102940200Y-103834565D01*
X193322180Y-103386860D02*
X193371200Y-103322340D01*
X192416420Y-104187470D02*
X192485500Y-104145050D01*
X105581290Y-98068005D02*
X105501030Y-98057085D01*
X192620380Y-104055130D02*
X192685910Y-104007630D01*
X103065420Y-103937435D02*
X103129940Y-103986455D01*
X187668390Y-100091720D02*
X187638170Y-100166900D01*
X187609970Y-102467890D02*
X187638170Y-102543830D01*
X187465450Y-101920010D02*
X187480430Y-101999510D01*
X187700140Y-100017290D02*
X187668390Y-100091720D01*
X108350400Y-101898835D02*
X108363100Y-101818565D01*
X191442330Y-104577100D02*
X191521320Y-104558310D01*
X192813670Y-103907810D02*
X192875650Y-103855740D01*
X108232290Y-100298375D02*
X108205870Y-100221665D01*
X188442080Y-98963960D02*
X188384170Y-99020600D01*
X188751960Y-104007630D02*
X188817490Y-104055130D01*
X106434990Y-104352975D02*
X106508650Y-104319195D01*
X193799700Y-100166900D02*
X193769470Y-100091720D01*
D10*
X187955000Y-111579000D02*
X198460600Y-111579000D01*
D11*
X108081920Y-99922455D02*
X108046360Y-99849555D01*
X101937150Y-102292785D02*
X101961540Y-102370005D01*
X103469280Y-104207185D02*
X103540400Y-104246295D01*
X187609970Y-100242850D02*
X187583560Y-100319550D01*
X108390020Y-101577015D02*
X108394850Y-101496245D01*
X190074790Y-98116870D02*
X189995540Y-98133630D01*
X103612280Y-98384745D02*
X103540400Y-98422075D01*
X189455280Y-104405910D02*
X189530470Y-104436130D01*
X192346570Y-98482370D02*
X192275450Y-98443260D01*
X188115690Y-99323870D02*
X188066670Y-99388390D01*
X192130670Y-98370360D02*
X192057010Y-98336580D01*
X105096910Y-104636185D02*
X105177940Y-104635175D01*
X194012040Y-101598190D02*
X194016870Y-101517420D01*
X104934860Y-104632125D02*
X105015890Y-104635175D01*
X102820060Y-103725595D02*
X102879490Y-103780715D01*
X193769470Y-102619020D02*
X193799700Y-102543830D01*
X193371200Y-103322340D02*
X193418700Y-103256810D01*
X190395340Y-98069370D02*
X190314820Y-98078260D01*
X108279280Y-102214805D02*
X108299850Y-102136575D01*
X187441830Y-100951250D02*
X187432940Y-101031770D01*
X102544470Y-99239455D02*
X102493670Y-99302695D01*
X192813670Y-98802920D02*
X192750430Y-98752120D01*
X101961540Y-102370005D02*
X101987950Y-102446705D01*
X193921870Y-100552980D02*
X193901300Y-100474750D01*
X193901300Y-102235980D02*
X193921870Y-102157750D01*
X188624200Y-103907810D02*
X188687440Y-103958610D01*
X187432940Y-101678960D02*
X187441830Y-101759480D01*
X106360560Y-98283645D02*
X106285380Y-98253425D01*
D10*
X175360000Y-134840000D02*
X175360000Y-122940000D01*
D11*
X188501510Y-103801890D02*
X188562220Y-103855740D01*
X107842400Y-103168575D02*
X107886600Y-103100755D01*
X107253630Y-98833815D02*
X107191650Y-98781745D01*
X188218560Y-99198650D02*
X188166490Y-99260630D01*
X188384170Y-103690130D02*
X188442080Y-103746780D01*
X101819810Y-100930075D02*
X101810920Y-101010595D01*
X192416420Y-98523270D02*
X192346570Y-98482370D01*
X108299850Y-102136575D02*
X108318650Y-102057585D01*
X101798980Y-101172135D02*
X101795930Y-101253165D01*
X104612540Y-104600375D02*
X104692800Y-104611295D01*
X187806820Y-99798850D02*
X187769490Y-99870740D01*
X107649360Y-99239455D02*
X107597290Y-99177475D01*
X188501510Y-98908840D02*
X188442080Y-98963960D01*
X193110340Y-103632220D02*
X193165460Y-103572790D01*
X107796680Y-99432745D02*
X107749180Y-99367215D01*
X103833260Y-98283645D02*
X103758840Y-98315395D01*
X187769490Y-99870740D02*
X187733930Y-99943630D01*
X191982580Y-98304830D02*
X191907400Y-98274600D01*
X107191650Y-98781745D02*
X107128410Y-98730945D01*
X102223920Y-102961825D02*
X102264810Y-103031675D01*
X188687440Y-98752120D02*
X188624200Y-98802920D01*
X193957430Y-100711220D02*
X193940670Y-100631970D01*
X107128410Y-98730945D02*
X107063890Y-98681925D01*
X187515990Y-102157750D02*
X187536570Y-102235980D01*
X102264810Y-103031675D02*
X102307230Y-103100755D01*
X101914550Y-100453575D02*
X101893970Y-100531805D01*
D10*
X98455000Y-122930000D02*
X110360000Y-122930000D01*
D11*
X102650390Y-99116765D02*
X102596540Y-99177475D01*
X194012040Y-101112540D02*
X194004930Y-101031770D01*
X103685180Y-98349185D02*
X103612280Y-98384745D01*
X106209430Y-104443145D02*
X106285380Y-104414955D01*
X187886830Y-99657880D02*
X187845940Y-99727730D01*
X108397900Y-101415215D02*
X108398910Y-101334185D01*
X105177940Y-104635175D02*
X105258970Y-104632125D01*
X103129940Y-103986455D02*
X103195470Y-104033955D01*
X108205870Y-100221665D02*
X108177680Y-100145725D01*
X103399430Y-104166285D02*
X103469280Y-104207185D01*
X102444650Y-99367215D02*
X102397150Y-99432745D01*
X191042530Y-98069370D02*
X190961760Y-98062260D01*
X193827890Y-102467890D02*
X193854310Y-102391180D01*
X193418700Y-99453920D02*
X193371200Y-99388390D01*
X190314820Y-104632470D02*
X190395340Y-104641360D01*
X187421000Y-101193310D02*
X187417950Y-101274340D01*
X106581540Y-104283635D02*
X106653430Y-104246295D01*
X192936350Y-103801890D02*
X192995790Y-103746780D01*
X192553320Y-98609880D02*
X192485500Y-98565680D01*
X107063890Y-98681925D02*
X106998360Y-98634425D01*
X101810920Y-101657785D02*
X101819810Y-101738305D01*
X104452770Y-98095685D02*
X104373520Y-98112455D01*
X188884550Y-98609880D02*
X188817490Y-98655600D01*
X187806820Y-102911880D02*
X187845940Y-102983000D01*
X108177680Y-102522655D02*
X108205870Y-102446705D01*
X102351430Y-103168575D02*
X102397150Y-103235635D01*
X188817490Y-104055130D02*
X188884550Y-104100850D01*
X101803800Y-101577015D02*
X101810920Y-101657785D01*
X102046370Y-102597835D02*
X102078120Y-102672265D01*
X108115700Y-102672265D02*
X108147450Y-102597835D01*
X193551030Y-103052850D02*
X193591930Y-102983000D01*
X106794400Y-104166285D02*
X106863480Y-104123875D01*
X108256670Y-102292785D02*
X108279280Y-102214805D01*
X102307230Y-103100755D02*
X102351430Y-103168575D01*
X103758840Y-98315395D02*
X103685180Y-98349185D01*
D10*
X198465000Y-70060000D02*
X98455000Y-70060000D01*
D11*
X193053700Y-103690130D02*
X193110340Y-103632220D01*
X107373770Y-103725595D02*
X107431680Y-103668955D01*
X191042530Y-104641360D02*
X191123050Y-104632470D01*
X187973450Y-103189750D02*
X188019170Y-103256810D01*
X108374020Y-101738305D02*
X108382910Y-101657785D01*
X188115690Y-103386860D02*
X188166490Y-103450100D01*
X106863480Y-104123875D02*
X106931300Y-104079675D01*
X189683120Y-104490740D02*
X189760340Y-104515130D01*
X190637910Y-98054380D02*
X190556880Y-98057430D01*
X191283580Y-104608850D02*
X191363080Y-104593870D01*
X191982580Y-104405910D02*
X192057010Y-104374160D01*
X104934860Y-98036255D02*
X104854090Y-98041075D01*
X193371200Y-99388390D02*
X193322180Y-99323870D01*
X190476110Y-98062260D02*
X190395340Y-98069370D01*
X194020930Y-101355370D02*
X194019920Y-101274340D01*
X108279280Y-100453575D02*
X108256670Y-100375595D01*
X101893970Y-100531805D02*
X101875180Y-100610795D01*
X190556880Y-104653300D02*
X190637910Y-104656350D01*
X101858410Y-101978335D02*
X101875180Y-102057585D01*
X102111910Y-102745925D02*
X102147470Y-102818815D01*
X107431680Y-98999425D02*
X107373770Y-98942775D01*
X190718930Y-104657370D02*
X190799960Y-104656350D01*
X106508650Y-98349185D02*
X106434990Y-98315395D01*
X193901300Y-100474750D02*
X193878690Y-100396770D01*
X187929250Y-103121940D02*
X187973450Y-103189750D01*
X106055510Y-104493945D02*
X106132730Y-104469565D01*
X193668380Y-102840000D02*
X193703940Y-102767100D01*
X189606410Y-98246410D02*
X189530470Y-98274600D01*
X193799700Y-102543830D02*
X193827890Y-102467890D01*
X105096910Y-98032185D02*
X105015890Y-98033205D01*
X191363080Y-104593870D02*
X191442330Y-104577100D01*
X189995540Y-98133630D02*
X189916550Y-98152430D01*
D10*
X110360000Y-122930000D02*
X110360000Y-134840000D01*
D11*
X188817490Y-98655600D02*
X188751960Y-98703100D01*
D10*
X198460600Y-111579000D02*
X198465000Y-70060000D01*
D11*
X108363100Y-100849815D02*
X108350400Y-100769545D01*
X105420510Y-98048195D02*
X105339740Y-98041075D01*
X191754750Y-98219990D02*
X191677530Y-98195610D01*
X106794400Y-98502085D02*
X106724550Y-98461195D01*
X193165460Y-103572790D02*
X193219310Y-103512080D01*
X103540400Y-98422075D02*
X103469280Y-98461195D01*
X191203310Y-98089180D02*
X191123050Y-98078260D01*
X193631040Y-99798850D02*
X193591930Y-99727730D01*
X108394850Y-101172135D02*
X108390020Y-101091365D01*
X189760340Y-98195610D02*
X189683120Y-98219990D01*
X187769490Y-102840000D02*
X187806820Y-102911880D01*
X105258970Y-104632125D02*
X105339740Y-104627295D01*
X190799960Y-98054380D02*
X190718930Y-98053370D01*
X107488320Y-103611045D02*
X107543440Y-103551605D01*
X192995790Y-103746780D02*
X193053700Y-103690130D01*
X187421000Y-101517420D02*
X187425820Y-101598190D01*
X107431680Y-103668955D02*
X107488320Y-103611045D01*
X192875650Y-103855740D02*
X192936350Y-103801890D01*
X193737720Y-102693440D02*
X193769470Y-102619020D01*
X193508620Y-99588800D02*
X193464420Y-99520980D01*
X187536570Y-102235980D02*
X187559170Y-102313960D01*
X102264810Y-99636705D02*
X102223920Y-99706555D01*
X107969910Y-102961825D02*
X108009020Y-102890705D01*
X102544470Y-103428925D02*
X102596540Y-103490905D01*
X193418700Y-103256810D02*
X193464420Y-103189750D01*
X107063890Y-103986455D02*
X107128410Y-103937435D01*
X187668390Y-102619020D02*
X187700140Y-102693440D01*
X187583560Y-102391180D02*
X187609970Y-102467890D01*
X193985120Y-101839740D02*
X193996040Y-101759480D01*
X187638170Y-100166900D02*
X187609970Y-100242850D01*
X103612280Y-104283635D02*
X103685180Y-104319195D01*
X187497200Y-102078760D02*
X187515990Y-102157750D01*
X107749180Y-103301165D02*
X107796680Y-103235635D01*
D10*
X98455000Y-70060000D02*
X98455000Y-122930000D01*
D11*
X187416930Y-101355370D02*
X187417950Y-101436390D01*
X106653430Y-98422075D02*
X106581540Y-98384745D01*
X107749180Y-99367215D02*
X107700160Y-99302695D01*
X108177680Y-100145725D02*
X108147450Y-100070535D01*
X190637910Y-104656350D02*
X190718930Y-104657370D01*
X107929010Y-99636705D02*
X107886600Y-99567615D01*
X103540400Y-104246295D02*
X103612280Y-104283635D01*
X107191650Y-103886635D02*
X107253630Y-103834565D01*
X103984390Y-98225225D02*
X103908450Y-98253425D01*
X191283580Y-98101880D02*
X191203310Y-98089180D01*
X101843430Y-100769545D02*
X101830730Y-100849815D01*
X105899300Y-98131245D02*
X105820310Y-98112455D01*
X108147450Y-102597835D02*
X108177680Y-102522655D01*
X106931300Y-98588705D02*
X106863480Y-98544505D01*
X189234300Y-98405920D02*
X189162420Y-98443260D01*
X191521320Y-104558310D02*
X191599550Y-104537730D01*
X189606410Y-104464330D02*
X189683120Y-104490740D01*
X106055510Y-98174425D02*
X105977530Y-98151825D01*
X102016150Y-102522655D02*
X102046370Y-102597835D01*
X194004930Y-101031770D02*
X193996040Y-100951250D01*
X190880990Y-104653300D02*
X190961760Y-104648480D01*
X105741060Y-104572685D02*
X105820310Y-104555925D01*
X193972420Y-100790720D02*
X193957430Y-100711220D01*
X102351430Y-99499805D02*
X102307230Y-99567615D01*
X104061100Y-104469565D02*
X104138320Y-104493945D01*
X187700140Y-102693440D02*
X187733930Y-102767100D01*
X187515990Y-100552980D02*
X187497200Y-100631970D01*
X103065420Y-98730945D02*
X103002180Y-98781745D01*
X101798980Y-101496245D02*
X101803800Y-101577015D01*
X108299850Y-100531805D02*
X108279280Y-100453575D01*
X187536570Y-100474750D02*
X187515990Y-100552980D01*
X106508650Y-104319195D02*
X106581540Y-104283635D01*
X108398910Y-101334185D02*
X108397900Y-101253165D01*
X108081920Y-102745925D02*
X108115700Y-102672265D01*
X103195470Y-104033955D02*
X103262530Y-104079675D01*
X188751960Y-98703100D02*
X188687440Y-98752120D01*
X104854090Y-104627295D02*
X104934860Y-104632125D01*
X187432940Y-101031770D02*
X187425820Y-101112540D01*
X187583560Y-100319550D02*
X187559170Y-100396770D01*
X193464420Y-99520980D02*
X193418700Y-99453920D01*
X105177940Y-98033205D02*
X105096910Y-98032185D01*
X102705500Y-99057335D02*
X102650390Y-99116765D01*
X187465450Y-100790720D02*
X187452750Y-100870990D01*
X194019920Y-101436390D02*
X194020930Y-101355370D01*
X101914550Y-102214805D02*
X101937150Y-102292785D01*
X191677530Y-104515130D02*
X191754750Y-104490740D01*
X106863480Y-98544505D02*
X106794400Y-98502085D01*
X103002180Y-98781745D02*
X102940200Y-98833815D01*
X193271380Y-99260630D02*
X193219310Y-99198650D01*
X105015890Y-104635175D02*
X105096910Y-104636185D01*
X102762150Y-103668955D02*
X102820060Y-103725595D01*
X187452750Y-101839740D02*
X187465450Y-101920010D01*
X187417950Y-101436390D02*
X187421000Y-101517420D01*
X103195470Y-98634425D02*
X103129940Y-98681925D01*
X106132730Y-104469565D02*
X106209430Y-104443145D01*
X101937150Y-100375595D02*
X101914550Y-100453575D01*
X108147450Y-100070535D02*
X108115700Y-99996115D01*
X192685910Y-104007630D02*
X192750430Y-103958610D01*
X189162420Y-98443260D02*
X189091300Y-98482370D01*
X106581540Y-98384745D02*
X106508650Y-98349185D01*
X189307200Y-98370360D02*
X189234300Y-98405920D01*
X105661560Y-98080705D02*
X105581290Y-98068005D01*
X108390020Y-101091365D02*
X108382910Y-101010595D01*
X187638170Y-102543830D02*
X187668390Y-102619020D01*
X193827890Y-100242850D02*
X193799700Y-100166900D01*
X102705500Y-103611045D02*
X102762150Y-103668955D01*
X108374020Y-100930075D02*
X108363100Y-100849815D01*
X188687440Y-103958610D02*
X188751960Y-104007630D01*
X190314820Y-98078260D02*
X190234560Y-98089180D01*
D10*
X110360000Y-134840000D02*
X175360000Y-134840000D01*
D11*
X189995540Y-104577100D02*
X190074790Y-104593870D01*
X193703940Y-99943630D02*
X193668380Y-99870740D01*
X193940670Y-100631970D02*
X193921870Y-100552980D01*
X104373520Y-104555925D02*
X104452770Y-104572685D01*
X189162420Y-104267480D02*
X189234300Y-104304810D01*
X104532270Y-98080705D02*
X104452770Y-98095685D01*
X105977530Y-98151825D02*
X105899300Y-98131245D01*
X103984390Y-104443145D02*
X104061100Y-104469565D01*
X107700160Y-99302695D02*
X107649360Y-99239455D01*
X104294530Y-104537125D02*
X104373520Y-104555925D01*
X101987950Y-102446705D02*
X102016150Y-102522655D01*
X108382910Y-101010595D02*
X108374020Y-100930075D01*
X102046370Y-100070535D02*
X102016150Y-100145725D01*
X101875180Y-102057585D02*
X101893970Y-102136575D01*
X191203310Y-104621550D02*
X191283580Y-104608850D01*
X192275450Y-98443260D02*
X192203560Y-98405920D01*
X189760340Y-104515130D02*
X189838320Y-104537730D01*
X187929250Y-99588800D02*
X187886830Y-99657880D01*
X102397150Y-99432745D02*
X102351430Y-99499805D01*
X101875180Y-100610795D02*
X101858410Y-100690045D01*
X193996040Y-101759480D02*
X194004930Y-101678960D01*
X194019920Y-101274340D02*
X194016870Y-101193310D01*
X103002180Y-103886635D02*
X103065420Y-103937435D01*
X107314330Y-103780715D02*
X107373770Y-103725595D01*
X192485500Y-98565680D02*
X192416420Y-98523270D01*
X103908450Y-98253425D02*
X103833260Y-98283645D01*
X192685910Y-98703100D02*
X192620380Y-98655600D01*
X193668380Y-99870740D02*
X193631040Y-99798850D01*
X192553320Y-104100850D02*
X192620380Y-104055130D01*
X102111910Y-99922455D02*
X102078120Y-99996115D01*
X193703940Y-102767100D02*
X193737720Y-102693440D01*
X187441830Y-101759480D02*
X187452750Y-101839740D01*
X192203560Y-98405920D02*
X192130670Y-98370360D01*
X108318650Y-102057585D02*
X108335410Y-101978335D01*
X191363080Y-98116870D02*
X191283580Y-98101880D01*
X193996040Y-100951250D02*
X193985120Y-100870990D01*
X193551030Y-99657880D02*
X193508620Y-99588800D01*
X102078120Y-99996115D02*
X102046370Y-100070535D01*
X108115700Y-99996115D02*
X108081920Y-99922455D01*
X189380860Y-104374160D02*
X189455280Y-104405910D01*
X101819810Y-101738305D02*
X101830730Y-101818565D01*
X104138320Y-104493945D02*
X104216300Y-104516555D01*
X107842400Y-99499805D02*
X107796680Y-99432745D01*
X191599550Y-98173000D02*
X191521320Y-98152430D01*
X107886600Y-103100755D02*
X107929010Y-103031675D01*
X102397150Y-103235635D02*
X102444650Y-103301165D01*
X107969910Y-99706555D02*
X107929010Y-99636705D01*
X107314330Y-98887665D02*
X107253630Y-98833815D01*
X102879490Y-98887665D02*
X102820060Y-98942775D01*
X187845940Y-99727730D02*
X187806820Y-99798850D01*
X187886830Y-103052850D02*
X187929250Y-103121940D01*
X192750430Y-98752120D02*
X192685910Y-98703100D01*
X102940200Y-98833815D02*
X102879490Y-98887665D01*
X188218560Y-103512080D02*
X188272410Y-103572790D01*
X191442330Y-98133630D02*
X191363080Y-98116870D01*
X102147470Y-99849555D02*
X102111910Y-99922455D01*
X188562220Y-98854990D02*
X188501510Y-98908840D01*
X101795930Y-101253165D02*
X101794910Y-101334185D01*
X188327520Y-103632220D02*
X188384170Y-103690130D01*
X192130670Y-104340370D02*
X192203560Y-104304810D01*
X102762150Y-98999425D02*
X102705500Y-99057335D01*
X102223920Y-99706555D02*
X102184800Y-99777675D01*
X103685180Y-104319195D02*
X103758840Y-104352975D01*
X188166490Y-103450100D02*
X188218560Y-103512080D01*
X192203560Y-104304810D02*
X192275450Y-104267480D01*
X189683120Y-98219990D02*
X189606410Y-98246410D01*
X105501030Y-104611295D02*
X105581290Y-104600375D01*
X101961540Y-100298375D02*
X101937150Y-100375595D01*
X107597290Y-99177475D02*
X107543440Y-99116765D01*
X108382910Y-101657785D02*
X108390020Y-101577015D01*
X103469280Y-98461195D02*
X103399430Y-98502085D01*
X105015890Y-98033205D02*
X104934860Y-98036255D01*
X193878690Y-100396770D02*
X193854310Y-100319550D01*
X107796680Y-103235635D02*
X107842400Y-103168575D01*
X188624200Y-98802920D02*
X188562220Y-98854990D01*
X187733930Y-102767100D02*
X187769490Y-102840000D01*
X191677530Y-98195610D02*
X191599550Y-98173000D01*
X192936350Y-98908840D02*
X192875650Y-98854990D01*
X102147470Y-102818815D02*
X102184800Y-102890705D01*
X188884550Y-104100850D02*
X188952360Y-104145050D01*
X104216300Y-104516555D02*
X104294530Y-104537125D01*
X102307230Y-99567615D02*
X102264810Y-99636705D01*
X106931300Y-104079675D02*
X106998360Y-104033955D01*
X193940670Y-102078760D02*
X193957430Y-101999510D01*
X189916550Y-104558310D02*
X189995540Y-104577100D01*
X187425820Y-101598190D02*
X187432940Y-101678960D01*
X193110340Y-99078510D02*
X193053700Y-99020600D01*
X107543440Y-99116765D02*
X107488320Y-99057335D01*
X188442080Y-103746780D02*
X188501510Y-103801890D01*
X191907400Y-104436130D02*
X191982580Y-104405910D01*
X190961760Y-98062260D02*
X190880990Y-98057430D01*
X102184800Y-99777675D02*
X102147470Y-99849555D01*
X193591930Y-99727730D02*
X193551030Y-99657880D01*
X192995790Y-98963960D02*
X192936350Y-98908840D01*
X188952360Y-104145050D02*
X189021450Y-104187470D01*
X106209430Y-98225225D02*
X106132730Y-98198815D01*
X102596540Y-99177475D02*
X102544470Y-99239455D01*
X108009020Y-99777675D02*
X107969910Y-99706555D01*
X104773320Y-104620185D02*
X104854090Y-104627295D01*
X104773320Y-98048195D02*
X104692800Y-98057085D01*
X187417950Y-101274340D02*
X187416930Y-101355370D01*
X107253630Y-103834565D02*
X107314330Y-103780715D01*
X191599550Y-104537730D02*
X191677530Y-104515130D01*
X106132730Y-98198815D02*
X106055510Y-98174425D01*
X103399430Y-98502085D02*
X103330340Y-98544505D01*
X108232290Y-102370005D02*
X108256670Y-102292785D01*
X107373770Y-98942775D02*
X107314330Y-98887665D01*
X108046360Y-102818815D02*
X108081920Y-102745925D01*
X193508620Y-103121940D02*
X193551030Y-103052850D01*
X103833260Y-104384725D02*
X103908450Y-104414955D01*
X188384170Y-99020600D02*
X188327520Y-99078510D01*
X103262530Y-104079675D02*
X103330340Y-104123875D01*
X106285380Y-104414955D02*
X106360560Y-104384725D01*
X193854310Y-102391180D02*
X193878690Y-102313960D01*
X193985120Y-100870990D02*
X193972420Y-100790720D01*
X187425820Y-101112540D02*
X187421000Y-101193310D01*
X191123050Y-104632470D02*
X191203310Y-104621550D01*
D10*
X187955000Y-122940000D02*
X187955000Y-111579000D01*
D11*
X193972420Y-101920010D02*
X193985120Y-101839740D01*
X105420510Y-104620185D02*
X105501030Y-104611295D01*
X106360560Y-104384725D02*
X106434990Y-104352975D01*
X102444650Y-103301165D02*
X102493670Y-103365685D01*
X106998360Y-98634425D02*
X106931300Y-98588705D01*
X106285380Y-98253425D02*
X106209430Y-98225225D01*
X191521320Y-98152430D02*
X191442330Y-98133630D01*
X189307200Y-104340370D02*
X189380860Y-104374160D01*
X101987950Y-100221665D02*
X101961540Y-100298375D01*
X191123050Y-98078260D02*
X191042530Y-98069370D01*
X189021450Y-98523270D02*
X188952360Y-98565680D01*
X105661560Y-104587675D02*
X105741060Y-104572685D01*
X107597290Y-103490905D02*
X107649360Y-103428925D01*
X108335410Y-101978335D02*
X108350400Y-101898835D01*
X102940200Y-103834565D02*
X103002180Y-103886635D01*
X101810920Y-101010595D02*
X101803800Y-101091365D01*
X104532270Y-104587675D02*
X104612540Y-104600375D01*
X192346570Y-104228360D02*
X192416420Y-104187470D01*
X188019170Y-103256810D02*
X188066670Y-103322340D01*
X191831450Y-98246410D02*
X191754750Y-98219990D01*
X102016150Y-100145725D02*
X101987950Y-100221665D01*
X108205870Y-102446705D02*
X108232290Y-102370005D01*
X194016870Y-101193310D02*
X194012040Y-101112540D01*
X101843430Y-101898835D02*
X101858410Y-101978335D01*
X102493670Y-103365685D02*
X102544470Y-103428925D01*
X190880990Y-98057430D02*
X190799960Y-98054380D01*
X191831450Y-104464330D02*
X191907400Y-104436130D01*
X190799960Y-104656350D02*
X190880990Y-104653300D01*
X192275450Y-104267480D02*
X192346570Y-104228360D01*
X103330340Y-104123875D02*
X103399430Y-104166285D01*
X104373520Y-98112455D02*
X104294530Y-98131245D01*
X189530470Y-98274600D02*
X189455280Y-98304830D01*
X188019170Y-99453920D02*
X187973450Y-99520980D01*
X108318650Y-100610795D02*
X108299850Y-100531805D01*
X107700160Y-103365685D02*
X107749180Y-103301165D01*
X107128410Y-103937435D02*
X107191650Y-103886635D01*
X193322180Y-99323870D02*
X193271380Y-99260630D01*
X103908450Y-104414955D02*
X103984390Y-104443145D01*
X188272410Y-103572790D02*
X188327520Y-103632220D01*
X187973450Y-99520980D02*
X187929250Y-99588800D01*
X101830730Y-100849815D02*
X101819810Y-100930075D01*
X189916550Y-98152430D02*
X189838320Y-98173000D01*
X190718930Y-98053370D02*
X190637910Y-98054380D01*
X105339740Y-98041075D02*
X105258970Y-98036255D01*
X189091300Y-98482370D02*
X189021450Y-98523270D01*
X190556880Y-98057430D02*
X190476110Y-98062260D01*
X104138320Y-98174425D02*
X104061100Y-98198815D01*
X190395340Y-104641360D02*
X190476110Y-104648480D01*
X106434990Y-98315395D02*
X106360560Y-98283645D01*
X192750430Y-103958610D02*
X192813670Y-103907810D01*
X193219310Y-99198650D02*
X193165460Y-99137950D01*
X192057010Y-98336580D02*
X191982580Y-98304830D01*
X193631040Y-102911880D02*
X193668380Y-102840000D01*
X189021450Y-104187470D02*
X189091300Y-104228360D01*
X103330340Y-98544505D02*
X103262530Y-98588705D01*
X107929010Y-103031675D02*
X107969910Y-102961825D01*
X194004930Y-101678960D02*
X194012040Y-101598190D01*
X190234560Y-98089180D02*
X190154290Y-98101880D01*
X193769470Y-100091720D02*
X193737720Y-100017290D01*
X188066670Y-99388390D02*
X188019170Y-99453920D01*
X105581290Y-104600375D02*
X105661560Y-104587675D01*
X187497200Y-100631970D02*
X187480430Y-100711220D01*
X192620380Y-98655600D02*
X192553320Y-98609880D01*
X192485500Y-104145050D02*
X192553320Y-104100850D01*
X106724550Y-104207185D02*
X106794400Y-104166285D01*
X188066670Y-103322340D02*
X188115690Y-103386860D01*
X189530470Y-104436130D02*
X189606410Y-104464330D01*
X192057010Y-104374160D02*
X192130670Y-104340370D01*
X108350400Y-100769545D02*
X108335410Y-100690045D01*
X101795930Y-101415215D02*
X101798980Y-101496245D01*
X190154290Y-98101880D02*
X190074790Y-98116870D01*
X193921870Y-102157750D02*
X193940670Y-102078760D01*
X190476110Y-104648480D02*
X190556880Y-104653300D01*
X193053700Y-99020600D02*
X192995790Y-98963960D01*
X104854090Y-98041075D02*
X104773320Y-98048195D01*
X107488320Y-99057335D02*
X107431680Y-98999425D01*
X193464420Y-103189750D02*
X193508620Y-103121940D01*
X189838320Y-104537730D02*
X189916550Y-104558310D01*
X108046360Y-99849555D02*
X108009020Y-99777675D01*
X189091300Y-104228360D02*
X189162420Y-104267480D01*
X102650390Y-103551605D02*
X102705500Y-103611045D01*
X190234560Y-104621550D02*
X190314820Y-104632470D01*
X106724550Y-98461195D02*
X106653430Y-98422075D01*
X102078120Y-102672265D02*
X102111910Y-102745925D01*
X190074790Y-104593870D02*
X190154290Y-104608850D01*
X103129940Y-98681925D02*
X103065420Y-98730945D01*
X107886600Y-99567615D02*
X107842400Y-99499805D01*
X189234300Y-104304810D02*
X189307200Y-104340370D01*
X193219310Y-103512080D02*
X193271380Y-103450100D01*
X108256670Y-100375595D02*
X108232290Y-100298375D01*
X105741060Y-98095685D02*
X105661560Y-98080705D01*
X193591930Y-102983000D02*
X193631040Y-102911880D01*
%TO.C,U$6*%
X100420000Y-76925000D02*
G75*
G03*
X100420000Y-76925000I-650000J0D01*
G01*
X102920000Y-86925000D02*
G75*
G03*
X102920000Y-86925000I-650000J0D01*
G01*
X100420000Y-86925000D02*
G75*
G03*
X100420000Y-86925000I-650000J0D01*
G01*
X102920000Y-76925000D02*
G75*
G03*
X102920000Y-76925000I-650000J0D01*
G01*
X106920000Y-81925000D02*
G75*
G03*
X106920000Y-81925000I-650000J0D01*
G01*
%TD*%
M02*
