M48
; DRILL file {KiCad (6.0.5)} date Tue Nov 15 11:28:20 2022
; FORMAT={-:-/ absolute / inch / decimal}
; #@! TF.CreationDate,2022-11-15T11:28:20-03:00
; #@! TF.GenerationSoftware,Kicad,Pcbnew,(6.0.5)
; #@! TF.FileFunction,Plated,1,2,PTH
FMAT,2
INCH
; #@! TA.AperFunction,Plated,PTH,ViaDrill
T1C0.0157
; #@! TA.AperFunction,Plated,PTH,ComponentDrill
T2C0.0320
; #@! TA.AperFunction,Plated,PTH,ComponentDrill
T3C0.0472
%
G90
G05
T1
X4.2881Y-3.2584
X4.4529Y-3.3219
X4.5551Y-3.386
X4.661Y-3.314
X4.7068Y-3.2995
X4.7461Y-2.9677
X4.7885Y-3.0927
X4.9327Y-3.5902
X4.9427Y-3.1774
X4.9628Y-2.8667
X4.9781Y-2.946
X4.979Y-3.4711
X4.9791Y-3.023
X4.981Y-4.9942
X4.9965Y-3.1058
X5.1398Y-3.4664
X5.1532Y-3.7338
X5.1732Y-3.3409
X5.2206Y-2.9334
X5.2406Y-3.5777
X5.2622Y-3.7877
X5.2646Y-4.187
X5.2841Y-4.3835
X5.428Y-3.9744
X5.4583Y-2.849
X5.4783Y-3.3265
X5.4864Y-3.1958
X5.5018Y-3.0635
X5.5025Y-2.9508
X5.5268Y-4.0177
X5.5386Y-3.7024
X5.6035Y-4.9269
X5.6486Y-3.0407
X5.6495Y-3.3221
X5.6539Y-3.5941
X5.7424Y-3.5527
X5.801Y-3.0921
X5.8254Y-3.0504
X5.8449Y-3.6051
X5.8827Y-4.9925
X5.8994Y-3.5402
X5.9074Y-3.3403
X5.9125Y-3.1566
X5.9342Y-2.8827
X5.9365Y-3.6876
X5.9373Y-3.7964
X5.9504Y-3.1275
X5.9589Y-3.755
X5.9669Y-4.9626
X5.9862Y-3.22
X6.0161Y-3.7687
X6.0435Y-3.7098
X6.0768Y-5.1512
X6.1051Y-4.4449
X6.1179Y-3.2402
X6.1699Y-3.5172
X6.2224Y-4.086
X6.2559Y-3.669
X6.3403Y-3.5402
X6.3962Y-3.5402
X6.4042Y-4.3829
X6.4147Y-3.7311
X6.4799Y-4.3597
X6.4945Y-4.6413
X6.4972Y-4.7732
X6.5285Y-4.1224
X6.5338Y-3.4837
X6.5366Y-4.9268
X6.6129Y-3.9507
X6.6382Y-3.7144
X6.6768Y-4.2084
X6.6877Y-4.6361
X6.6984Y-3.6285
X6.717Y-3.7702
X6.7304Y-4.2088
X6.7933Y-4.6074
X6.8063Y-4.2084
X6.8209Y-3.7709
X6.9366Y-3.8326
X6.9534Y-3.6302
X6.9558Y-4.3687
X7.0236Y-3.7515
X7.1098Y-3.6298
X7.1119Y-4.3607
X7.3474Y-3.7271
X7.3755Y-3.6391
X7.3811Y-3.7756
T2
X3.9803Y-4.4681
X3.9803Y-4.5681
X3.9803Y-4.6681
X3.9913Y-4.2248
X3.9913Y-4.3248
X4.065Y-2.848
X4.1163Y-4.2248
X4.1163Y-4.3248
X4.165Y-2.848
X4.2413Y-4.2248
X4.2413Y-4.3248
X4.2803Y-4.4681
X4.2803Y-4.5681
X4.2803Y-4.6681
X4.3571Y-3.9169
X4.3571Y-4.0169
X4.3772Y-3.7319
X4.4772Y-3.7319
X4.589Y-3.7319
X4.602Y-4.8299
X4.6571Y-3.9169
X4.6571Y-4.0169
X4.689Y-3.7319
X4.7433Y-4.6425
X4.7833Y-3.8151
X4.7833Y-3.9155
X4.7833Y-4.2504
X4.7833Y-4.3504
X4.7833Y-4.4504
X4.8085Y-4.0228
X4.8085Y-4.1228
X4.8433Y-4.6425
X4.8823Y-3.7059
X4.902Y-4.8299
X4.9476Y-4.0228
X4.9476Y-4.1228
X4.9608Y-4.6449
X4.9823Y-3.7059
X5.0161Y-4.8299
X5.0608Y-4.6449
X5.0833Y-3.8151
X5.0833Y-3.9155
X5.0833Y-4.2504
X5.0833Y-4.3504
X5.0833Y-4.4504
X5.0866Y-4.0228
X5.0866Y-4.1228
X5.1768Y-4.6449
X5.215Y-4.3437
X5.215Y-4.4437
X5.2768Y-4.6449
X5.278Y-3.8819
X5.3161Y-4.8299
X5.378Y-3.8819
X5.4756Y-4.5539
X5.4756Y-4.8539
X5.511Y-3.8823
X5.5756Y-4.5539
X5.5756Y-4.8539
X5.611Y-3.8823
X5.6756Y-4.5539
X5.6756Y-4.8539
X5.6886Y-2.8413
X5.6886Y-3.4413
X5.7622Y-4.2441
X5.7713Y-3.7421
X5.774Y-3.9783
X5.7756Y-4.5539
X5.7756Y-4.8539
X5.7886Y-2.8413
X5.7886Y-3.4413
X5.7909Y-4.4272
X5.8622Y-4.2441
X5.8713Y-3.7421
X5.874Y-3.9783
X5.8756Y-4.5539
X5.8756Y-4.8539
X5.8795Y-3.8591
X5.8886Y-2.8413
X5.8886Y-3.4413
X5.8909Y-4.4272
X5.9756Y-4.5539
X5.9756Y-4.8539
X5.9886Y-2.8413
X5.9886Y-3.4413
X6.0756Y-4.5539
X6.0756Y-4.8539
X6.0886Y-2.8413
X6.0886Y-3.4413
X6.0969Y-4.0873
X6.0969Y-4.2773
X6.1756Y-4.5539
X6.1756Y-4.8539
X6.1795Y-3.8591
X6.1886Y-2.8413
X6.1886Y-3.4413
X6.2756Y-4.5539
X6.2756Y-4.8539
X6.2886Y-2.8413
X6.2886Y-3.4413
X6.3756Y-4.5539
X6.3756Y-4.8539
X6.3886Y-2.8413
X6.3886Y-3.4413
X6.4886Y-2.8413
X6.4886Y-3.4413
X6.5886Y-2.8413
X6.5886Y-3.4413
X6.6886Y-2.8413
X6.6886Y-3.4413
X6.7886Y-2.8413
X6.7886Y-3.4413
X6.8886Y-2.8413
X6.8886Y-3.4413
X6.9886Y-2.8413
X6.9886Y-3.4413
X7.0783Y-4.6594
X7.0886Y-2.8413
X7.0886Y-3.4413
X7.1783Y-4.6594
X7.1886Y-2.8413
X7.1886Y-3.4413
X7.2886Y-2.8413
X7.2886Y-3.4413
X7.3886Y-2.8413
X7.3886Y-3.4413
X7.4886Y-2.8413
X7.4886Y-3.4413
X7.5886Y-2.8413
X7.5886Y-3.4413
X7.6594Y-3.6311
X7.6594Y-3.7311
X7.6886Y-2.8413
X7.6886Y-3.4413
T3
X4.0067Y-3.2254
X4.2232Y-3.0285
X4.2232Y-3.127
X4.2232Y-3.3238
X4.2232Y-3.4222
T0
M30
