%TF.GenerationSoftware,KiCad,Pcbnew,(6.0.5)*%
%TF.CreationDate,2022-11-15T11:28:17-03:00*%
%TF.ProjectId,MSX OPL4 Wozblaster,4d535820-4f50-44c3-9420-576f7a626c61,rev?*%
%TF.SameCoordinates,Original*%
%TF.FileFunction,Soldermask,Bot*%
%TF.FilePolarity,Negative*%
%FSLAX46Y46*%
G04 Gerber Fmt 4.6, Leading zero omitted, Abs format (unit mm)*
G04 Created by KiCad (PCBNEW (6.0.5)) date 2022-11-15 11:28:17*
%MOMM*%
%LPD*%
G01*
G04 APERTURE LIST*
G04 Aperture macros list*
%AMRoundRect*
0 Rectangle with rounded corners*
0 $1 Rounding radius*
0 $2 $3 $4 $5 $6 $7 $8 $9 X,Y pos of 4 corners*
0 Add a 4 corners polygon primitive as box body*
4,1,4,$2,$3,$4,$5,$6,$7,$8,$9,$2,$3,0*
0 Add four circle primitives for the rounded corners*
1,1,$1+$1,$2,$3*
1,1,$1+$1,$4,$5*
1,1,$1+$1,$6,$7*
1,1,$1+$1,$8,$9*
0 Add four rect primitives between the rounded corners*
20,1,$1+$1,$2,$3,$4,$5,0*
20,1,$1+$1,$4,$5,$6,$7,0*
20,1,$1+$1,$6,$7,$8,$9,0*
20,1,$1+$1,$8,$9,$2,$3,0*%
%AMFreePoly0*
4,1,25,0.459769,0.882296,0.471892,0.871942,0.871942,0.471892,0.900449,0.415944,0.901700,0.400050,0.901700,-0.400050,0.882296,-0.459769,0.871942,-0.471892,0.471892,-0.871942,0.415944,-0.900449,0.400050,-0.901700,-0.400050,-0.901700,-0.459769,-0.882296,-0.471892,-0.871942,-0.871942,-0.471892,-0.900449,-0.415944,-0.901700,-0.400050,-0.901700,0.400050,-0.882296,0.459769,-0.871942,0.471892,
-0.471892,0.871942,-0.415944,0.900449,-0.400050,0.901700,0.400050,0.901700,0.459769,0.882296,0.459769,0.882296,$1*%
%AMFreePoly1*
4,1,25,0.389919,0.742596,0.402042,0.732242,0.732242,0.402042,0.760749,0.346094,0.762000,0.330200,0.762000,-0.330200,0.742596,-0.389919,0.732242,-0.402042,0.402042,-0.732242,0.346094,-0.760749,0.330200,-0.762000,-0.330200,-0.762000,-0.389919,-0.742596,-0.402042,-0.732242,-0.732242,-0.402042,-0.760749,-0.346094,-0.762000,-0.330200,-0.762000,0.330200,-0.742596,0.389919,-0.732242,0.402042,
-0.402042,0.732242,-0.346094,0.760749,-0.330200,0.762000,0.330200,0.762000,0.389919,0.742596,0.389919,0.742596,$1*%
G04 Aperture macros list end*
%ADD10RoundRect,0.101600X0.635000X3.660000X-0.635000X3.660000X-0.635000X-3.660000X0.635000X-3.660000X0*%
%ADD11RoundRect,0.101600X0.900000X0.650000X-0.900000X0.650000X-0.900000X-0.650000X0.900000X-0.650000X0*%
%ADD12RoundRect,0.101600X-0.650000X0.900000X-0.650000X-0.900000X0.650000X-0.900000X0.650000X0.900000X0*%
%ADD13FreePoly0,0.000000*%
%ADD14C,1.803400*%
%ADD15RoundRect,0.101600X-1.100000X0.300000X-1.100000X-0.300000X1.100000X-0.300000X1.100000X0.300000X0*%
%ADD16C,1.524000*%
%ADD17C,1.473200*%
%ADD18FreePoly1,0.000000*%
%ADD19FreePoly1,180.000000*%
%ADD20FreePoly0,180.000000*%
%ADD21FreePoly0,90.000000*%
G04 APERTURE END LIST*
D10*
%TO.C,IC1*%
X173400000Y-130840000D03*
X170860000Y-130840000D03*
X168320000Y-130840000D03*
X165780000Y-130840000D03*
X163240000Y-130840000D03*
X160700000Y-130840000D03*
X158160000Y-130840000D03*
X155620000Y-130840000D03*
X153080000Y-130840000D03*
X150540000Y-130840000D03*
X148000000Y-130840000D03*
X145460000Y-130840000D03*
X142920000Y-130840000D03*
X140380000Y-130840000D03*
X137840000Y-130840000D03*
X135300000Y-130840000D03*
X132760000Y-130840000D03*
X130220000Y-130840000D03*
X127680000Y-130840000D03*
X125140000Y-130840000D03*
X122600000Y-130840000D03*
X120060000Y-130840000D03*
X117520000Y-130840000D03*
X114980000Y-130840000D03*
X112440000Y-130840000D03*
%TD*%
D11*
%TO.C,U$6*%
X107270000Y-86925000D03*
X107270000Y-84425000D03*
X107270000Y-79425000D03*
X107270000Y-76925000D03*
D12*
X101770000Y-81925000D03*
%TD*%
D13*
%TO.C,C10*%
X119100000Y-94790000D03*
D14*
X116560000Y-94790000D03*
%TD*%
D15*
%TO.C,U$4*%
X123766000Y-73555000D03*
X123766000Y-87525000D03*
X123766000Y-72285000D03*
X123766000Y-74825000D03*
X123766000Y-76095000D03*
X123766000Y-88795000D03*
X123766000Y-86255000D03*
X123766000Y-84985000D03*
X123766000Y-78635000D03*
X123766000Y-82445000D03*
X123766000Y-77365000D03*
X123766000Y-79905000D03*
X123766000Y-83715000D03*
X123766000Y-81175000D03*
X123766000Y-90065000D03*
X123766000Y-91335000D03*
X110934000Y-91335000D03*
X110934000Y-90065000D03*
X110934000Y-88795000D03*
X110934000Y-87525000D03*
X110934000Y-86255000D03*
X110934000Y-84985000D03*
X110934000Y-83715000D03*
X110934000Y-82445000D03*
X110934000Y-81175000D03*
X110934000Y-79905000D03*
X110934000Y-78635000D03*
X110934000Y-77365000D03*
X110934000Y-76095000D03*
X110934000Y-74825000D03*
X110934000Y-73555000D03*
X110934000Y-72285000D03*
%TD*%
D16*
%TO.C,IC4*%
X144490000Y-72170000D03*
X147030000Y-72170000D03*
X149570000Y-72170000D03*
X152110000Y-72170000D03*
X154650000Y-72170000D03*
X157190000Y-72170000D03*
X159730000Y-72170000D03*
X162270000Y-72170000D03*
X164810000Y-72170000D03*
X167350000Y-72170000D03*
X169890000Y-72170000D03*
X172430000Y-72170000D03*
X174970000Y-72170000D03*
X177510000Y-72170000D03*
X180050000Y-72170000D03*
X182590000Y-72170000D03*
X185130000Y-72170000D03*
X187670000Y-72170000D03*
X190210000Y-72170000D03*
X192750000Y-72170000D03*
X195290000Y-72170000D03*
X195290000Y-87410000D03*
X192750000Y-87410000D03*
X190210000Y-87410000D03*
X187670000Y-87410000D03*
X185130000Y-87410000D03*
X182590000Y-87410000D03*
X180050000Y-87410000D03*
X177510000Y-87410000D03*
X174970000Y-87410000D03*
X172430000Y-87410000D03*
X169890000Y-87410000D03*
X167350000Y-87410000D03*
X164810000Y-87410000D03*
X162270000Y-87410000D03*
X159730000Y-87410000D03*
X157190000Y-87410000D03*
X154650000Y-87410000D03*
X152110000Y-87410000D03*
X149570000Y-87410000D03*
X147030000Y-87410000D03*
X144490000Y-87410000D03*
%TD*%
%TO.C,IC5*%
X139080000Y-123290000D03*
X141620000Y-123290000D03*
X144160000Y-123290000D03*
X146700000Y-123290000D03*
X149240000Y-123290000D03*
X151780000Y-123290000D03*
X154320000Y-123290000D03*
X156860000Y-123290000D03*
X159400000Y-123290000D03*
X161940000Y-123290000D03*
X161940000Y-115670000D03*
X159400000Y-115670000D03*
X156860000Y-115670000D03*
X154320000Y-115670000D03*
X151780000Y-115670000D03*
X149240000Y-115670000D03*
X146700000Y-115670000D03*
X144160000Y-115670000D03*
X141620000Y-115670000D03*
X139080000Y-115670000D03*
%TD*%
D15*
%TO.C,U$5*%
X141486000Y-73555000D03*
X141486000Y-87525000D03*
X141486000Y-72285000D03*
X141486000Y-74825000D03*
X141486000Y-76095000D03*
X141486000Y-88795000D03*
X141486000Y-86255000D03*
X141486000Y-84985000D03*
X141486000Y-78635000D03*
X141486000Y-82445000D03*
X141486000Y-77365000D03*
X141486000Y-79905000D03*
X141486000Y-83715000D03*
X141486000Y-81175000D03*
X141486000Y-90065000D03*
X141486000Y-91335000D03*
X128654000Y-91335000D03*
X128654000Y-90065000D03*
X128654000Y-88795000D03*
X128654000Y-87525000D03*
X128654000Y-86255000D03*
X128654000Y-84985000D03*
X128654000Y-83715000D03*
X128654000Y-82445000D03*
X128654000Y-81175000D03*
X128654000Y-79905000D03*
X128654000Y-78635000D03*
X128654000Y-77365000D03*
X128654000Y-76095000D03*
X128654000Y-74825000D03*
X128654000Y-73555000D03*
X128654000Y-72285000D03*
%TD*%
D17*
%TO.C,C7*%
X131490000Y-117980000D03*
X134030000Y-117980000D03*
%TD*%
D18*
%TO.C,R1*%
X124510000Y-122680000D03*
X116890000Y-122680000D03*
%TD*%
D19*
%TO.C,R2*%
X127410000Y-122680000D03*
X135030000Y-122680000D03*
%TD*%
%TO.C,R3*%
X108720000Y-118570000D03*
X101100000Y-118570000D03*
%TD*%
D18*
%TO.C,R4*%
X101100000Y-116030000D03*
X108720000Y-116030000D03*
%TD*%
D19*
%TO.C,R5*%
X108720000Y-113490000D03*
X101100000Y-113490000D03*
%TD*%
D18*
%TO.C,R6*%
X118290000Y-99490000D03*
X110670000Y-99490000D03*
%TD*%
D19*
%TO.C,R7*%
X110670000Y-102030000D03*
X118290000Y-102030000D03*
%TD*%
%TO.C,R8*%
X121496100Y-96903600D03*
X129116100Y-96903600D03*
%TD*%
%TO.C,R9*%
X121496100Y-99453600D03*
X129116100Y-99453600D03*
%TD*%
D18*
%TO.C,R10*%
X121496100Y-113040000D03*
X129116100Y-113040000D03*
%TD*%
D19*
%TO.C,R11*%
X129116100Y-110500000D03*
X121496100Y-110500000D03*
%TD*%
D18*
%TO.C,R12*%
X121496100Y-107960000D03*
X129116100Y-107960000D03*
%TD*%
D17*
%TO.C,C11*%
X107730000Y-107310000D03*
X107730000Y-109850000D03*
%TD*%
%TO.C,C2*%
X101380000Y-107310000D03*
X101380000Y-109850000D03*
%TD*%
%TO.C,C3*%
X104555000Y-107310000D03*
X104555000Y-109850000D03*
%TD*%
D16*
%TO.C,Q1*%
X154860000Y-103817000D03*
X154860000Y-108643000D03*
%TD*%
D18*
%TO.C,R13*%
X149340000Y-98020000D03*
X156960000Y-98020000D03*
%TD*%
D20*
%TO.C,C8*%
X146360000Y-107800000D03*
D14*
X148900000Y-107800000D03*
%TD*%
%TO.C,C9*%
X111180000Y-94790000D03*
D13*
X113720000Y-94790000D03*
%TD*%
D17*
%TO.C,C6*%
X128545000Y-117980000D03*
X126005000Y-117980000D03*
%TD*%
%TO.C,C12*%
X122136100Y-104720000D03*
X122136100Y-102180000D03*
%TD*%
%TO.C,C5*%
X125668100Y-104720000D03*
X125668100Y-102180000D03*
%TD*%
%TO.C,C4*%
X129200000Y-104720000D03*
X129200000Y-102180000D03*
%TD*%
%TO.C,C1*%
X132460000Y-110330000D03*
X132460000Y-112870000D03*
%TD*%
%TO.C,C16*%
X182330000Y-118350000D03*
X179790000Y-118350000D03*
%TD*%
%TO.C,C17*%
X134060000Y-98600000D03*
X136600000Y-98600000D03*
%TD*%
%TO.C,C18*%
X103250000Y-72340000D03*
X105790000Y-72340000D03*
%TD*%
%TO.C,C13*%
X142520000Y-98610000D03*
X139980000Y-98610000D03*
%TD*%
%TO.C,C14*%
X149130000Y-95050000D03*
X146590000Y-95050000D03*
%TD*%
%TO.C,C15*%
X149200000Y-101050000D03*
X146660000Y-101050000D03*
%TD*%
%TO.C,C19*%
X120480000Y-117920000D03*
X123020000Y-117920000D03*
%TD*%
%TO.C,C20*%
X124010000Y-94130000D03*
X126550000Y-94130000D03*
%TD*%
D14*
%TO.C,C21*%
X194550000Y-94770000D03*
D21*
X194550000Y-92230000D03*
%TD*%
D17*
%TO.C,C23*%
X147090000Y-112450000D03*
X149630000Y-112450000D03*
%TD*%
M02*
