%TF.GenerationSoftware,KiCad,Pcbnew,(6.0.5)*%
%TF.CreationDate,2022-11-15T11:28:17-03:00*%
%TF.ProjectId,MSX OPL4 Wozblaster,4d535820-4f50-44c3-9420-576f7a626c61,rev?*%
%TF.SameCoordinates,Original*%
%TF.FileFunction,Paste,Top*%
%TF.FilePolarity,Positive*%
%FSLAX46Y46*%
G04 Gerber Fmt 4.6, Leading zero omitted, Abs format (unit mm)*
G04 Created by KiCad (PCBNEW (6.0.5)) date 2022-11-15 11:28:17*
%MOMM*%
%LPD*%
G01*
G04 APERTURE LIST*
%ADD10R,0.400000X2.000000*%
%ADD11R,2.000000X0.400000*%
%ADD12R,1.500000X0.650000*%
%ADD13R,0.600000X2.200000*%
%ADD14R,2.200000X0.600000*%
%ADD15R,2.550000X2.700000*%
G04 APERTURE END LIST*
D10*
%TO.C,IC2*%
X163790000Y-108520000D03*
X164590000Y-108520000D03*
X165390000Y-108520000D03*
X166190000Y-108520000D03*
X166990000Y-108520000D03*
X167790000Y-108520000D03*
X168590000Y-108520000D03*
X169390000Y-108520000D03*
X170190000Y-108520000D03*
X170990000Y-108520000D03*
X171790000Y-108520000D03*
X172590000Y-108520000D03*
X173390000Y-108520000D03*
X174190000Y-108520000D03*
X174990000Y-108520000D03*
X175790000Y-108520000D03*
X176590000Y-108520000D03*
X177390000Y-108520000D03*
X178190000Y-108520000D03*
X178990000Y-108520000D03*
X179790000Y-108520000D03*
X180590000Y-108520000D03*
X181390000Y-108520000D03*
X182190000Y-108520000D03*
D11*
X160990000Y-105520000D03*
X160990000Y-104720000D03*
X160990000Y-103920000D03*
X160990000Y-103120000D03*
X160990000Y-102320000D03*
X160990000Y-101520000D03*
X160990000Y-100720000D03*
X160990000Y-99920000D03*
X160990000Y-99120000D03*
X160990000Y-98320000D03*
X160990000Y-97520000D03*
X160990000Y-96720000D03*
X160990000Y-95920000D03*
X160990000Y-95120000D03*
X160990000Y-94320000D03*
X160990000Y-93520000D03*
D10*
X163790000Y-90520000D03*
X164590000Y-90520000D03*
X165390000Y-90520000D03*
X166190000Y-90520000D03*
X166990000Y-90520000D03*
X167790000Y-90520000D03*
X168590000Y-90520000D03*
X169390000Y-90520000D03*
X170190000Y-90520000D03*
X170990000Y-90520000D03*
X171790000Y-90520000D03*
X172590000Y-90520000D03*
X173390000Y-90520000D03*
X174190000Y-90520000D03*
X174990000Y-90520000D03*
X175790000Y-90520000D03*
X176590000Y-90520000D03*
X177390000Y-90520000D03*
X178190000Y-90520000D03*
X178990000Y-90520000D03*
X179790000Y-90520000D03*
X180590000Y-90520000D03*
X181390000Y-90520000D03*
X182190000Y-90520000D03*
D11*
X184990000Y-93520000D03*
X184990000Y-94320000D03*
X184990000Y-95120000D03*
X184990000Y-95920000D03*
X184990000Y-96720000D03*
X184990000Y-97520000D03*
X184990000Y-98320000D03*
X184990000Y-99120000D03*
X184990000Y-99920000D03*
X184990000Y-100720000D03*
X184990000Y-101520000D03*
X184990000Y-102320000D03*
X184990000Y-103120000D03*
X184990000Y-103920000D03*
X184990000Y-104720000D03*
X184990000Y-105520000D03*
%TD*%
D12*
%TO.C,IC3*%
X135630000Y-112892500D03*
X142630000Y-104002500D03*
X135630000Y-111622500D03*
X135630000Y-110352500D03*
X135620000Y-109082500D03*
X135620000Y-107812500D03*
X135620000Y-106542500D03*
X135610000Y-105272500D03*
X135610000Y-104002500D03*
X142640000Y-112892500D03*
X142640000Y-111622500D03*
X142650000Y-110352500D03*
X142640000Y-109082500D03*
X142640000Y-107812500D03*
X142640000Y-106542500D03*
X142630000Y-105272500D03*
%TD*%
D13*
%TO.C,U$2*%
X132920000Y-93280000D03*
X132920000Y-88080000D03*
X131650000Y-93280000D03*
X134190000Y-93280000D03*
X135460000Y-93280000D03*
X131650000Y-88080000D03*
X134190000Y-88080000D03*
X135460000Y-88080000D03*
X138000000Y-93280000D03*
X138000000Y-88080000D03*
X136730000Y-93280000D03*
X139270000Y-93280000D03*
X136730000Y-88080000D03*
X139270000Y-88080000D03*
%TD*%
D14*
%TO.C,U$3*%
X112546100Y-104733600D03*
X112546100Y-107273600D03*
X117746100Y-104733600D03*
X117746100Y-107273600D03*
X112546100Y-106003600D03*
X117746100Y-106003600D03*
X112546100Y-108543600D03*
X112546100Y-109813600D03*
X112546100Y-112353600D03*
X117746100Y-108543600D03*
X117746100Y-109813600D03*
X117746100Y-112353600D03*
X112546100Y-111083600D03*
X117746100Y-111083600D03*
%TD*%
D15*
%TO.C,C22*%
X107715000Y-93430000D03*
X101365000Y-93430000D03*
%TD*%
M02*
