%TF.GenerationSoftware,KiCad,Pcbnew,(6.0.5)*%
%TF.CreationDate,2022-11-15T11:28:17-03:00*%
%TF.ProjectId,MSX OPL4 Wozblaster,4d535820-4f50-44c3-9420-576f7a626c61,rev?*%
%TF.SameCoordinates,Original*%
%TF.FileFunction,Legend,Bot*%
%TF.FilePolarity,Positive*%
%FSLAX46Y46*%
G04 Gerber Fmt 4.6, Leading zero omitted, Abs format (unit mm)*
G04 Created by KiCad (PCBNEW (6.0.5)) date 2022-11-15 11:28:17*
%MOMM*%
%LPD*%
G01*
G04 APERTURE LIST*
%ADD10C,0.101600*%
%ADD11C,0.254000*%
G04 APERTURE END LIST*
D10*
%TO.C,U$4*%
X121455769Y-74145961D02*
X121455769Y-75091809D01*
X121400131Y-75203085D01*
X121344493Y-75258723D01*
X121233217Y-75314361D01*
X121010664Y-75314361D01*
X120899388Y-75258723D01*
X120843750Y-75203085D01*
X120788112Y-75091809D01*
X120788112Y-74145961D01*
X120287369Y-75258723D02*
X120120455Y-75314361D01*
X119842264Y-75314361D01*
X119730988Y-75258723D01*
X119675350Y-75203085D01*
X119619712Y-75091809D01*
X119619712Y-74980533D01*
X119675350Y-74869257D01*
X119730988Y-74813619D01*
X119842264Y-74757980D01*
X120064817Y-74702342D01*
X120176093Y-74646704D01*
X120231731Y-74591066D01*
X120287369Y-74479790D01*
X120287369Y-74368514D01*
X120231731Y-74257238D01*
X120176093Y-74201600D01*
X120064817Y-74145961D01*
X119786626Y-74145961D01*
X119619712Y-74201600D01*
X119953540Y-73979047D02*
X119953540Y-75481276D01*
X118618226Y-74535428D02*
X118618226Y-75314361D01*
X118896417Y-74090323D02*
X119174607Y-74924895D01*
X118451312Y-74924895D01*
%TO.C,U$5*%
X139305769Y-74145961D02*
X139305769Y-75091809D01*
X139250131Y-75203085D01*
X139194493Y-75258723D01*
X139083217Y-75314361D01*
X138860664Y-75314361D01*
X138749388Y-75258723D01*
X138693750Y-75203085D01*
X138638112Y-75091809D01*
X138638112Y-74145961D01*
X138137369Y-75258723D02*
X137970455Y-75314361D01*
X137692264Y-75314361D01*
X137580988Y-75258723D01*
X137525350Y-75203085D01*
X137469712Y-75091809D01*
X137469712Y-74980533D01*
X137525350Y-74869257D01*
X137580988Y-74813619D01*
X137692264Y-74757980D01*
X137914817Y-74702342D01*
X138026093Y-74646704D01*
X138081731Y-74591066D01*
X138137369Y-74479790D01*
X138137369Y-74368514D01*
X138081731Y-74257238D01*
X138026093Y-74201600D01*
X137914817Y-74145961D01*
X137636626Y-74145961D01*
X137469712Y-74201600D01*
X137803540Y-73979047D02*
X137803540Y-75481276D01*
X136412588Y-74145961D02*
X136968969Y-74145961D01*
X137024607Y-74702342D01*
X136968969Y-74646704D01*
X136857693Y-74591066D01*
X136579502Y-74591066D01*
X136468226Y-74646704D01*
X136412588Y-74702342D01*
X136356950Y-74813619D01*
X136356950Y-75091809D01*
X136412588Y-75203085D01*
X136468226Y-75258723D01*
X136579502Y-75314361D01*
X136857693Y-75314361D01*
X136968969Y-75258723D01*
X137024607Y-75203085D01*
%TO.C,GTRH*%
G36*
X191834050Y-85012449D02*
G01*
X191882417Y-85019404D01*
X191917838Y-85029881D01*
X191936800Y-85040569D01*
X191971005Y-85075711D01*
X191992257Y-85124483D01*
X191999561Y-85185000D01*
X191998120Y-85213039D01*
X191984537Y-85268604D01*
X191957445Y-85311592D01*
X191917838Y-85340118D01*
X191912099Y-85342468D01*
X191874583Y-85351906D01*
X191825187Y-85358116D01*
X191770464Y-85360734D01*
X191716968Y-85359400D01*
X191671250Y-85353750D01*
X191640000Y-85347500D01*
X191640000Y-85190000D01*
X191718905Y-85190000D01*
X191721953Y-85237500D01*
X191723213Y-85254178D01*
X191727293Y-85275157D01*
X191736487Y-85284657D01*
X191754412Y-85288348D01*
X191785391Y-85289433D01*
X191828141Y-85284613D01*
X191865688Y-85274041D01*
X191890721Y-85259279D01*
X191896352Y-85251657D01*
X191906254Y-85222946D01*
X191910480Y-85186083D01*
X191908511Y-85149014D01*
X191899830Y-85119682D01*
X191896188Y-85114309D01*
X191871597Y-85097684D01*
X191832924Y-85087168D01*
X191784219Y-85083174D01*
X191729534Y-85086118D01*
X191672918Y-85096416D01*
X191669490Y-85097238D01*
X191656526Y-85097627D01*
X191651098Y-85087581D01*
X191650000Y-85062334D01*
X191650019Y-85057452D01*
X191652150Y-85033729D01*
X191661039Y-85022237D01*
X191681250Y-85016250D01*
X191725697Y-85010676D01*
X191779541Y-85009409D01*
X191834050Y-85012449D01*
G37*
G36*
X189834570Y-85210169D02*
G01*
X189829309Y-85258858D01*
X189816400Y-85294247D01*
X189793755Y-85320677D01*
X189759290Y-85342484D01*
X189723283Y-85354177D01*
X189673763Y-85360223D01*
X189619986Y-85359797D01*
X189569473Y-85352984D01*
X189529748Y-85339871D01*
X189508714Y-85327668D01*
X189479342Y-85300359D01*
X189461748Y-85263721D01*
X189452973Y-85212857D01*
X189451436Y-85187198D01*
X189451949Y-85180657D01*
X189540000Y-85180657D01*
X189541041Y-85209377D01*
X189548205Y-85243229D01*
X189564176Y-85264932D01*
X189591282Y-85278948D01*
X189612137Y-85284520D01*
X189654232Y-85287463D01*
X189693880Y-85281083D01*
X189725498Y-85266616D01*
X189743504Y-85245294D01*
X189744627Y-85241981D01*
X189749073Y-85213594D01*
X189749580Y-85177691D01*
X189746413Y-85143361D01*
X189739837Y-85119695D01*
X189721878Y-85102749D01*
X189690329Y-85089484D01*
X189652528Y-85082664D01*
X189615407Y-85084263D01*
X189595570Y-85089155D01*
X189563294Y-85106965D01*
X189545473Y-85136568D01*
X189540000Y-85180657D01*
X189451949Y-85180657D01*
X189456221Y-85126181D01*
X189474600Y-85078496D01*
X189507008Y-85042770D01*
X189517787Y-85034895D01*
X189536765Y-85024156D01*
X189558706Y-85017680D01*
X189589291Y-85014095D01*
X189634196Y-85012028D01*
X189657689Y-85011569D01*
X189713210Y-85014509D01*
X189755070Y-85024833D01*
X189787389Y-85043940D01*
X189814290Y-85073233D01*
X189823632Y-85088487D01*
X189830635Y-85109985D01*
X189834081Y-85140301D01*
X189834850Y-85177691D01*
X189835000Y-85185000D01*
X189834570Y-85210169D01*
G37*
G36*
X189096615Y-85011319D02*
G01*
X189155706Y-85021032D01*
X189199138Y-85041894D01*
X189228363Y-85075267D01*
X189244833Y-85122515D01*
X189250000Y-85185000D01*
X189246831Y-85237359D01*
X189234310Y-85284142D01*
X189211052Y-85317797D01*
X189175759Y-85341048D01*
X189158551Y-85347175D01*
X189114783Y-85355735D01*
X189062464Y-85359971D01*
X189008864Y-85359453D01*
X188961250Y-85353750D01*
X188959474Y-85353389D01*
X188939902Y-85347066D01*
X188931676Y-85334559D01*
X188930000Y-85309000D01*
X188930053Y-85297541D01*
X188932271Y-85279100D01*
X188941434Y-85274078D01*
X188962500Y-85277700D01*
X188981409Y-85280667D01*
X189017797Y-85283739D01*
X189057223Y-85284950D01*
X189079106Y-85284400D01*
X189119765Y-85277489D01*
X189145483Y-85260534D01*
X189159123Y-85230864D01*
X189163550Y-85185807D01*
X189163162Y-85164161D01*
X189155860Y-85125809D01*
X189137509Y-85101487D01*
X189105499Y-85088724D01*
X189057223Y-85085049D01*
X189028735Y-85085710D01*
X188990535Y-85088346D01*
X188962500Y-85092299D01*
X188952818Y-85094381D01*
X188936836Y-85095296D01*
X188930883Y-85085760D01*
X188930000Y-85061000D01*
X188930004Y-85058811D01*
X188931960Y-85034306D01*
X188940776Y-85022409D01*
X188961250Y-85016250D01*
X188985591Y-85013230D01*
X189022862Y-85010993D01*
X189063750Y-85010219D01*
X189096615Y-85011319D01*
G37*
G36*
X188866811Y-85237690D02*
G01*
X188854609Y-85282630D01*
X188831755Y-85315405D01*
X188796660Y-85339363D01*
X188773654Y-85348879D01*
X188733976Y-85357430D01*
X188682179Y-85359992D01*
X188649557Y-85359075D01*
X188595694Y-85351104D01*
X188553961Y-85333728D01*
X188520000Y-85305483D01*
X188510437Y-85294221D01*
X188502121Y-85279339D01*
X188497471Y-85259521D01*
X188495445Y-85229747D01*
X188495000Y-85185000D01*
X188575000Y-85185000D01*
X188576353Y-85215862D01*
X188582882Y-85241935D01*
X188596666Y-85261109D01*
X188621207Y-85276911D01*
X188666666Y-85286810D01*
X188688755Y-85287538D01*
X188734599Y-85279078D01*
X188766626Y-85256463D01*
X188784158Y-85220345D01*
X188786517Y-85171379D01*
X188778076Y-85131862D01*
X188759161Y-85104386D01*
X188727357Y-85089486D01*
X188680000Y-85085000D01*
X188664620Y-85085313D01*
X188621685Y-85092038D01*
X188594093Y-85109316D01*
X188579360Y-85139515D01*
X188575000Y-85185000D01*
X188495000Y-85185000D01*
X188495241Y-85149014D01*
X188496812Y-85116248D01*
X188500768Y-85094589D01*
X188508150Y-85079018D01*
X188520000Y-85064516D01*
X188535400Y-85049687D01*
X188572749Y-85026661D01*
X188620008Y-85013920D01*
X188681522Y-85010000D01*
X188712494Y-85010909D01*
X188772667Y-85020484D01*
X188817203Y-85041472D01*
X188847403Y-85075082D01*
X188864568Y-85122521D01*
X188868816Y-85171379D01*
X188870000Y-85185000D01*
X188866811Y-85237690D01*
G37*
G36*
X187251640Y-85134669D02*
G01*
X187252077Y-85148692D01*
X187254903Y-85202622D01*
X187260403Y-85240138D01*
X187270433Y-85264186D01*
X187286846Y-85277714D01*
X187311497Y-85283669D01*
X187346241Y-85285000D01*
X187348237Y-85284996D01*
X187383347Y-85282897D01*
X187408267Y-85274997D01*
X187424696Y-85258473D01*
X187434330Y-85230497D01*
X187438866Y-85188245D01*
X187440000Y-85128892D01*
X187440000Y-85020000D01*
X187521550Y-85020000D01*
X187518275Y-85153982D01*
X187517811Y-85171592D01*
X187515324Y-85228169D01*
X187510743Y-85269117D01*
X187502743Y-85297903D01*
X187490002Y-85317996D01*
X187471196Y-85332863D01*
X187445000Y-85345974D01*
X187417018Y-85353752D01*
X187373299Y-85358476D01*
X187324797Y-85358682D01*
X187279375Y-85354386D01*
X187244898Y-85345601D01*
X187227168Y-85337061D01*
X187203527Y-85318921D01*
X187187153Y-85293542D01*
X187176887Y-85257776D01*
X187171568Y-85208478D01*
X187170038Y-85142500D01*
X187170000Y-85020000D01*
X187248279Y-85020000D01*
X187251640Y-85134669D01*
G37*
G36*
X185954050Y-85012449D02*
G01*
X186002417Y-85019404D01*
X186037838Y-85029881D01*
X186056800Y-85040569D01*
X186091005Y-85075711D01*
X186112257Y-85124483D01*
X186119561Y-85185000D01*
X186118120Y-85213039D01*
X186104537Y-85268604D01*
X186077445Y-85311592D01*
X186037838Y-85340118D01*
X186032099Y-85342468D01*
X185994583Y-85351906D01*
X185945187Y-85358116D01*
X185890464Y-85360734D01*
X185836968Y-85359400D01*
X185791250Y-85353750D01*
X185760000Y-85347500D01*
X185760000Y-85190000D01*
X185838905Y-85190000D01*
X185841953Y-85237500D01*
X185843213Y-85254178D01*
X185847293Y-85275157D01*
X185856487Y-85284657D01*
X185874412Y-85288348D01*
X185905391Y-85289433D01*
X185948141Y-85284613D01*
X185985688Y-85274041D01*
X186010721Y-85259279D01*
X186016352Y-85251657D01*
X186026254Y-85222946D01*
X186030480Y-85186083D01*
X186028511Y-85149014D01*
X186019830Y-85119682D01*
X186016188Y-85114309D01*
X185991597Y-85097684D01*
X185952924Y-85087168D01*
X185904219Y-85083174D01*
X185849534Y-85086118D01*
X185792918Y-85096416D01*
X185789490Y-85097238D01*
X185776526Y-85097627D01*
X185771098Y-85087581D01*
X185770000Y-85062334D01*
X185770019Y-85057452D01*
X185772150Y-85033729D01*
X185781039Y-85022237D01*
X185801250Y-85016250D01*
X185845697Y-85010676D01*
X185899541Y-85009409D01*
X185954050Y-85012449D01*
G37*
G36*
X195400000Y-85350000D02*
G01*
X195090000Y-85350000D01*
X195090000Y-85280655D01*
X195202500Y-85277827D01*
X195315000Y-85275000D01*
X195315000Y-85249568D01*
X195314089Y-85237722D01*
X195308783Y-85230297D01*
X195295183Y-85226048D01*
X195269388Y-85223733D01*
X195227500Y-85222110D01*
X195140000Y-85219221D01*
X195140000Y-85150778D01*
X195227500Y-85147889D01*
X195229011Y-85147839D01*
X195270365Y-85146213D01*
X195295742Y-85143859D01*
X195309041Y-85139534D01*
X195314160Y-85131995D01*
X195315000Y-85120000D01*
X195315000Y-85095000D01*
X195090000Y-85089344D01*
X195090000Y-85020000D01*
X195400000Y-85020000D01*
X195400000Y-85350000D01*
G37*
G36*
X194780513Y-85144344D02*
G01*
X194786232Y-85157527D01*
X194805680Y-85200736D01*
X194822258Y-85235163D01*
X194834362Y-85257581D01*
X194840387Y-85264761D01*
X194841015Y-85264125D01*
X194848537Y-85250855D01*
X194861973Y-85223452D01*
X194879631Y-85185459D01*
X194899817Y-85140416D01*
X194952892Y-85020000D01*
X194991446Y-85020000D01*
X194999096Y-85020149D01*
X195021192Y-85022729D01*
X195030151Y-85027500D01*
X195027494Y-85035376D01*
X195017654Y-85059011D01*
X195001840Y-85095143D01*
X194981412Y-85140672D01*
X194957730Y-85192500D01*
X194885159Y-85350000D01*
X194793541Y-85350000D01*
X194721771Y-85194703D01*
X194703163Y-85154107D01*
X194681977Y-85106958D01*
X194665133Y-85068390D01*
X194654014Y-85041580D01*
X194650000Y-85029703D01*
X194650766Y-85027779D01*
X194664010Y-85022230D01*
X194688498Y-85020000D01*
X194726995Y-85020000D01*
X194780513Y-85144344D01*
G37*
G36*
X194590000Y-85350000D02*
G01*
X194270000Y-85350000D01*
X194270000Y-85280655D01*
X194382500Y-85277827D01*
X194495000Y-85275000D01*
X194495000Y-85249568D01*
X194494089Y-85237722D01*
X194488783Y-85230297D01*
X194475183Y-85226048D01*
X194449388Y-85223733D01*
X194407500Y-85222110D01*
X194320000Y-85219221D01*
X194320000Y-85150778D01*
X194407500Y-85147889D01*
X194409011Y-85147839D01*
X194450365Y-85146213D01*
X194475742Y-85143859D01*
X194489041Y-85139534D01*
X194494160Y-85131995D01*
X194495000Y-85120000D01*
X194495000Y-85095000D01*
X194270000Y-85089344D01*
X194270000Y-85020000D01*
X194590000Y-85020000D01*
X194590000Y-85350000D01*
G37*
G36*
X194210000Y-85186166D02*
G01*
X194210000Y-85350000D01*
X194120000Y-85350000D01*
X194120000Y-85240000D01*
X194069876Y-85240000D01*
X194057608Y-85240046D01*
X194034673Y-85241823D01*
X194018806Y-85249027D01*
X194004080Y-85265479D01*
X193984569Y-85295000D01*
X193982472Y-85298272D01*
X193963104Y-85326771D01*
X193948069Y-85342284D01*
X193932041Y-85348723D01*
X193909693Y-85350000D01*
X193907200Y-85349989D01*
X193881623Y-85347216D01*
X193871483Y-85337707D01*
X193876152Y-85318805D01*
X193895000Y-85287851D01*
X193911939Y-85261740D01*
X193918219Y-85244815D01*
X193913737Y-85231052D01*
X193898842Y-85213767D01*
X193884037Y-85189391D01*
X193873603Y-85150311D01*
X193872349Y-85121520D01*
X193959634Y-85121520D01*
X193965762Y-85144261D01*
X193985651Y-85160247D01*
X194012078Y-85166140D01*
X194047766Y-85168901D01*
X194082713Y-85168060D01*
X194107500Y-85163377D01*
X194110066Y-85161898D01*
X194118307Y-85145981D01*
X194119819Y-85122114D01*
X194114984Y-85099182D01*
X194104183Y-85086069D01*
X194100822Y-85084941D01*
X194072771Y-85080743D01*
X194037082Y-85080455D01*
X194002893Y-85083762D01*
X193979343Y-85090351D01*
X193967950Y-85099574D01*
X193959634Y-85121520D01*
X193872349Y-85121520D01*
X193871759Y-85107982D01*
X193879641Y-85070867D01*
X193891659Y-85050062D01*
X193914379Y-85031132D01*
X193948412Y-85018784D01*
X193996531Y-85012095D01*
X194061512Y-85010136D01*
X194111483Y-85009885D01*
X194151387Y-85010561D01*
X194178856Y-85014873D01*
X194196187Y-85025540D01*
X194205672Y-85045283D01*
X194209606Y-85076822D01*
X194210273Y-85122114D01*
X194210284Y-85122876D01*
X194210000Y-85186166D01*
G37*
G36*
X193533640Y-85020240D02*
G01*
X193550791Y-85023266D01*
X193564833Y-85032678D01*
X193580238Y-85052062D01*
X193601480Y-85085000D01*
X193605702Y-85091678D01*
X193625394Y-85121306D01*
X193640817Y-85142133D01*
X193648933Y-85150000D01*
X193649770Y-85149694D01*
X193659388Y-85138975D01*
X193675571Y-85116017D01*
X193695316Y-85085023D01*
X193709743Y-85061676D01*
X193726145Y-85038055D01*
X193739866Y-85025644D01*
X193755464Y-85020835D01*
X193777500Y-85020023D01*
X193788535Y-85020379D01*
X193811077Y-85024131D01*
X193820000Y-85030700D01*
X193815727Y-85040636D01*
X193801956Y-85063963D01*
X193780937Y-85096537D01*
X193755000Y-85134631D01*
X193737223Y-85160262D01*
X193714878Y-85193943D01*
X193700988Y-85218892D01*
X193693547Y-85239868D01*
X193690553Y-85261628D01*
X193690000Y-85288930D01*
X193690000Y-85350000D01*
X193610000Y-85350000D01*
X193610000Y-85292423D01*
X193609871Y-85278833D01*
X193608086Y-85255670D01*
X193602650Y-85234597D01*
X193591619Y-85210986D01*
X193573050Y-85180211D01*
X193545000Y-85137646D01*
X193520813Y-85100738D01*
X193499626Y-85066873D01*
X193485279Y-85042139D01*
X193480000Y-85030222D01*
X193481086Y-85027870D01*
X193495182Y-85022248D01*
X193520363Y-85020000D01*
X193533640Y-85020240D01*
G37*
G36*
X193430000Y-85089045D02*
G01*
X193367500Y-85092022D01*
X193305000Y-85095000D01*
X193302202Y-85222500D01*
X193299403Y-85350000D01*
X193210598Y-85350000D01*
X193205000Y-85095000D01*
X193142500Y-85092022D01*
X193080000Y-85089045D01*
X193080000Y-85020000D01*
X193430000Y-85020000D01*
X193430000Y-85089045D01*
G37*
G36*
X192765000Y-85145000D02*
G01*
X192935000Y-85145000D01*
X192937978Y-85082500D01*
X192940955Y-85020000D01*
X193020000Y-85020000D01*
X193020000Y-85350000D01*
X192940955Y-85350000D01*
X192937978Y-85287500D01*
X192935000Y-85225000D01*
X192765000Y-85225000D01*
X192759046Y-85350000D01*
X192670000Y-85350000D01*
X192670000Y-85020000D01*
X192759046Y-85020000D01*
X192765000Y-85145000D01*
G37*
G36*
X192590000Y-85350000D02*
G01*
X192500000Y-85350000D01*
X192500000Y-85020000D01*
X192590000Y-85020000D01*
X192590000Y-85350000D01*
G37*
G36*
X192160000Y-85120000D02*
G01*
X192160325Y-85149060D01*
X192161855Y-85185647D01*
X192164352Y-85210701D01*
X192167500Y-85219990D01*
X192167998Y-85219854D01*
X192178099Y-85210583D01*
X192197523Y-85188863D01*
X192223693Y-85157672D01*
X192254033Y-85119990D01*
X192258883Y-85113854D01*
X192290227Y-85074578D01*
X192312721Y-85048146D01*
X192329482Y-85032016D01*
X192343627Y-85023645D01*
X192358272Y-85020487D01*
X192376533Y-85020000D01*
X192420000Y-85020000D01*
X192420000Y-85350000D01*
X192340000Y-85350000D01*
X192340000Y-85250000D01*
X192339605Y-85220935D01*
X192337742Y-85184348D01*
X192334699Y-85159292D01*
X192330864Y-85150000D01*
X192330364Y-85150104D01*
X192319824Y-85159170D01*
X192300053Y-85180761D01*
X192273687Y-85211879D01*
X192243364Y-85249522D01*
X192165000Y-85349045D01*
X192117500Y-85349522D01*
X192070000Y-85350000D01*
X192070000Y-85020000D01*
X192160000Y-85020000D01*
X192160000Y-85120000D01*
G37*
G36*
X191430000Y-85350000D02*
G01*
X191351046Y-85350000D01*
X191348023Y-85297500D01*
X191345901Y-85269085D01*
X191341293Y-85251972D01*
X191330879Y-85244647D01*
X191311117Y-85241763D01*
X191284665Y-85240528D01*
X191253668Y-85246511D01*
X191229779Y-85265097D01*
X191206924Y-85299662D01*
X191190254Y-85327957D01*
X191176650Y-85343053D01*
X191160092Y-85348975D01*
X191134424Y-85350000D01*
X191121517Y-85349723D01*
X191098938Y-85347441D01*
X191090000Y-85343605D01*
X191092964Y-85336047D01*
X191104027Y-85315433D01*
X191120472Y-85287689D01*
X191150943Y-85238167D01*
X191125472Y-85214561D01*
X191120976Y-85210236D01*
X191107741Y-85192585D01*
X191101540Y-85169922D01*
X191100000Y-85134820D01*
X191100097Y-85127700D01*
X191182231Y-85127700D01*
X191191722Y-85149946D01*
X191212391Y-85163668D01*
X191221863Y-85165806D01*
X191255288Y-85169430D01*
X191290602Y-85169120D01*
X191320580Y-85165201D01*
X191338000Y-85158000D01*
X191339264Y-85156667D01*
X191349237Y-85133627D01*
X191346028Y-85108387D01*
X191330658Y-85090351D01*
X191320906Y-85086466D01*
X191289643Y-85081172D01*
X191252707Y-85080698D01*
X191218503Y-85084853D01*
X191195437Y-85093444D01*
X191185797Y-85104704D01*
X191182231Y-85127700D01*
X191100097Y-85127700D01*
X191100188Y-85121068D01*
X191104522Y-85080403D01*
X191116435Y-85050752D01*
X191138366Y-85030501D01*
X191172758Y-85018035D01*
X191222051Y-85011739D01*
X191288686Y-85010000D01*
X191325363Y-85010334D01*
X191366874Y-85011600D01*
X191398099Y-85013590D01*
X191414183Y-85016069D01*
X191419588Y-85020095D01*
X191424038Y-85030253D01*
X191427041Y-85049104D01*
X191428860Y-85079473D01*
X191429759Y-85124186D01*
X191429796Y-85133627D01*
X191430000Y-85186069D01*
X191430000Y-85350000D01*
G37*
G36*
X191020000Y-85350000D02*
G01*
X190700000Y-85350000D01*
X190700000Y-85280655D01*
X190812500Y-85277827D01*
X190925000Y-85275000D01*
X190925000Y-85249568D01*
X190924089Y-85237722D01*
X190918783Y-85230297D01*
X190905183Y-85226048D01*
X190879388Y-85223733D01*
X190837500Y-85222110D01*
X190750000Y-85219221D01*
X190750000Y-85150778D01*
X190837500Y-85147889D01*
X190839011Y-85147839D01*
X190880365Y-85146213D01*
X190905742Y-85143859D01*
X190919041Y-85139534D01*
X190924160Y-85131995D01*
X190925000Y-85120000D01*
X190925000Y-85095000D01*
X190700000Y-85089344D01*
X190700000Y-85020000D01*
X191020000Y-85020000D01*
X191020000Y-85350000D01*
G37*
G36*
X190650000Y-85089045D02*
G01*
X190587500Y-85092022D01*
X190525000Y-85095000D01*
X190522202Y-85222500D01*
X190519403Y-85350000D01*
X190430598Y-85350000D01*
X190425000Y-85095000D01*
X190362500Y-85092022D01*
X190300000Y-85089045D01*
X190300000Y-85020000D01*
X190650000Y-85020000D01*
X190650000Y-85089045D01*
G37*
G36*
X190240000Y-85350000D02*
G01*
X190161046Y-85350000D01*
X190158023Y-85297500D01*
X190155901Y-85269085D01*
X190151293Y-85251972D01*
X190140879Y-85244647D01*
X190121117Y-85241763D01*
X190094665Y-85240528D01*
X190063668Y-85246511D01*
X190039779Y-85265097D01*
X190016924Y-85299662D01*
X190000254Y-85327957D01*
X189986650Y-85343053D01*
X189970092Y-85348975D01*
X189944424Y-85350000D01*
X189931517Y-85349723D01*
X189908938Y-85347441D01*
X189900000Y-85343605D01*
X189902964Y-85336047D01*
X189914027Y-85315433D01*
X189930472Y-85287689D01*
X189960943Y-85238167D01*
X189935472Y-85214561D01*
X189930976Y-85210236D01*
X189917741Y-85192585D01*
X189911540Y-85169922D01*
X189910000Y-85134820D01*
X189910097Y-85127700D01*
X189992231Y-85127700D01*
X190001722Y-85149946D01*
X190022391Y-85163668D01*
X190031863Y-85165806D01*
X190065288Y-85169430D01*
X190100602Y-85169120D01*
X190130580Y-85165201D01*
X190148000Y-85158000D01*
X190149264Y-85156667D01*
X190159237Y-85133627D01*
X190156028Y-85108387D01*
X190140658Y-85090351D01*
X190130906Y-85086466D01*
X190099643Y-85081172D01*
X190062707Y-85080698D01*
X190028503Y-85084853D01*
X190005437Y-85093444D01*
X189995797Y-85104704D01*
X189992231Y-85127700D01*
X189910097Y-85127700D01*
X189910188Y-85121068D01*
X189914522Y-85080403D01*
X189926435Y-85050752D01*
X189948366Y-85030501D01*
X189982758Y-85018035D01*
X190032051Y-85011739D01*
X190098686Y-85010000D01*
X190135363Y-85010334D01*
X190176874Y-85011600D01*
X190208099Y-85013590D01*
X190224183Y-85016069D01*
X190229588Y-85020095D01*
X190234038Y-85030253D01*
X190237041Y-85049104D01*
X190238860Y-85079473D01*
X190239759Y-85124186D01*
X190239796Y-85133627D01*
X190240000Y-85186069D01*
X190240000Y-85350000D01*
G37*
G36*
X188410000Y-85350000D02*
G01*
X188330000Y-85350000D01*
X188330000Y-85255000D01*
X188329744Y-85230415D01*
X188328251Y-85194246D01*
X188325722Y-85169420D01*
X188322500Y-85160266D01*
X188321923Y-85160409D01*
X188311730Y-85169875D01*
X188294117Y-85191205D01*
X188272525Y-85220266D01*
X188264810Y-85230940D01*
X188237599Y-85263609D01*
X188214800Y-85278669D01*
X188193071Y-85276050D01*
X188169074Y-85255683D01*
X188139469Y-85217500D01*
X188095000Y-85155000D01*
X188089276Y-85350000D01*
X188000000Y-85350000D01*
X188000000Y-85020000D01*
X188095000Y-85020450D01*
X188147556Y-85100225D01*
X188161239Y-85120558D01*
X188183102Y-85151130D01*
X188199895Y-85172169D01*
X188208795Y-85180000D01*
X188212775Y-85177325D01*
X188226529Y-85161436D01*
X188246542Y-85134435D01*
X188270000Y-85100000D01*
X188279475Y-85085587D01*
X188301142Y-85053647D01*
X188316896Y-85034242D01*
X188330495Y-85024247D01*
X188345698Y-85020541D01*
X188366261Y-85020000D01*
X188410000Y-85020000D01*
X188410000Y-85350000D01*
G37*
G36*
X187840000Y-85350000D02*
G01*
X187840000Y-85260000D01*
X187755471Y-85260000D01*
X187743996Y-85259900D01*
X187702413Y-85257956D01*
X187667698Y-85254040D01*
X187646412Y-85248823D01*
X187625761Y-85234486D01*
X187603903Y-85202287D01*
X187592187Y-85161471D01*
X187591611Y-85135599D01*
X187680000Y-85135599D01*
X187680609Y-85149740D01*
X187687513Y-85169097D01*
X187705651Y-85180247D01*
X187732078Y-85186140D01*
X187767766Y-85188901D01*
X187802713Y-85188060D01*
X187827500Y-85183377D01*
X187830053Y-85181574D01*
X187837247Y-85164404D01*
X187840000Y-85135236D01*
X187839904Y-85126983D01*
X187836537Y-85102056D01*
X187825376Y-85087859D01*
X187802383Y-85081479D01*
X187763525Y-85080000D01*
X187732077Y-85081522D01*
X187701278Y-85089923D01*
X187684853Y-85107327D01*
X187680000Y-85135599D01*
X187591611Y-85135599D01*
X187591208Y-85117466D01*
X187601555Y-85075703D01*
X187623823Y-85041609D01*
X187626740Y-85038727D01*
X187639830Y-85027684D01*
X187654781Y-85020475D01*
X187676128Y-85016072D01*
X187708403Y-85013444D01*
X187756142Y-85011562D01*
X187787092Y-85010857D01*
X187833225Y-85010874D01*
X187871532Y-85012136D01*
X187895937Y-85014515D01*
X187930000Y-85020906D01*
X187930000Y-85350000D01*
X187840000Y-85350000D01*
G37*
G36*
X187110000Y-85089045D02*
G01*
X187047500Y-85092022D01*
X186985000Y-85095000D01*
X186982202Y-85222500D01*
X186979403Y-85350000D01*
X186890598Y-85350000D01*
X186885000Y-85095000D01*
X186822500Y-85092022D01*
X186760000Y-85089045D01*
X186760000Y-85020000D01*
X187110000Y-85020000D01*
X187110000Y-85089045D01*
G37*
G36*
X186700000Y-85350000D02*
G01*
X186620000Y-85350000D01*
X186620000Y-85020000D01*
X186700000Y-85020000D01*
X186700000Y-85350000D01*
G37*
G36*
X186280000Y-85120000D02*
G01*
X186280327Y-85149104D01*
X186281857Y-85185564D01*
X186284354Y-85210439D01*
X186287500Y-85219522D01*
X186287936Y-85219392D01*
X186297881Y-85210126D01*
X186317157Y-85188387D01*
X186343179Y-85157182D01*
X186373364Y-85119522D01*
X186378574Y-85112907D01*
X186409594Y-85073886D01*
X186431838Y-85047681D01*
X186448445Y-85031743D01*
X186462558Y-85023517D01*
X186477317Y-85020454D01*
X186495864Y-85020000D01*
X186540000Y-85020000D01*
X186540000Y-85350000D01*
X186460000Y-85350000D01*
X186460000Y-85255590D01*
X186459713Y-85232214D01*
X186457871Y-85194478D01*
X186454702Y-85167300D01*
X186450647Y-85155399D01*
X186449857Y-85155234D01*
X186438646Y-85162749D01*
X186418208Y-85182842D01*
X186391169Y-85212775D01*
X186360155Y-85249809D01*
X186352958Y-85258694D01*
X186321589Y-85297020D01*
X186299055Y-85322766D01*
X186282219Y-85338435D01*
X186267942Y-85346528D01*
X186253084Y-85349549D01*
X186234509Y-85350000D01*
X186190000Y-85350000D01*
X186190000Y-85020000D01*
X186280000Y-85020000D01*
X186280000Y-85120000D01*
G37*
G36*
X190828382Y-84400008D02*
G01*
X191010602Y-84400036D01*
X191174985Y-84400095D01*
X191322457Y-84400196D01*
X191453944Y-84400350D01*
X191570373Y-84400570D01*
X191672670Y-84400866D01*
X191761761Y-84401249D01*
X191838572Y-84401731D01*
X191904029Y-84402323D01*
X191959060Y-84403037D01*
X192004590Y-84403884D01*
X192041545Y-84404874D01*
X192070851Y-84406020D01*
X192093436Y-84407333D01*
X192110224Y-84408823D01*
X192122143Y-84410503D01*
X192130119Y-84412384D01*
X192135078Y-84414476D01*
X192137945Y-84416792D01*
X192139649Y-84419342D01*
X192145102Y-84431162D01*
X192149235Y-84459616D01*
X192140248Y-84494349D01*
X192130496Y-84520000D01*
X190562248Y-84520000D01*
X190367039Y-84519973D01*
X190166393Y-84519876D01*
X189984371Y-84519702D01*
X189820246Y-84519447D01*
X189673291Y-84519105D01*
X189542779Y-84518670D01*
X189427982Y-84518136D01*
X189328173Y-84517499D01*
X189242624Y-84516752D01*
X189170610Y-84515891D01*
X189111401Y-84514909D01*
X189064272Y-84513801D01*
X189028494Y-84512561D01*
X189003341Y-84511185D01*
X188988086Y-84509666D01*
X188982000Y-84507999D01*
X188976994Y-84499953D01*
X188971088Y-84474402D01*
X188970584Y-84443300D01*
X188976070Y-84415817D01*
X188976953Y-84414589D01*
X188980763Y-84412603D01*
X188988240Y-84410804D01*
X189000293Y-84409182D01*
X189017827Y-84407730D01*
X189041751Y-84406436D01*
X189072973Y-84405294D01*
X189112398Y-84404293D01*
X189160935Y-84403424D01*
X189219491Y-84402678D01*
X189288974Y-84402046D01*
X189370290Y-84401520D01*
X189464347Y-84401089D01*
X189572053Y-84400746D01*
X189694315Y-84400480D01*
X189832040Y-84400283D01*
X189986135Y-84400145D01*
X190157509Y-84400058D01*
X190347067Y-84400013D01*
X190555719Y-84400000D01*
X190627398Y-84400000D01*
X190828382Y-84400008D01*
G37*
G36*
X190530292Y-83393444D02*
G01*
X190508541Y-83443077D01*
X190473299Y-83479852D01*
X190423628Y-83505351D01*
X190399391Y-83511610D01*
X190352667Y-83517437D01*
X190299814Y-83519142D01*
X190248854Y-83516569D01*
X190207811Y-83509559D01*
X190203877Y-83508404D01*
X190158428Y-83486357D01*
X190119424Y-83452746D01*
X190093641Y-83413288D01*
X190087075Y-83388794D01*
X190081960Y-83351051D01*
X190080000Y-83310000D01*
X190080072Y-83307970D01*
X190190137Y-83307970D01*
X190190382Y-83321277D01*
X190195372Y-83361350D01*
X190208208Y-83387885D01*
X190230775Y-83405400D01*
X190239346Y-83409233D01*
X190275586Y-83417668D01*
X190317187Y-83419032D01*
X190357940Y-83413956D01*
X190391636Y-83403069D01*
X190412065Y-83387001D01*
X190415747Y-83373084D01*
X190418670Y-83344762D01*
X190419847Y-83309049D01*
X190419565Y-83291155D01*
X190414139Y-83250636D01*
X190399567Y-83224686D01*
X190372920Y-83209778D01*
X190331268Y-83202381D01*
X190301915Y-83200888D01*
X190252254Y-83207446D01*
X190217341Y-83227277D01*
X190196770Y-83260684D01*
X190190137Y-83307970D01*
X190080072Y-83307970D01*
X190081354Y-83271601D01*
X190090295Y-83219989D01*
X190108967Y-83180049D01*
X190138951Y-83147417D01*
X190142658Y-83144377D01*
X190185456Y-83119066D01*
X190238505Y-83104659D01*
X190305685Y-83100055D01*
X190362301Y-83103162D01*
X190427428Y-83118130D01*
X190477337Y-83145824D01*
X190512448Y-83186618D01*
X190533178Y-83240882D01*
X190539945Y-83308992D01*
X190539944Y-83309049D01*
X190539491Y-83329367D01*
X190530292Y-83393444D01*
G37*
G36*
X188427181Y-83104277D02*
G01*
X188457046Y-83109069D01*
X188460571Y-83110071D01*
X188509202Y-83132422D01*
X188549776Y-83166254D01*
X188576360Y-83206711D01*
X188583074Y-83232188D01*
X188588085Y-83270175D01*
X188590000Y-83311521D01*
X188588729Y-83345715D01*
X188577381Y-83405866D01*
X188553240Y-83452147D01*
X188515055Y-83486501D01*
X188461574Y-83510872D01*
X188441596Y-83514098D01*
X188406511Y-83515952D01*
X188362879Y-83516273D01*
X188316407Y-83515198D01*
X188272800Y-83512865D01*
X188237764Y-83509412D01*
X188217004Y-83504975D01*
X188207208Y-83497991D01*
X188201773Y-83481591D01*
X188202004Y-83451239D01*
X188202583Y-83439839D01*
X188203734Y-83423416D01*
X188207802Y-83413314D01*
X188218195Y-83408531D01*
X188238321Y-83408060D01*
X188271589Y-83410897D01*
X188321407Y-83416038D01*
X188354387Y-83418719D01*
X188402785Y-83418170D01*
X188436004Y-83408837D01*
X188456585Y-83388906D01*
X188467070Y-83356565D01*
X188470000Y-83310000D01*
X188469820Y-83294042D01*
X188466061Y-83254043D01*
X188455496Y-83228426D01*
X188435592Y-83213135D01*
X188403814Y-83204117D01*
X188391367Y-83202418D01*
X188346940Y-83201726D01*
X188291775Y-83206431D01*
X188231973Y-83216105D01*
X188200000Y-83222500D01*
X188200000Y-83177474D01*
X188200114Y-83170934D01*
X188204610Y-83139126D01*
X188214451Y-83120455D01*
X188225861Y-83115273D01*
X188255232Y-83109250D01*
X188295398Y-83104887D01*
X188341009Y-83102437D01*
X188386719Y-83102150D01*
X188427181Y-83104277D01*
G37*
G36*
X194550000Y-83210000D02*
G01*
X194400000Y-83210000D01*
X194400000Y-83510000D01*
X194290000Y-83510000D01*
X194290000Y-83210000D01*
X194140000Y-83210000D01*
X194140000Y-83110000D01*
X194550000Y-83110000D01*
X194550000Y-83210000D01*
G37*
G36*
X193697939Y-83187500D02*
G01*
X193700877Y-83260000D01*
X193889124Y-83260000D01*
X193895000Y-83115000D01*
X194005000Y-83115000D01*
X194007735Y-83299678D01*
X194008332Y-83356499D01*
X194008400Y-83409730D01*
X194007933Y-83453193D01*
X194006970Y-83483479D01*
X194005548Y-83497178D01*
X194002885Y-83500670D01*
X193982763Y-83507608D01*
X193945314Y-83510000D01*
X193890000Y-83510000D01*
X193890000Y-83360000D01*
X193700000Y-83360000D01*
X193700000Y-83510998D01*
X193585000Y-83505000D01*
X193585000Y-83115000D01*
X193695000Y-83115000D01*
X193697939Y-83187500D01*
G37*
G36*
X193437735Y-83299678D02*
G01*
X193438328Y-83356479D01*
X193438384Y-83409752D01*
X193437899Y-83453273D01*
X193436912Y-83483627D01*
X193435463Y-83497399D01*
X193432664Y-83500515D01*
X193420973Y-83504344D01*
X193398413Y-83506858D01*
X193362704Y-83508177D01*
X193311569Y-83508424D01*
X193242729Y-83507721D01*
X193055000Y-83505000D01*
X193055000Y-83415000D01*
X193187500Y-83412209D01*
X193320000Y-83409419D01*
X193320000Y-83360000D01*
X193108905Y-83360000D01*
X193111953Y-83312500D01*
X193115000Y-83265000D01*
X193217500Y-83262150D01*
X193241582Y-83261458D01*
X193279424Y-83259902D01*
X193302582Y-83257430D01*
X193314662Y-83253083D01*
X193319266Y-83245905D01*
X193320000Y-83234940D01*
X193320000Y-83210580D01*
X193055000Y-83205000D01*
X193055000Y-83115000D01*
X193435000Y-83115000D01*
X193437735Y-83299678D01*
G37*
G36*
X192575000Y-83505000D02*
G01*
X192569002Y-83390000D01*
X192465000Y-83390174D01*
X192426400Y-83450087D01*
X192387799Y-83510000D01*
X192333900Y-83510000D01*
X192332215Y-83509997D01*
X192301077Y-83508319D01*
X192284396Y-83501645D01*
X192281567Y-83487234D01*
X192291990Y-83462343D01*
X192315062Y-83424229D01*
X192327282Y-83404638D01*
X192339296Y-83382012D01*
X192341364Y-83369544D01*
X192334692Y-83363497D01*
X192321066Y-83353739D01*
X192303719Y-83326261D01*
X192291440Y-83287969D01*
X192286429Y-83244294D01*
X192287187Y-83236372D01*
X192400764Y-83236372D01*
X192403973Y-83261612D01*
X192419343Y-83279648D01*
X192435964Y-83284470D01*
X192467188Y-83288465D01*
X192504343Y-83290000D01*
X192570000Y-83290000D01*
X192570000Y-83200000D01*
X192497000Y-83200000D01*
X192460612Y-83201258D01*
X192428667Y-83205466D01*
X192412000Y-83212000D01*
X192410737Y-83213332D01*
X192400764Y-83236372D01*
X192287187Y-83236372D01*
X192290865Y-83197947D01*
X192306974Y-83160245D01*
X192335956Y-83132092D01*
X192378984Y-83112972D01*
X192437235Y-83102368D01*
X192511883Y-83099762D01*
X192604103Y-83104640D01*
X192690000Y-83111795D01*
X192690000Y-83510998D01*
X192575000Y-83505000D01*
G37*
G36*
X192137735Y-83299678D02*
G01*
X192138328Y-83356479D01*
X192138384Y-83409752D01*
X192137899Y-83453273D01*
X192136912Y-83483627D01*
X192135463Y-83497399D01*
X192132664Y-83500515D01*
X192120973Y-83504344D01*
X192098413Y-83506858D01*
X192062704Y-83508177D01*
X192011569Y-83508424D01*
X191942729Y-83507721D01*
X191755000Y-83505000D01*
X191755000Y-83415000D01*
X191887500Y-83412209D01*
X192020000Y-83409419D01*
X192020000Y-83360000D01*
X191808905Y-83360000D01*
X191811953Y-83312500D01*
X191815000Y-83265000D01*
X191917500Y-83262150D01*
X191941582Y-83261458D01*
X191979424Y-83259902D01*
X192002582Y-83257430D01*
X192014662Y-83253083D01*
X192019266Y-83245905D01*
X192020000Y-83234940D01*
X192020000Y-83210580D01*
X191755000Y-83205000D01*
X191755000Y-83115000D01*
X192135000Y-83115000D01*
X192137735Y-83299678D01*
G37*
G36*
X191631096Y-83210000D02*
G01*
X191480000Y-83210000D01*
X191480000Y-83510998D01*
X191365000Y-83505000D01*
X191359466Y-83210000D01*
X191208905Y-83210000D01*
X191211953Y-83162500D01*
X191215000Y-83115000D01*
X191625000Y-83115000D01*
X191631096Y-83210000D01*
G37*
G36*
X190970000Y-83510000D02*
G01*
X190970000Y-83390000D01*
X190855000Y-83390904D01*
X190780636Y-83510000D01*
X190725318Y-83510000D01*
X190724833Y-83509999D01*
X190692880Y-83508767D01*
X190675623Y-83503119D01*
X190672275Y-83490077D01*
X190682049Y-83466662D01*
X190704159Y-83429898D01*
X190738317Y-83375723D01*
X190709159Y-83342513D01*
X190697170Y-83327846D01*
X190686113Y-83307671D01*
X190681149Y-83282723D01*
X190680000Y-83245419D01*
X190680095Y-83237523D01*
X190791098Y-83237523D01*
X190793502Y-83261633D01*
X190809343Y-83279648D01*
X190826132Y-83284495D01*
X190857428Y-83288473D01*
X190894657Y-83290000D01*
X190912155Y-83289833D01*
X190945035Y-83286984D01*
X190962959Y-83278454D01*
X190969505Y-83261492D01*
X190968246Y-83233344D01*
X190967409Y-83226715D01*
X190963633Y-83214298D01*
X190953865Y-83207427D01*
X190933439Y-83204033D01*
X190897689Y-83202047D01*
X190863014Y-83201960D01*
X190830337Y-83204748D01*
X190810189Y-83209899D01*
X190802028Y-83215937D01*
X190791098Y-83237523D01*
X190680095Y-83237523D01*
X190680229Y-83226371D01*
X190683110Y-83194542D01*
X190690910Y-83171908D01*
X190705643Y-83151059D01*
X190708084Y-83148293D01*
X190736448Y-83125330D01*
X190768143Y-83110348D01*
X190794218Y-83105448D01*
X190841050Y-83101520D01*
X190897770Y-83100314D01*
X190958794Y-83101920D01*
X191018534Y-83106424D01*
X191080000Y-83112849D01*
X191080000Y-83510000D01*
X190970000Y-83510000D01*
G37*
G36*
X189397939Y-83187500D02*
G01*
X189400877Y-83260000D01*
X189589124Y-83260000D01*
X189595000Y-83115000D01*
X189705000Y-83115000D01*
X189707735Y-83299678D01*
X189708332Y-83356499D01*
X189708400Y-83409730D01*
X189707933Y-83453193D01*
X189706970Y-83483479D01*
X189705548Y-83497178D01*
X189702885Y-83500670D01*
X189682763Y-83507608D01*
X189645314Y-83510000D01*
X189590000Y-83510000D01*
X189590000Y-83360000D01*
X189400000Y-83360000D01*
X189400000Y-83510998D01*
X189285000Y-83505000D01*
X189285000Y-83115000D01*
X189395000Y-83115000D01*
X189397939Y-83187500D01*
G37*
G36*
X189125964Y-83424002D02*
G01*
X189142149Y-83462992D01*
X189152025Y-83489578D01*
X189154414Y-83500948D01*
X189150199Y-83503808D01*
X189130368Y-83508249D01*
X189101262Y-83510000D01*
X189084930Y-83509794D01*
X189062368Y-83506595D01*
X189048851Y-83496334D01*
X189037014Y-83475000D01*
X189020324Y-83440000D01*
X188829677Y-83440000D01*
X188812772Y-83475450D01*
X188804061Y-83492504D01*
X188792905Y-83504838D01*
X188775672Y-83508872D01*
X188745433Y-83507950D01*
X188739905Y-83507606D01*
X188712215Y-83504370D01*
X188699634Y-83498325D01*
X188697904Y-83487650D01*
X188698035Y-83487023D01*
X188703796Y-83471308D01*
X188716641Y-83440919D01*
X188735205Y-83398951D01*
X188758121Y-83348497D01*
X188764681Y-83334353D01*
X188880000Y-83334353D01*
X188882058Y-83336038D01*
X188898154Y-83338877D01*
X188925000Y-83340000D01*
X188939462Y-83339753D01*
X188960545Y-83336287D01*
X188968002Y-83326010D01*
X188962890Y-83305507D01*
X188946267Y-83271367D01*
X188923438Y-83227734D01*
X188901719Y-83278220D01*
X188893039Y-83298871D01*
X188883648Y-83322751D01*
X188880000Y-83334353D01*
X188764681Y-83334353D01*
X188784023Y-83292650D01*
X188867238Y-83115000D01*
X188983260Y-83115000D01*
X189071634Y-83303448D01*
X189079381Y-83320048D01*
X189082102Y-83326010D01*
X189104649Y-83375417D01*
X189125964Y-83424002D01*
G37*
G36*
X188070000Y-83510998D02*
G01*
X187955000Y-83505000D01*
X187949124Y-83360000D01*
X187920205Y-83360000D01*
X187916182Y-83360134D01*
X187900242Y-83364264D01*
X187882817Y-83376246D01*
X187860530Y-83398888D01*
X187830000Y-83435000D01*
X187768716Y-83510000D01*
X187714358Y-83510000D01*
X187684599Y-83508918D01*
X187665579Y-83504419D01*
X187660000Y-83495569D01*
X187660562Y-83492274D01*
X187667035Y-83479329D01*
X187681760Y-83458059D01*
X187705999Y-83426811D01*
X187741013Y-83383933D01*
X187788064Y-83327770D01*
X187789490Y-83326002D01*
X187793670Y-83317000D01*
X187791600Y-83305502D01*
X187781534Y-83288386D01*
X187761721Y-83262528D01*
X187730413Y-83224806D01*
X187710534Y-83200553D01*
X187683755Y-83164843D01*
X187667640Y-83138698D01*
X187663795Y-83124536D01*
X187666122Y-83120740D01*
X187684020Y-83112602D01*
X187719375Y-83110000D01*
X187729985Y-83110033D01*
X187750306Y-83111334D01*
X187766406Y-83116645D01*
X187782543Y-83128801D01*
X187802977Y-83150641D01*
X187831966Y-83185000D01*
X187833529Y-83186871D01*
X187864832Y-83222835D01*
X187887870Y-83245247D01*
X187905815Y-83256752D01*
X187921840Y-83260000D01*
X187931144Y-83259793D01*
X187941557Y-83256709D01*
X187947324Y-83246488D01*
X187950231Y-83224846D01*
X187952062Y-83187500D01*
X187955000Y-83115000D01*
X188012500Y-83112000D01*
X188070000Y-83109001D01*
X188070000Y-83510998D01*
G37*
G36*
X187527735Y-83299678D02*
G01*
X187528328Y-83356479D01*
X187528384Y-83409752D01*
X187527899Y-83453273D01*
X187526912Y-83483627D01*
X187525463Y-83497399D01*
X187522664Y-83500515D01*
X187510973Y-83504344D01*
X187488413Y-83506858D01*
X187452704Y-83508177D01*
X187401569Y-83508424D01*
X187332729Y-83507721D01*
X187145000Y-83505000D01*
X187145000Y-83415000D01*
X187277500Y-83412209D01*
X187410000Y-83409419D01*
X187410000Y-83360000D01*
X187198905Y-83360000D01*
X187201953Y-83312500D01*
X187205000Y-83265000D01*
X187307500Y-83262150D01*
X187331582Y-83261458D01*
X187369424Y-83259902D01*
X187392582Y-83257430D01*
X187404662Y-83253083D01*
X187409266Y-83245905D01*
X187410000Y-83234940D01*
X187410000Y-83210580D01*
X187145000Y-83205000D01*
X187145000Y-83115000D01*
X187525000Y-83115000D01*
X187527735Y-83299678D01*
G37*
G36*
X187010434Y-83372191D02*
G01*
X187009854Y-83421253D01*
X187008507Y-83462006D01*
X187006348Y-83490637D01*
X187003334Y-83503333D01*
X186996778Y-83505866D01*
X186974455Y-83508840D01*
X186943334Y-83510000D01*
X186890000Y-83510000D01*
X186890000Y-83390000D01*
X186782202Y-83390000D01*
X186743601Y-83449912D01*
X186705000Y-83509825D01*
X186652500Y-83509912D01*
X186624934Y-83508771D01*
X186605640Y-83502717D01*
X186600642Y-83488966D01*
X186609216Y-83464781D01*
X186630635Y-83427425D01*
X186661269Y-83377638D01*
X186641301Y-83356319D01*
X186623320Y-83332351D01*
X186604311Y-83283232D01*
X186602054Y-83244120D01*
X186720000Y-83244120D01*
X186723487Y-83268943D01*
X186735818Y-83283930D01*
X186753189Y-83286970D01*
X186783980Y-83289163D01*
X186821393Y-83290000D01*
X186891150Y-83290000D01*
X186885000Y-83205000D01*
X186825417Y-83201938D01*
X186789580Y-83200689D01*
X186754226Y-83202405D01*
X186733028Y-83209342D01*
X186722711Y-83222810D01*
X186720000Y-83244120D01*
X186602054Y-83244120D01*
X186601169Y-83228789D01*
X186614663Y-83174265D01*
X186621517Y-83160494D01*
X186642290Y-83137418D01*
X186676640Y-83118244D01*
X186687711Y-83113537D01*
X186708504Y-83106464D01*
X186731195Y-83102209D01*
X186760298Y-83100372D01*
X186800332Y-83100551D01*
X186855811Y-83102346D01*
X186865128Y-83102717D01*
X186914149Y-83105217D01*
X186955516Y-83108206D01*
X186985115Y-83111341D01*
X186998834Y-83114278D01*
X187000278Y-83116923D01*
X187003374Y-83135744D01*
X187005967Y-83169139D01*
X187008014Y-83213296D01*
X187009470Y-83264399D01*
X187009858Y-83290000D01*
X187010292Y-83318636D01*
X187010434Y-83372191D01*
G37*
G36*
X194273820Y-78880859D02*
G01*
X194274449Y-78999205D01*
X194274973Y-79132011D01*
X194275426Y-79280386D01*
X194275846Y-79445437D01*
X194276266Y-79628272D01*
X194276723Y-79830000D01*
X194276950Y-79926857D01*
X194277379Y-80102851D01*
X194277826Y-80277356D01*
X194278286Y-80448831D01*
X194278754Y-80615733D01*
X194279226Y-80776518D01*
X194279695Y-80929645D01*
X194280159Y-81073570D01*
X194280610Y-81206752D01*
X194281046Y-81327646D01*
X194281460Y-81434711D01*
X194281848Y-81526405D01*
X194282205Y-81601183D01*
X194282526Y-81657504D01*
X194285000Y-82040009D01*
X190567064Y-82040004D01*
X186849128Y-82040000D01*
X186852620Y-80262500D01*
X186853025Y-80052443D01*
X186853430Y-79841950D01*
X186853829Y-79649577D01*
X186854254Y-79474344D01*
X186854736Y-79315271D01*
X186855307Y-79171378D01*
X186855998Y-79041685D01*
X186856842Y-78925211D01*
X186857869Y-78820978D01*
X186859112Y-78728004D01*
X186860603Y-78645309D01*
X186862372Y-78571915D01*
X186864452Y-78506839D01*
X186866874Y-78449104D01*
X186869671Y-78397727D01*
X186872873Y-78351731D01*
X186876512Y-78310133D01*
X186880621Y-78271955D01*
X186885230Y-78236216D01*
X186890372Y-78201937D01*
X186896077Y-78168136D01*
X186902379Y-78133835D01*
X186907247Y-78108695D01*
X188150000Y-78108695D01*
X188150190Y-78109404D01*
X188161550Y-78116261D01*
X188186989Y-78125035D01*
X188221649Y-78134010D01*
X188268482Y-78146483D01*
X188369287Y-78187406D01*
X188459845Y-78244093D01*
X188538658Y-78314788D01*
X188604226Y-78397732D01*
X188655050Y-78491169D01*
X188689633Y-78593340D01*
X188706474Y-78702489D01*
X188706305Y-78781565D01*
X188689722Y-78884830D01*
X188655794Y-78983187D01*
X188606023Y-79074449D01*
X188541912Y-79156432D01*
X188464963Y-79226951D01*
X188376677Y-79283821D01*
X188278558Y-79324857D01*
X188268376Y-79328013D01*
X188228738Y-79339203D01*
X188195321Y-79347044D01*
X188174484Y-79350000D01*
X188158702Y-79352776D01*
X188151493Y-79363073D01*
X188154000Y-79383247D01*
X188166537Y-79415646D01*
X188189415Y-79462623D01*
X188227425Y-79532515D01*
X188265729Y-79591867D01*
X188308258Y-79645603D01*
X188359946Y-79700609D01*
X188451423Y-79780522D01*
X188560749Y-79852831D01*
X188678207Y-79909418D01*
X188800000Y-79948147D01*
X188859110Y-79959842D01*
X188958271Y-79970974D01*
X189059153Y-79973166D01*
X189155235Y-79966380D01*
X189240000Y-79950582D01*
X189266201Y-79943290D01*
X189396133Y-79895252D01*
X189515344Y-79830768D01*
X189622869Y-79750772D01*
X189717744Y-79656201D01*
X189799004Y-79547989D01*
X189865686Y-79427072D01*
X189892686Y-79357014D01*
X191240000Y-79357014D01*
X191242543Y-79366305D01*
X191252861Y-79390744D01*
X191268992Y-79424719D01*
X191288638Y-79463699D01*
X191309500Y-79503154D01*
X191329281Y-79538553D01*
X191345682Y-79565367D01*
X191382852Y-79616968D01*
X191469254Y-79712605D01*
X191568989Y-79795967D01*
X191679238Y-79865149D01*
X191797181Y-79918246D01*
X191920000Y-79953354D01*
X191952858Y-79959580D01*
X192090206Y-79974133D01*
X192223512Y-79969197D01*
X192353385Y-79944717D01*
X192480436Y-79900634D01*
X192561729Y-79861406D01*
X192675937Y-79788740D01*
X192776568Y-79701741D01*
X192863029Y-79601137D01*
X192934725Y-79487660D01*
X192991060Y-79362038D01*
X193031441Y-79225000D01*
X193034424Y-79208304D01*
X193037506Y-79180006D01*
X193039988Y-79141582D01*
X193041915Y-79091388D01*
X193043334Y-79027778D01*
X193044290Y-78949107D01*
X193044831Y-78853729D01*
X193045000Y-78740000D01*
X193044977Y-78680708D01*
X193044775Y-78583936D01*
X193044306Y-78503893D01*
X193043495Y-78438444D01*
X193042267Y-78385458D01*
X193040547Y-78342803D01*
X193038262Y-78308345D01*
X193035336Y-78279952D01*
X193031694Y-78255492D01*
X193027263Y-78232832D01*
X193000705Y-78136410D01*
X192949940Y-78015281D01*
X192882774Y-77902878D01*
X192800751Y-77800820D01*
X192705418Y-77710725D01*
X192598318Y-77634214D01*
X192480997Y-77572906D01*
X192355000Y-77528418D01*
X192354066Y-77528163D01*
X192316908Y-77519095D01*
X192279974Y-77512808D01*
X192238213Y-77508815D01*
X192186572Y-77506628D01*
X192120000Y-77505761D01*
X192115324Y-77505741D01*
X192041809Y-77506379D01*
X191982048Y-77509639D01*
X191930184Y-77516577D01*
X191880357Y-77528248D01*
X191826709Y-77545708D01*
X191763381Y-77570011D01*
X191675408Y-77612031D01*
X191572813Y-77678558D01*
X191477605Y-77759282D01*
X191392914Y-77851133D01*
X191321871Y-77951045D01*
X191267605Y-78055949D01*
X191241917Y-78116898D01*
X191315285Y-78132819D01*
X191370115Y-78147448D01*
X191469614Y-78188994D01*
X191559970Y-78246647D01*
X191639233Y-78318491D01*
X191705450Y-78402608D01*
X191756669Y-78497084D01*
X191790941Y-78600000D01*
X191800889Y-78656143D01*
X191803827Y-78740000D01*
X191804430Y-78757222D01*
X191791506Y-78860044D01*
X191762882Y-78959794D01*
X191719322Y-79051655D01*
X191699708Y-79082508D01*
X191635520Y-79160759D01*
X191558353Y-79228710D01*
X191471767Y-79283945D01*
X191379321Y-79324049D01*
X191284575Y-79346608D01*
X191271364Y-79348613D01*
X191248888Y-79353229D01*
X191240000Y-79357014D01*
X189892686Y-79357014D01*
X189916824Y-79294383D01*
X189944652Y-79205000D01*
X189944682Y-78740000D01*
X189944676Y-78671105D01*
X189944503Y-78564747D01*
X189943894Y-78475034D01*
X189942582Y-78399832D01*
X189940299Y-78337003D01*
X189936778Y-78284411D01*
X189931753Y-78239920D01*
X189924954Y-78201394D01*
X189916116Y-78166696D01*
X189904971Y-78133691D01*
X189891252Y-78100241D01*
X189874690Y-78064212D01*
X189855020Y-78023465D01*
X189805236Y-77933721D01*
X189725617Y-77825307D01*
X189631623Y-77730235D01*
X189524211Y-77649312D01*
X189404339Y-77583345D01*
X189272966Y-77533141D01*
X189264203Y-77530467D01*
X189230685Y-77520942D01*
X189200520Y-77514268D01*
X189169040Y-77509946D01*
X189131573Y-77507477D01*
X189083450Y-77506362D01*
X189020000Y-77506101D01*
X189003886Y-77506111D01*
X188944345Y-77506524D01*
X188899064Y-77507907D01*
X188863375Y-77510757D01*
X188832611Y-77515573D01*
X188802103Y-77522854D01*
X188767182Y-77533099D01*
X188666818Y-77569480D01*
X188543560Y-77631729D01*
X188432686Y-77709327D01*
X188334863Y-77801789D01*
X188250762Y-77908627D01*
X188230956Y-77939949D01*
X188208053Y-77980010D01*
X188186166Y-78021562D01*
X188167634Y-78059958D01*
X188154799Y-78090551D01*
X188150000Y-78108695D01*
X186907247Y-78108695D01*
X186909308Y-78098053D01*
X186916896Y-78059810D01*
X186925175Y-78018126D01*
X186950765Y-77898752D01*
X187020736Y-77639002D01*
X187108651Y-77386129D01*
X187213941Y-77141278D01*
X187336035Y-76905594D01*
X187474363Y-76680223D01*
X187628356Y-76466309D01*
X187797443Y-76265000D01*
X187900241Y-76155294D01*
X188089855Y-75971749D01*
X188286175Y-75805825D01*
X188491024Y-75656234D01*
X188706228Y-75521686D01*
X188933612Y-75400894D01*
X189175000Y-75292569D01*
X189386879Y-75213447D01*
X189637242Y-75139354D01*
X189893633Y-75083264D01*
X190154380Y-75045294D01*
X190417813Y-75025563D01*
X190682263Y-75024186D01*
X190946057Y-75041284D01*
X191207527Y-75076971D01*
X191465000Y-75131367D01*
X191715528Y-75203755D01*
X191967855Y-75296731D01*
X192213866Y-75407872D01*
X192451936Y-75536371D01*
X192680438Y-75681421D01*
X192897747Y-75842216D01*
X192913955Y-75855314D01*
X192988272Y-75918880D01*
X193070050Y-75993597D01*
X193155482Y-76075662D01*
X193240757Y-76161269D01*
X193322067Y-76246616D01*
X193395602Y-76327896D01*
X193457554Y-76401308D01*
X193585962Y-76570368D01*
X193735938Y-76796483D01*
X193868843Y-77031937D01*
X193984166Y-77275621D01*
X194081392Y-77526431D01*
X194160009Y-77783259D01*
X194219505Y-78045000D01*
X194220439Y-78049943D01*
X194227584Y-78087590D01*
X194234056Y-78121971D01*
X194239890Y-78154195D01*
X194245121Y-78185369D01*
X194249786Y-78216602D01*
X194253918Y-78249001D01*
X194257555Y-78283674D01*
X194260731Y-78321728D01*
X194263482Y-78364273D01*
X194265843Y-78412415D01*
X194267850Y-78467263D01*
X194269539Y-78529924D01*
X194270945Y-78601506D01*
X194272104Y-78683117D01*
X194272684Y-78740000D01*
X194273050Y-78775866D01*
X194273820Y-78880859D01*
G37*
D11*
%TO.C,U$4*%
X121795000Y-72920000D02*
G75*
G03*
X121795000Y-72920000I-635000J0D01*
G01*
%TO.C,U$5*%
X139515000Y-72920000D02*
G75*
G03*
X139515000Y-72920000I-635000J0D01*
G01*
%TD*%
M02*
