%TF.GenerationSoftware,KiCad,Pcbnew,(6.0.5)*%
%TF.CreationDate,2022-11-15T11:28:17-03:00*%
%TF.ProjectId,MSX OPL4 Wozblaster,4d535820-4f50-44c3-9420-576f7a626c61,rev?*%
%TF.SameCoordinates,Original*%
%TF.FileFunction,Paste,Bot*%
%TF.FilePolarity,Positive*%
%FSLAX46Y46*%
G04 Gerber Fmt 4.6, Leading zero omitted, Abs format (unit mm)*
G04 Created by KiCad (PCBNEW (6.0.5)) date 2022-11-15 11:28:17*
%MOMM*%
%LPD*%
G01*
G04 APERTURE LIST*
%ADD10R,2.200000X0.600000*%
G04 APERTURE END LIST*
D10*
%TO.C,U$4*%
X123766000Y-73555000D03*
X123766000Y-87525000D03*
X123766000Y-72285000D03*
X123766000Y-74825000D03*
X123766000Y-76095000D03*
X123766000Y-88795000D03*
X123766000Y-86255000D03*
X123766000Y-84985000D03*
X123766000Y-78635000D03*
X123766000Y-82445000D03*
X123766000Y-77365000D03*
X123766000Y-79905000D03*
X123766000Y-83715000D03*
X123766000Y-81175000D03*
X123766000Y-90065000D03*
X123766000Y-91335000D03*
X110934000Y-91335000D03*
X110934000Y-90065000D03*
X110934000Y-88795000D03*
X110934000Y-87525000D03*
X110934000Y-86255000D03*
X110934000Y-84985000D03*
X110934000Y-83715000D03*
X110934000Y-82445000D03*
X110934000Y-81175000D03*
X110934000Y-79905000D03*
X110934000Y-78635000D03*
X110934000Y-77365000D03*
X110934000Y-76095000D03*
X110934000Y-74825000D03*
X110934000Y-73555000D03*
X110934000Y-72285000D03*
%TD*%
%TO.C,U$5*%
X141486000Y-73555000D03*
X141486000Y-87525000D03*
X141486000Y-72285000D03*
X141486000Y-74825000D03*
X141486000Y-76095000D03*
X141486000Y-88795000D03*
X141486000Y-86255000D03*
X141486000Y-84985000D03*
X141486000Y-78635000D03*
X141486000Y-82445000D03*
X141486000Y-77365000D03*
X141486000Y-79905000D03*
X141486000Y-83715000D03*
X141486000Y-81175000D03*
X141486000Y-90065000D03*
X141486000Y-91335000D03*
X128654000Y-91335000D03*
X128654000Y-90065000D03*
X128654000Y-88795000D03*
X128654000Y-87525000D03*
X128654000Y-86255000D03*
X128654000Y-84985000D03*
X128654000Y-83715000D03*
X128654000Y-82445000D03*
X128654000Y-81175000D03*
X128654000Y-79905000D03*
X128654000Y-78635000D03*
X128654000Y-77365000D03*
X128654000Y-76095000D03*
X128654000Y-74825000D03*
X128654000Y-73555000D03*
X128654000Y-72285000D03*
%TD*%
M02*
